<svg width="73" height="72" viewBox="0 0 73 72" fill="none" xmlns="http://www.w3.org/2000/svg">
<path fill-rule="evenodd" clip-rule="evenodd" d="M36.5 64C51.964 64 64.5 51.464 64.5 36C64.5 20.536 51.964 8 36.5 8C21.036 8 8.5 20.536 8.5 36C8.5 51.464 21.036 64 36.5 64ZM34.1 22.4C34.1 21.0745 35.1746 20 36.5 20C37.8255 20 38.9 21.0745 38.9 22.4V33.6H50.1C51.4255 33.6 52.5 34.6745 52.5 36C52.5 37.3254 51.4255 38.4 50.1 38.4H38.9V49.6C38.9 50.9255 37.8255 52 36.5 52C35.1746 52 34.1 50.9255 34.1 49.6V38.4H22.9C21.5745 38.4 20.5 37.3254 20.5 36C20.5 34.6745 21.5745 33.6 22.9 33.6H34.1V22.4Z" fill="#3F4549"/>
</svg>
