<svg width="72" height="72" viewBox="0 0 72 72" fill="none" xmlns="http://www.w3.org/2000/svg">
<path fill-rule="evenodd" clip-rule="evenodd" d="M36 64C51.464 64 64 51.464 64 36C64 20.536 51.464 8 36 8C20.536 8 8 20.536 8 36C8 51.464 20.536 64 36 64ZM33.6 22.4C33.6 21.0745 34.6746 20 36 20C37.3255 20 38.4 21.0745 38.4 22.4V33.6H49.6C50.9255 33.6 52 34.6745 52 36C52 37.3254 50.9255 38.4 49.6 38.4H38.4V49.6C38.4 50.9255 37.3255 52 36 52C34.6746 52 33.6 50.9255 33.6 49.6V38.4H22.4C21.0745 38.4 20 37.3254 20 36C20 34.6745 21.0745 33.6 22.4 33.6H33.6V22.4Z" fill="#4A4A4A"/>
</svg>
