<svg width="73" height="72" viewBox="0 0 73 72" fill="none" xmlns="http://www.w3.org/2000/svg">
<path d="M40.06 32.5614H61.0614C62.9605 32.5614 64.5 34.1009 64.5 36C64.5 37.8991 62.9605 39.4386 61.0614 39.4386H40.06V60.5614C40.06 62.4605 38.3991 64 36.5 64C34.6009 64 33.0614 62.4605 33.0614 60.5614V39.4386H11.9386C10.0395 39.4386 8.5 37.8991 8.5 36C8.5 34.1009 10.0395 32.5614 11.9386 32.5614H33.0614V11.4386C33.0614 9.53951 34.6009 8 36.5 8C38.3991 8 40.06 9.53951 40.06 11.4386V32.5614Z" fill="#3F4549"/>
</svg>
