<svg width="72" height="72" viewBox="0 0 72 72" fill="none" xmlns="http://www.w3.org/2000/svg">
<path d="M39.4386 32.5614H60.5614C62.4605 32.5614 64 34.1009 64 36C64 37.8991 62.4605 39.4386 60.5614 39.4386H39.4386V60.5614C39.4386 62.4605 37.8991 64 36 64C34.1009 64 32.5614 62.4605 32.5614 60.5614V39.4386H11.4386C9.53951 39.4386 8 37.8991 8 36C8 34.1009 9.53951 32.5614 11.4386 32.5614H32.5614V11.4386C32.5614 9.53951 34.1009 8 36 8C37.8991 8 39.4386 9.53951 39.4386 11.4386V32.5614Z" fill="#4A4A4A"/>
</svg>
