<?xml version="1.0" encoding="UTF-8"?>
<svg width="30px" height="30px" viewBox="0 0 30 30" version="1.1" xmlns="http://www.w3.org/2000/svg" xmlns:xlink="http://www.w3.org/1999/xlink">
    <!-- Generator: sketchtool 63.1 (101010) - https://sketch.com -->
    <title>Elements/Icons/Add1</title>
    <desc>Created with sketchtool.</desc>
    <g id="Icons" stroke="none" stroke-width="1" fill="none" fill-rule="evenodd">
        <g transform="translate(-540.000000, -190.000000)" id="Elements/Icons/Add1">
            <g transform="translate(520.000000, 170.000000)">
                <g id="Rectangle">
                    <polygon points="0 0 70 0 70 70 0 70"></polygon>
                </g>
                <path d="M36.8421053,33.1578947 L48.1578947,33.1578947 C49.1752614,33.1578947 50,33.9826334 50,35 C50,36.0173666 49.1752614,36.8421053 48.1578947,36.8421053 L36.8421053,36.8421053 L36.8421053,48.1578947 C36.8421053,49.1752614 36.0173666,50 35,50 C33.9826334,50 33.1578947,49.1752614 33.1578947,48.1578947 L33.1578947,36.8421053 L21.8421053,36.8421053 C20.8247386,36.8421053 20,36.0173666 20,35 C20,33.9826334 20.8247386,33.1578947 21.8421053,33.1578947 L33.1578947,33.1578947 L33.1578947,21.8421053 C33.1578947,20.8247386 33.9826334,20 35,20 C36.0173666,20 36.8421053,20.8247386 36.8421053,21.8421053 L36.8421053,33.1578947 Z" id="Path" fill="#4A4A4A" fill-rule="nonzero"></path>
            </g>
        </g>
    </g>
</svg>