<svg width="72" height="72" viewBox="0 0 72 72" fill="none" xmlns="http://www.w3.org/2000/svg">
<path fill-rule="evenodd" clip-rule="evenodd" d="M36 64C37.6569 64 39 62.6569 39 61L39 17.7361L53.9931 33.2299C55.2246 34.3382 57.1215 34.2384 58.2299 33.0069C59.3383 31.7753 59.2384 29.8785 58.0069 28.7701L38.0105 8.77336C37.9771 8.74317 37.943 8.71373 37.9083 8.68505C37.7925 8.5895 37.6694 8.50246 37.54 8.4249C37.1312 8.17991 36.6593 8.0295 36.1544 8.0039C36.1033 8.00131 36.0518 8 36 8C35.9462 8 35.8927 8.00142 35.8395 8.00422C35.2794 8.03374 34.76 8.21691 34.3227 8.51235C34.2068 8.59063 34.0967 8.67681 33.9931 8.77009L13.9931 28.7701C12.7616 29.8785 12.6617 31.7753 13.7701 33.0069C14.8785 34.2384 16.7754 34.3382 18.0069 33.2299L33 17.7361L33 61C33 62.6569 34.3432 64 36 64Z" fill="#4A4A4A"/>
</svg>
