<svg width="73" height="72" viewBox="0 0 73 72" fill="none" xmlns="http://www.w3.org/2000/svg">
<path fill-rule="evenodd" clip-rule="evenodd" d="M8.5 36C8.5 37.6568 9.84314 39 11.5 39H54.7639L39.2701 53.9931C38.1618 55.2246 38.2616 57.1215 39.4931 58.2299C40.7247 59.3382 42.6215 59.2384 43.7299 58.0069L63.7266 38.0105C63.7568 37.9771 63.7863 37.943 63.8149 37.9083C63.9105 37.7925 63.9975 37.6694 64.0751 37.54C64.3201 37.1312 64.4705 36.6592 64.4961 36.1544C64.4987 36.1032 64.5 36.0518 64.5 36C64.5 35.9461 64.4986 35.8926 64.4958 35.8395C64.4663 35.2794 64.2831 34.76 63.9876 34.3226C63.9094 34.2068 63.8232 34.0967 63.7299 33.9931L43.7299 13.9931C42.6215 12.7616 40.7247 12.6617 39.4931 13.7701C38.2616 14.8785 38.1618 16.7753 39.2701 18.0069L54.7639 33H11.5C9.84315 33 8.5 34.3431 8.5 36Z" fill="#3F4549"/>
</svg>
