<svg width="72" height="72" viewBox="0 0 72 72" fill="none" xmlns="http://www.w3.org/2000/svg">
<path fill-rule="evenodd" clip-rule="evenodd" d="M64 36C64 34.3432 62.6569 33 61 33H17.7361L33.2299 18.0069C34.3382 16.7754 34.2384 14.8785 33.0069 13.7701C31.7753 12.6618 29.8785 12.7616 28.7701 13.9931L8.77336 33.9895C8.74317 34.0229 8.71373 34.057 8.68505 34.0917C8.5895 34.2075 8.50246 34.3306 8.4249 34.46C8.17991 34.8688 8.0295 35.3408 8.0039 35.8456C8.00131 35.8968 8 35.9482 8 36C8 36.0539 8.00142 36.1074 8.00422 36.1605C8.03374 36.7206 8.21691 37.24 8.51235 37.6774C8.59063 37.7932 8.67681 37.9033 8.77009 38.0069L28.7701 58.0069C29.8785 59.2384 31.7753 59.3383 33.0069 58.2299C34.2384 57.1215 34.3382 55.2247 33.2299 53.9931L17.7361 39H61C62.6569 39 64 37.6569 64 36Z" fill="#3F4549"/>
</svg>
