<svg width="72" height="72" viewBox="0 0 72 72" fill="none" xmlns="http://www.w3.org/2000/svg">
<path d="M7.136 36.7114C7.30321 37.1328 7.70894 37.497 8.5204 38.2254L27.1146 54.9158C28.6094 56.2575 29.3568 56.9284 29.9863 56.9906C30.6652 57.0577 31.3291 56.7618 31.7328 56.2121C32.1071 55.7024 32.1071 54.6984 32.1071 52.6904V47.8248C35.1984 46.427 38.6302 45.6488 42.2438 45.6488C50.9179 45.6488 58.5442 50.1325 62.9291 56.9076C62.9761 56.2162 63 55.5185 63 54.8152C63 38.0292 49.3849 24.4214 32.5898 24.4214C32.4286 24.4214 32.2677 24.4227 32.1071 24.4252V19.3096C32.1071 17.3016 32.1071 16.2976 31.7328 15.7879C31.3291 15.2382 30.6652 14.9423 29.9863 15.0094C29.3568 15.0716 28.6094 15.7425 27.1146 17.0842L8.5204 33.7746C7.70894 34.503 7.30321 34.8672 7.136 35.2886C6.95467 35.7455 6.95467 36.2545 7.136 36.7114Z" fill="#3F4549"/>
</svg>
