<svg width="73" height="72" viewBox="0 0 73 72" fill="none" xmlns="http://www.w3.org/2000/svg">
<path fill-rule="evenodd" clip-rule="evenodd" d="M36.5 8C34.8431 8 33.5 9.34314 33.5 11V54.2639L18.5069 38.7701C17.2754 37.6618 15.3785 37.7616 14.2701 38.9931C13.1617 40.2247 13.2616 42.1215 14.4931 43.2299L34.4895 63.2266C34.5229 63.2568 34.557 63.2863 34.5917 63.3149C34.7075 63.4105 34.8306 63.4975 34.96 63.5751C35.3688 63.8201 35.8407 63.9705 36.3456 63.9961C36.3967 63.9987 36.4482 64 36.5 64C36.5538 64 36.6073 63.9986 36.6605 63.9958C37.2206 63.9663 37.74 63.7831 38.1773 63.4876C38.2932 63.4094 38.4033 63.3232 38.5069 63.2299L58.5069 43.2299C59.7384 42.1215 59.8383 40.2247 58.7299 38.9931C57.6215 37.7616 55.7246 37.6618 54.4931 38.7701L39.5 54.2639V11C39.5 9.34315 38.1568 8 36.5 8Z" fill="#3F4549"/>
</svg>
