<svg width="73" height="72" viewBox="0 0 73 72" fill="none" xmlns="http://www.w3.org/2000/svg">
<path fill-rule="evenodd" clip-rule="evenodd" d="M36.5 64C38.1569 64 39.5 62.6569 39.5 61L39.5 17.7361L54.4931 33.2299C55.7246 34.3382 57.6215 34.2384 58.7299 33.0069C59.8383 31.7753 59.7384 29.8785 58.5069 28.7701L38.5105 8.77336C38.4771 8.74317 38.443 8.71373 38.4083 8.68505C38.2925 8.5895 38.1694 8.50246 38.04 8.4249C37.6312 8.17991 37.1593 8.0295 36.6544 8.0039C36.6033 8.00131 36.5518 8 36.5 8C36.4462 8 36.3927 8.00142 36.3395 8.00422C35.7794 8.03374 35.26 8.21691 34.8227 8.51235C34.7068 8.59063 34.5967 8.67681 34.4931 8.77009L14.4931 28.7701C13.2616 29.8785 13.1617 31.7753 14.2701 33.0069C15.3785 34.2384 17.2754 34.3382 18.5069 33.2299L33.5 17.7361L33.5 61C33.5 62.6569 34.8432 64 36.5 64Z" fill="#3F4549"/>
</svg>
