<svg width="72" height="72" viewBox="0 0 72 72" fill="none" xmlns="http://www.w3.org/2000/svg">
<path fill-rule="evenodd" clip-rule="evenodd" d="M36 8C34.3431 8 33 9.34314 33 11V54.2639L18.0069 38.7701C16.7754 37.6618 14.8785 37.7616 13.7701 38.9931C12.6617 40.2247 12.7616 42.1215 13.9931 43.2299L33.9895 63.2266C34.0229 63.2568 34.057 63.2863 34.0917 63.3149C34.2075 63.4105 34.3306 63.4975 34.46 63.5751C34.8688 63.8201 35.3407 63.9705 35.8456 63.9961C35.8967 63.9987 35.9482 64 36 64C36.0538 64 36.1073 63.9986 36.1605 63.9958C36.7206 63.9663 37.24 63.7831 37.6773 63.4876C37.7932 63.4094 37.9033 63.3232 38.0069 63.2299L58.0069 43.2299C59.2384 42.1215 59.3383 40.2247 58.2299 38.9931C57.1215 37.7616 55.2246 37.6618 53.9931 38.7701L39 54.2639V11C39 9.34315 37.6568 8 36 8Z" fill="#4A4A4A"/>
</svg>
