<svg width="72" height="72" viewBox="0 0 72 72" fill="none" xmlns="http://www.w3.org/2000/svg">
<path fill-rule="evenodd" clip-rule="evenodd" d="M8 36C8 37.6568 9.34314 39 11 39H54.2639L38.7701 53.9931C37.6618 55.2246 37.7616 57.1215 38.9931 58.2299C40.2247 59.3382 42.1215 59.2384 43.2299 58.0069L63.2266 38.0105C63.2568 37.9771 63.2863 37.943 63.3149 37.9083C63.4105 37.7925 63.4975 37.6694 63.5751 37.54C63.8201 37.1312 63.9705 36.6592 63.9961 36.1544C63.9987 36.1032 64 36.0518 64 36C64 35.9461 63.9986 35.8926 63.9958 35.8395C63.9663 35.2794 63.7831 34.76 63.4876 34.3226C63.4094 34.2068 63.3232 34.0967 63.2299 33.9931L43.2299 13.9931C42.1215 12.7616 40.2247 12.6617 38.9931 13.7701C37.7616 14.8785 37.6618 16.7753 38.7701 18.0069L54.2639 33H11C9.34315 33 8 34.3431 8 36Z" fill="#4A4A4A"/>
</svg>
