<?xml version="1.0" encoding="UTF-8"?>
<svg width="26px" height="30px" viewBox="0 0 26 30" version="1.1" xmlns="http://www.w3.org/2000/svg" xmlns:xlink="http://www.w3.org/1999/xlink">
    <!-- Generator: sketchtool 63.1 (101010) - https://sketch.com -->
    <title>Elements/Icons/Bell</title>
    <desc>Created with sketchtool.</desc>
    <g id="Icons" stroke="none" stroke-width="1" fill="none" fill-rule="evenodd">
        <g transform="translate(-211.000000, -631.000000)" id="Elements/Icons/Bell">
            <g transform="translate(190.000000, 610.000000)">
                <g>
                    <rect id="Rectangle" x="0" y="0" width="70" height="70"></rect>
                    <path d="M34.0000469,51 C36.0443571,51 37.7001559,49.2489121 37.7001559,47.0869565 L30.299938,47.0869565 C30.299938,49.2489121 31.9557367,51 34.0000469,51 Z M42.7015049,38.172021 L42.7015049,33.0336606 L42.7015049,33.0336606 C42.7015049,28.6803069 39.8434106,25.0489729 36.0080757,24.08628 C35.8948957,22.02876 35.2255527,21 34.0000469,21 C32.7745411,21 32.1051982,22.02876 31.9920182,24.08628 C28.1566832,25.0489729 25.2985889,28.6803069 25.2985889,33.0336606 L25.2985889,38.172021 C25.2985889,40.3052433 24.1606692,42.2764646 22.3133787,43.3433083 C21.8715034,43.5984993 21.7201658,44.1635831 21.9753568,44.6054584 C22.1404156,44.8912657 22.4453971,45.0673212 22.7754428,45.0673212 L45.224651,45.0673212 C45.7349218,45.0673212 46.1485779,44.653665 46.1485779,44.1433943 C46.1485779,43.8133485 45.9725224,43.5083671 45.6867152,43.3433083 C43.8394247,42.2764646 42.7015049,40.3052433 42.7015049,38.172021 Z" id="Page-1" fill="#4A4A4A" fill-rule="nonzero"></path>
                </g>
            </g>
        </g>
    </g>
</svg>