<svg width="73" height="72" viewBox="0 0 73 72" fill="none" xmlns="http://www.w3.org/2000/svg">
<path d="M36.1775 64C39.9936 64 43.0844 60.7313 43.0844 56.6956H29.2707C29.2707 60.7313 32.3615 64 36.1775 64ZM52.4203 40.0544V30.4628C52.4203 22.3366 47.0852 15.5581 39.9259 13.761C39.7146 9.92035 38.4652 7.99999 36.1775 7.99999C33.8899 7.99999 32.6405 9.92035 32.4292 13.761C25.2699 15.5581 19.9348 22.3366 19.9348 30.4628V40.0544C19.9348 44.0364 17.8107 47.7161 14.3624 49.7075C13.5376 50.1839 13.2551 51.2387 13.7315 52.0635C14.0396 52.597 14.6089 52.9257 15.2249 52.9257H57.1301C58.0826 52.9257 58.8548 52.1535 58.8548 51.201C58.8548 50.5849 58.5262 50.0156 57.9927 49.7075C54.5444 47.7161 52.4203 44.0364 52.4203 40.0544Z" fill="#3F4549"/>
</svg>
