<svg width="72" height="72" viewBox="0 0 72 72" fill="none" xmlns="http://www.w3.org/2000/svg">
<path d="M35.6775 64C39.4936 64 42.5844 60.7313 42.5844 56.6956H28.7707C28.7707 60.7313 31.8615 64 35.6775 64ZM51.9203 40.0544V30.4628C51.9203 22.3366 46.5852 15.5581 39.4259 13.761C39.2146 9.92035 37.9652 7.99999 35.6775 7.99999C33.3899 7.99999 32.1405 9.92035 31.9292 13.761C24.7699 15.5581 19.4348 22.3366 19.4348 30.4628V40.0544C19.4348 44.0364 17.3107 47.7161 13.8624 49.7075C13.0376 50.1839 12.7551 51.2387 13.2315 52.0635C13.5396 52.597 14.1089 52.9257 14.7249 52.9257H56.6301C57.5826 52.9257 58.3548 52.1535 58.3548 51.201C58.3548 50.5849 58.0262 50.0156 57.4927 49.7075C54.0444 47.7161 51.9203 44.0364 51.9203 40.0544Z" fill="#4A4A4A"/>
</svg>
