<svg width="72" height="72" viewBox="0 0 72 72" fill="none" xmlns="http://www.w3.org/2000/svg">
<path fill-rule="evenodd" clip-rule="evenodd" d="M39.4 18.1333C39.4 17.5074 39.9074 17 40.5333 17H45.4207C45.854 17 46.2494 17.247 46.4393 17.6365L52.0105 29.0573C53.3876 28.588 54.8641 28.3333 56.4 28.3333C63.9111 28.3333 70 34.4223 70 41.9333C70 49.4444 63.9111 55.5333 56.4 55.5333C48.8889 55.5333 42.8 49.4444 42.8 41.9333C42.8 37.1703 45.2486 32.9791 48.9556 30.5499L47.5941 27.7588L37.1734 42.9681C36.6451 43.7391 35.7706 44.2 34.836 44.2H29.012C27.9329 50.6321 22.3388 55.5333 15.6 55.5333C8.08893 55.5333 2 49.4444 2 41.9333C2 34.4223 8.08893 28.3333 15.6 28.3333C17.9009 28.3333 20.0684 28.9047 21.9683 29.9134L25.0073 25.8108L23.598 22.9213C23.522 22.7655 23.3638 22.6667 23.1905 22.6667H20.1333C19.5074 22.6667 19 22.1593 19 21.5333V20.4C19 19.7741 19.5074 19.2667 20.1333 19.2667H29.2C29.8259 19.2667 30.3333 19.7741 30.3333 20.4V21.5333C30.3333 22.1593 29.8259 22.6667 29.2 22.6667H27.6194C27.4518 22.6667 27.3422 22.8421 27.4156 22.9927L28.0858 24.3667H45.9394L44.0666 20.5273C44.0286 20.4494 43.9495 20.4 43.8628 20.4H40.5333C39.9074 20.4 39.4 19.8926 39.4 19.2667V18.1333ZM26.6872 29.2551L24.7494 31.871C27.222 34.1206 28.8622 37.269 29.1535 40.8H32.318L26.6872 29.2551ZM35.4507 39.467L29.7441 27.7667H43.4673L35.4507 39.467ZM53.581 40.0319L50.4624 33.6387C47.8815 35.4895 46.2 38.5151 46.2 41.9333C46.2 47.5666 50.7667 52.1333 56.4 52.1333C62.0333 52.1333 66.6 47.5666 66.6 41.9333C66.6 36.3 62.0333 31.7333 56.4 31.7333C55.3989 31.7333 54.4314 31.8776 53.5173 32.1464L56.6369 38.5415C58.4041 38.6631 59.8 40.1352 59.8 41.9333C59.8 43.8111 58.2778 45.3333 56.4 45.3333C54.5222 45.3333 53 43.8111 53 41.9333C53 41.229 53.2142 40.5746 53.581 40.0319ZM22.7119 34.6216C24.3623 36.2272 25.471 38.3867 25.7377 40.8H18.8065C18.7376 40.6048 18.6513 40.4179 18.5495 40.2409L22.7119 34.6216ZM15.5831 38.5334L19.9134 32.6876C18.6033 32.0753 17.1416 31.7333 15.6 31.7333C9.9667 31.7333 5.4 36.3 5.4 41.9333C5.4 47.5666 9.9667 52.1333 15.6 52.1333C20.4543 52.1333 24.5165 48.7424 25.5472 44.2H18.1343C17.5117 44.8956 16.607 45.3333 15.6 45.3333C13.7222 45.3333 12.2 43.8111 12.2 41.9333C12.2 40.0612 13.7131 38.5425 15.5831 38.5334Z" fill="#3F4549"/>
</svg>
