<svg width="72" height="72" viewBox="0 0 72 72" fill="none" xmlns="http://www.w3.org/2000/svg">
<path d="M36 21.2381C40.2079 21.2381 43.619 17.8269 43.619 13.619C43.619 9.41116 40.2079 6 36 6C31.7921 6 28.381 9.41116 28.381 13.619C28.381 17.8269 31.7921 21.2381 36 21.2381Z" fill="#3F4549"/>
<path d="M46.4762 13.619C46.4762 14.3925 46.3924 15.1465 46.2333 15.8722C49.1034 15.8027 51.5157 15.7172 53.2248 15.6482C54.7831 15.5854 56 14.3014 56 12.7418C56 11.1224 54.6862 9.80952 53.0668 9.80952H45.762C46.2231 10.9902 46.4762 12.2751 46.4762 13.619Z" fill="#3F4549"/>
<path d="M36 24.0952C32.5815 24.0952 29.5455 22.4579 27.6333 19.9247C22.9076 22.9953 19.7143 28.5465 18.8572 34.5714C18.2409 38.9043 18.4223 44.8095 18.6271 48.4367C18.7138 49.9719 18.7571 50.7396 19.28 51.2552C19.803 51.7709 20.5819 51.8039 22.1397 51.87C23.5403 51.9294 25.3101 51.9966 27.2911 52.0541C27.2943 51.9417 27.2977 51.8301 27.301 51.7191C27.4448 46.9998 31.3117 43.1429 36.0935 43.1429C40.7593 43.1429 44.6247 46.8501 44.7161 51.5631C44.7192 51.726 44.7223 51.8896 44.7252 52.0536C46.6998 51.9963 48.4637 51.9292 49.8605 51.87C51.4183 51.8039 52.1972 51.7709 52.7202 51.2552C53.2431 50.7396 53.2864 49.9719 53.3731 48.4367C53.5779 44.8095 53.7594 38.9043 53.143 34.5714C52.2859 28.5465 49.0926 22.9952 44.3668 19.9246C42.4546 22.4579 39.4185 24.0952 36 24.0952Z" fill="#3F4549"/>
<path d="M18.7752 15.6482C20.4843 15.7172 22.8966 15.8027 25.7667 15.8722C25.6076 15.1465 25.5238 14.3925 25.5238 13.619C25.5238 12.2751 25.7769 10.9902 26.238 9.80952H18.9332C17.3138 9.80952 16 11.1224 16 12.7418C16 14.3014 17.2169 15.5854 18.7752 15.6482Z" fill="#3F4549"/>
<path d="M36.0935 46C32.8859 46 30.2545 48.5999 30.1569 51.8061C30.1227 52.9287 30.0951 54.1079 30.0951 55.5238C30.0951 56.9398 30.1227 58.1189 30.1569 59.2415C30.2545 62.4477 32.8859 65.0476 36.0935 65.0476C39.2271 65.0476 41.7987 62.5621 41.8595 59.4291C41.8855 58.0852 41.9046 56.7002 41.9046 55.5238C41.9046 54.3474 41.8855 52.9624 41.8595 51.6185C41.7987 48.4856 39.2271 46 36.0935 46Z" fill="#3F4549"/>
</svg>
