<svg width="72" height="72" viewBox="0 0 72 72" fill="none" xmlns="http://www.w3.org/2000/svg">
<path d="M44 12C44 16.4183 40.4183 20 36 20C31.5817 20 28 16.4183 28 12C28 7.58172 31.5817 4 36 4C40.4183 4 44 7.58172 44 12Z" fill="#3F4549"/>
<path d="M29.8647 55.0964C29.9672 51.7299 32.7302 49 36.0982 49C39.3884 49 42.0887 51.6098 42.1524 54.8994C42.1798 56.3106 42.1998 57.7648 42.1998 59C42.1998 60.2352 42.1798 61.6894 42.1524 63.1006C42.0887 66.3902 39.3884 69 36.0982 69C32.7302 69 29.9672 66.2701 29.8647 62.9036C29.8288 61.7248 29.7998 60.4868 29.7998 59C29.7998 57.5132 29.8288 56.2752 29.8647 55.0964Z" fill="#3F4549"/>
<path d="M46.6291 14.8431C46.871 13.9362 47 12.9831 47 12C47 10.96 46.8557 9.95366 46.5859 9H54.7365C55.9839 9 57 10.0113 57 11.2588C57 12.2848 56.3087 13.1781 55.3063 13.3971C53.5291 13.7855 50.4622 14.3838 46.6291 14.8431Z" fill="#3F4549"/>
<path d="M27.0673 18.4207C29.0644 21.1942 32.3213 23 36 23C39.6787 23 42.9357 21.1942 44.9328 18.4206C50.3049 21.5528 54.0608 27.3974 55.0001 34C55.8138 39.7197 55.3033 49.3728 55.0849 52.7714C55.047 53.3598 55.0281 53.654 54.8219 54.0378C54.6156 54.4215 54.4398 54.5548 54.0882 54.8214C52.8381 55.7691 50.1597 57.3152 45.1976 58.2374C45.1916 57.1623 45.174 55.9835 45.1519 54.8413C45.0559 49.8926 40.9973 46 36.0982 46C31.0773 46 27.017 50.0498 26.8661 55.0051C26.8359 55.9963 26.8102 57.0392 26.8023 58.2373C21.8404 57.3151 19.1621 55.7691 17.912 54.8214C17.5604 54.5548 17.3846 54.4215 17.1783 54.0378C16.9721 53.654 16.9532 53.3598 16.9154 52.7714C16.6969 49.3728 16.1864 39.7197 17.0001 34C17.9394 27.3975 21.6953 21.5529 27.0673 18.4207Z" fill="#3F4549"/>
<path d="M25.3709 14.8431C21.5378 14.3838 18.4709 13.7855 16.6937 13.3971C15.6913 13.1781 15 12.2848 15 11.2588C15 10.0113 16.0161 9 17.2635 9H25.4141C25.1443 9.95366 25 10.96 25 12C25 12.9831 25.129 13.9362 25.3709 14.8431Z" fill="#3F4549"/>
</svg>
