<?xml version="1.0" encoding="UTF-8"?>
<svg width="17px" height="36px" viewBox="0 0 17 36" version="1.1" xmlns="http://www.w3.org/2000/svg" xmlns:xlink="http://www.w3.org/1999/xlink">
    <!-- Generator: sketchtool 63.1 (101010) - https://sketch.com -->
    <title>Elements/Icons/Bluetooth</title>
    <desc>Created with sketchtool.</desc>
    <g id="Icons" stroke="none" stroke-width="1" fill="none" fill-rule="evenodd">
        <g transform="translate(-216.000000, -737.000000)" id="Elements/Icons/Bluetooth">
            <g transform="translate(190.000000, 720.000000)">
                <g id="Elements/Icons/LeftArrow1">
                    <g>
                        <g id="Group">
                            <polygon id="Rectangle" points="0 0 70 0 70 70 0 70"></polygon>
                            <path d="M42.7247303,25.8312036 L35.3715894,17.3936891 C35.0596172,17.0359385 34.5515152,16.9065633 34.1030551,17.0696886 C33.652301,17.2328139 33.3529452,17.6535646 33.3529452,18.1249404 L33.3529452,31.5018561 C33.3529452,31.5950543 33.2773932,31.6706064 33.184195,31.6706064 C33.1354164,31.6706064 33.089024,31.6494992 33.0569763,31.6127257 L28.0184486,25.8312036 L28.0184486,25.8312036 C27.606691,25.3587027 26.8829612,25.3035776 26.4012393,25.7074533 C25.9206643,26.111329 25.8633165,26.8212052 26.275074,27.2937061 L32.8306048,34.8151897 C32.9229042,34.9210894 32.9229099,35.0788541 32.8306181,35.1847604 L26.275074,42.7073574 L26.275074,42.7073574 C25.8633165,43.1798582 25.9206643,43.8897344 26.4012393,44.2924851 C26.8829612,44.6963608 27.606691,44.6412357 28.0184486,44.1687349 L33.0569763,38.3872128 C33.1182078,38.3169518 33.2248036,38.3096321 33.2950645,38.3708637 C33.3318381,38.4029114 33.3529452,38.4493038 33.3529452,38.4980824 L33.3529452,51.8749981 L33.3529452,51.8749981 C33.3529452,52.3463739 33.652301,52.7671246 34.1030551,52.9302499 C34.2326612,52.976375 34.3668552,53 34.4999022,53 C34.8290788,53 35.1490798,52.8604998 35.3715894,52.6051243 L42.7247303,44.1676099 C43.0917566,43.7468592 43.0917566,43.1269831 42.7247303,42.7062324 L36.0081505,34.9999692 L42.7247303,27.2937061 C43.0917566,26.8718303 43.0917566,26.2530793 42.7247303,25.8312036 Z M40.022646,43.8070809 L36.1401268,48.2614479 C36.0380653,48.3785417 35.8604048,48.3907279 35.743311,48.2886664 C35.6820313,48.2352538 35.6468591,48.1579395 35.6468591,48.0766492 L35.6468591,38.7983181 C35.6468591,38.6429877 35.7727792,38.5170676 35.9281096,38.5170676 C36.0093999,38.5170676 36.0867142,38.5522398 36.1401268,38.6135194 L40.022646,43.0678864 C40.2072681,43.279701 40.2072681,43.5952663 40.022646,43.8070809 Z M35.6468591,31.3517641 L35.6468591,21.7731455 C35.6468591,21.6488812 35.7475952,21.5481451 35.8718595,21.5481451 C35.9368917,21.5481451 35.9987432,21.5762829 36.0414733,21.6253066 L40.022646,26.1928575 C40.2072681,26.4046722 40.2072681,26.7202374 40.022646,26.9320521 L36.0414733,31.499603 C35.9598241,31.5932781 35.8176957,31.603027 35.7240206,31.5213779 C35.6749969,31.4786478 35.6468591,31.4167963 35.6468591,31.3517641 Z" id="Shape" fill="#4A4A4A" fill-rule="nonzero"></path>
                        </g>
                    </g>
                </g>
            </g>
        </g>
    </g>
</svg>