<svg width="73" height="72" viewBox="0 0 73 72" fill="none" xmlns="http://www.w3.org/2000/svg">
<path d="M49.5163 21.7374L38.078 8.6124C37.5927 8.0559 36.8024 7.85465 36.1048 8.1084C35.4036 8.36216 34.9379 9.01666 34.9379 9.74991V30.5584C34.9379 30.7034 34.8204 30.8209 34.6754 30.8209C34.5995 30.8209 34.5274 30.7881 34.4775 30.7309L26.6398 21.7374C25.9993 21.0024 24.8735 20.9167 24.1242 21.5449C23.3766 22.1732 23.2874 23.2774 23.9279 24.0124L34.1254 35.7125C34.269 35.8773 34.269 36.1227 34.1254 36.2874L23.9279 47.9892C23.2874 48.7242 23.3766 49.8285 24.1242 50.455C24.8735 51.0832 25.9993 50.9975 26.6398 50.2625L34.4775 41.269C34.5728 41.1597 34.7386 41.1483 34.8479 41.2436C34.9051 41.2934 34.9379 41.3656 34.9379 41.4415V62.25C34.9379 62.9833 35.4036 63.6377 36.1048 63.8915C36.3064 63.9632 36.5151 64 36.7221 64C37.2341 64 37.7319 63.783 38.078 63.3857L49.5163 50.2607C50.0872 49.6062 50.0872 48.642 49.5163 47.9875L39.0682 36L49.5163 24.0124C50.0872 23.3562 50.0872 22.3937 49.5163 21.7374ZM45.313 49.6999L39.2735 56.6289C39.1148 56.8111 38.8384 56.83 38.6563 56.6713C38.5609 56.5882 38.5062 56.4679 38.5062 56.3415V41.9085C38.5062 41.6669 38.7021 41.471 38.9437 41.471C39.0702 41.471 39.1904 41.5257 39.2735 41.621L45.313 48.55C45.6002 48.8795 45.6002 49.3704 45.313 49.6999ZM38.5062 30.325V15.4249C38.5062 15.2316 38.6629 15.0749 38.8562 15.0749C38.9574 15.0749 39.0536 15.1187 39.1201 15.1949L45.313 22.3C45.6002 22.6295 45.6002 23.1204 45.313 23.4499L39.1201 30.5549C38.9931 30.7007 38.772 30.7158 38.6263 30.5888C38.55 30.5223 38.5062 30.4261 38.5062 30.325Z" fill="#3F4549"/>
</svg>
