<svg width="72" height="72" viewBox="0 0 72 72" fill="none" xmlns="http://www.w3.org/2000/svg">
<path d="M49.0163 21.7374L37.578 8.6124C37.0927 8.0559 36.3024 7.85465 35.6048 8.1084C34.9036 8.36216 34.4379 9.01666 34.4379 9.74991V30.5584C34.4379 30.7034 34.3204 30.8209 34.1754 30.8209C34.0995 30.8209 34.0274 30.7881 33.9775 30.7309L26.1398 21.7374C25.4993 21.0024 24.3735 20.9167 23.6242 21.5449C22.8766 22.1732 22.7874 23.2774 23.4279 24.0124L33.6254 35.7125C33.769 35.8773 33.769 36.1227 33.6254 36.2874L23.4279 47.9892C22.7874 48.7242 22.8766 49.8285 23.6242 50.455C24.3735 51.0832 25.4993 50.9975 26.1398 50.2625L33.9775 41.269C34.0728 41.1597 34.2386 41.1483 34.3479 41.2436C34.4051 41.2934 34.4379 41.3656 34.4379 41.4415V62.25C34.4379 62.9833 34.9036 63.6377 35.6048 63.8915C35.8064 63.9632 36.0151 64 36.2221 64C36.7341 64 37.2319 63.783 37.578 63.3857L49.0163 50.2607C49.5872 49.6062 49.5872 48.642 49.0163 47.9875L38.5682 36L49.0163 24.0124C49.5872 23.3562 49.5872 22.3937 49.0163 21.7374ZM44.813 49.6999L38.7735 56.6289C38.6148 56.8111 38.3384 56.83 38.1563 56.6713C38.0609 56.5882 38.0062 56.4679 38.0062 56.3415V41.9085C38.0062 41.6669 38.2021 41.471 38.4437 41.471C38.5702 41.471 38.6904 41.5257 38.7735 41.621L44.813 48.55C45.1002 48.8795 45.1002 49.3704 44.813 49.6999ZM38.0062 30.325V15.4249C38.0062 15.2316 38.1629 15.0749 38.3562 15.0749C38.4574 15.0749 38.5536 15.1187 38.6201 15.1949L44.813 22.3C45.1002 22.6295 45.1002 23.1204 44.813 23.4499L38.6201 30.5549C38.4931 30.7007 38.272 30.7158 38.1263 30.5888C38.05 30.5223 38.0062 30.4261 38.0062 30.325Z" fill="#4A4A4A"/>
</svg>
