<svg width="72" height="72" viewBox="0 0 72 72" fill="none" xmlns="http://www.w3.org/2000/svg">
<path d="M16.5344 37.3504L35.0015 9.79128C36.8706 7.00194 37.8051 5.60727 38.4148 5.51473C38.9387 5.43521 39.4626 5.65829 39.7683 6.09108C40.1241 6.59473 39.7664 8.235 39.0509 11.5155L35.026 29.9691C34.9959 30.1072 34.9808 30.1763 34.9993 30.2295C35.0154 30.2761 35.0482 30.3151 35.0914 30.3389C35.1407 30.3662 35.2113 30.3631 35.3525 30.357L51.4676 29.6582C53.5639 29.5673 54.6121 29.5219 55.1758 29.9295C55.6661 30.284 55.9696 30.8415 56.0011 31.4458C56.0374 32.1404 55.4302 32.996 54.2158 34.7072L34.1053 63.0447C32.2812 65.6151 31.3691 66.9004 30.7644 66.9805C30.2445 67.0495 29.7296 66.8221 29.4305 66.3913C29.0826 65.8903 29.4184 64.3505 30.0901 61.271L34.2861 42.0323C34.3164 41.8938 34.3315 41.8245 34.3129 41.7712C34.2967 41.7245 34.2638 41.6855 34.2205 41.6617C34.171 41.6345 34.1002 41.6378 33.9585 41.6445L19.3423 42.3283C17.2988 42.4239 16.277 42.4717 15.7155 42.0746C15.2269 41.7289 14.9187 41.1826 14.8757 40.5856C14.8262 39.8997 15.3956 39.0499 16.5344 37.3504Z" fill="#4A4A4A"/>
</svg>
