<svg width="73" height="72" viewBox="0 0 73 72" fill="none" xmlns="http://www.w3.org/2000/svg">
<path d="M17.0344 37.3505L35.5015 9.79134C37.3706 7.002 38.3051 5.60733 38.9148 5.51479C39.4387 5.43527 39.9626 5.65835 40.2683 6.09114C40.6241 6.59479 40.2664 8.23506 39.5509 11.5156L35.526 29.9692C35.4959 30.1073 35.4808 30.1764 35.4993 30.2295C35.5154 30.2761 35.5482 30.3151 35.5914 30.339C35.6407 30.3662 35.7113 30.3632 35.8525 30.3571L51.9676 29.6583C54.0639 29.5674 55.1121 29.522 55.6758 29.9295C56.1661 30.2841 56.4696 30.8416 56.5011 31.4458C56.5374 32.1405 55.9302 32.9961 54.7158 34.7073L34.6053 63.0448C32.7812 65.6152 31.8691 66.9004 31.2644 66.9806C30.7445 67.0496 30.2296 66.8221 29.9305 66.3913C29.5826 65.8904 29.9184 64.3506 30.5901 61.2711L34.7861 42.0324C34.8164 41.8938 34.8315 41.8245 34.8129 41.7713C34.7967 41.7246 34.7638 41.6856 34.7205 41.6618C34.671 41.6346 34.6002 41.6379 34.4585 41.6445L19.8423 42.3283C17.7988 42.4239 16.777 42.4717 16.2155 42.0746C15.7269 41.729 15.4187 41.1827 15.3757 40.5857C15.3262 39.8998 15.8956 39.05 17.0344 37.3505Z" fill="#3F4549"/>
</svg>
