<svg width="73" height="72" viewBox="0 0 73 72" fill="none" xmlns="http://www.w3.org/2000/svg">
<path fill-rule="evenodd" clip-rule="evenodd" d="M34.7095 8.4412C35.8231 7.84791 37.1603 7.85327 38.2691 8.45548L59.0686 19.7521C60.2774 20.4086 61.0311 21.6738 61.0311 23.0505V48.9495C61.0311 50.3262 60.2774 51.5914 59.0686 52.2479L38.2691 63.5445C37.1603 64.1467 35.8231 64.1521 34.7095 63.5588L13.4895 52.2533C12.2659 51.6014 11.5004 50.3281 11.5004 48.9406V23.0594C11.5004 23.0417 11.5005 23.0241 11.5008 23.0065C11.4972 22.8746 11.5059 22.7417 11.5274 22.6096C11.6731 21.4012 12.3996 20.3274 13.4895 19.7467L34.7095 8.4412ZM15.7459 26.4942V48.645L34.3607 58.5625L34.3608 36.456L15.7459 26.4942ZM38.6063 36.4341L38.6061 58.5302L56.7856 48.6566V26.345L38.6063 36.4341ZM55.0973 22.4265L36.4738 12.3117L17.3153 22.5188L36.4651 32.7669L55.0973 22.4265Z" fill="#3F4549"/>
</svg>
