<svg width="72" height="72" viewBox="0 0 72 72" fill="none" xmlns="http://www.w3.org/2000/svg">
<path fill-rule="evenodd" clip-rule="evenodd" d="M34.2095 8.4412C35.3231 7.84791 36.6603 7.85327 37.7691 8.45548L58.5686 19.7521C59.7774 20.4086 60.5311 21.6738 60.5311 23.0505V48.9495C60.5311 50.3262 59.7774 51.5914 58.5686 52.2479L37.7691 63.5445C36.6603 64.1467 35.3231 64.1521 34.2095 63.5588L12.9895 52.2533C11.7659 51.6014 11.0004 50.3281 11.0004 48.9406V23.0594C11.0004 23.0417 11.0005 23.0241 11.0008 23.0065C10.9972 22.8746 11.0059 22.7417 11.0274 22.6096C11.1731 21.4012 11.8996 20.3274 12.9895 19.7467L34.2095 8.4412ZM15.2459 26.4942V48.645L33.8607 58.5625L33.8608 36.456L15.2459 26.4942ZM38.1063 36.4341L38.1061 58.5302L56.2856 48.6566V26.345L38.1063 36.4341ZM54.5973 22.4265L35.9738 12.3117L16.8153 22.5188L35.9651 32.7669L54.5973 22.4265Z" fill="#4A4A4A"/>
</svg>
