<svg width="72" height="72" viewBox="0 0 72 72" fill="none" xmlns="http://www.w3.org/2000/svg">
<path d="M36.3579 30.9131L60.3223 20.2622C60.639 20.1215 60.6458 19.6745 60.3336 19.5242L36.7333 8.16104C36.2873 7.94632 35.7678 7.94632 35.3219 8.16104L11.7216 19.5242C11.4093 19.6745 11.4161 20.1215 11.7328 20.2622L35.6972 30.9131C35.9075 31.0065 36.1476 31.0065 36.3579 30.9131Z" fill="#4A4A4A"/>
<path d="M38.1448 63.9076L61.1768 51.9651C61.7162 51.6854 62.0547 51.1285 62.0547 50.521V22.3902C62.0547 22.0959 61.7518 21.8991 61.4829 22.0186L37.44 32.7043C37.1463 32.8349 36.957 33.1261 36.957 33.4476V63.1856C36.957 63.7954 37.6034 64.1883 38.1448 63.9076Z" fill="#4A4A4A"/>
<path d="M33.9099 63.9076L10.8779 51.9651C10.3386 51.6854 10 51.1285 10 50.521V22.3902C10 22.0959 10.3029 21.8991 10.5718 22.0186L34.6147 32.7043C34.9084 32.8349 35.0977 33.1261 35.0977 33.4476V63.1856C35.0977 63.7954 34.4514 64.1883 33.9099 63.9076Z" fill="#4A4A4A"/>
</svg>
