<svg width="72" height="72" viewBox="0 0 72 72" fill="none" xmlns="http://www.w3.org/2000/svg">
<path d="M22.0828 45.7139L34.1663 40.0309C34.4926 39.8774 34.4997 39.39 34.1779 39.2261L22.4696 33.2606C22.01 33.0265 21.4747 33.0265 21.0151 33.2606L9.30677 39.2261C8.98501 39.39 8.99203 39.8774 9.31837 40.0309L21.4019 45.7139C21.6186 45.8158 21.866 45.8158 22.0828 45.7139Z" fill="#4A4A4A"/>
<path d="M23.4572 63.8993L34.5799 57.7963C35.1357 57.4913 35.4846 56.884 35.4846 56.2215V41.3629C35.4846 41.0419 35.1725 40.8273 34.8953 40.9576L22.731 46.6786C22.4283 46.821 22.2332 47.1386 22.2332 47.4892V63.1118C22.2332 63.7769 22.8993 64.2054 23.4572 63.8993Z" fill="#4A4A4A"/>
<path d="M20.0274 63.8993L8.90471 57.7963C8.34889 57.4913 8 56.884 8 56.2215V41.3629C8 41.0419 8.31216 40.8273 8.5893 40.9576L20.7537 46.6786C21.0563 46.821 21.2514 47.1386 21.2514 47.4892V63.1118C21.2514 63.7769 20.5853 64.2054 20.0274 63.8993Z" fill="#4A4A4A"/>
<path d="M50.5981 45.7139L62.6817 40.0309C63.008 39.8774 63.0151 39.39 62.6933 39.2261L50.985 33.2606C50.5254 33.0265 49.9901 33.0265 49.5305 33.2606L37.8222 39.2261C37.5004 39.39 37.5074 39.8774 37.8338 40.0309L49.9173 45.7139C50.134 45.8158 50.3814 45.8158 50.5981 45.7139Z" fill="#4A4A4A"/>
<path d="M51.9726 63.8993L63.0953 57.7963C63.6511 57.4913 64 56.884 64 56.2215V41.3629C64 41.0419 63.6878 40.8273 63.4107 40.9576L51.2463 46.6786C50.9437 46.821 50.7486 47.1386 50.7486 47.4892V63.1118C50.7486 63.7769 51.4147 64.2054 51.9726 63.8993Z" fill="#4A4A4A"/>
<path d="M48.5428 63.8993L37.4201 57.7963C36.8643 57.4913 36.5154 56.884 36.5154 56.2215V41.3629C36.5154 41.0419 36.8276 40.8273 37.1047 40.9576L49.269 46.6786C49.5717 46.821 49.7668 47.1386 49.7668 47.4892V63.1118C49.7668 63.7769 49.1007 64.2054 48.5428 63.8993Z" fill="#4A4A4A"/>
<path d="M36.3404 20.6289L48.424 14.9459C48.7503 14.7924 48.7574 14.305 48.4356 14.141L36.7273 8.17562C36.2677 7.94146 35.7324 7.94146 35.2728 8.17562L23.5645 14.141C23.2427 14.305 23.2497 14.7924 23.5761 14.9459L35.6596 20.6289C35.8763 20.7308 36.1237 20.7308 36.3404 20.6289Z" fill="#4A4A4A"/>
<path d="M37.6812 38.1238L48.7702 32.6911C49.3629 32.4007 49.7423 31.7725 49.7423 31.0813V16.2779C49.7423 15.9569 49.4301 15.7423 49.153 15.8726L36.9887 21.5936C36.686 21.736 36.4909 22.0536 36.4909 22.4041V37.3189C36.4909 37.9666 37.1257 38.3959 37.6812 38.1238Z" fill="#4A4A4A"/>
<path d="M34.3188 38.1238L23.2298 32.6911C22.6371 32.4007 22.2577 31.7725 22.2577 31.0813V16.2779C22.2577 15.9569 22.5699 15.7423 22.847 15.8726L35.0113 21.5936C35.314 21.736 35.5091 22.0536 35.5091 22.4041V37.3189C35.5091 37.9666 34.8743 38.3959 34.3188 38.1238Z" fill="#4A4A4A"/>
</svg>
