<svg width="72" height="72" viewBox="0 0 72 72" fill="none" xmlns="http://www.w3.org/2000/svg">
<path fill-rule="evenodd" clip-rule="evenodd" d="M34.9106 8.29836C35.6755 7.89718 36.5913 7.90074 37.3531 8.30804L49.457 14.7792C50.29 15.2245 50.8239 16.0926 50.8239 17.0526V31.5242L62.6335 37.838C63.4664 38.2833 64.0003 39.1514 64.0003 40.1114V54.9474C64.0003 55.9074 63.4664 56.7755 62.6335 57.2208L50.5296 63.692C49.7678 64.0993 48.852 64.1028 48.087 63.7016L36.0077 57.3667L24.1767 63.692C23.4148 64.0993 22.499 64.1028 21.7341 63.7016L9.38547 57.2254C8.54255 56.7833 8.00033 55.9099 8.00033 54.9423V40.1165C8.00033 40.1081 8.00037 40.0998 8.00045 40.0914C7.99813 39.9924 8.00473 39.8927 8.02063 39.7935C8.12633 38.9576 8.63752 38.2257 9.38547 37.8334L21.1768 31.6494V17.0577C21.1768 17.0493 21.1768 17.0409 21.1769 17.0326C21.1746 16.9336 21.1812 16.8339 21.1971 16.7347C21.3028 15.8988 21.814 15.1669 22.5619 14.7746L34.9106 8.29836ZM24.4709 19.7246V31.4534L34.48 36.8448V24.9974L24.4709 19.7246ZM37.7741 24.9804V36.7658L39.9493 35.625L47.5297 31.4623V19.6509L37.7741 24.9804ZM46.0616 16.6993L36.1196 11.3839L25.8899 16.7489L36.1129 22.1343L46.0616 16.6993ZM22.9431 34.4427L12.7134 39.8077L22.9365 45.1931L32.8852 39.7581L22.9431 34.4427ZM34.3533 42.7097L24.5977 48.0392L24.5976 59.7316L34.3533 54.5159V42.7097ZM21.3035 59.7562L11.2944 54.5069V42.7835L21.3035 48.0562L21.3035 59.7562ZM37.6474 42.7835V54.5069L47.6564 59.7562L47.6565 48.0562L37.6474 42.7835ZM50.9506 48.0392L50.9505 59.7316L60.7062 54.5159V42.7097L50.9506 48.0392ZM59.2381 39.7581L49.2961 34.4427L41.5071 38.5277L39.1224 39.8372L49.2894 45.1931L59.2381 39.7581Z" fill="#4A4A4A"/>
</svg>
