<svg width="73" height="72" viewBox="0 0 73 72" fill="none" xmlns="http://www.w3.org/2000/svg">
<path fill-rule="evenodd" clip-rule="evenodd" d="M35.4106 8.29836C36.1755 7.89718 37.0913 7.90074 37.8531 8.30804L49.957 14.7792C50.79 15.2245 51.3239 16.0926 51.3239 17.0526V31.5242L63.1335 37.838C63.9664 38.2833 64.5003 39.1514 64.5003 40.1114V54.9474C64.5003 55.9074 63.9664 56.7755 63.1335 57.2208L51.0296 63.692C50.2678 64.0993 49.352 64.1028 48.587 63.7016L36.5077 57.3667L24.6767 63.692C23.9148 64.0993 22.999 64.1028 22.2341 63.7016L9.88547 57.2254C9.04255 56.7833 8.50033 55.9099 8.50033 54.9423V40.1165C8.50033 40.1081 8.50037 40.0998 8.50045 40.0914C8.49813 39.9924 8.50473 39.8927 8.52063 39.7935C8.62633 38.9576 9.13752 38.2257 9.88547 37.8334L21.6768 31.6494V17.0577C21.6768 17.0493 21.6768 17.0409 21.6769 17.0326C21.6746 16.9336 21.6812 16.8339 21.6971 16.7347C21.8028 15.8988 22.314 15.1669 23.0619 14.7746L35.4106 8.29836ZM24.9709 19.7246V31.4534L34.98 36.8448V24.9974L24.9709 19.7246ZM38.2741 24.9804V36.7658L40.4493 35.625L48.0297 31.4623V19.6509L38.2741 24.9804ZM46.5616 16.6993L36.6196 11.3839L26.3899 16.7489L36.6129 22.1343L46.5616 16.6993ZM23.4431 34.4427L13.2134 39.8077L23.4365 45.1931L33.3852 39.7581L23.4431 34.4427ZM34.8533 42.7097L25.0977 48.0392L25.0976 59.7316L34.8533 54.5159V42.7097ZM21.8035 59.7562L11.7944 54.5069V42.7835L21.8035 48.0562L21.8035 59.7562ZM38.1474 42.7835V54.5069L48.1564 59.7562L48.1565 48.0562L38.1474 42.7835ZM51.4506 48.0392L51.4505 59.7316L61.2062 54.5159V42.7097L51.4506 48.0392ZM59.7381 39.7581L49.7961 34.4427L42.0071 38.5277L39.6224 39.8372L49.7894 45.1931L59.7381 39.7581Z" fill="#3F4549"/>
</svg>
