<svg width="73" height="72" viewBox="0 0 73 72" fill="none" xmlns="http://www.w3.org/2000/svg">
<path d="M46.5 36.75C46.5 42.2728 42.0228 46.75 36.5 46.75C30.9772 46.75 26.5 42.2728 26.5 36.75C26.5 31.2272 30.9772 26.75 36.5 26.75C42.0228 26.75 46.5 31.2272 46.5 36.75Z" fill="#3F4549"/>
<path fill-rule="evenodd" clip-rule="evenodd" d="M25.6562 15.35L24 18H18.8C14.3162 18 12.0743 18 10.3868 18.9277C9.13968 19.6133 8.11334 20.6397 7.4277 21.8868C6.5 23.5743 6.5 25.8162 6.5 30.3V45.7C6.5 50.1838 6.5 52.4257 7.4277 54.1131C8.11334 55.3603 9.13968 56.3867 10.3868 57.0723C12.0743 58 14.3162 58 18.8 58H54.2C58.6838 58 60.9257 58 62.6131 57.0723C63.8603 56.3867 64.8867 55.3603 65.5723 54.1131C66.5 52.4257 66.5 50.1838 66.5 45.7V30.3C66.5 25.8162 66.5 23.5743 65.5723 21.8868C64.8867 20.6397 63.8603 19.6133 62.6131 18.9277C60.9257 18 58.6838 18 54.2 18H49L47.3438 15.35C46.6257 14.2012 46.2667 13.6268 45.7013 13.3134C45.1359 13 44.4585 13 43.1038 13H29.8962C28.5415 13 27.8641 13 27.2987 13.3134C26.7333 13.6268 26.3742 14.2012 25.6562 15.35ZM49 36.75C49 43.6536 43.4036 49.25 36.5 49.25C29.5964 49.25 24 43.6536 24 36.75C24 29.8464 29.5964 24.25 36.5 24.25C43.4036 24.25 49 29.8464 49 36.75ZM59 27.375C59 28.4105 58.1605 29.25 57.125 29.25C56.0895 29.25 55.25 28.4105 55.25 27.375C55.25 26.3395 56.0895 25.5 57.125 25.5C58.1605 25.5 59 26.3395 59 27.375Z" fill="#3F4549"/>
</svg>
