<svg width="72" height="72" viewBox="0 0 72 72" fill="none" xmlns="http://www.w3.org/2000/svg">
<path fill-rule="evenodd" clip-rule="evenodd" d="M16.6905 12.4673C15.9555 12.958 15.5944 13.7906 14.8722 15.456C13.8862 17.7295 12.6363 20.6989 11.8 23C10.6204 26.2459 9.03922 30.9104 8.34788 32.9633C8.17422 33.479 8.08738 33.7369 8.03547 34.0215C7.98356 34.306 7.97408 34.5687 7.95512 35.0939C7.89617 36.7274 7.7998 40.141 7.7998 45C7.7998 49.1834 7.87123 52.2952 7.92872 54.1223C7.95644 55.0035 7.97031 55.4441 8.25739 55.7253C8.54448 56.0066 8.98671 56.0113 9.87118 56.0209C14.597 56.0722 27.2577 56.2 35.9998 56.2C44.742 56.2 57.4028 56.0722 62.1285 56.0209C63.013 56.0114 63.4552 56.0066 63.7422 55.7253C64.0293 55.4441 64.0432 55.0035 64.071 54.1224C64.1285 52.2954 64.2 49.1834 64.2 45C64.2 40.1397 64.1035 36.7256 64.0445 35.0926C64.0255 34.568 64.016 34.3057 63.9642 34.0213C63.9124 33.7371 63.8257 33.4796 63.6525 32.9647C62.9631 30.9163 61.3866 26.2632 60.2 23C59.3673 20.7102 58.1153 17.736 57.1276 15.4577C56.4052 13.7913 56.044 12.9581 55.309 12.4674C54.5739 11.9766 53.6573 11.9622 51.8241 11.9334C48.1142 11.8753 42.1321 11.8 35.9998 11.8C29.8667 11.8 23.8839 11.8753 20.1742 11.9335C18.3417 11.9622 17.4255 11.9766 16.6905 12.4673ZM15.0532 33H56.9426C58.1616 33 58.7711 33 59.0709 32.5947C59.3707 32.1894 59.1939 31.6114 58.8401 30.4554C58.1941 28.3442 57.235 25.3314 56.3615 23.0625C55.6098 21.1097 54.837 19.2147 54.2371 17.7732C53.7186 16.5271 53.4594 15.9041 52.9173 15.5354C52.3753 15.1668 51.6958 15.1544 50.3368 15.1298C47.2955 15.0747 42.0572 15 35.9999 15C29.9382 15 24.6967 15.0748 21.6564 15.1299C20.3003 15.1545 19.6223 15.1668 19.0807 15.5346C18.5391 15.9024 18.2797 16.5234 17.7609 17.7652C17.1583 19.2078 16.3818 21.1061 15.6287 23.0625C14.7548 25.3325 13.7986 28.3469 13.1553 30.4582C12.8034 31.613 12.6275 32.1904 12.9274 32.5952C13.2272 33 13.8358 33 15.0532 33ZM16 47C18.7614 47 21 44.7614 21 42C21 39.2386 18.7614 37 16 37C13.2386 37 11 39.2386 11 42C11 44.7614 13.2386 47 16 47ZM56 47C58.7614 47 61 44.7614 61 42C61 39.2386 58.7614 37 56 37C53.2386 37 51 39.2386 51 42C51 44.7614 53.2386 47 56 47Z" fill="#3F4549"/>
<path d="M65.5479 32.3267L65.5498 32.3321L65.576 32.4099C65.6447 32.6138 65.7101 32.8077 65.7681 33C67.0699 32.9999 67.7276 32.9939 68.1719 32.6081C68.1964 32.5868 68.2203 32.5648 68.2435 32.542C68.6701 32.1234 68.7237 31.454 68.8308 30.1154C68.9082 29.1473 68.9469 28.6632 68.674 28.3468C68.6593 28.3298 68.6441 28.3133 68.6283 28.2973C68.3346 28 67.8491 28 66.8779 28H64.077C64.6791 29.7521 65.2168 31.3428 65.5479 32.3267Z" fill="#3F4549"/>
<path d="M6.42433 32.4085C6.35533 32.613 6.28986 32.8071 6.23169 33C4.93006 32.9999 4.27239 32.9939 3.8281 32.6081C3.80356 32.5868 3.77968 32.5648 3.75648 32.542C3.32987 32.1234 3.27632 31.454 3.16923 30.1154C3.09178 29.1473 3.05306 28.6632 3.32597 28.3468C3.34066 28.3298 3.35592 28.3133 3.37173 28.2973C3.66535 28 4.15094 28 5.12212 28H7.92342C7.32201 29.7499 6.78395 31.3407 6.45247 32.3251L6.42433 32.4085Z" fill="#3F4549"/>
<path d="M9 57.9984L9.01298 57.9992C9.27542 58.015 9.54066 58.0177 9.77395 58.02L9.84946 58.0208C11.5348 58.0391 14.2311 58.0671 17.4001 58.0956C17.3986 58.7436 17.3827 59.484 17.3604 60.2165C17.3066 61.9862 17.2797 62.8711 16.6978 63.4356C16.1159 64 15.215 64 13.413 64H12.9872C11.1852 64 10.2841 64 9.70226 63.4355C9.12038 62.8711 9.09349 61.9861 9.03971 60.2163C9.01636 59.4476 9 58.6701 9 58L9 57.9984Z" fill="#3F4549"/>
<path d="M54.8395 60.2163C54.8172 59.4832 54.8013 58.7421 54.7999 58.0938L54.9427 58.0925C57.9629 58.0651 60.526 58.0384 62.1502 58.0208L62.2966 58.0193C62.5772 58.0163 62.8971 58.0111 63.2 57.9832V58C63.2 58.6701 63.1836 59.4477 63.1602 60.2165C63.1064 61.9862 63.0795 62.8711 62.4976 63.4356C61.9157 64 61.0148 64 59.2128 64H58.787C56.985 64 56.084 64 55.5021 63.4355C54.9202 62.8711 54.8933 61.9861 54.8395 60.2163Z" fill="#3F4549"/>
</svg>
