<svg width="73" height="72" viewBox="0 0 73 72" fill="none" xmlns="http://www.w3.org/2000/svg">
<path d="M20.2384 13.2322C21.2147 14.2085 21.2147 15.7915 20.2384 16.7678C18.2419 18.7642 16.6582 21.1344 15.5778 23.7429C14.4973 26.3514 13.9412 29.1471 13.9412 31.9706C13.9412 34.794 14.4973 37.5898 15.5778 40.1983C16.6582 42.8068 18.2419 45.1769 20.2384 47.1734C21.2147 48.1497 21.2147 49.7326 20.2384 50.7089C19.2621 51.6852 17.6791 51.6852 16.7028 50.7089C14.2421 48.2481 12.2901 45.3268 10.9584 42.1117C9.62661 38.8965 8.94116 35.4506 8.94116 31.9706C8.94116 28.4905 9.62661 25.0446 10.9584 21.8295C12.2901 18.6143 14.2421 15.693 16.7028 13.2322C17.6791 12.2559 19.2621 12.2559 20.2384 13.2322Z" fill="#3F4549"/>
<path d="M39 36.3311C40.4945 35.4666 41.5 33.8507 41.5 32C41.5 29.2386 39.2614 27 36.5 27C33.7386 27 31.5 29.2386 31.5 32C31.5 33.8507 32.5055 35.4666 34 36.3311V59.5C34 60.8807 35.1193 62 36.5 62C37.8807 62 39 60.8807 39 59.5V36.3311Z" fill="#3F4549"/>
<path d="M28.3094 23.8388C29.2857 22.8625 29.2857 21.2796 28.3094 20.3033C27.3331 19.327 25.7502 19.327 24.7739 20.3033C23.2417 21.8354 22.0263 23.6544 21.1971 25.6563C20.3679 27.6581 19.9411 29.8037 19.9411 31.9705C19.9411 34.1374 20.3679 36.2829 21.1971 38.2848C22.0263 40.2867 23.2417 42.1056 24.7739 43.6378C25.7502 44.6141 27.3331 44.6141 28.3094 43.6378C29.2857 42.6615 29.2857 41.0786 28.3094 40.1023C27.2415 39.0344 26.3945 37.7666 25.8165 36.3714C25.2386 34.9762 24.9411 33.4807 24.9411 31.9705C24.9411 30.4603 25.2386 28.9649 25.8165 27.5697C26.3945 26.1744 27.2415 24.9067 28.3094 23.8388Z" fill="#3F4549"/>
<path d="M52.7028 13.2322C51.7265 14.2085 51.7265 15.7915 52.7028 16.7678C54.6993 18.7642 56.283 21.1344 57.3635 23.7429C58.4439 26.3514 59 29.1471 59 31.9706C59 34.794 58.4439 37.5898 57.3635 40.1983C56.283 42.8068 54.6993 45.1769 52.7028 47.1734C51.7265 48.1497 51.7265 49.7326 52.7028 50.7089C53.6791 51.6852 55.2621 51.6852 56.2384 50.7089C58.6991 48.2481 60.6511 45.3268 61.9828 42.1117C63.3146 38.8965 64 35.4506 64 31.9706C64 28.4905 63.3146 25.0446 61.9829 21.8295C60.6511 18.6143 58.6991 15.693 56.2384 13.2322C55.2621 12.2559 53.6791 12.2559 52.7028 13.2322Z" fill="#3F4549"/>
<path d="M44.6318 23.8388C43.6555 22.8625 43.6555 21.2796 44.6318 20.3033C45.6081 19.327 47.191 19.327 48.1673 20.3033C49.6995 21.8354 50.9149 23.6544 51.7441 25.6563C52.5733 27.6581 53.0001 29.8037 53.0001 31.9705C53.0001 34.1374 52.5733 36.2829 51.7441 38.2848C50.9149 40.2867 49.6995 42.1056 48.1673 43.6378C47.191 44.6141 45.6081 44.6141 44.6318 43.6378C43.6555 42.6615 43.6555 41.0786 44.6318 40.1023C45.6997 39.0344 46.5467 37.7666 47.1247 36.3714C47.7026 34.9762 48.0001 33.4807 48.0001 31.9705C48.0001 30.4603 47.7026 28.9649 47.1247 27.5697C46.5467 26.1744 45.6997 24.9067 44.6318 23.8388Z" fill="#3F4549"/>
</svg>
