<?xml version="1.0" encoding="UTF-8"?>
<svg width="28px" height="28px" viewBox="0 0 28 28" version="1.1" xmlns="http://www.w3.org/2000/svg" xmlns:xlink="http://www.w3.org/1999/xlink">
    <!-- Generator: sketchtool 63.1 (101010) - https://sketch.com -->
    <title>Elements/Icons/Check1</title>
    <desc>Created with sketchtool.</desc>
    <g id="Icons" stroke="none" stroke-width="1" fill="none" fill-rule="evenodd">
        <g transform="translate(-101.000000, -411.000000)" id="Elements/Icons/Check1">
            <g transform="translate(80.000000, 390.000000)">
                <g>
                    <polygon id="Rectangle" points="0 0 70 0 70 70 0 70"></polygon>
                    <path d="M38.3284082,21 C41.4532568,21 42.9670045,21.2923182 44.5401607,22.1336513 C45.9700928,22.8983873 47.1016127,24.0299072 47.8663487,25.4598393 C48.7076818,27.0329955 49,28.5467432 49,31.6715918 L49,38.3284082 C49,41.4532568 48.7076818,42.9670045 47.8663487,44.5401607 C47.1016127,45.9700928 45.9700928,47.1016127 44.5401607,47.8663487 C42.9670045,48.7076818 41.4532568,49 38.3284082,49 L31.6715918,49 C28.5467432,49 27.0329955,48.7076818 25.4598393,47.8663487 C24.0299072,47.1016127 22.8983873,45.9700928 22.1336513,44.5401607 C21.2923182,42.9670045 21,41.4532568 21,38.3284082 L21,31.6715918 C21,28.5467432 21.2923182,27.0329955 22.1336513,25.4598393 C22.8983873,24.0299072 24.0299072,22.8983873 25.4598393,22.1336513 C27.0329955,21.2923182 28.5467432,21 31.6715918,21 L38.3284082,21 Z M41.294096,29.1962951 L32.5111111,38.2537483 L28.705904,34.3296285 C28.0779351,33.6820356 27.043888,33.6661272 26.3962951,34.294096 C25.7487023,34.9220649 25.7327938,35.956112 26.3607627,36.6037049 L31.3385405,41.7370382 C31.980215,42.398765 33.0420072,42.398765 33.6836818,41.7370382 L43.6392373,31.4703715 C44.2672062,30.8227786 44.2512977,29.7887315 43.6037049,29.1607627 C42.956112,28.5327938 41.9220649,28.5487023 41.294096,29.1962951 Z" id="Combined-Shape" fill="#4A4A4A" fill-rule="nonzero"></path>
                </g>
            </g>
        </g>
    </g>
</svg>