<svg width="73" height="72" viewBox="0 0 73 72" fill="none" xmlns="http://www.w3.org/2000/svg">
<path fill-rule="evenodd" clip-rule="evenodd" d="M36.5 64C51.964 64 64.5 51.464 64.5 36C64.5 20.536 51.964 8 36.5 8C21.036 8 8.5 20.536 8.5 36C8.5 51.464 21.036 64 36.5 64ZM52.2264 28.5197C53.0657 27.5662 52.9732 26.1129 52.0197 25.2736C51.0662 24.4343 49.6129 24.5268 48.7736 25.4803C42.4443 32.6707 36.4517 39.5746 33.5618 42.9122C33.4845 43.0015 33.3493 43.002 33.268 42.9164L25.6675 34.9159C24.7926 33.9949 23.3368 33.9576 22.4159 34.8325C21.4949 35.7074 21.4576 37.1632 22.3325 38.0841L30.373 46.5478C30.6712 46.8623 31.0383 47.2492 31.4002 47.5377C31.8387 47.8872 32.5572 48.3328 33.5411 48.31C34.5247 48.2872 35.2217 47.8092 35.6437 47.4396C35.9918 47.1348 36.3404 46.7314 36.6235 46.4038L36.6823 46.3358C39.4078 43.1867 45.6352 36.0077 52.2264 28.5197Z" fill="#3F4549"/>
</svg>
