<svg width="73" height="72" viewBox="0 0 73 72" fill="none" xmlns="http://www.w3.org/2000/svg">
<path d="M43.1568 8C49.4065 8 52.434 8.58464 55.5803 10.2673C58.4402 11.7968 60.7032 14.0598 62.2327 16.9197C63.9154 20.066 64.5 23.0935 64.5 29.3432V42.6568C64.5 48.9065 63.9154 51.934 62.2327 55.0803C60.7032 57.9402 58.4402 60.2032 55.5803 61.7327C52.434 63.4154 49.4065 64 43.1568 64H29.8432C23.5935 64 20.566 63.4154 17.4197 61.7327C14.5598 60.2032 12.2968 57.9402 10.7673 55.0803C9.08464 51.934 8.5 48.9065 8.5 42.6568V29.3432C8.5 23.0935 9.08464 20.066 10.7673 16.9197C12.2968 14.0598 14.5598 11.7968 17.4197 10.2673C20.566 8.58464 23.5935 8 29.8432 8H43.1568ZM49.0882 24.3926L31.5222 42.5075L23.9118 34.6593C22.6559 33.3641 20.5878 33.3323 19.2926 34.5882C17.9974 35.8441 17.9656 37.9122 19.2215 39.2074L29.1771 49.4741C30.4604 50.7975 32.584 50.7975 33.8674 49.4741L53.7785 28.9407C55.0344 27.6456 55.0026 25.5775 53.7074 24.3215C52.4122 23.0656 50.3441 23.0974 49.0882 24.3926Z" fill="#3F4549"/>
</svg>
