<?xml version="1.0" encoding="UTF-8"?>
<svg width="30px" height="20px" viewBox="0 0 30 20" version="1.1" xmlns="http://www.w3.org/2000/svg" xmlns:xlink="http://www.w3.org/1999/xlink">
    <!-- Generator: sketchtool 63.1 (101010) - https://sketch.com -->
    <title>Elements/Icons/Check1</title>
    <desc>Created with sketchtool.</desc>
    <g id="Icons" stroke="none" stroke-width="1" fill="none" fill-rule="evenodd">
        <g transform="translate(-320.000000, -305.000000)" id="Elements/Icons/Check1">
            <g transform="translate(300.000000, 280.000000)">
                <g>
                    <polygon id="Rectangle" points="0 0 70 0 70 70 0 70"></polygon>
                    <path d="M47.3564084,25.4184331 C48.0003884,24.8226118 48.9990907,24.8686126 49.5870725,25.5211788 C50.1441078,26.1393994 50.1326826,27.0802305 49.5823802,27.6841616 L49.4856786,27.7815843 L31.3277957,44.5815674 C30.7185601,45.1452426 29.791635,45.134588 29.1954281,44.5788204 L29.0992337,44.4811501 L20.4150288,34.8811598 C19.825778,34.22977 19.8692037,33.2176633 20.5120227,32.620556 C21.1210092,32.0548755 22.049482,32.0645973 22.6465511,32.6210446 L22.7428825,32.7188431 L30.3618447,41.1415941 L47.3564084,25.4184331 Z" id="Path-2" fill="#4A4A4A" fill-rule="nonzero"></path>
                </g>
            </g>
        </g>
    </g>
</svg>