<svg width="72" height="72" viewBox="0 0 72 72" fill="none" xmlns="http://www.w3.org/2000/svg">
<path d="M42.6568 8C48.9065 8 51.934 8.58464 55.0803 10.2673C57.9402 11.7968 60.2032 14.0598 61.7327 16.9197C63.4154 20.066 64 23.0935 64 29.3432V42.6568C64 48.9065 63.4154 51.934 61.7327 55.0803C60.2032 57.9402 57.9402 60.2032 55.0803 61.7327C51.934 63.4154 48.9065 64 42.6568 64H29.3432C23.0935 64 20.066 63.4154 16.9197 61.7327C14.0598 60.2032 11.7968 57.9402 10.2673 55.0803C8.58464 51.934 8 48.9065 8 42.6568V29.3432C8 23.0935 8.58464 20.066 10.2673 16.9197C11.7968 14.0598 14.0598 11.7968 16.9197 10.2673C20.066 8.58464 23.0935 8 29.3432 8H42.6568ZM48.5882 24.3926L31.0222 42.5075L23.4118 34.6593C22.1559 33.3641 20.0878 33.3323 18.7926 34.5882C17.4974 35.8441 17.4656 37.9122 18.7215 39.2074L28.6771 49.4741C29.9604 50.7975 32.084 50.7975 33.3674 49.4741L53.2785 28.9407C54.5344 27.6456 54.5026 25.5775 53.2074 24.3215C51.9122 23.0656 49.8441 23.0974 48.5882 24.3926Z" fill="#4A4A4A"/>
</svg>
