<svg width="72" height="72" viewBox="0 0 72 72" fill="none" xmlns="http://www.w3.org/2000/svg">
<path d="M8 30.9018C8 43.5501 18.3576 53.8036 31.1343 53.8036C31.9248 53.8036 32.7059 53.7643 33.476 53.6877L36.3118 48.7946C34.6671 49.2602 32.9301 49.5095 31.1343 49.5095C20.7532 49.5095 12.3377 41.1785 12.3377 30.9018C12.3377 20.6251 20.7532 12.2941 31.1343 12.2941C40.7735 12.2941 48.7181 19.4769 49.8044 28.7307C51.1861 28.2489 52.7209 28.2193 54.1644 28.7137C53.0516 17.0918 43.1655 8 31.1343 8C18.3576 8 8 18.2535 8 30.9018Z" fill="#3F4549"/>
<path d="M30.9174 21.5979C30.9174 20.4122 31.8884 19.4509 33.0863 19.4509C34.2841 19.4509 35.2551 20.4122 35.2551 21.5979V31.6175C35.2551 31.7224 35.2475 31.8255 35.2328 31.9264C35.2527 32.6877 34.8619 33.4357 34.1487 33.8432L24.8432 39.9882C23.8059 40.581 22.4795 40.2292 21.8806 39.2024C21.2816 38.1754 21.6371 36.8623 22.6744 36.2694L30.9174 30.7318V21.5979Z" fill="#3F4549"/>
<path fill-rule="evenodd" clip-rule="evenodd" d="M69.3496 57.7757L55.1079 33.2025C54.7953 32.6632 54.3487 32.2146 53.8118 31.9007C52.0988 30.8991 49.9018 31.482 48.9046 33.2025L34.663 57.7757C34.2375 58.5099 34.0133 59.3442 34.0133 60.1937C34.0133 62.8481 36.1557 65 38.7985 65H65.214C66.0598 65 66.8904 64.7748 67.6214 64.3475C69.9054 63.0121 70.6791 60.0698 69.3496 57.7757ZM50.6668 51.9978L50.2121 42.0913C50.2121 41.0655 51.0154 40.2339 52.0063 40.2339C52.9972 40.2339 53.8004 41.0655 53.8004 42.0913L53.3465 51.9978C53.3465 53.0236 52.8999 53.7853 52.0066 53.7853C51.1134 53.7853 50.6668 53.0236 50.6668 51.9978ZM54.3985 58.8085C54.3985 60.1763 53.3275 61.2851 52.0063 61.2851C50.6851 61.2851 49.614 60.1763 49.614 58.8085C49.614 57.4407 50.6851 56.3319 52.0063 56.3319C53.3275 56.3319 54.3985 57.4407 54.3985 58.8085Z" fill="#3F4549"/>
</svg>
