<svg width="72" height="72" viewBox="0 0 72 72" fill="none" xmlns="http://www.w3.org/2000/svg">
<path d="M8 31.1786C8 43.9797 18.3774 54.3571 31.1786 54.3571C32.6177 54.3571 34.0263 54.226 35.3929 53.975L35.3929 49.5378C34.038 49.8476 32.6274 50.0112 31.1786 50.0112C20.7776 50.0112 12.346 41.5795 12.346 31.1786C12.346 20.7776 20.7776 12.346 31.1786 12.346C40.2705 12.346 47.8576 18.7888 49.6234 27.3579C50.6308 27.101 51.6869 26.9643 52.7768 26.9643C53.1846 26.9643 53.5877 26.9834 53.9853 27.0208C52.0262 16.2038 42.5604 8 31.1786 8C18.3774 8 8 18.3774 8 31.1786Z" fill="#3F4549"/>
<path d="M30.7299 21.7623C30.7299 20.5622 31.7028 19.5893 32.9029 19.5893C34.103 19.5893 35.0759 20.5622 35.0759 21.7623V31.9029C35.0759 32.0091 35.0683 32.1134 35.0535 32.2156C35.0735 32.986 34.6819 33.7431 33.9674 34.1556L24.6441 40.3748C23.6048 40.9748 22.2758 40.6187 21.6758 39.5795C21.0757 38.5401 21.4318 37.2112 22.4711 36.6111L30.7299 31.0065V21.7623Z" fill="#3F4549"/>
<path fill-rule="evenodd" clip-rule="evenodd" d="M40.5639 43.7833C41.1682 43.4449 41.9101 43.3409 43.0791 43.3089V40.0022C43.0791 34.5472 47.4209 30.125 52.7768 30.125C58.1327 30.125 62.4744 34.5472 62.4744 40.0022V43.3089C63.6435 43.3409 64.3853 43.4449 64.9897 43.7833C65.6347 44.1445 66.1656 44.6852 66.5202 45.3422C67 46.2311 67 47.4121 67 49.7741V60.5205C67 62.8825 67 64.0635 66.5202 64.9525C66.1656 65.6095 65.6347 66.1501 64.9897 66.5113C64.1169 67 62.9574 67 60.6383 67H44.9152C42.5962 67 41.4367 67 40.5639 66.5113C39.9188 66.1501 39.388 65.6095 39.0334 64.9525C38.5536 64.0635 38.5536 62.8825 38.5536 60.5205V49.7741C38.5536 47.4121 38.5536 46.2311 39.0334 45.3422C39.388 44.6852 39.9188 44.1445 40.5639 43.7833ZM58.5954 40.0022V43.2946H46.9582V40.0022C46.9582 36.7292 49.5633 34.0759 52.7768 34.0759C55.9903 34.0759 58.5954 36.7292 58.5954 40.0022Z" fill="#3F4549"/>
</svg>
