<svg width="72" height="72" viewBox="0 0 72 72" fill="none" xmlns="http://www.w3.org/2000/svg">
<path d="M37.75 24.625C37.75 23.1752 36.5748 22 35.125 22C33.6752 22 32.5 23.1752 32.5 24.625V36.875C32.5 37.0033 32.5092 37.1293 32.527 37.2527C32.5029 38.1834 32.976 39.098 33.8391 39.5962L45.1017 47.1091C46.3572 47.834 47.9627 47.4038 48.6875 46.1484C49.4124 44.8928 48.9822 43.2874 47.7267 42.5625L37.75 35.7921V24.625Z" fill="#3F4549"/>
<path fill-rule="evenodd" clip-rule="evenodd" d="M64 36C64 51.464 51.464 64 36 64C20.536 64 8 51.464 8 36C8 20.536 20.536 8 36 8C51.464 8 64 20.536 64 36ZM58.75 36C58.75 48.5645 48.5645 58.75 36 58.75C23.4355 58.75 13.25 48.5645 13.25 36C13.25 23.4355 23.4355 13.25 36 13.25C48.5645 13.25 58.75 23.4355 58.75 36Z" fill="#3F4549"/>
</svg>
