<svg width="73" height="72" viewBox="0 0 73 72" fill="none" xmlns="http://www.w3.org/2000/svg">
<path d="M43.1568 8C49.4065 8 52.434 8.58464 55.5803 10.2673C58.4402 11.7968 60.7032 14.0598 62.2327 16.9197C63.9154 20.066 64.5 23.0935 64.5 29.3432V42.6568C64.5 48.9065 63.9154 51.934 62.2327 55.0803C60.7032 57.9402 58.4402 60.2032 55.5803 61.7327C52.434 63.4154 49.4065 64 43.1568 64H29.8432C23.5935 64 20.566 63.4154 17.4197 61.7327C14.5598 60.2032 12.2968 57.9402 10.7673 55.0803C9.08464 51.934 8.5 48.9065 8.5 42.6568V29.3432C8.5 23.0935 9.08464 20.066 10.7673 16.9197C12.2968 14.0598 14.5598 11.7968 17.4197 10.2673C20.566 8.58464 23.5935 8 29.8432 8H43.1568ZM26.9205 21.7556C25.6188 20.681 23.6886 20.7526 22.4706 21.9706L22.2556 22.207L22.0676 22.4581C21.1944 23.7472 21.3287 25.5151 22.4706 26.6569L31.814 36L22.4706 45.3431L22.2556 45.5795C21.181 46.8812 21.2526 48.8114 22.4706 50.0294L22.707 50.2444L22.9581 50.4324C24.2472 51.3056 26.0151 51.1713 27.1569 50.0294L36.5 40.686L45.8431 50.0294L46.0795 50.2444C47.3812 51.319 49.3114 51.2474 50.5294 50.0294L50.7444 49.793L50.9324 49.5419C51.8056 48.2528 51.6713 46.4849 50.5294 45.3431L41.186 36L50.5294 26.6569L50.7444 26.4205C51.819 25.1188 51.7474 23.1886 50.5294 21.9706L50.293 21.7556L50.0419 21.5676C48.7528 20.6944 46.9849 20.8287 45.8431 21.9706L36.5 31.314L27.1569 21.9706L26.9205 21.7556Z" fill="#3F4549"/>
</svg>
