<svg width="72" height="72" viewBox="0 0 72 72" fill="none" xmlns="http://www.w3.org/2000/svg">
<path fill-rule="evenodd" clip-rule="evenodd" d="M36 64C51.464 64 64 51.464 64 36C64 20.536 51.464 8 36 8C20.536 8 8 20.536 8 36C8 51.464 20.536 64 36 64ZM49.2097 22.7903C48.1559 21.7366 46.4473 21.7366 45.3935 22.7903L36 32.1839L26.6065 22.7903C25.5527 21.7366 23.8441 21.7366 22.7903 22.7903C21.7366 23.8441 21.7366 25.5527 22.7903 26.6065L32.1839 36L22.7903 45.3935C21.7366 46.4473 21.7366 48.1559 22.7903 49.2097C23.8441 50.2634 25.5527 50.2634 26.6065 49.2097L36 39.8161L45.3935 49.2097C46.4473 50.2634 48.1559 50.2634 49.2097 49.2097C50.2635 48.1559 50.2635 46.4473 49.2097 45.3935L39.8161 36L49.2097 26.6065C50.2635 25.5527 50.2635 23.8441 49.2097 22.7903Z" fill="#3F4549"/>
</svg>
