<svg width="72" height="72" viewBox="0 0 72 72" fill="none" xmlns="http://www.w3.org/2000/svg">
<path d="M42.5443 36L62.6446 56.1003C64.4518 57.9075 64.4518 60.8375 62.6446 62.6446C60.8375 64.4518 57.9075 64.4518 56.1003 62.6446L36 42.5443L15.8997 62.6446C14.0925 64.4518 11.1625 64.4518 9.35537 62.6446C7.54821 60.8375 7.54821 57.9075 9.35537 56.1003L29.4557 36L9.35537 15.8997C7.54821 14.0925 7.54821 11.1625 9.35537 9.35537C11.1625 7.54821 14.0925 7.54821 15.8997 9.35537L36 29.4557L56.1003 9.35537C57.9075 7.54821 60.8375 7.54821 62.6446 9.35537C64.4518 11.1625 64.4518 14.0925 62.6446 15.8997L42.5443 36Z" fill="#4A4A4A"/>
</svg>
