<svg width="72" height="72" viewBox="0 0 72 72" fill="none" xmlns="http://www.w3.org/2000/svg">
<path d="M42.6568 8C48.9065 8 51.934 8.58464 55.0803 10.2673C57.9402 11.7968 60.2032 14.0598 61.7327 16.9197C63.4154 20.066 64 23.0935 64 29.3432V42.6568C64 48.9065 63.4154 51.934 61.7327 55.0803C60.2032 57.9402 57.9402 60.2032 55.0803 61.7327C51.934 63.4154 48.9065 64 42.6568 64H29.3432C23.0935 64 20.066 63.4154 16.9197 61.7327C14.0598 60.2032 11.7968 57.9402 10.2673 55.0803C8.58464 51.934 8 48.9065 8 42.6568V29.3432C8 23.0935 8.58464 20.066 10.2673 16.9197C11.7968 14.0598 14.0598 11.7968 16.9197 10.2673C20.066 8.58464 23.0935 8 29.3432 8H42.6568ZM26.4205 21.7556C25.1188 20.681 23.1886 20.7526 21.9706 21.9706L21.7556 22.207L21.5676 22.4581C20.6944 23.7472 20.8287 25.5151 21.9706 26.6569L31.314 36L21.9706 45.3431L21.7556 45.5795C20.681 46.8812 20.7526 48.8114 21.9706 50.0294L22.207 50.2444L22.4581 50.4324C23.7472 51.3056 25.5151 51.1713 26.6569 50.0294L36 40.686L45.3431 50.0294L45.5795 50.2444C46.8812 51.319 48.8114 51.2474 50.0294 50.0294L50.2444 49.793L50.4324 49.5419C51.3056 48.2528 51.1713 46.4849 50.0294 45.3431L40.686 36L50.0294 26.6569L50.2444 26.4205C51.319 25.1188 51.2474 23.1886 50.0294 21.9706L49.793 21.7556L49.5419 21.5676C48.2528 20.6944 46.4849 20.8287 45.3431 21.9706L36 31.314L26.6569 21.9706L26.4205 21.7556Z" fill="#4A4A4A"/>
</svg>
