<svg width="72" height="72" viewBox="0 0 72 72" fill="none" xmlns="http://www.w3.org/2000/svg">
<path d="M36 30.903L55.8474 11.0556C57.2549 9.64813 59.5369 9.64813 60.9444 11.0556C62.3519 12.4631 62.3519 14.7451 60.9444 16.1526L41.097 36L60.9444 55.8474C62.3519 57.2549 62.3519 59.5369 60.9444 60.9444C59.5369 62.3519 57.2549 62.3519 55.8474 60.9444L36 41.097L16.1526 60.9444C14.7451 62.3519 12.4631 62.3519 11.0556 60.9444C9.64813 59.5369 9.64813 57.2549 11.0556 55.8474L30.903 36L11.0556 16.1526C9.64813 14.7451 9.64813 12.4631 11.0556 11.0556C12.4631 9.64813 14.7451 9.64813 16.1526 11.0556L36 30.903Z" fill="#4A4A4A"/>
</svg>
