<svg width="72" height="72" viewBox="0 0 72 72" fill="none" xmlns="http://www.w3.org/2000/svg">
<path d="M36 9C49.2548 9 60 13.6479 60 19.3815V19.4315C60 20.1259 59.6582 21.071 58.5197 22.1814C57.4011 23.2725 55.7012 24.3258 53.4855 25.2398C49.0686 27.062 42.8863 28.2158 35.9999 28.2158C29.1136 28.2158 22.9313 27.062 18.5143 25.2398C16.2986 24.3258 14.5988 23.2725 13.4801 22.1814C12.3512 21.0803 12.0057 20.1419 12 19.4491V19.3815C12 13.6479 22.7452 9 36 9Z" fill="#3F4549"/>
<path d="M12 24.8773V28.2334C12.0057 28.9262 12.3512 29.8646 13.4801 30.9657C14.5988 32.0568 16.2986 33.1101 18.5143 34.0241C22.9313 35.8463 29.1136 37.0001 35.9999 37.0001C42.8863 37.0001 49.0686 35.8463 53.4855 34.0241C55.7012 33.1101 57.4011 32.0568 58.5197 30.9657C59.6582 29.8553 59.9999 28.9103 59.9999 28.2158L60 24.8771C58.5656 26.2497 56.5918 27.4191 54.2737 28.3754C49.5391 30.3286 43.0785 31.5099 35.9999 31.5099C28.9214 31.5099 22.4608 30.3286 17.7261 28.3754C15.4081 27.4191 13.4344 26.2497 12 24.8773Z" fill="#3F4549"/>
<path d="M60 33.6614C58.5656 35.034 56.5918 36.2034 54.2737 37.1597C49.5391 39.1129 43.0785 40.2942 35.9999 40.2942C28.9214 40.2942 22.4608 39.1129 17.7261 37.1597C15.4081 36.2034 13.4344 35.0341 12 33.6616V37.0177C12.0057 37.7105 12.3512 38.6489 13.4801 39.75C14.5988 40.8411 16.2986 41.8944 18.5143 42.8085C22.9313 44.6306 29.1136 45.7844 35.9999 45.7844C42.8863 45.7844 49.0686 44.6306 53.4855 42.8085C55.7012 41.8944 57.4011 40.8411 58.5197 39.75C59.6582 38.6396 59.9999 37.6946 59.9999 37.0001L60 33.6614Z" fill="#3F4549"/>
<path d="M60 42.4457C58.5656 43.8183 56.5918 44.9877 54.2737 45.944C49.5391 47.8972 43.0785 49.0786 35.9999 49.0786C28.9214 49.0786 22.4608 47.8972 17.7261 45.944C15.4081 44.9877 13.4344 43.8184 12 42.4459V45.802C12.0057 46.4948 12.3512 47.4332 13.4801 48.5343C14.5988 49.6254 16.2986 50.6787 18.5143 51.5928C22.9313 53.4149 29.1136 54.5687 35.9999 54.5687C42.8863 54.5687 49.0686 53.4149 53.4855 51.5928C55.7012 50.6787 57.4011 49.6254 58.5197 48.5343C59.6582 47.4239 59.9999 46.4789 59.9999 45.7844L60 42.4457Z" fill="#3F4549"/>
<path d="M60 51.23C58.5656 52.6026 56.5918 53.772 54.2737 54.7283C49.5391 56.6815 43.0785 57.8629 35.9999 57.8629C28.9214 57.8629 22.4608 56.6815 17.7261 54.7283C15.4081 53.772 13.4344 52.6027 12 51.2302V54.6185C13 59.6 22.7452 63 36 63C49.2548 63 59 59.6 60 54.6185V51.23Z" fill="#3F4549"/>
</svg>
