<?xml version="1.0" encoding="UTF-8"?>
<svg width="28px" height="28px" viewBox="0 0 28 28" version="1.1" xmlns="http://www.w3.org/2000/svg" xmlns:xlink="http://www.w3.org/1999/xlink">
    <!-- Generator: sketchtool 63.1 (101010) - https://sketch.com -->
    <title>Elements/Icons/Collapse1</title>
    <desc>Created with sketchtool.</desc>
    <g id="Icons" stroke="none" stroke-width="1" fill="none" fill-rule="evenodd">
        <g transform="translate(-431.000000, -411.000000)" id="Elements/Icons/Collapse1">
            <g transform="translate(410.000000, 390.000000)">
                <g>
                    <polygon id="Rectangle" points="0 0 70 0 70 70 0 70"></polygon>
                    <g id="Group" transform="translate(35.000000, 35.000000) scale(-1, -1) translate(-35.000000, -35.000000) translate(21.000000, 21.000000)" fill="#4A4A4A" fill-rule="nonzero">
                        <g id="Group-2">
                            <path d="M11.9977449,16.9329183 C12.0007248,16.9772152 12.0007515,17.0216613 11.9978247,17.0659617 L11.4298489,25.6629525 C11.4116447,25.9384942 11.1735166,26.1471074 10.897975,26.1289033 C10.7762477,26.1208612 10.6616601,26.0685937 10.575789,25.981943 L7.542,22.920007 L3.02530771,27.4769536 C2.33285689,28.1756915 1.21017229,28.1756915 0.51772147,27.4769536 C-0.133996949,26.819318 -0.172333327,25.7771154 0.402712337,25.0742366 L0.51772147,24.9466001 L5.034,20.390007 L2.09673938,17.4259088 C1.90236164,17.2297663 1.90379232,16.913187 2.09993488,16.7188093 C2.18533365,16.6341789 2.29836793,16.5831542 2.41832678,16.5750844 L10.9328797,16.0022937 C11.483919,15.9652242 11.9606754,16.381879 11.9977449,16.9329183 Z M27.4822785,0.523046374 C28.1339969,1.18068199 28.1723333,2.22288457 27.5972877,2.92576336 L27.4822785,3.05339995 L22.966,7.60999299 L25.9032606,10.5740912 C26.0976384,10.7702337 26.0962077,11.086813 25.9000651,11.2811907 C25.8146664,11.3658211 25.7016321,11.4168458 25.5816732,11.4249156 L17.0671203,11.9977063 C16.516081,12.0347758 16.0393246,11.618121 16.0022551,11.0670817 C15.9992752,11.0227848 15.9992485,10.9783387 16.0021753,10.9340383 L16.5701511,2.33704752 C16.5883553,2.06150583 16.8264834,1.85289255 17.102025,1.87109672 C17.2237523,1.87913885 17.3383399,1.93140627 17.424211,2.01805704 L20.458,5.07999299 L24.9746923,0.523046374 C25.6671431,-0.175691472 26.7898277,-0.175691472 27.4822785,0.523046374 Z" id="Combined-Shape"></path>
                        </g>
                    </g>
                    <g id="Group" transform="translate(23.000000, 35.000000)"></g>
                </g>
            </g>
        </g>
    </g>
</svg>