<svg width="72" height="72" viewBox="0 0 72 72" fill="none" xmlns="http://www.w3.org/2000/svg">
<path d="M40.003 30.1346C39.997 30.046 39.997 29.9571 40.0028 29.8685L41.1387 12.6758C41.1751 12.1247 41.6513 11.7075 42.2024 11.7439C42.4458 11.76 42.675 11.8645 42.8467 12.0378L48.9139 18.1613L57.9466 9.04803C59.3314 7.65066 61.5766 7.65066 62.9614 9.04803C64.2647 10.3632 64.3414 12.4475 63.1914 13.8531L62.9614 14.1084L53.9295 23.2209L59.8036 29.1487C60.1923 29.5409 60.1895 30.174 59.7972 30.5628C59.6264 30.732 59.4004 30.8341 59.1605 30.8502L42.1326 31.9957C41.0306 32.0698 40.0771 31.2366 40.003 30.1346ZM9.03616 62.952C7.73282 61.6368 7.65615 59.5525 8.80616 58.1469L9.03616 57.8916L18.0681 48.7791L12.194 42.8513C11.8052 42.4591 11.8081 41.826 12.2004 41.4372C12.3711 41.268 12.5972 41.1659 12.8371 41.1498L29.865 40.0043C30.967 39.9302 31.9204 40.7634 31.9946 41.8654C32.0005 41.954 32.0006 42.0429 31.9947 42.1315L30.8588 59.3242C30.8224 59.8753 30.3462 60.2925 29.7952 60.2561C29.5517 60.24 29.3226 60.1355 29.1508 59.9622L23.0837 53.8387L14.051 62.952C12.6662 64.3493 10.421 64.3493 9.03616 62.952Z" fill="#4A4A4A"/>
</svg>
