<svg width="72" height="72" viewBox="0 0 72 72" fill="none" xmlns="http://www.w3.org/2000/svg">
<path d="M36 46C41.5228 46 46 41.5228 46 36C46 30.4772 41.5228 26 36 26C30.4772 26 26 30.4772 26 36C26 41.5228 30.4772 46 36 46Z" fill="#3F4549"/>
<path fill-rule="evenodd" clip-rule="evenodd" d="M33 9C33 7.34315 34.3431 6 36 6C37.6569 6 39 7.34315 39 9V16.2235C47.6439 17.5238 54.4762 24.3561 55.7765 33H63C64.6569 33 66 34.3431 66 36C66 37.6569 64.6569 39 63 39H55.7765C54.4762 47.6439 47.6439 54.4762 39 55.7765V63C39 64.6569 37.6569 66 36 66C34.3431 66 33 64.6569 33 63V55.7765C24.3561 54.4762 17.5238 47.6439 16.2235 39H9C7.34315 39 6 37.6569 6 36C6 34.3431 7.34315 33 9 33H16.2235C17.5238 24.3561 24.3561 17.5238 33 16.2235V9ZM51 36C51 44.2843 44.2843 51 36 51C27.7157 51 21 44.2843 21 36C21 27.7157 27.7157 21 36 21C44.2843 21 51 27.7157 51 36Z" fill="#3F4549"/>
</svg>
