<svg width="73" height="72" viewBox="0 0 73 72" fill="none" xmlns="http://www.w3.org/2000/svg">
<path fill-rule="evenodd" clip-rule="evenodd" d="M8.05916 36.9386C8.36413 38.8641 9.95501 40.455 13.1368 43.6368L28.976 59.476C32.1577 62.6577 33.7486 64.2486 35.6741 64.5536C36.296 64.652 36.9295 64.652 37.5513 64.5536C39.4768 64.2486 41.0677 62.6577 44.2495 59.476L60.0887 43.6368C63.2704 40.455 64.8613 38.8641 65.1663 36.9386C65.2647 36.3167 65.2647 35.6833 65.1663 35.0614C64.8613 33.1359 63.2704 31.545 60.0886 28.3633L44.2495 12.5241C41.0677 9.34231 39.4768 7.75143 37.5513 7.44646C36.9295 7.34797 36.296 7.34797 35.6741 7.44646C33.7486 7.75143 32.1577 9.34231 28.976 12.5241L13.1368 28.3633C9.95501 31.545 8.36413 33.1359 8.05916 35.0614C7.96067 35.6833 7.96067 36.3167 8.05916 36.9386ZM33.2742 30.6603C34.7053 30.5015 36.5001 30.5015 38.7365 30.5016H39.9777V27.2697C39.9777 26.2564 39.9777 25.7498 40.1574 25.4569C40.3142 25.2014 40.5551 25.0367 40.8204 25.0037C41.1245 24.9659 41.4951 25.2192 42.2363 25.7258L49.0124 30.3576C49.7536 30.8643 50.1242 31.1176 50.2486 31.4483C50.357 31.7368 50.357 32.0662 50.2486 32.3547C50.1242 32.6854 49.7536 32.9388 49.0124 33.4454L42.2363 38.0772C41.4951 38.5838 41.1245 38.8372 40.8204 38.7993C40.5551 38.7663 40.3142 38.6016 40.1574 38.3461C39.9777 38.0532 39.9777 37.5466 39.9777 36.5333V33.3016H38.82C36.4808 33.3016 34.8416 33.3036 33.583 33.4433C32.3519 33.5799 31.6564 33.8338 31.1381 34.223C30.7908 34.4837 30.4822 34.7924 30.2215 35.1396C29.8323 35.658 29.5783 36.3534 29.4417 37.5846C29.302 38.8431 29.3 40.4823 29.3 42.8216V47.43H26.5L26.5 42.7379C26.5 40.5016 26.5 38.7068 26.6588 37.2757C26.8226 35.7995 27.1696 34.5409 27.9823 33.4584C28.4018 32.8998 28.8982 32.4033 29.4569 31.9839C30.5393 31.1712 31.7979 30.8242 33.2742 30.6603Z" fill="#3F4549"/>
</svg>
