<svg width="72" height="72" viewBox="0 0 72 72" fill="none" xmlns="http://www.w3.org/2000/svg">
<path fill-rule="evenodd" clip-rule="evenodd" d="M7.55916 36.9386C7.86413 38.8641 9.45501 40.455 12.6368 43.6367L28.476 59.4759C31.6577 62.6577 33.2486 64.2486 35.1741 64.5535C35.796 64.652 36.4295 64.652 37.0513 64.5535C38.9768 64.2486 40.5677 62.6577 43.7495 59.4759L59.5887 43.6367C62.7704 40.455 64.3613 38.8641 64.6663 36.9386C64.7647 36.3167 64.7647 35.6832 64.6663 35.0614C64.3613 33.1359 62.7704 31.545 59.5886 28.3632L43.7495 12.524C40.5677 9.34228 38.9768 7.7514 37.0513 7.44643C36.4295 7.34794 35.796 7.34794 35.1741 7.44643C33.2486 7.7514 31.6577 9.34228 28.476 12.524L12.6368 28.3632C9.45501 31.545 7.86413 33.1359 7.55916 35.0614C7.46067 35.6832 7.46067 36.3167 7.55916 36.9386ZM32.7742 30.6603C34.2053 30.5015 36.0001 30.5015 38.2365 30.5015H39.4777V27.2697C39.4777 26.2564 39.4777 25.7498 39.6574 25.4569C39.8142 25.2014 40.0551 25.0367 40.3204 25.0037C40.6245 24.9658 40.9951 25.2192 41.7363 25.7258L48.5124 30.3576C49.2536 30.8642 49.6242 31.1176 49.7486 31.4483C49.857 31.7368 49.857 32.0662 49.7486 32.3547C49.6242 32.6854 49.2536 32.9387 48.5124 33.4454L41.7363 38.0772C40.9951 38.5838 40.6245 38.8371 40.3204 38.7993C40.0551 38.7663 39.8142 38.6016 39.6574 38.3461C39.4777 38.0532 39.4777 37.5465 39.4777 36.5332V33.3015H38.32C35.9808 33.3015 34.3416 33.3035 33.083 33.4432C31.8519 33.5799 31.1564 33.8338 30.6381 34.223C30.2908 34.4837 29.9822 34.7923 29.7215 35.1396C29.3323 35.6579 29.0783 36.3534 28.9417 37.5845C28.802 38.8431 28.8 40.4823 28.8 42.8215V47.4299H26L26 42.7379C26 40.5016 26 38.7068 26.1588 37.2757C26.3226 35.7994 26.6696 34.5409 27.4823 33.4584C27.9018 32.8998 28.3982 32.4033 28.9569 31.9839C30.0393 31.1711 31.2979 30.8241 32.7742 30.6603Z" fill="#4A4A4A"/>
</svg>
