<svg width="72" height="72" viewBox="0 0 72 72" fill="none" xmlns="http://www.w3.org/2000/svg">
<path fill-rule="evenodd" clip-rule="evenodd" d="M35.8539 51.6779C35.3751 51.6534 34.9268 51.5089 34.5394 51.2741C34.4168 51.1999 34.3004 51.1166 34.1909 51.0253C34.1581 50.9979 34.1259 50.9698 34.0943 50.9409L34.0833 50.9309L19.0712 35.7522C17.9194 34.6923 17.8303 32.8929 18.8724 31.7222C19.9214 30.5437 21.7203 30.4473 22.8872 31.5091L22.9022 31.5227L33.1603 42.2408V10.8646C33.1603 9.28862 34.4255 8 35.9999 8C37.5743 8 38.8395 9.28863 38.8395 10.8646V42.2408L49.0976 31.5227L49.1126 31.5091C50.2795 30.4473 52.0784 30.5437 53.1274 31.7222C54.1695 32.8929 54.0803 34.6923 52.9286 35.7522L37.9134 50.9337L37.902 50.9441C37.8042 51.0331 37.7001 51.1155 37.5904 51.1904C37.1763 51.4733 36.6831 51.6493 36.1516 51.6776C36.1013 51.6803 36.0508 51.6817 35.9999 51.6817C35.951 51.6817 35.9023 51.6804 35.8539 51.6779ZM13.8079 46.4284C13.8079 44.8166 12.5139 43.4988 10.904 43.4988C9.29407 43.4988 8 44.8166 8 46.4284V59.1154C8 61.2663 9.72622 63.021 11.8692 63.021H60.1308C62.2738 63.021 64 61.2663 64 59.1154V46.4284C64 44.8166 62.7059 43.4988 61.096 43.4988C59.4861 43.4988 58.1921 44.8166 58.1921 46.4284V57.1617H13.8079V46.4284ZM58.7795 57.7491H13.2205V46.4284L13.2205 57.7492L58.7795 57.7491Z" fill="#3F4549"/>
</svg>
