<svg width="72" height="72" viewBox="0 0 72 72" fill="none" xmlns="http://www.w3.org/2000/svg">
<path d="M52.1981 10.7317H19.4634C19.492 10.2315 19.5562 9.87524 19.7005 9.5686C19.9711 8.99342 20.4339 8.53064 21.0091 8.25998C21.5616 8 22.2751 8 23.702 8H47.9595C49.3864 8 50.0999 8 50.6524 8.25998C51.2276 8.53064 51.6904 8.99342 51.961 9.5686C52.1053 9.87524 52.1695 10.2315 52.1981 10.7317Z" fill="#3F4549"/>
<path d="M57.7073 20.6987V38.7133C57.7073 42.124 57.7073 43.8294 56.6405 44.889C55.5737 45.9486 53.8567 45.9486 50.4228 45.9486H37.5187V34.5095C37.5187 33.61 36.7732 32.8807 35.8536 32.8807C34.934 32.8807 34.1886 33.61 34.1886 34.5095V45.9486H21.2846C17.8506 45.9486 16.1336 45.9486 15.0668 44.889C14 43.8294 14 42.124 14 38.7133V20.6987C14 17.288 14 15.5826 15.0668 14.523C16.1336 13.4634 17.8506 13.4634 21.2846 13.4634H50.4228C53.8567 13.4634 55.5737 13.4634 56.6405 14.523C57.7073 15.5826 57.7073 17.288 57.7073 20.6987Z" fill="#3F4549"/>
<path d="M34.1886 45.9486L34.1886 58.3345L25.6349 51.5178C24.9522 50.8606 23.8452 50.8606 23.1625 51.5178C22.4797 52.175 22.4797 53.2405 23.1625 53.8977L34.6174 63.5071C35.3002 64.1643 36.4071 64.1643 37.0899 63.5071L48.5448 53.8977C49.2276 53.2405 49.2276 52.175 48.5448 51.5178C47.8621 50.8606 46.7551 50.8606 46.0724 51.5178L37.5187 58.3344L37.5187 45.9486H34.1886Z" fill="#3F4549"/>
</svg>
