<svg width="72" height="72" viewBox="0 0 72 72" fill="none" xmlns="http://www.w3.org/2000/svg">
<path d="M36 20C40.4183 20 44 16.4183 44 12C44 7.58172 40.4183 4 36 4C31.5817 4 28 7.58172 28 12C28 16.4183 31.5817 20 36 20Z" fill="#3F4549"/>
<path d="M36.0982 49C32.7302 49 29.9672 51.7299 29.8647 55.0964C29.8288 56.2752 29.7998 57.5132 29.7998 59C29.7998 60.4868 29.8288 61.7248 29.8647 62.9036C29.9672 66.2701 32.7302 69 36.0982 69C39.3884 69 42.0887 66.3902 42.1524 63.1006C42.1798 61.6894 42.1998 60.2352 42.1998 59C42.1998 57.7648 42.1798 56.3106 42.1524 54.8994C42.0887 51.6098 39.3884 49 36.0982 49Z" fill="#3F4549"/>
<path d="M46.6291 14.8431C46.871 13.9362 47 12.9831 47 12C47 10.96 46.8557 9.95366 46.5859 9H54.7365C55.9839 9 57 10.0113 57 11.2588C57 12.2848 56.3087 13.1781 55.3063 13.3971C53.5291 13.7855 50.4622 14.3838 46.6291 14.8431Z" fill="#3F4549"/>
<path d="M27.0673 18.4207C28.8125 20.8444 31.5197 22.5291 34.6298 22.9155C34.5031 23.1012 34.3697 23.3003 34.231 23.5073L26.9526 34.3692C26.7611 34.6547 26.5487 34.9715 26.3951 35.2531C26.2462 35.526 25.9534 36.1043 26.0063 36.8376C26.0662 37.6676 26.4946 38.4272 27.174 38.9077C27.7742 39.3323 28.4206 39.3808 28.7312 39.3945C29.0516 39.4087 29.4326 39.3908 29.776 39.3746L33.1021 39.219L31.971 44.4047C31.852 44.9503 31.7416 45.456 31.6831 45.8478C31.6527 46.051 31.6211 46.3164 31.6284 46.5924C31.6314 46.7048 31.6412 46.897 31.6953 47.1271C28.8906 48.6667 26.969 51.6253 26.8661 55.0051C26.8359 55.9963 26.8102 57.0392 26.8023 58.2373C21.8404 57.3151 19.1621 55.7691 17.912 54.8214C17.5604 54.5548 17.3846 54.4215 17.1783 54.0378C16.9721 53.654 16.9532 53.3598 16.9154 52.7714C16.6969 49.3728 16.1864 39.7197 17.0001 34C17.9394 27.3975 21.6953 21.5529 27.0673 18.4207Z" fill="#3F4549"/>
<path d="M39.77 23.4263C39.7667 23.2542 39.7497 22.8515 39.5463 22.4158C41.7325 21.6717 43.6093 20.2587 44.9328 18.4206C50.3049 21.5528 54.0608 27.3974 55.0001 34C55.8138 39.7197 55.3033 49.3728 55.0849 52.7714C55.047 53.3598 55.0281 53.654 54.8219 54.0378C54.6156 54.4215 54.4398 54.5548 54.0882 54.8214C52.8381 55.7691 50.1597 57.3152 45.1976 58.2374C45.1916 57.1623 45.174 55.9835 45.1519 54.8413C45.0652 50.373 41.748 46.7658 37.4985 46.1075L45.0222 35.5059C45.2268 35.2178 45.4519 34.9008 45.6156 34.6192C45.7719 34.3502 46.088 33.7691 46.049 33.0223C46.0051 32.1822 45.5832 31.4071 44.9015 30.9142C44.2955 30.476 43.6359 30.426 43.3251 30.4112C42.9997 30.3958 42.6114 30.4127 42.2583 30.4281L38.3383 30.5981L39.4042 25.7108C39.5319 25.1255 39.6481 24.5929 39.7103 24.1842C39.7424 23.9737 39.7754 23.7037 39.77 23.4263Z" fill="#3F4549"/>
<path d="M25.3709 14.8431C21.5378 14.3838 18.4709 13.7855 16.6937 13.3971C15.6913 13.1781 15 12.2848 15 11.2588C15 10.0113 16.0161 9 17.2635 9H25.4141C25.1443 9.95366 25 10.96 25 12C25 12.9831 25.129 13.9362 25.3709 14.8431Z" fill="#3F4549"/>
<path d="M35.8559 24.6753L28.6485 35.4311C28.2041 36.0944 27.9818 36.4261 28.0012 36.6938C28.018 36.9268 28.1382 37.14 28.3289 37.2749C28.5481 37.4299 28.9469 37.4112 29.7444 37.3739L35.4489 37.107C35.5041 37.1044 35.5318 37.1031 35.5511 37.1137C35.568 37.123 35.5809 37.1383 35.5872 37.1565C35.5944 37.1773 35.5885 37.2043 35.5767 37.2584L33.9391 44.7669C33.6769 45.9688 33.5459 46.5697 33.6817 46.7653C33.7984 46.9334 33.9994 47.0222 34.2023 46.9952C34.4383 46.9639 34.7942 46.4624 35.5062 45.4592L43.3549 34.3995C43.8289 33.7317 44.0659 33.3977 44.0517 33.1266C44.0394 32.8908 43.921 32.6732 43.7296 32.5349C43.5096 32.3758 43.1005 32.3935 42.2824 32.429L35.9929 32.7017C35.9378 32.7041 35.9102 32.7053 35.891 32.6947C35.8742 32.6853 35.8614 32.6701 35.8551 32.6519C35.8479 32.6312 35.8537 32.6042 35.8655 32.5504L37.4363 25.3482C37.7156 24.0679 37.8552 23.4277 37.7163 23.2311C37.597 23.0622 37.3925 22.9752 37.1881 23.0062C36.9501 23.0423 36.5854 23.5866 35.8559 24.6753Z" fill="#3F4549"/>
</svg>
