<svg width="72" height="72" viewBox="0 0 72 72" fill="none" xmlns="http://www.w3.org/2000/svg">
<path d="M43.619 13.619C43.619 16.491 42.0301 18.9918 39.6833 20.2902C39.6421 20.213 39.5947 20.1352 39.5401 20.0579C38.9939 19.2848 38.0581 18.8863 37.1222 19.0283C36.4584 19.1291 36.0278 19.5094 35.8756 19.6501C35.6785 19.8324 35.5143 20.0346 35.3935 20.192C35.2009 20.4433 34.9764 20.7719 34.7335 21.1333C31.1284 20.5302 28.381 17.3955 28.381 13.619C28.381 9.41116 31.7921 6 36 6C40.2079 6 43.619 9.41116 43.619 13.619Z" fill="#3F4549"/>
<path d="M27.6333 19.9247C28.9692 21.6945 30.8537 23.0271 33.034 23.6695L27.9001 31.3309C27.726 31.5906 27.5271 31.8871 27.3825 32.1522C27.2427 32.4085 26.9541 32.9743 27.0062 33.6965C27.0647 34.5071 27.4831 35.2488 28.1466 35.7181C28.7377 36.1362 29.3712 36.1819 29.6629 36.1948C29.9646 36.2082 30.3212 36.1914 30.6335 36.1767L33.4678 36.044L32.4765 40.589C32.3681 41.0859 32.2658 41.5544 32.2113 41.9192C32.183 42.1089 32.1524 42.3634 32.1594 42.6307C32.1651 42.8453 32.1967 43.3761 32.5452 43.896C29.5276 45.2421 27.4068 48.2473 27.301 51.7191L27.2911 52.0541C25.3101 51.9966 23.5403 51.9294 22.1397 51.87C20.5819 51.8039 19.803 51.7709 19.28 51.2552C18.7571 50.7396 18.7138 49.9719 18.6271 48.4367C18.4223 44.8095 18.2409 38.9043 18.8572 34.5714C19.7143 28.5465 22.9076 22.9953 27.6333 19.9247Z" fill="#3F4549"/>
<path d="M37.1801 43.2106C37.2756 43.0777 37.3742 42.9387 37.4748 42.797L44.741 32.5582C44.9271 32.2962 45.1377 31.9997 45.2917 31.7347C45.4383 31.4824 45.7498 30.9139 45.7113 30.1784C45.6685 29.3579 45.2564 28.601 44.5907 28.1196C43.9939 27.688 43.3474 27.641 43.0559 27.6271C42.7497 27.6126 42.3865 27.6285 42.0654 27.6425L38.6857 27.7891L39.6324 23.4484C41.5301 22.7469 43.1689 21.5115 44.3668 19.9246C49.0926 22.9952 52.2859 28.5465 53.143 34.5714C53.7594 38.9043 53.5779 44.8095 53.3731 48.4367C53.2864 49.9719 53.2431 50.7396 52.7202 51.2552C52.1972 51.7709 51.4183 51.8039 49.8605 51.87C48.4637 51.9292 46.6998 51.9963 44.7252 52.0536C44.7223 51.8896 44.7192 51.726 44.7161 51.5631C44.6319 47.2215 41.345 43.7333 37.1801 43.2106Z" fill="#3F4549"/>
<path d="M46.2333 15.8722C46.3924 15.1465 46.4762 14.3925 46.4762 13.619C46.4762 12.2751 46.2231 10.9902 45.762 9.80952H53.0668C54.6862 9.80952 56 11.1224 56 12.7418C56 14.3014 54.7831 15.5854 53.2248 15.6482C51.5157 15.7172 49.1034 15.8027 46.2333 15.8722Z" fill="#3F4549"/>
<path d="M18.7752 15.6482C20.4843 15.7172 22.8966 15.8027 25.7667 15.8722C25.6076 15.1465 25.5238 14.3925 25.5238 13.619C25.5238 12.2751 25.7769 10.9902 26.238 9.80952H18.9332C17.3138 9.80952 16 11.1224 16 12.7418C16 14.3014 17.2169 15.5854 18.7752 15.6482Z" fill="#3F4549"/>
<path d="M36.0935 46C32.8859 46 30.2545 48.5999 30.1569 51.8061C30.1227 52.9287 30.0951 54.1079 30.0951 55.5238C30.0951 56.9398 30.1227 58.1189 30.1569 59.2415C30.2545 62.4477 32.8859 65.0476 36.0935 65.0476C39.2271 65.0476 41.7987 62.5621 41.8595 59.4291C41.8855 58.0852 41.9046 56.7002 41.9046 55.5238C41.9046 54.3474 41.8855 52.9624 41.8595 51.6185C41.7987 48.4856 39.2271 46 36.0935 46Z" fill="#3F4549"/>
<path d="M36.2013 22.5357L29.5945 32.3952C29.1871 33.0032 28.9834 33.3072 29.0011 33.5526C29.0165 33.7662 29.1267 33.9616 29.3015 34.0853C29.5024 34.2274 29.8679 34.2103 30.599 34.1761L35.8281 33.9314C35.8788 33.9291 35.9042 33.9279 35.9218 33.9376C35.9373 33.9461 35.9491 33.9601 35.9549 33.9768C35.9616 33.9958 35.9562 34.0206 35.9453 34.0702L34.4442 40.953C34.2039 42.0547 34.0837 42.6056 34.2082 42.7848C34.3152 42.9389 34.4994 43.0203 34.6854 42.9956C34.9017 42.9669 35.228 42.5072 35.8807 41.5876L43.0754 31.4496C43.5098 30.8374 43.7271 30.5313 43.7141 30.2828C43.7028 30.0666 43.5942 29.8671 43.4188 29.7403C43.2172 29.5945 42.8422 29.6107 42.0922 29.6432L36.3269 29.8932C36.2763 29.8954 36.2511 29.8965 36.2334 29.8868C36.218 29.8782 36.2063 29.8643 36.2005 29.8476C36.1939 29.8286 36.1993 29.8039 36.21 29.7545L37.65 23.1525C37.9059 21.9789 38.0339 21.3921 37.9066 21.2119C37.7973 21.057 37.6098 20.9772 37.4224 21.0057C37.2043 21.0388 36.8699 21.5378 36.2013 22.5357Z" fill="#3F4549"/>
</svg>
