<svg width="72" height="72" viewBox="0 0 72 72" fill="none" xmlns="http://www.w3.org/2000/svg">
<path fill-rule="evenodd" clip-rule="evenodd" d="M34.7082 11.801C29.036 11.8104 23.6229 11.8793 20.1742 11.9334C18.3417 11.9621 17.4255 11.9765 16.6905 12.4672C15.9555 12.9579 15.5944 13.7905 14.8722 15.4558C13.8862 17.7294 12.6363 20.6987 11.8 22.9999C10.6204 26.2458 9.03922 30.9103 8.34788 32.9632C8.17424 33.4789 8.08738 33.7368 8.03547 34.0213C7.98356 34.3059 7.97408 34.5686 7.95512 35.0938C7.89617 36.7273 7.7998 40.1409 7.7998 44.9999C7.7998 49.1833 7.87123 52.2951 7.92872 54.1221C7.95644 55.0034 7.97031 55.444 8.25739 55.7252C8.54447 56.0064 8.98669 56.0112 9.87111 56.0208C14.5969 56.0721 27.2577 56.1999 35.9998 56.1999C44.742 56.1999 57.4028 56.0721 62.1285 56.0208C63.013 56.0112 63.4552 56.0064 63.7422 55.7252C64.0293 55.444 64.0432 55.0034 64.071 54.1222C64.1285 52.2952 64.2 49.1833 64.2 44.9999C64.2 40.1395 64.1035 36.7255 64.0445 35.0925C64.0255 34.5679 64.016 34.3056 63.9642 34.0212C63.9124 33.737 63.8257 33.4795 63.6525 32.9647C62.9632 30.9163 61.3866 26.2631 60.2 22.9999C59.3673 20.7101 58.1153 17.7359 57.1276 15.4576C56.4052 13.7912 56.044 12.958 55.309 12.4672C54.5739 11.9765 53.6573 11.9621 51.8241 11.9333C48.8652 11.8869 44.4608 11.8297 39.6876 11.8084C39.759 12.0806 39.7678 12.3079 39.77 12.4262C39.7754 12.7036 39.7424 12.9736 39.7103 13.1841C39.6481 13.5929 39.5319 14.1255 39.4042 14.7108L39.3396 15.0073C43.96 15.0274 47.8707 15.085 50.3368 15.1297C51.6958 15.1543 52.3753 15.1666 52.9173 15.5353C53.4594 15.904 53.7186 16.527 54.2371 17.7731C54.837 19.2146 55.6098 21.1096 56.3615 23.0624C57.235 25.3313 58.1941 28.344 58.8401 30.4552C59.1939 31.6113 59.3707 32.1893 59.0709 32.5946C58.7711 32.9999 58.1616 32.9999 56.9426 32.9999H38.9942L37.0992 35.67C36.7761 36.1254 36.4765 36.5476 36.2264 36.8547C36.0966 37.014 35.9217 37.2162 35.7128 37.3966C35.5408 37.5452 35.1089 37.8925 34.4652 37.9778C33.5195 38.1033 32.583 37.6896 32.0389 36.906C31.6685 36.3727 31.6344 35.8195 31.6284 35.5923C31.6211 35.3164 31.6527 35.051 31.6831 34.8478C31.7416 34.456 31.852 33.9502 31.971 33.4047L32.0593 32.9999H15.0532C13.8358 32.9999 13.2272 32.9999 12.9274 32.5951C12.6275 32.1903 12.8034 31.6129 13.1553 30.4581C13.7986 28.3468 14.7548 25.3324 15.6287 23.0624C16.3818 21.106 17.1583 19.2076 17.7609 17.7651C18.2797 16.5233 18.5391 15.9023 19.0807 15.5345C19.6223 15.1667 20.3003 15.1544 21.6564 15.1298C24.1034 15.0854 27.9765 15.0283 32.5555 15.0077L34.2307 12.5078C34.3984 12.2575 34.5585 12.0185 34.7082 11.801ZM16 46.9999C18.7614 46.9999 21 44.7613 21 41.9999C21 39.2385 18.7614 36.9999 16 36.9999C13.2386 36.9999 11 39.2385 11 41.9999C11 44.7613 13.2386 46.9999 16 46.9999ZM56 46.9999C58.7614 46.9999 61 44.7613 61 41.9999C61 39.2385 58.7614 36.9999 56 36.9999C53.2386 36.9999 51 39.2385 51 41.9999C51 44.7613 53.2386 46.9999 56 46.9999Z" fill="#3F4549"/>
<path d="M65.5479 32.3266L65.5498 32.332L65.576 32.4098C65.6447 32.6137 65.7101 32.8076 65.7681 32.9999C67.0699 32.9998 67.7276 32.9938 68.1719 32.608C68.1964 32.5867 68.2203 32.5647 68.2435 32.5419C68.6701 32.1233 68.7237 31.4539 68.8308 30.1153C68.9082 29.1472 68.9469 28.6631 68.674 28.3467C68.6593 28.3297 68.6441 28.3132 68.6283 28.2972C68.3346 27.9999 67.8491 27.9999 66.8779 27.9999H64.077C64.6791 29.752 65.2168 31.3427 65.5479 32.3266Z" fill="#3F4549"/>
<path d="M6.42433 32.4084C6.35533 32.6129 6.28986 32.807 6.23169 32.9999C4.93006 32.9998 4.27239 32.9938 3.8281 32.608C3.80356 32.5867 3.77968 32.5647 3.75648 32.5419C3.32987 32.1233 3.27632 31.4539 3.16923 30.1153C3.09178 29.1472 3.05306 28.6631 3.32597 28.3467C3.34066 28.3297 3.35592 28.3132 3.37173 28.2972C3.66535 27.9999 4.15094 27.9999 5.12212 27.9999H7.92342C7.32201 29.7498 6.78395 31.3406 6.45247 32.3249L6.42433 32.4084Z" fill="#3F4549"/>
<path d="M9 57.9983L9.01298 57.9991C9.27533 58.0149 9.54047 58.0176 9.7737 58.0199L9.84946 58.0207C11.5348 58.039 14.2311 58.067 17.4001 58.0955C17.3986 58.7435 17.3827 59.4839 17.3604 60.2164C17.3066 61.9861 17.2797 62.871 16.6978 63.4354C16.1159 63.9999 15.215 63.9999 13.413 63.9999H12.9872C11.1852 63.9999 10.2841 63.9999 9.70226 63.4354C9.12038 62.8709 9.09349 61.986 9.03971 60.2162C9.01636 59.4475 9 58.67 9 57.9999L9 57.9983Z" fill="#3F4549"/>
<path d="M54.8395 60.2162C54.8172 59.4831 54.8013 58.742 54.7999 58.0937L54.9427 58.0924C57.9629 58.065 60.526 58.0383 62.1502 58.0207L62.2966 58.0192C62.5772 58.0162 62.8971 58.011 63.2 57.983V57.9999C63.2 58.67 63.1836 59.4476 63.1602 60.2164C63.1064 61.9861 63.0795 62.871 62.4976 63.4354C61.9157 63.9999 61.0148 63.9999 59.2128 63.9999H58.787C56.985 63.9999 56.084 63.9999 55.5021 63.4354C54.9202 62.8709 54.8933 61.986 54.8395 60.2162Z" fill="#3F4549"/>
<path d="M35.8559 13.6752L28.6485 24.4311C28.2041 25.0944 27.9818 25.426 28.0012 25.6937C28.018 25.9267 28.1382 26.1399 28.3289 26.2748C28.5481 26.4298 28.9469 26.4112 29.7444 26.3738L35.4489 26.107C35.5042 26.1044 35.5318 26.1031 35.5511 26.1137C35.568 26.123 35.5809 26.1382 35.5872 26.1564C35.5944 26.1772 35.5885 26.2043 35.5767 26.2583L33.9391 33.7669C33.6769 34.9687 33.5459 35.5697 33.6817 35.7652C33.7984 35.9333 33.9994 36.0221 34.2023 35.9952C34.4383 35.9639 34.7942 35.4623 35.5062 34.4591L43.3549 23.3995C43.8289 22.7316 44.0659 22.3977 44.0517 22.1266C44.0394 21.8908 43.921 21.6732 43.7296 21.5348C43.5096 21.3757 43.1005 21.3935 42.2824 21.4289L35.9929 21.7017C35.9378 21.704 35.9102 21.7052 35.891 21.6946C35.8742 21.6853 35.8614 21.6701 35.8551 21.6519C35.8479 21.6311 35.8537 21.6042 35.8655 21.5503L37.4363 14.3482C37.7156 13.0678 37.8552 12.4277 37.7163 12.2311C37.597 12.0622 37.3925 11.9751 37.1881 12.0061C36.9501 12.0423 36.5854 12.5866 35.8559 13.6752Z" fill="#3F4549"/>
</svg>
