<svg width="72" height="72" viewBox="0 0 72 72" fill="none" xmlns="http://www.w3.org/2000/svg">
<path d="M35.8559 9.67526L28.6485 20.4311C28.2041 21.0944 27.9818 21.4261 28.0012 21.6938C28.018 21.9268 28.1382 22.14 28.3289 22.2749C28.5481 22.4299 28.9469 22.4112 29.7444 22.3739L35.4489 22.107C35.5042 22.1044 35.5318 22.1031 35.5511 22.1137C35.568 22.123 35.5809 22.1383 35.5872 22.1565C35.5944 22.1773 35.5885 22.2043 35.5767 22.2584L33.9391 29.7669C33.6769 30.9688 33.5459 31.5697 33.6817 31.7653C33.7984 31.9334 33.9994 32.0222 34.2023 31.9952C34.4383 31.9639 34.7942 31.4624 35.5062 30.4592L43.3549 19.3995C43.8289 18.7317 44.0659 18.3977 44.0517 18.1266C44.0394 17.8908 43.921 17.6732 43.7296 17.5349C43.5096 17.3758 43.1005 17.3935 42.2824 17.429L35.9929 17.7017C35.9378 17.7041 35.9102 17.7053 35.891 17.6947C35.8742 17.6853 35.8614 17.6701 35.8551 17.6519C35.8479 17.6312 35.8537 17.6042 35.8655 17.5503L37.4363 10.3482C37.7156 9.06789 37.8552 8.4277 37.7163 8.23114C37.597 8.06223 37.3925 7.97517 37.1881 8.0062C36.9501 8.04232 36.5854 8.58664 35.8559 9.67526Z" fill="#3F4549"/>
<path fill-rule="evenodd" clip-rule="evenodd" d="M24.48 8.18957C27.1974 8.08756 30.521 8.01607 34.5707 8.00239C34.4618 8.16285 34.3482 8.33234 34.231 8.50737L31.2012 13.0288C28.6736 13.0604 26.4916 13.1163 24.6128 13.1868C22.0583 13.2825 20.6912 13.3502 19.6633 13.5894C18.9032 13.7663 18.4581 14.0076 17.9111 14.594C16.8474 15.7341 16.5866 16.9094 16.2048 23.146C16.1615 23.8538 16.1183 24.5688 16.0759 25.2849C15.959 27.2574 15.9005 28.2436 16.4935 28.8718C17.0865 29.5 18.0792 29.5 20.0645 29.5H31.9502C31.8393 30.0091 31.7382 30.479 31.6831 30.8478C31.6527 31.051 31.6211 31.3165 31.6284 31.5924C31.6344 31.8196 31.6685 32.3728 32.0389 32.9061C32.583 33.6896 33.5195 34.1033 34.4652 33.9779C35.1089 33.8925 35.5408 33.5452 35.7128 33.3966C35.9217 33.2162 36.0966 33.0141 36.2264 32.8548C36.4765 32.5477 36.7761 32.1255 37.0992 31.6701L38.6393 29.5H51.9356C53.9208 29.5 54.9134 29.5 55.5064 28.8718C56.0995 28.2437 56.041 27.2574 55.9242 25.285C55.8817 24.5691 55.8386 23.8542 55.7953 23.1466C55.4136 16.9096 55.1528 15.7341 54.0891 14.594C53.5421 14.0077 53.097 13.7663 52.3369 13.5894C51.3088 13.3502 49.9416 13.2825 47.387 13.1867C45.0536 13.0993 42.2525 13.0342 38.9027 13.0102L39.4042 10.7108C39.5319 10.1255 39.6481 9.59292 39.7103 9.18419C39.7424 8.97368 39.7754 8.70368 39.77 8.42628C39.7684 8.33975 39.7632 8.19494 39.7327 8.01694C42.7613 8.04534 45.3362 8.1076 47.5198 8.18956C52.3377 8.3704 54.7466 8.46083 56.9886 10.8675C59.2306 13.2743 59.4064 16.1504 59.7579 21.9026C59.9783 25.5081 60.1946 29.3165 60.3387 32.5C60.6556 39.5046 60.8964 49.5345 60.9903 53.772C61.0113 54.7172 61.0217 55.1898 60.7605 55.4907C60.4993 55.7915 60.0736 55.7971 59.2224 55.8082C54.8938 55.8648 43.7324 56 36 56C28.2676 56 17.1062 55.8648 12.7776 55.8082C11.9264 55.7971 11.5008 55.7915 11.2395 55.4907C10.9783 55.1898 10.9887 54.7172 11.0097 53.772C11.1035 49.5345 11.3442 39.5046 11.6612 32.5C11.8053 29.3163 12.0217 25.5076 12.2422 21.9019C12.5938 16.15 12.7696 13.2741 15.0116 10.8675C17.2536 8.46083 19.6624 8.37041 24.48 8.18957ZM19.5 52C21.9853 52 24 49.9853 24 47.5C24 45.0147 21.9853 43 19.5 43C17.0147 43 15 45.0147 15 47.5C15 49.9853 17.0147 52 19.5 52ZM52.5 52C54.9853 52 57 49.9853 57 47.5C57 45.0147 54.9853 43 52.5 43C50.0147 43 48 45.0147 48 47.5C48 49.9853 50.0147 52 52.5 52Z" fill="#3F4549"/>
<path d="M8.0687 28H9.88497C9.80133 29.5408 9.72562 31.0327 9.6633 32.4096C9.6545 32.6042 9.64575 32.801 9.63707 33H9.23646C7.88157 33 7.20412 33 6.75199 32.6052C6.72144 32.5785 6.69191 32.5507 6.66347 32.5218C6.24264 32.0938 6.20257 31.4176 6.12242 30.065C6.06661 29.1232 6.0387 28.6523 6.30584 28.3445C6.32376 28.3239 6.34251 28.304 6.36206 28.2849C6.65351 28 7.12524 28 8.0687 28Z" fill="#3F4549"/>
<path d="M13.0004 57.8113C13.0002 57.8751 13 57.938 13 58C13 58.6671 13.0155 59.4407 13.0376 60.2061C13.0888 61.9813 13.1144 62.8689 13.6965 63.4345C14.2786 64 15.1857 64 17.0001 64C18.8143 64 19.7214 64 20.3035 63.4345C20.8856 62.869 20.9112 61.9814 20.9625 60.2063C20.9846 59.4409 21 58.6672 21 58L20.9999 57.9045C17.7096 57.8706 14.8261 57.835 13.0004 57.8113Z" fill="#3F4549"/>
<path d="M51.0002 57.9045L51 58C51 58.6671 51.0155 59.4407 51.0376 60.2061C51.0888 61.9813 51.1144 62.8689 51.6965 63.4345C52.2786 64 53.1857 64 55 64C56.8143 64 57.7214 64 58.3035 63.4345C58.8856 62.869 58.9112 61.9814 58.9625 60.2063C58.9846 59.4409 59 58.6672 59 58C59 57.938 58.9999 57.8751 58.9996 57.8113C57.174 57.835 54.2905 57.8706 51.0002 57.9045Z" fill="#3F4549"/>
<path d="M62.3629 33H62.7636C64.1185 33 64.796 33 65.2481 32.6052C65.2787 32.5785 65.3082 32.5507 65.3366 32.5218C65.7574 32.0938 65.7975 31.4175 65.8777 30.065C65.9335 29.1233 65.9614 28.6523 65.6943 28.3445C65.6763 28.3239 65.6576 28.304 65.638 28.2849C65.3466 28 64.8749 28 63.9314 28H62.115C62.1987 29.5408 62.2744 31.0328 62.3367 32.4096C62.3455 32.6042 62.3542 32.801 62.3629 33Z" fill="#3F4549"/>
</svg>
