<svg width="72" height="72" viewBox="0 0 72 72" fill="none" xmlns="http://www.w3.org/2000/svg">
<path d="M31.8836 10.2223L39.9222 10.2251C43.3515 10.2533 45.8867 10.4972 48.0483 11.0375L42.8633 16.2239C41.9887 16.1667 41.0128 16.1351 39.9071 16.1262L39.2278 16.1235L31.2665 16.1257C26.2324 16.1624 23.877 16.6625 21.5365 17.9143C19.4404 19.0353 17.813 20.6626 16.692 22.7587C15.4402 25.0993 14.9401 27.4547 14.9035 32.4888L14.9013 33.1059L14.9035 41.0672C14.9401 46.1013 15.4402 48.4567 16.692 50.7972C17.813 52.8933 19.4404 54.5207 21.5365 55.6417C23.6857 56.7911 25.8474 57.3068 30.0843 57.4118L30.6751 57.4236L31.8836 57.4324H39.2278C44.6906 57.4324 47.1408 56.9435 49.575 55.6417C51.671 54.5207 53.2984 52.8933 54.4194 50.7972C55.5689 48.648 56.0845 46.4863 56.1895 42.2494L56.2013 41.6586L56.2101 40.4501V33.1059C56.2101 32.0887 56.1932 31.1759 56.1572 30.3483L61.4689 25.037C61.8883 27.0305 62.0828 29.3626 62.1085 32.3938L62.1114 33.1059V40.4501C62.1114 46.8089 61.437 50.1889 59.6232 53.5803C57.9522 56.7048 55.4825 59.1745 52.358 60.8455C49.0922 62.5921 45.837 63.2822 39.9222 63.3309L39.2278 63.3337H31.8836C25.5248 63.3337 22.1448 62.6593 18.7534 60.8455C15.6289 59.1745 13.1592 56.7048 11.4882 53.5803C9.74159 50.3145 9.05152 47.0593 9.0028 41.1445L9 40.4501L9.0028 32.4114C9.05152 26.4967 9.74159 23.2415 11.4882 19.9757C13.1592 16.8512 15.6289 14.3814 18.7534 12.7104C22.1448 10.8967 25.5248 10.2223 31.8836 10.2223ZM63.8889 9.11114C65.3704 10.5927 65.3704 12.9947 63.8889 14.4762L36.8584 41.5067C36.5235 41.8415 36.413 41.9429 36.2795 42.0469C36.1461 42.1509 36.0171 42.2303 35.8641 42.3025C35.7111 42.3747 35.5708 42.4278 35.121 42.5757L28.7562 44.6695C28.5793 44.7277 28.3887 44.6315 28.3305 44.4546C28.308 44.3861 28.308 44.3123 28.3305 44.2438L30.4243 37.879C30.5722 37.4292 30.6253 37.2889 30.6975 37.1359C30.7697 36.9829 30.8491 36.8539 30.9531 36.7205C31.0571 36.587 31.1585 36.4765 31.4933 36.1416L58.5238 9.11114C60.0053 7.62962 62.4073 7.62962 63.8889 9.11114Z" fill="#3F4549"/>
</svg>
