<?xml version="1.0" encoding="UTF-8"?>
<svg width="34px" height="34px" viewBox="0 0 34 34" version="1.1" xmlns="http://www.w3.org/2000/svg" xmlns:xlink="http://www.w3.org/1999/xlink">
    <!-- Generator: sketchtool 63.1 (101010) - https://sketch.com -->
    <title>Elements/Icons/Edit</title>
    <desc>Created with sketchtool.</desc>
    <g id="Icons" stroke="none" stroke-width="1" fill="none" fill-rule="evenodd">
        <g transform="translate(-650.000000, -627.000000)" id="Elements/Icons/Edit">
            <g transform="translate(631.000000, 610.000000)">
                <g id="Elements/Icons/Loader">
                    <rect id="Rectangle" x="0" y="0" width="70" height="70"></rect>
                </g>
                <path d="M32.822092,19.25 L37.5897682,19.2516601 C39.6236171,19.2684131 41.1272485,19.413026 42.4092957,19.7334831 L39.3340906,22.8095364 C38.8153433,22.7755802 38.2365544,22.756873 37.5807606,22.7515804 L37.177908,22.75 L32.4560839,22.7512978 C29.4704067,22.7730183 28.0734321,23.0696621 26.6852809,23.8120534 C25.4421026,24.4769125 24.4769125,25.4421026 23.8120534,26.6852809 C23.0696621,28.0734321 22.7730183,29.4704067 22.7512978,32.4560839 L22.75,32.822092 L22.7512978,37.5439161 C22.7730183,40.5295933 23.0696621,41.9265679 23.8120534,43.3147191 C24.4769125,44.5578974 25.4421026,45.5230875 26.6852809,46.1879466 C27.9599658,46.8696555 29.2420907,47.1755087 31.7549248,47.2377722 L32.1053273,47.2447652 L32.822092,47.25 L37.177908,47.25 C40.4178212,47.25 41.8710418,46.9600336 43.3147191,46.1879466 C44.5578974,45.5230875 45.5230875,44.5578974 46.1879466,43.3147191 C46.8696555,42.0400342 47.1755087,40.7579093 47.2377722,38.2450752 L47.2447652,37.8946727 L47.25,37.177908 L47.25,32.822092 C47.25,32.2187923 47.2399458,31.6774437 47.2185968,31.186572 L50.3689593,28.0365054 C50.6176876,29.2188067 50.7330423,30.6019831 50.7482525,32.3997627 L50.75,32.822092 L50.75,37.177908 C50.75,40.9492735 50.3500097,42.9538992 49.2742928,44.9653151 C48.2832344,46.8184331 46.8184331,48.2832344 44.9653151,49.2742928 C43.0283961,50.3101684 41.0977736,50.7194442 37.5897682,50.7483399 L37.177908,50.75 L32.822092,50.75 C29.0507265,50.75 27.0461008,50.3500097 25.0346849,49.2742928 C23.1815669,48.2832344 21.7167656,46.8184331 20.7257072,44.9653151 C19.6898316,43.0283961 19.2805558,41.0977736 19.2516601,37.5897682 L19.25,37.177908 L19.2516601,32.4102318 C19.2805558,28.9022264 19.6898316,26.9716039 20.7257072,25.0346849 C21.7167656,23.1815669 23.1815669,21.7167656 25.0346849,20.7257072 C27.0461008,19.6499903 29.0507265,19.25 32.822092,19.25 Z M51.8041937,18.5909903 C52.6828733,19.4696699 52.6828733,20.8942911 51.8041937,21.7729708 L35.7725962,37.8045682 C35.5740094,38.003155 35.5084314,38.0632541 35.4292866,38.1249453 C35.3501417,38.1866364 35.2736413,38.2337084 35.182899,38.2765516 C35.0921567,38.3193948 35.0089505,38.350845 34.7421707,38.4386059 L30.9672474,39.6804188 C30.862322,39.7149354 30.7492818,39.6578578 30.7147652,39.5529324 C30.7014108,39.5123372 30.7014108,39.4685318 30.7147652,39.4279366 L31.9565781,35.6530132 C32.0443389,35.3862334 32.0757892,35.3030273 32.1186324,35.212285 C32.1614756,35.1215427 32.2085475,35.0450422 32.2702387,34.9658974 C32.3319298,34.8867526 32.3920289,34.8211745 32.5906157,34.6225877 L48.6222132,18.5909903 C49.5008928,17.7123106 50.925514,17.7123106 51.8041937,18.5909903 Z" id="Combined-Shape" fill="#4A4A4A" fill-rule="nonzero"></path>
            </g>
        </g>
    </g>
</svg>