<svg width="72" height="72" viewBox="0 0 72 72" fill="none" xmlns="http://www.w3.org/2000/svg">
<path d="M15.4667 29C19.5904 29 22.9333 32.3429 22.9333 36.4667C22.9333 40.5904 19.5904 43.9333 15.4667 43.9333C11.3429 43.9333 8 40.5904 8 36.4667C8 32.3429 11.3429 29 15.4667 29ZM36 29C40.1237 29 43.4667 32.3429 43.4667 36.4667C43.4667 40.5904 40.1237 43.9333 36 43.9333C31.8763 43.9333 28.5333 40.5904 28.5333 36.4667C28.5333 32.3429 31.8763 29 36 29ZM56.5333 29C60.6571 29 64 32.3429 64 36.4667C64 40.5904 60.6571 43.9333 56.5333 43.9333C52.4096 43.9333 49.0667 40.5904 49.0667 36.4667C49.0667 32.3429 52.4096 29 56.5333 29Z" fill="#3F4549"/>
</svg>
