<svg width="72" height="72" viewBox="0 0 72 72" fill="none" xmlns="http://www.w3.org/2000/svg">
<path d="M8.00054 49.0667C8.01722 52.7057 8.42358 54.9109 9.65914 57.2212C10.8318 59.4139 12.5861 61.1682 14.7788 62.3409C17.0891 63.5764 19.2943 63.9828 22.9333 63.9995V58.3994C19.7849 58.383 18.607 58.0377 17.4198 57.4027C16.203 56.752 15.248 55.797 14.5973 54.5802C13.9623 53.393 13.617 52.2151 13.6006 49.0667H8.00054Z" fill="#3F4549"/>
<path d="M13.6 28.5333V43.4667H8V28.5333H13.6Z" fill="#3F4549"/>
<path d="M22.9333 13.6006C19.7849 13.617 18.607 13.9623 17.4198 14.5973C16.203 15.248 15.248 16.203 14.5973 17.4198C13.9623 18.607 13.617 19.7849 13.6006 22.9333H8.00054C8.01722 19.2943 8.42358 17.0891 9.65914 14.7788C10.8318 12.5861 12.5861 10.8318 14.7788 9.65914C17.0891 8.42358 19.2943 8.01722 22.9333 8.00054V13.6006Z" fill="#3F4549"/>
<path d="M43.4667 13.6H28.5333V8H43.4667V13.6Z" fill="#3F4549"/>
<path d="M58.3994 22.9333C58.383 19.7849 58.0377 18.607 57.4027 17.4198C56.752 16.203 55.797 15.248 54.5802 14.5973C53.393 13.9623 52.2151 13.617 49.0667 13.6006V8.00054C52.7057 8.01722 54.9109 8.42358 57.2212 9.65914C59.4139 10.8318 61.1682 12.5861 62.3409 14.7788C63.5764 17.0891 63.9828 19.2943 63.9995 22.9333H58.3994Z" fill="#3F4549"/>
<path d="M58.4 43.4667V28.5333H64V43.4667H58.4Z" fill="#3F4549"/>
<path d="M49.0667 58.3994C52.2151 58.383 53.393 58.0377 54.5802 57.4027C55.797 56.752 56.752 55.797 57.4027 54.5802C58.0377 53.393 58.383 52.2151 58.3994 49.0667H63.9995C63.9828 52.7057 63.5764 54.9109 62.3409 57.2212C61.1682 59.4139 59.4139 61.1682 57.2212 62.3409C54.9109 63.5764 52.7057 63.9828 49.0667 63.9995V58.3994Z" fill="#3F4549"/>
<path d="M28.5333 58.4H43.4667V64H28.5333V58.4Z" fill="#3F4549"/>
</svg>
