<?xml version="1.0" encoding="UTF-8"?>
<svg width="28px" height="28px" viewBox="0 0 28 28" version="1.1" xmlns="http://www.w3.org/2000/svg" xmlns:xlink="http://www.w3.org/1999/xlink">
    <!-- Generator: sketchtool 63.1 (101010) - https://sketch.com -->
    <title>Elements/Icons/Expand1</title>
    <desc>Created with sketchtool.</desc>
    <g id="Icons" stroke="none" stroke-width="1" fill="none" fill-rule="evenodd">
        <g transform="translate(-321.000000, -411.000000)" id="Elements/Icons/Expand1">
            <g transform="translate(300.000000, 390.000000)">
                <g>
                    <polygon id="Rectangle" points="0 0 70 0 70 70 0 70"></polygon>
                    <g id="Group" transform="translate(35.000000, 35.000000) scale(-1, -1) translate(-35.000000, -35.000000) translate(21.000000, 21.000000)" fill="#4A4A4A" fill-rule="nonzero">
                        <g id="Group-2">
                            <path d="M11.4806619,16.5240534 C12.1323803,17.181689 12.1707167,18.2238916 11.595671,18.9267704 L11.4806619,19.054407 L6.96438335,23.611 L9.90164398,26.5750982 C10.0960217,26.7712407 10.094591,27.08782 9.89844847,27.2821977 C9.81304971,27.3668281 9.70001542,27.4178528 9.58005657,27.4259227 L1.06550361,27.9987133 C0.514464319,28.0357828 0.0377079541,27.619128 0.000638461713,27.0680887 C-0.0023414738,27.0237918 -0.00236813714,26.9793457 0.000558648654,26.9350453 L0.568534498,18.3380545 C0.586738661,18.0625128 0.82486672,17.8538996 1.1004084,17.8721037 C1.22213568,17.8801459 1.33672327,17.9324133 1.42259438,18.0190641 L4.45638335,21.081 L8.97307564,16.5240534 C9.66552646,15.8253155 10.7882111,15.8253155 11.4806619,16.5240534 Z M27.9993615,0.931911327 C28.0023415,0.976208172 28.0023681,1.0206543 27.9994414,1.06495469 L27.4314655,9.66194547 C27.4132613,9.93748716 27.1751333,10.1461004 26.8995916,10.1278963 C26.7778643,10.1198541 26.6632767,10.0675867 26.5774056,9.98093595 L23.5436166,6.919 L19.0269244,11.4759466 C18.3344735,12.1746845 17.2117889,12.1746845 16.5193381,11.4759466 C15.8676197,10.818311 15.8292833,9.77610842 16.404329,9.07322963 L16.5193381,8.94559304 L21.0356166,4.389 L18.098356,1.42490182 C17.9039783,1.22875925 17.905409,0.912179994 18.1015515,0.717802257 C18.1869503,0.633171885 18.2999846,0.582147211 18.4199434,0.574077344 L26.9344964,0.00128668782 C27.4855357,-0.0357828045 27.962292,0.380872039 27.9993615,0.931911327 Z" id="Combined-Shape"></path>
                        </g>
                    </g>
                    <g id="Group" transform="translate(23.000000, 35.000000)"></g>
                </g>
            </g>
        </g>
    </g>
</svg>