<svg width="73" height="72" viewBox="0 0 73 72" fill="none" xmlns="http://www.w3.org/2000/svg">
<path d="M41.5371 30.9523C40.2338 29.6371 40.1571 27.5528 41.3071 26.1472L41.5371 25.8919L50.569 16.7794L44.6949 10.8516C44.3062 10.4594 44.309 9.82624 44.7013 9.43752C44.8721 9.26827 45.0981 9.16623 45.338 9.15009L62.3659 8.00459C63.4679 7.93045 64.4214 8.76371 64.4955 9.8657C64.5014 9.95429 64.5015 10.0432 64.4956 10.1318L63.3598 27.3245C63.3234 27.8756 62.8472 28.2928 62.2961 28.2563C62.0527 28.2403 61.8235 28.1357 61.6518 27.9625L55.5846 21.839L46.5519 30.9523C45.1671 32.3496 42.9219 32.3496 41.5371 30.9523ZM8.50207 62.1343C8.49611 62.0457 8.49606 61.9568 8.50191 61.8682L9.63778 44.6755C9.67419 44.1244 10.1504 43.7072 10.7015 43.7437C10.9449 43.7597 11.174 43.8643 11.3458 44.0375L17.4129 50.161L26.4457 41.0477C27.8305 39.6504 30.0757 39.6504 31.4605 41.0477C32.7638 42.3629 32.8405 44.4472 31.6905 45.8528L31.4605 46.1081L22.4286 55.2206L28.3027 61.1484C28.6914 61.5406 28.6885 62.1738 28.2963 62.5625C28.1255 62.7317 27.8994 62.8338 27.6595 62.8499L10.6316 63.9954C9.52965 64.0695 8.57621 63.2363 8.50207 62.1343Z" fill="#3F4549"/>
</svg>
