<svg width="72" height="72" viewBox="0 0 72 72" fill="none" xmlns="http://www.w3.org/2000/svg">
<path d="M41.0371 30.9523C39.7338 29.6371 39.6571 27.5528 40.8071 26.1472L41.0371 25.8919L50.069 16.7794L44.1949 10.8516C43.8062 10.4594 43.809 9.82624 44.2013 9.43752C44.3721 9.26827 44.5981 9.16623 44.838 9.15009L61.8659 8.00459C62.9679 7.93045 63.9214 8.76371 63.9955 9.8657C64.0014 9.95429 64.0015 10.0432 63.9956 10.1318L62.8598 27.3245C62.8234 27.8756 62.3472 28.2928 61.7961 28.2563C61.5527 28.2403 61.3235 28.1357 61.1518 27.9625L55.0846 21.839L46.0519 30.9523C44.6671 32.3496 42.4219 32.3496 41.0371 30.9523ZM8.00207 62.1343C7.99611 62.0457 7.99606 61.9568 8.00191 61.8682L9.13778 44.6755C9.17419 44.1244 9.65041 43.7072 10.2015 43.7437C10.4449 43.7597 10.674 43.8643 10.8458 44.0375L16.9129 50.161L25.9457 41.0477C27.3305 39.6504 29.5757 39.6504 30.9605 41.0477C32.2638 42.3629 32.3405 44.4472 31.1905 45.8528L30.9605 46.1081L21.9286 55.2206L27.8027 61.1484C28.1914 61.5406 28.1885 62.1738 27.7963 62.5625C27.6255 62.7317 27.3994 62.8338 27.1595 62.8499L10.1316 63.9954C9.02965 64.0695 8.07621 63.2363 8.00207 62.1343Z" fill="#4A4A4A"/>
</svg>
