<svg width="72" height="72" viewBox="0 0 72 72" fill="none" xmlns="http://www.w3.org/2000/svg">
<path fill-rule="evenodd" clip-rule="evenodd" d="M8.50335 61.0663C7.83222 61.7374 7.83222 62.8255 8.50335 63.4967C9.17448 64.1678 10.2626 64.1678 10.9337 63.4967L24.371 50.0594C27.6897 51.6357 31.4257 52.6821 35.4967 52.6821C51.9946 52.6821 62.9933 35.4967 62.9933 35.4967C62.9933 35.4967 58.517 28.5025 50.9923 23.438L63.4967 10.9337C64.1678 10.2626 64.1678 9.17448 63.4967 8.50335C62.8255 7.83222 61.7374 7.83222 61.0663 8.50335L8.50335 61.0663ZM41.7633 32.6671L32.6671 41.7633C33.53 42.1536 34.488 42.3708 35.4967 42.3708C39.2932 42.3708 42.3708 39.2931 42.3708 35.4967C42.3708 34.488 42.1536 33.53 41.7633 32.6671Z" fill="#4A4A4A"/>
<path d="M35.4967 28.6225C36.1124 28.6225 36.7093 28.7035 37.2772 28.8553L45.6428 20.4898C42.5742 19.1641 39.1719 18.3112 35.4967 18.3112C18.9987 18.3112 8 35.4967 8 35.4967C8 35.4967 12.1439 41.9715 19.16 46.9726L28.8553 37.2772C28.7035 36.7093 28.6225 36.1124 28.6225 35.4967C28.6225 31.7002 31.7002 28.6225 35.4967 28.6225Z" fill="#4A4A4A"/>
</svg>
