<?xml version="1.0" encoding="UTF-8"?>
<svg width="34px" height="21px" viewBox="0 0 34 21" version="1.1" xmlns="http://www.w3.org/2000/svg" xmlns:xlink="http://www.w3.org/1999/xlink">
    <!-- Generator: sketchtool 63.1 (101010) - https://sketch.com -->
    <title>Elements/Icons/Filter1</title>
    <desc>Created with sketchtool.</desc>
    <g id="Icons" stroke="none" stroke-width="1" fill="none" fill-rule="evenodd">
        <g transform="translate(-538.000000, -305.000000)" id="Elements/Icons/Filter1">
            <g transform="translate(520.000000, 280.000000)">
                <g>
                    <polygon id="Rectangle" points="0 0 70 0 70 70 0 70"></polygon>
                    <path d="M19.7246377,28.4186047 C18.7721466,28.4186047 18,27.6533239 18,26.7093023 C18,25.7652807 18.7721466,25 19.7246377,25 L50.2753623,25 C51.2278534,25 52,25.7652807 52,26.7093023 C52,27.6533239 51.2278534,28.4186047 50.2753623,28.4186047 L19.7246377,28.4186047 Z M24.6521739,37.2093023 C23.6996828,37.2093023 22.9275362,36.4440216 22.9275362,35.5 C22.9275362,34.5559784 23.6996828,33.7906977 24.6521739,33.7906977 L45.3478261,33.7906977 C46.3003172,33.7906977 47.0724638,34.5559784 47.0724638,35.5 C47.0724638,36.4440216 46.3003172,37.2093023 45.3478261,37.2093023 L24.6521739,37.2093023 Z M29.5797101,46 C28.6272191,46 27.8550725,45.2347193 27.8550725,44.2906977 C27.8550725,43.3466761 28.6272191,42.5813953 29.5797101,42.5813953 L40.4202899,42.5813953 C41.3727809,42.5813953 42.1449275,43.3466761 42.1449275,44.2906977 C42.1449275,45.2347193 41.3727809,46 40.4202899,46 L29.5797101,46 Z" id="Shape" fill="#4A4A4A" fill-rule="nonzero"></path>
                </g>
            </g>
        </g>
    </g>
</svg>