<svg width="72" height="72" viewBox="0 0 72 72" fill="none" xmlns="http://www.w3.org/2000/svg">
<path d="M10.8406 24.6306C9.27177 24.6306 8 23.3702 8 21.8153C8 20.2605 9.27177 19 10.8406 19H61.1594C62.7282 19 64 20.2605 64 21.8153C64 23.3702 62.7282 24.6306 61.1594 24.6306H10.8406ZM18.9565 39.1094C17.3877 39.1094 16.1159 37.849 16.1159 36.2941C16.1159 34.7393 17.3877 33.4788 18.9565 33.4788H53.0435C54.6123 33.4788 55.8841 34.7393 55.8841 36.2941C55.8841 37.849 54.6123 39.1094 53.0435 39.1094H18.9565ZM27.0725 53.5882C25.5037 53.5882 24.2319 52.3278 24.2319 50.7729C24.2319 49.2181 25.5037 47.9576 27.0725 47.9576H44.9275C46.4963 47.9576 47.7681 49.2181 47.7681 50.7729C47.7681 52.3278 46.4963 53.5882 44.9275 53.5882H27.0725Z" fill="#3F4549"/>
</svg>
