<svg width="72" height="72" viewBox="0 0 72 72" fill="none" xmlns="http://www.w3.org/2000/svg">
<path fill-rule="evenodd" clip-rule="evenodd" d="M24.761 10.5688C25.1168 10.1574 25.6912 9.94478 26.2642 10.0124L27.7023 10.182C32.0986 10.7006 36.3306 11.9607 40.1718 13.895C43.7941 15.719 46.0637 19.0982 46.1675 22.822L46.3687 30.0386C46.4995 34.7312 48.3998 39.2243 51.7646 42.797L61.9875 54.7182C64.2632 57.1345 64.7319 60.9154 62.5 63.5C60.2681 66.0846 55.8194 65.5261 53.5159 63.2075L41.5201 51.0938C36.293 45.8322 28.795 42.7891 20.8411 42.701C19.9633 42.6913 19.4931 41.7921 20.0437 41.1762L34.741 24.7366C34.9537 24.4986 34.9086 24.1548 34.6409 23.9732L21.6813 15.1849C21.3636 14.9695 21.3065 14.5631 21.5537 14.2773L24.761 10.5688ZM35.4613 31.1735C35.0161 30.7335 35.062 30.0503 35.5639 29.6474L35.6699 29.5623C36.1717 29.1595 36.9395 29.1897 37.3847 29.6297L40.8913 33.0955C41.3365 33.5355 41.2906 34.2188 40.7887 34.6216L40.6827 34.7067C40.1808 35.1096 39.4131 35.0794 38.9679 34.6394L35.4613 31.1735ZM32.145 36.623C31.6998 36.183 31.7457 35.4998 32.2475 35.0969L32.3536 35.0118C32.8554 34.609 33.6232 34.6391 34.0684 35.0792L37.575 38.545C38.0202 38.985 37.9742 39.6683 37.4724 40.0711L37.3664 40.1562C36.8645 40.559 36.0968 40.5289 35.6516 40.0889L32.145 36.623Z" fill="#4A4A4A"/>
<path d="M16.6341 21.4925C16.2643 21.2367 15.7262 21.3011 15.4356 21.6359L12.225 25.3338C12.0381 25.5491 11.9625 25.8239 12.0176 26.0886C12.9144 30.4017 15.1342 34.3931 18.4334 37.6246L19.1007 38.2781C19.372 38.5439 19.8506 38.5259 20.1054 38.2402L27.5598 29.8807C27.8128 29.597 27.7611 29.1879 27.4445 28.969L16.6341 21.4925Z" fill="#4A4A4A"/>
</svg>
