<svg width="72" height="72" viewBox="0 0 72 72" fill="none" xmlns="http://www.w3.org/2000/svg">
<path d="M9.24538 19.7134C8 21.6758 8 24.3705 8 29.76V42.24C8 47.6295 8 50.3242 9.24538 52.2866C9.87637 53.2809 10.7191 54.1236 11.7134 54.7546C13.6758 56 16.3705 56 21.76 56H50.24C55.6295 56 58.3242 56 60.2866 54.7546C61.2809 54.1236 62.1236 53.2809 62.7546 52.2866C64 50.3242 64 47.6295 64 42.24V29.88C64 27.1853 64 25.8379 63.3773 24.8567C63.0618 24.3595 62.6405 23.9382 62.1433 23.6227C61.1621 23 59.8147 23 57.12 23H35.5822C34.932 23 34.607 23 34.309 22.9044C34.1556 22.8552 34.0087 22.7876 33.8714 22.7032C33.605 22.5392 33.3934 22.2923 32.9703 21.7987L31.089 19.6038C29.8197 18.123 29.185 17.3825 28.3857 16.8905C27.974 16.6371 27.5332 16.4343 27.0729 16.2867C26.1791 16 25.2039 16 23.2535 16H21.76C16.3705 16 13.6758 16 11.7134 17.2454C10.7191 17.8764 9.87637 18.7191 9.24538 19.7134Z" fill="#3F4549"/>
<path d="M58.4066 20.182C59.3322 20.182 60.1589 20.1819 60.8777 20.2153C60.8048 19.7666 60.6903 19.4002 60.5104 19.073C60.1447 18.4078 59.5974 17.8604 58.9322 17.4948C58.0322 17 56.8365 17 54.4452 17H32.7814L35.1734 19.6584C35.3859 19.9323 35.4938 20.0702 35.5775 20.1662L35.584 20.1735L35.5939 20.1741C35.7236 20.1812 35.9025 20.182 36.2567 20.182L58.4066 20.182Z" fill="#3F4549"/>
</svg>
