<svg width="73" height="72" viewBox="0 0 73 72" fill="none" xmlns="http://www.w3.org/2000/svg">
<path d="M7.63299 15.5301C7.77164 15.3914 7.99736 15.3923 8.13715 15.5322L20.8433 28.2428C21.2459 28.6456 21.896 28.6483 22.2953 28.2488C22.6947 27.8494 22.692 27.199 22.2894 26.7963L9.89641 14.3989C9.5385 14.0409 9.53612 13.4627 9.8911 13.1076C10.2461 12.7525 10.824 12.7549 11.1819 13.1129L23.5749 25.5103C23.9775 25.9131 24.6276 25.9157 25.0269 25.5163C25.4262 25.1168 25.4235 24.4665 25.0209 24.0637L12.6279 11.6663C12.27 11.3083 12.2676 10.7302 12.6226 10.3752C12.9775 10.0201 13.5553 10.0225 13.9132 10.3805L26.3062 22.778C26.7089 23.1807 27.359 23.1834 27.7583 22.7839C28.1576 22.3845 28.1549 21.7341 27.7523 21.3314L15.0629 8.63746C14.9231 8.49759 14.9222 8.27176 15.0608 8.13304C15.1839 8.00988 15.3635 7.96704 15.5284 8.02646C19.7055 9.53141 28.3067 14.4528 30.5172 20.2544C31.3923 22.5515 31.6608 24.5146 31.9104 26.34C32.3409 29.4876 33.4295 31.511 36.7619 34.8446C39.5207 37.6044 43.3668 40.834 47.1722 44.0295C50.6291 46.9322 54.0526 49.807 56.597 52.2758C61.1195 56.6638 63.4854 59.9545 63.4967 62.6982C63.4993 63.3206 63.0968 63.6 63.0968 63.6C63.0968 63.6 62.8176 64.0025 62.1954 64C59.4526 63.9887 56.1632 61.6219 51.7767 57.0978C49.3087 54.5525 46.4351 51.1278 43.5333 47.6697C40.339 43.8629 37.1106 40.0154 34.3518 37.2556C31.0193 33.922 28.9966 32.833 25.8502 32.4024C24.0254 32.1527 22.063 31.8841 19.7668 31.0086C13.9672 28.7974 9.03087 20.1764 7.52645 15.9978C7.46705 15.8328 7.50987 15.6532 7.63299 15.5301Z" fill="#3F4549"/>
<path d="M27.8645 43.603C29.6837 42.0621 31.5123 40.5134 33.2269 39.0142C34.0526 39.8542 34.9212 40.7907 35.8207 41.7949C34.349 43.4815 32.8306 45.2755 31.3198 47.0605C28.408 50.5007 25.5243 53.9078 23.0576 56.448C18.6732 60.9631 15.4105 63.3497 12.7382 63.4279C12.1319 63.4457 11.8003 63.1299 11.8003 63.1299C11.8003 63.1299 11.4846 62.7982 11.5024 62.1917C11.5806 59.5184 13.9663 56.2545 18.4798 51.8686C21.0191 49.401 24.4248 46.5165 27.8637 43.6037L27.8645 43.603Z" fill="#3F4549"/>
<path d="M38.7078 33.9031C39.4419 34.6188 40.2457 35.3655 41.1011 36.1357C44.1442 33.3748 47.257 32.7008 50.5014 31.9983C52.6724 31.5283 54.9022 31.0455 57.2095 29.9161C62.6416 27.2573 68.6045 16.2275 63.6452 11.2665C58.686 6.30549 47.6601 12.2705 45.0022 17.7045C43.8733 20.0126 43.3906 22.2433 42.9208 24.415C42.2121 27.6905 41.5323 30.8321 38.7078 33.9031Z" fill="#3F4549"/>
</svg>
