<svg width="73" height="72" viewBox="0 0 73 72" fill="none" xmlns="http://www.w3.org/2000/svg">
<path d="M36.5 7.20001C35.2291 7.20001 34.188 8.22374 34.188 9.50001L34.2305 13.9399L28.7244 10.096L28.7078 10.0847C27.6483 9.38395 26.2153 9.66575 25.5057 10.7217C24.7934 11.7816 25.0844 13.2121 26.1477 13.9154L34.2819 19.2949L34.4075 32.397L23.0209 25.7324L22.3919 16.0573C22.3091 14.7841 21.2042 13.8294 19.9363 13.9105C18.6677 13.9917 17.6946 15.0803 17.7774 16.3542L17.779 16.3745L18.3807 23.0166L14.5263 20.7605L14.5198 20.7568C13.4176 20.1255 12.0054 20.4976 11.3652 21.5976C10.7228 22.7014 11.1067 24.1099 12.2125 24.7433L16.1008 26.9217L10.0081 29.7228L9.98992 29.7314C8.84621 30.2924 8.37124 31.6728 8.941 32.8159C9.50895 33.9555 10.8947 34.4164 12.0349 33.8571L20.8033 29.5561L32.3016 35.9979L20.8015 42.4431L12.0349 38.1429C10.8947 37.5837 9.50895 38.0446 8.941 39.1841C8.37124 40.3272 8.84621 41.7077 9.98991 42.2687L10.0081 42.2773L16.1 45.078L12.219 47.2531L12.2125 47.2568C11.1067 47.8902 10.7229 49.2986 11.3653 50.4024C12.0054 51.5024 13.4177 51.8745 14.5198 51.2433L18.3807 48.9835L17.779 55.6255L17.7774 55.6458C17.6946 56.9197 18.6677 58.0084 19.9363 58.0895C21.2042 58.1707 22.3091 57.2159 22.3919 55.9427L23.0209 46.2676L34.4038 39.6052L34.2803 52.7061L26.1477 58.0847C25.0844 58.7879 24.7934 60.2184 25.5057 61.2783C26.2153 62.3343 27.6483 62.6161 28.7078 61.9154L28.7244 61.904L34.2298 58.0606L34.188 62.4925V62.5C34.188 63.7763 35.2291 64.8 36.5 64.8C37.7709 64.8 38.8121 63.7763 38.8121 62.5L38.7699 58.0603L44.2756 61.904L44.2922 61.9154C45.3517 62.6161 46.7847 62.3343 47.4944 61.2783C48.2066 60.2184 47.9156 58.7879 46.8523 58.0847L38.7189 52.7056L38.5944 39.6062L49.9792 46.2685L50.6082 55.9427C50.6909 57.2159 51.7958 58.1706 53.0638 58.0895C54.3324 58.0083 55.3054 56.9197 55.2226 55.6458L55.221 55.6255L54.6194 48.9839L58.4739 51.2396L58.4804 51.2433C59.5825 51.8745 60.9947 51.5024 61.6349 50.4024C62.2773 49.2986 61.8934 47.8901 60.7876 47.2568L56.8997 45.0782L62.992 42.2773L63.0101 42.2687C64.1538 41.7076 64.6288 40.3272 64.059 39.1841C63.4911 38.0446 62.1054 37.5836 60.9652 38.1429L52.1977 42.4435L40.6986 36L52.1977 29.5566L60.9652 33.8571C62.1054 34.4164 63.4911 33.9555 64.059 32.8159C64.6288 31.6728 64.1538 30.2924 63.0101 29.7314L62.992 29.7228L56.8997 26.9219L60.7811 24.747L60.7876 24.7433C61.8934 24.1099 62.2773 22.7014 61.6349 21.5976C60.9947 20.4976 59.5825 20.1255 58.4804 20.7568L54.6193 23.0171L55.221 16.3745L55.2226 16.3542C55.3054 15.0803 54.3324 13.9917 53.0638 13.9105C51.7958 13.8294 50.6909 14.7841 50.6082 16.0573L49.9791 25.7334L38.5943 32.3982L38.7189 19.2944L46.8523 13.9154C47.9156 13.2121 48.2066 11.7816 47.4944 10.7217C46.7847 9.66575 45.3517 9.38395 44.2922 10.0847L44.2756 10.096L38.7699 13.9397L38.8121 9.50762V9.50001C38.8121 8.22374 37.7709 7.20001 36.5 7.20001Z" fill="#3F4549"/>
</svg>
