<svg width="72" height="72" viewBox="0 0 72 72" fill="none" xmlns="http://www.w3.org/2000/svg">
<path fill-rule="evenodd" clip-rule="evenodd" d="M10.2058 11.1424C9.19151 11.0184 7.86603 11.0158 5.92036 11.0158H3.49438C2.66906 11.0158 2 10.3407 2 9.50793C2 8.67512 2.66906 8 3.49438 8L6.01292 8C7.84286 7.99996 9.35015 7.99993 10.5651 8.1484C11.8409 8.3043 12.9638 8.63984 13.9432 9.42957C14.9226 10.2193 15.4947 11.2504 15.9268 12.4716C16.3384 13.6346 16.6709 15.1181 17.0746 16.9191L17.0952 17.011L57.0596 17.0109C57.4351 17.0106 57.9383 17.0102 58.3801 17.062C58.9015 17.1232 59.7853 17.2972 60.5837 17.9979C60.9434 18.3135 61.2441 18.6917 61.4714 19.1145C61.976 20.0529 61.9526 20.9612 61.8987 21.4881C61.853 21.9345 61.7434 22.4301 61.6617 22.7998L58.4636 37.3215C58.2215 38.4213 57.9955 39.4477 57.7221 40.2917C57.4213 41.2204 56.9868 42.1878 56.1845 43.0404C55.7509 43.5011 55.2576 43.9005 54.7179 44.2276C53.7189 44.8329 52.6888 45.0511 51.7251 45.146C50.8494 45.2322 49.8075 45.2321 48.691 45.232L24.1729 45.232C23.973 45.2322 23.6964 45.2324 23.4221 45.2153C23.6689 46.2741 23.8805 47.0903 24.1146 47.7519C24.4445 48.6841 24.7649 49.1421 25.1492 49.452C25.5336 49.762 26.047 49.9763 27.0209 50.0953C28.0352 50.2192 29.3607 50.2218 31.3063 50.2218H52.6422C53.4675 50.2218 54.1366 50.8969 54.1366 51.7297C54.1366 52.5625 53.4675 53.2376 52.6422 53.2376H31.2138C29.3838 53.2377 27.8766 53.2377 26.6616 53.0892C25.3858 52.9333 24.2629 52.5978 23.2835 51.8081C22.3041 51.0184 21.732 49.9872 21.2999 48.766C20.8883 47.603 20.5558 46.1195 20.1521 44.3185L14.1799 17.6756C13.7506 15.7607 13.4557 14.4567 13.1121 13.4858C12.7822 12.5535 12.4618 12.0955 12.0775 11.7856C11.6931 11.4757 11.1797 11.2614 10.2058 11.1424ZM21.6646 37.1531L22.4821 40.8052C22.6161 41.404 22.6831 41.7034 22.8732 41.9045C22.9351 41.9701 23.0055 42.0268 23.0824 42.0733C23.3188 42.2161 23.6229 42.2161 24.2313 42.2161H32.1826L31.6756 37.1531H21.6646ZM35.1865 42.2161H43.802L44.2201 37.1531H34.6796L35.1865 42.2161ZM46.8011 42.2161H48.57C51.0113 42.2161 52.232 42.2161 53.1791 41.6422C53.4875 41.4553 53.7694 41.2271 54.0171 40.9638C54.7111 40.2263 54.9924 39.1607 55.4386 37.1531H47.2193L46.8011 42.2161ZM56.1031 34.1373L57.4315 28.1056H47.9665L47.4683 34.1373H56.1031ZM58.0956 25.0898L58.7257 22.2289C58.9233 21.3317 59.0221 20.8832 58.8444 20.5527C58.7875 20.447 58.7124 20.3525 58.6225 20.2735C58.3413 20.0268 57.8859 20.0268 56.9751 20.0268H48.6336L48.2155 25.0898H58.0956ZM45.6345 20.0268H32.9649L33.4718 25.0898H45.2164L45.6345 20.0268ZM29.9609 20.0268L17.8313 20.0268L18.9645 25.0898H30.4678L29.9609 20.0268ZM20.9896 34.1373L19.6396 28.1056H30.7698L31.3737 34.1373H20.9896ZM44.4692 34.1373H34.3777L33.7737 28.1056H44.9673L44.4692 34.1373Z" fill="#3F4549"/>
<path d="M31.3156 63.7931C33.5165 63.7931 35.3006 61.9928 35.3006 59.772C35.3006 57.5512 33.5165 55.7508 31.3156 55.7508C29.1147 55.7508 27.3306 57.5512 27.3306 59.772C27.3306 61.9928 29.1147 63.7931 31.3156 63.7931Z" fill="#3F4549"/>
<path d="M47.2556 63.7931C49.4565 63.7931 51.2407 61.9928 51.2407 59.772C51.2407 57.5512 49.4565 55.7508 47.2556 55.7508C45.0548 55.7508 43.2706 57.5512 43.2706 59.772C43.2706 61.9928 45.0548 63.7931 47.2556 63.7931Z" fill="#3F4549"/>
</svg>
