<svg width="72" height="72" viewBox="0 0 72 72" fill="none" xmlns="http://www.w3.org/2000/svg">
<path d="M15.1382 18.9277C17.5023 17.6566 20.3579 17.6566 22.722 18.9277C25.2726 20.2991 26.8601 22.9378 26.8601 25.8059V26.2454C26.8601 29.1135 25.2726 31.7521 22.722 33.1235C20.3579 34.3947 17.5023 34.3947 15.1382 33.1235C12.5875 31.7521 11 29.1135 11 26.2454V25.8059C11 22.9378 12.5875 20.2991 15.1382 18.9277Z" fill="#4A4A4A"/>
<path d="M32.6626 8.95334C35.0267 7.68222 37.8824 7.68222 40.2465 8.95334C42.7971 10.3248 44.3846 12.9634 44.3846 15.8315V16.271C44.3846 19.1391 42.7971 21.7777 40.2465 23.1492C37.8824 24.4203 35.0267 24.4203 32.6626 23.1492C30.112 21.7777 28.5245 19.1391 28.5245 16.271V15.8315C28.5245 12.9634 30.112 10.3248 32.6626 8.95334Z" fill="#4A4A4A"/>
<path d="M50.1871 18.9277C52.5512 17.6566 55.4068 17.6566 57.7709 18.9277C60.3216 20.2991 61.9091 22.9378 61.9091 25.8059V26.2454C61.9091 29.1135 60.3216 31.7521 57.7709 33.1235C55.4068 34.3947 52.5512 34.3947 50.1871 33.1235C47.6365 31.7521 46.049 29.1135 46.049 26.2454V25.8059C46.049 22.9378 47.6365 20.2991 50.1871 18.9277Z" fill="#4A4A4A"/>
<path d="M32.6626 28.9021C35.0267 27.631 37.8824 27.631 40.2465 28.9021C42.7971 30.2735 44.3846 32.9122 44.3846 35.7802V36.2198C44.3846 39.0878 42.7971 41.7265 40.2465 43.0979C37.8824 44.369 35.0267 44.369 32.6626 43.0979C30.112 41.7265 28.5245 39.0878 28.5245 36.2198V35.7802C28.5245 32.9122 30.112 30.2735 32.6626 28.9021Z" fill="#4A4A4A"/>
<path d="M15.1382 38.8765C17.5023 37.6053 20.3579 37.6053 22.722 38.8765C25.2726 40.2479 26.8601 42.8865 26.8601 45.7546V46.1941C26.8601 49.0622 25.2726 51.7009 22.722 53.0723C20.3579 54.3434 17.5023 54.3434 15.1382 53.0723C12.5875 51.7009 11 49.0622 11 46.1941V45.7546C11 42.8865 12.5875 40.2479 15.1382 38.8765Z" fill="#4A4A4A"/>
<path d="M50.1871 38.8765C52.5512 37.6053 55.4068 37.6053 57.7709 38.8765C60.3216 40.2479 61.9091 42.8865 61.9091 45.7546V46.1941C61.9091 49.0622 60.3216 51.7009 57.7709 53.0723C55.4068 54.3434 52.5512 54.3434 50.1871 53.0723C47.6365 51.7009 46.049 49.0622 46.049 46.1941V45.7546C46.049 42.8865 47.6365 40.2479 50.1871 38.8765Z" fill="#4A4A4A"/>
<path d="M32.6626 48.8508C35.0267 47.5797 37.8824 47.5797 40.2465 48.8508C42.7971 50.2223 44.3846 52.8609 44.3846 55.729V56.1685C44.3846 59.0366 42.7971 61.6752 40.2465 63.0467C37.8824 64.3178 35.0267 64.3178 32.6626 63.0467C30.112 61.6752 28.5245 59.0366 28.5245 56.1685V55.729C28.5245 52.8609 30.112 50.2223 32.6626 48.8508Z" fill="#4A4A4A"/>
</svg>
