<svg width="73" height="72" viewBox="0 0 73 72" fill="none" xmlns="http://www.w3.org/2000/svg">
<path d="M15.6382 18.9277C18.0023 17.6566 20.8579 17.6566 23.222 18.9277C25.7726 20.2991 27.3601 22.9378 27.3601 25.8059V26.2454C27.3601 29.1135 25.7726 31.7521 23.222 33.1235C20.8579 34.3947 18.0023 34.3947 15.6382 33.1235C13.0875 31.7521 11.5 29.1135 11.5 26.2454V25.8059C11.5 22.9378 13.0875 20.2991 15.6382 18.9277Z" fill="#3F4549"/>
<path d="M33.1626 8.95334C35.5267 7.68222 38.3824 7.68222 40.7465 8.95334C43.2971 10.3248 44.8846 12.9634 44.8846 15.8315V16.271C44.8846 19.1391 43.2971 21.7777 40.7465 23.1492C38.3824 24.4203 35.5267 24.4203 33.1626 23.1492C30.612 21.7777 29.0245 19.1391 29.0245 16.271V15.8315C29.0245 12.9634 30.612 10.3248 33.1626 8.95334Z" fill="#3F4549"/>
<path d="M50.6871 18.9277C53.0512 17.6566 55.9068 17.6566 58.2709 18.9277C60.8216 20.2991 62.4091 22.9378 62.4091 25.8059V26.2454C62.4091 29.1135 60.8216 31.7521 58.2709 33.1235C55.9068 34.3947 53.0512 34.3947 50.6871 33.1235C48.1365 31.7521 46.549 29.1135 46.549 26.2454V25.8059C46.549 22.9378 48.1365 20.2991 50.6871 18.9277Z" fill="#3F4549"/>
<path d="M33.1626 28.9021C35.5267 27.631 38.3824 27.631 40.7465 28.9021C43.2971 30.2735 44.8846 32.9122 44.8846 35.7802V36.2198C44.8846 39.0878 43.2971 41.7265 40.7465 43.0979C38.3824 44.369 35.5267 44.369 33.1626 43.0979C30.612 41.7265 29.0245 39.0878 29.0245 36.2198V35.7802C29.0245 32.9122 30.612 30.2735 33.1626 28.9021Z" fill="#3F4549"/>
<path d="M15.6382 38.8765C18.0023 37.6053 20.8579 37.6053 23.222 38.8765C25.7726 40.2479 27.3601 42.8865 27.3601 45.7546V46.1941C27.3601 49.0622 25.7726 51.7009 23.222 53.0723C20.8579 54.3434 18.0023 54.3434 15.6382 53.0723C13.0875 51.7009 11.5 49.0622 11.5 46.1941V45.7546C11.5 42.8865 13.0875 40.2479 15.6382 38.8765Z" fill="#3F4549"/>
<path d="M50.6871 38.8765C53.0512 37.6053 55.9068 37.6053 58.2709 38.8765C60.8216 40.2479 62.4091 42.8865 62.4091 45.7546V46.1941C62.4091 49.0622 60.8216 51.7009 58.2709 53.0723C55.9068 54.3434 53.0512 54.3434 50.6871 53.0723C48.1365 51.7009 46.549 49.0622 46.549 46.1941V45.7546C46.549 42.8865 48.1365 40.2479 50.6871 38.8765Z" fill="#3F4549"/>
<path d="M33.1626 48.8508C35.5267 47.5797 38.3824 47.5797 40.7465 48.8508C43.2971 50.2223 44.8846 52.8609 44.8846 55.729V56.1685C44.8846 59.0366 43.2971 61.6752 40.7465 63.0467C38.3824 64.3178 35.5267 64.3178 33.1626 63.0467C30.612 61.6752 29.0245 59.0366 29.0245 56.1685V55.729C29.0245 52.8609 30.612 50.2223 33.1626 48.8508Z" fill="#3F4549"/>
</svg>
