<svg width="73" height="72" viewBox="0 0 73 72" fill="none" xmlns="http://www.w3.org/2000/svg">
<path d="M61.6034 50.7586C63.2032 50.7586 64.5 52.0555 64.5 53.6552C64.5 55.1608 63.3512 56.3981 61.8824 56.5385L61.6034 56.5517H11.3966C9.79683 56.5517 8.5 55.2549 8.5 53.6552C8.5 52.1496 9.64875 50.9122 11.1176 50.7719L11.3966 50.7586H61.6034ZM61.6034 33.3793C63.2032 33.3793 64.5 34.6761 64.5 36.2759C64.5 37.7815 63.3512 39.0188 61.8824 39.1592L61.6034 39.1724H11.3966C9.79683 39.1724 8.5 37.8756 8.5 36.2759C8.5 34.7702 9.64875 33.5329 11.1176 33.3926L11.3966 33.3793H61.6034ZM61.6034 16C63.2032 16 64.5 17.2968 64.5 18.8966C64.5 20.4022 63.3512 21.6395 61.8824 21.7798L61.6034 21.7931H11.3966C9.79683 21.7931 8.5 20.4963 8.5 18.8966C8.5 17.3909 9.64875 16.1536 11.1176 16.0133L11.3966 16H61.6034Z" fill="#3F4549"/>
</svg>
