<svg width="72" height="72" viewBox="0 0 72 72" fill="none" xmlns="http://www.w3.org/2000/svg">
<path d="M61.1034 50.7586C62.7032 50.7586 64 52.0555 64 53.6552C64 55.1608 62.8512 56.3981 61.3824 56.5385L61.1034 56.5517H10.8966C9.29683 56.5517 8 55.2549 8 53.6552C8 52.1496 9.14875 50.9122 10.6176 50.7719L10.8966 50.7586H61.1034ZM61.1034 33.3793C62.7032 33.3793 64 34.6761 64 36.2759C64 37.7815 62.8512 39.0188 61.3824 39.1592L61.1034 39.1724H10.8966C9.29683 39.1724 8 37.8756 8 36.2759C8 34.7702 9.14875 33.5329 10.6176 33.3926L10.8966 33.3793H61.1034ZM61.1034 16C62.7032 16 64 17.2968 64 18.8966C64 20.4022 62.8512 21.6395 61.3824 21.7798L61.1034 21.7931H10.8966C9.29683 21.7931 8 20.4963 8 18.8966C8 17.3909 9.14875 16.1536 10.6176 16.0133L10.8966 16H61.1034Z" fill="#4A4A4A"/>
</svg>
