<?xml version="1.0" encoding="UTF-8"?>
<svg width="30px" height="22px" viewBox="0 0 30 22" version="1.1" xmlns="http://www.w3.org/2000/svg" xmlns:xlink="http://www.w3.org/1999/xlink">
    <!-- Generator: sketchtool 63.1 (101010) - https://sketch.com -->
    <title>Elements/Icons/Hamburger</title>
    <desc>Created with sketchtool.</desc>
    <g id="Icons" stroke="none" stroke-width="1" fill="none" fill-rule="evenodd">
        <g transform="translate(-320.000000, -634.000000)" id="Elements/Icons/Hamburger">
            <g transform="translate(300.000000, 610.000000)">
                <g>
                    <rect id="Rectangle" x="0" y="0" width="70" height="70"></rect>
                    <g id="Group" transform="translate(20.000000, 24.000000)" fill="#4A4A4A" fill-rule="nonzero">
                        <path d="M28,18.75 C28.8284271,18.75 29.5,19.4215729 29.5,20.25 C29.5,21.0296961 28.9051119,21.6704487 28.14446,21.7431334 L28,21.75 L2,21.75 C1.17157288,21.75 0.5,21.0784271 0.5,20.25 C0.5,19.4703039 1.09488808,18.8295513 1.85553999,18.7568666 L2,18.75 L28,18.75 Z M28,9.75 C28.8284271,9.75 29.5,10.4215729 29.5,11.25 C29.5,12.0296961 28.9051119,12.6704487 28.14446,12.7431334 L28,12.75 L2,12.75 C1.17157288,12.75 0.5,12.0784271 0.5,11.25 C0.5,10.4703039 1.09488808,9.82955132 1.85553999,9.75686658 L2,9.75 L28,9.75 Z M28,0.75 C28.8284271,0.75 29.5,1.42157288 29.5,2.25 C29.5,3.02969612 28.9051119,3.67044868 28.14446,3.74313342 L28,3.75 L2,3.75 C1.17157288,3.75 0.5,3.07842712 0.5,2.25 C0.5,1.47030388 1.09488808,0.829551322 1.85553999,0.756866578 L2,0.75 L28,0.75 Z" id="Combined-Shape"></path>
                    </g>
                </g>
            </g>
        </g>
    </g>
</svg>