<svg width="73" height="72" viewBox="0 0 73 72" fill="none" xmlns="http://www.w3.org/2000/svg">
<path d="M18.5 45.2458V20.818C18.5 19.4259 19.3603 18.1651 21.1592 18.1651C22.906 18.1651 23.7142 19.4259 23.7142 20.818V37.3133C24.5745 36.7617 25.5391 36.2627 26.5559 35.8424V12.6492C26.5559 11.257 27.4423 9.99625 29.1629 9.99625C30.8836 9.99625 31.77 11.257 31.77 12.6492V34.3715C32.7086 34.2139 33.6471 34.1088 34.6117 34.0563V10.6266C34.6117 9.23452 35.4721 8 37.2188 8C38.9656 8 39.8259 9.23452 39.8259 10.6266V34.2402C40.8687 34.3978 41.8333 34.5816 42.6676 34.818V14.0675C42.6676 12.6754 43.5279 11.4146 45.2747 11.4146C47.0475 11.4146 47.8818 12.6754 47.8818 14.0675V39.4146C47.8818 42.1726 48.1685 43.6173 48.9767 43.6173C50.3846 43.6173 52.1574 37.7861 53.6173 34.6604C54.9469 31.8236 55.7812 30.7992 58.0233 30.7992C59.014 30.7992 60.5 31.7974 60.5 32.9268C60.5 34.6867 59.014 38.0225 58.2318 40.6229C57.2412 43.9325 55.5205 52.364 50.3063 57.9325C46.5521 61.8987 41.8594 64 35.5503 64C25.6173 64 18.5 58.1951 18.5 45.2458Z" fill="#3F4549"/>
</svg>
