<svg width="72" height="72" viewBox="0 0 72 72" fill="none" xmlns="http://www.w3.org/2000/svg">
<path d="M18 45.2458V20.818C18 19.4259 18.8603 18.1651 20.6592 18.1651C22.406 18.1651 23.2142 19.4259 23.2142 20.818V37.3133C24.0745 36.7617 25.0391 36.2627 26.0559 35.8424V12.6492C26.0559 11.257 26.9423 9.99625 28.6629 9.99625C30.3836 9.99625 31.27 11.257 31.27 12.6492V34.3715C32.2086 34.2139 33.1471 34.1088 34.1117 34.0563V10.6266C34.1117 9.23452 34.9721 8 36.7188 8C38.4656 8 39.3259 9.23452 39.3259 10.6266V34.2402C40.3687 34.3978 41.3333 34.5816 42.1676 34.818V14.0675C42.1676 12.6754 43.0279 11.4146 44.7747 11.4146C46.5475 11.4146 47.3818 12.6754 47.3818 14.0675V39.4146C47.3818 42.1726 47.6685 43.6173 48.4767 43.6173C49.8846 43.6173 51.6574 37.7861 53.1173 34.6604C54.4469 31.8236 55.2812 30.7992 57.5233 30.7992C58.514 30.7992 60 31.7974 60 32.9268C60 34.6867 58.514 38.0225 57.7318 40.6229C56.7412 43.9325 55.0205 52.364 49.8063 57.9325C46.0521 61.8987 41.3594 64 35.0503 64C25.1173 64 18 58.1951 18 45.2458Z" fill="#4A4A4A"/>
</svg>
