<svg width="72" height="72" viewBox="0 0 72 72" fill="none" xmlns="http://www.w3.org/2000/svg">
<path d="M31.8349 11.5701L11.3524 29.1265C10.1194 30.1834 9.50279 30.7119 9.05994 31.3543C8.66751 31.9237 8.37644 32.5565 8.19958 33.2249C8 33.9793 8 34.7913 8 36.4154V60.8C8 61.9201 8 62.4802 8.21799 62.908C8.40973 63.2843 8.71569 63.5903 9.09202 63.782C9.51984 64 10.0799 64 11.2 64H30V47C30 46.4477 30.4477 46 31 46H41C41.5523 46 42 46.4477 42 47V64H60.8C61.9201 64 62.4802 64 62.908 63.782C63.2843 63.5903 63.5903 63.2843 63.782 62.908C64 62.4802 64 61.9201 64 60.8V36.4154C64 34.7913 64 33.9793 63.8004 33.2249C63.6236 32.5565 63.3325 31.9237 62.9401 31.3543C62.4972 30.7119 61.8807 30.1834 60.6476 29.1265L40.1651 11.5701C38.6868 10.3029 37.9476 9.66939 37.1187 9.42793C36.3881 9.21511 35.6119 9.21511 34.8813 9.42793C34.0524 9.66939 33.3132 10.303 31.8349 11.5701Z" fill="#3F4549"/>
</svg>
