<svg width="72" height="72" viewBox="0 0 72 72" fill="none" xmlns="http://www.w3.org/2000/svg">
<path d="M35.7162 8C46.4228 8 52.4324 10.6513 52.4324 16.776C52.4324 21.6604 47.935 27.8861 39.0086 35.9997C47.935 44.1139 52.4324 50.3396 52.4324 55.224C52.4324 61.3487 46.4228 64 35.7162 64C25.0096 64 19 61.3487 19 55.224C19 50.3395 23.4975 44.1137 32.4242 36.0001C23.4975 27.8863 19 21.6605 19 16.776C19 10.6513 25.0096 8 35.7162 8ZM35.7162 13.0149L34.5975 13.0247C27.1631 13.1585 24.0149 14.6465 24.0149 16.776C24.0149 19.6834 27.7049 24.82 35.1468 31.6915L35.7162 32.2151L36.8108 31.2036C43.9011 24.5767 47.4176 19.6141 47.4176 16.776C47.4176 14.5426 43.9547 13.0149 35.7162 13.0149Z" fill="#4A4A4A"/>
</svg>
