<svg width="73" height="72" viewBox="0 0 73 72" fill="none" xmlns="http://www.w3.org/2000/svg">
<path d="M36.2162 8C46.9228 8 52.9324 10.6513 52.9324 16.776C52.9324 21.6604 48.435 27.8861 39.5086 35.9997C48.435 44.1139 52.9324 50.3396 52.9324 55.224C52.9324 61.3487 46.9228 64 36.2162 64C25.5096 64 19.5 61.3487 19.5 55.224C19.5 50.3395 23.9975 44.1137 32.9242 36.0001C23.9975 27.8863 19.5 21.6605 19.5 16.776C19.5 10.6513 25.5096 8 36.2162 8ZM36.2162 13.0149L35.0975 13.0247C27.6631 13.1585 24.5149 14.6465 24.5149 16.776C24.5149 19.6834 28.2049 24.82 35.6468 31.6915L36.2162 32.2151L37.3108 31.2036C44.4011 24.5767 47.9176 19.6141 47.9176 16.776C47.9176 14.5426 44.4547 13.0149 36.2162 13.0149Z" fill="#3F4549"/>
</svg>
