<svg width="72" height="72" viewBox="0 0 72 72" fill="none" xmlns="http://www.w3.org/2000/svg">
<path fill-rule="evenodd" clip-rule="evenodd" d="M36 64C51.464 64 64 51.464 64 36C64 20.536 51.464 8 36 8C20.536 8 8 20.536 8 36C8 51.464 20.536 64 36 64ZM39.5 23.5C39.5 25.433 37.933 27 36 27C34.067 27 32.5 25.433 32.5 23.5C32.5 21.567 34.067 20 36 20C37.933 20 39.5 21.567 39.5 23.5ZM33 34C33 32.3431 34.3431 31 36 31C37.6569 31 39 32.3431 39 34V49C39 50.6569 37.6569 52 36 52C34.3431 52 33 50.6569 33 49V34Z" fill="#3F4549"/>
</svg>
