<?xml version="1.0" encoding="UTF-8"?>
<svg width="15px" height="27px" viewBox="0 0 15 27" version="1.1" xmlns="http://www.w3.org/2000/svg" xmlns:xlink="http://www.w3.org/1999/xlink">
    <!-- Generator: sketchtool 63.1 (101010) - https://sketch.com -->
    <title>Elements/Icons/LeftArrow1</title>
    <desc>Created with sketchtool.</desc>
    <g id="Icons" stroke="none" stroke-width="1" fill="none" fill-rule="evenodd">
        <g transform="translate(-107.000000, -742.000000)" id="Elements/Icons/LeftArrow1">
            <g transform="translate(80.000000, 720.000000)">
                <g id="Group">
                    <g>
                        <polygon id="Rectangle" points="0 0 70 0 70 70 0 70"></polygon>
                        <path d="M23.765513,28.4707212 C23.1328636,27.8430929 22.1071364,27.8430929 21.474487,28.4707212 C20.8418377,29.0983496 20.8418377,30.1159361 21.474487,30.7435645 L33.354487,42.5292788 C33.9871364,43.1569071 35.0128636,43.1569071 35.645513,42.5292788 L47.525513,30.7435645 C48.1581623,30.1159361 48.1581623,29.0983496 47.525513,28.4707212 C46.8928636,27.8430929 45.8671364,27.8430929 45.234487,28.4707212 L34.5,39.1200139 L23.765513,28.4707212 Z" id="Path-2" fill="#4A4A4A" fill-rule="nonzero" transform="translate(34.500000, 35.500000) scale(-1, 1) rotate(-90.000000) translate(-34.500000, -35.500000) "></path>
                    </g>
                </g>
            </g>
        </g>
    </g>
</svg>