<svg width="72" height="72" viewBox="0 0 72 72" fill="none" xmlns="http://www.w3.org/2000/svg">
<path d="M42 49.3333L40.2808 49.0952L36.9112 41.9524L40.3496 34.9048L41.9312 34.6667V33H37.2894V34.6667L38.6304 34.9048L36.2063 40.3571L33.8682 34.9048L35.3639 34.6667V33H30V34.6667L31.5989 34.9048L35.0201 42.2857L31.6332 49.0952L30 49.3333V51H34.659V49.3333L33.404 49.0952L35.7593 43.9286L38.0115 49.0952L36.7564 49.3333V51H42V49.3333Z" fill="black"/>
<path fill-rule="evenodd" clip-rule="evenodd" d="M42 20.7426L48.2574 27H42V20.7426ZM39 18V30H51V54H21V18H39ZM42 16.5L54 28.5V57H18V15H40.5L42 16.5Z" fill="black"/>
</svg>
