<svg width="72" height="72" viewBox="0 0 72 72" fill="none" xmlns="http://www.w3.org/2000/svg">
<path d="M12 23C14.2091 23 16 21.2091 16 19C16 16.7909 14.2091 15 12 15C9.79086 15 8 16.7909 8 19C8 21.2091 9.79086 23 12 23Z" fill="#3F4549"/>
<path d="M63 51.6552C63 50.0555 61.7032 48.7586 60.1034 48.7586H22.8965L22.6176 48.7719C21.1487 48.9122 20 50.1496 20 51.6552C20 53.2549 21.2968 54.5517 22.8965 54.5517H60.1034L60.3824 54.5385C61.8512 54.3981 63 53.1608 63 51.6552Z" fill="#3F4549"/>
<path d="M63 35.2759C63 33.6761 61.7032 32.3793 60.1034 32.3793H22.8965L22.6176 32.3926C21.1487 32.5329 20 33.7702 20 35.2759C20 36.8756 21.2968 38.1724 22.8965 38.1724H60.1034L60.3824 38.1592C61.8512 38.0188 63 36.7815 63 35.2759Z" fill="#3F4549"/>
<path d="M63 18.8966C63 17.2968 61.7032 16 60.1034 16H22.8965L22.6176 16.0133C21.1487 16.1536 20 17.3909 20 18.8966C20 20.4963 21.2968 21.7931 22.8965 21.7931H60.1034L60.3824 21.7798C61.8512 21.6395 63 20.4022 63 18.8966Z" fill="#3F4549"/>
<path d="M16 35C16 37.2091 14.2091 39 12 39C9.79086 39 8 37.2091 8 35C8 32.7909 9.79086 31 12 31C14.2091 31 16 32.7909 16 35Z" fill="#3F4549"/>
<path d="M12 55.8C14.2091 55.8 16 54.0091 16 51.8C16 49.5909 14.2091 47.8 12 47.8C9.79086 47.8 8 49.5909 8 51.8C8 54.0091 9.79086 55.8 12 55.8Z" fill="#3F4549"/>
</svg>
