<svg width="72" height="72" viewBox="0 0 72 72" fill="none" xmlns="http://www.w3.org/2000/svg">
<path d="M36 7.99999C37.8498 7.99999 39.3493 9.49952 39.3493 11.3493C39.3493 13.199 37.8498 14.6986 36 14.6986C24.2355 14.6986 14.6986 24.2355 14.6986 36C14.6986 47.7644 24.2355 57.3014 36 57.3014C47.7644 57.3014 57.3014 47.7644 57.3014 36C57.3014 34.1502 58.801 32.6507 60.6507 32.6507C62.5005 32.6507 64 34.1502 64 36C64 51.4639 51.4639 64 36 64C20.536 64 8 51.464 8 36C8 20.536 20.536 7.99999 36 7.99999Z" fill="#4A4A4A"/>
</svg>
