<svg width="73" height="72" viewBox="0 0 73 72" fill="none" xmlns="http://www.w3.org/2000/svg">
<path d="M37.537 34.8484L19.03 34.7746C14.1702 34.7552 11.7403 34.7455 11.0891 34.0386C10.5289 33.4306 10.3516 32.559 10.6291 31.778C10.9518 30.8701 13.182 29.8985 17.6425 27.9552L32.3627 21.5422L56.4451 11.405C58.9775 10.339 60.2437 9.80605 61.0247 10.0644C61.702 10.2886 62.2301 10.8285 62.4424 11.514C62.6872 12.3044 62.1391 13.5716 61.0429 16.106L50.7022 40.0141L44.7514 54.4936C42.825 59.1808 41.8618 61.5244 40.9581 61.8616C40.1812 62.1514 39.3085 61.9785 38.6985 61.4138C37.989 60.757 37.9791 58.2205 37.9591 53.1477L37.8886 35.2026C37.8881 35.079 37.8879 35.0172 37.8639 34.9699C37.8428 34.9284 37.8092 34.8946 37.7679 34.8733C37.721 34.8491 37.6597 34.8489 37.537 34.8484Z" fill="#3F4549"/>
</svg>
