<svg width="72" height="72" viewBox="0 0 72 72" fill="none" xmlns="http://www.w3.org/2000/svg">
<path d="M37.037 34.8484L18.53 34.7746C13.6702 34.7552 11.2403 34.7455 10.5891 34.0386C10.0289 33.4306 9.85159 32.559 10.1291 31.778C10.4518 30.8701 12.682 29.8985 17.1425 27.9552L31.8627 21.5422L55.9451 11.405C58.4775 10.339 59.7437 9.80605 60.5247 10.0644C61.202 10.2886 61.7301 10.8285 61.9424 11.514C62.1872 12.3044 61.6391 13.5716 60.5429 16.106L50.2022 40.0141L44.2514 54.4936C42.325 59.1808 41.3618 61.5244 40.4581 61.8616C39.6812 62.1514 38.8085 61.9785 38.1985 61.4138C37.489 60.757 37.4791 58.2205 37.4591 53.1477L37.3886 35.2026C37.3881 35.079 37.3879 35.0172 37.3639 34.9699C37.3428 34.9284 37.3092 34.8946 37.2679 34.8733C37.221 34.8491 37.1597 34.8489 37.037 34.8484Z" fill="#4A4A4A"/>
</svg>
