<svg width="72" height="72" viewBox="0 0 72 72" fill="none" xmlns="http://www.w3.org/2000/svg">
<path fill-rule="evenodd" clip-rule="evenodd" d="M21 28.0216C19.1917 28.0702 18.0443 28.2283 17.1095 28.7422C16.1117 29.2907 15.2907 30.1117 14.7422 31.1095C14 32.4595 14 34.253 14 37.84V54.16C14 57.747 14 59.5405 14.7422 60.8905C15.2907 61.8883 16.1117 62.7093 17.1095 63.2578C18.4595 64 20.253 64 23.84 64H48.16C51.747 64 53.5405 64 54.8905 63.2578C55.8883 62.7093 56.7093 61.8883 57.2578 60.8905C58 59.5405 58 57.747 58 54.16V37.84C58 34.253 58 32.4595 57.2578 31.1095C56.7093 30.1117 55.8883 29.2907 54.8905 28.7422C53.9557 28.2283 52.8083 28.0702 51 28.0216V23C51 14.7157 44.2843 8 36 8C27.7157 8 21 14.7157 21 23V28.0216ZM27 28H45V23C45 18.0294 40.9706 14 36 14C31.0294 14 27 18.0294 27 23V28Z" fill="#3F4549"/>
</svg>
