<svg width="73" height="72" viewBox="0 0 73 72" fill="none" xmlns="http://www.w3.org/2000/svg">
<path fill-rule="evenodd" clip-rule="evenodd" d="M9.5 13.25C9.5 10.3505 11.8505 8 14.75 8H39.25C42.1495 8 44.5 10.3505 44.5 13.25V34.25H30.5C29.5335 34.25 28.75 35.0335 28.75 36C28.75 36.9665 29.5335 37.75 30.5 37.75H44.5V58.75C44.5 61.6495 42.1495 64 39.25 64H14.75C11.8505 64 9.5 61.6495 9.5 58.75V13.25ZM44.5 37.75H57.7751L51.1376 44.3876C50.4541 45.071 50.4541 46.179 51.1376 46.8624C51.821 47.5459 52.929 47.5459 53.6124 46.8624L63.2374 37.2374C63.9209 36.554 63.9209 35.446 63.2374 34.7626L53.6124 25.1376C52.929 24.4541 51.821 24.4541 51.1376 25.1376C50.4541 25.821 50.4541 26.929 51.1376 27.6124L57.7751 34.25H44.5V37.75Z" fill="#3F4549"/>
</svg>
