<svg width="72" height="72" viewBox="0 0 72 72" fill="none" xmlns="http://www.w3.org/2000/svg">
<path fill-rule="evenodd" clip-rule="evenodd" d="M9 13.25C9 10.3505 11.3505 8 14.25 8H38.75C41.6495 8 44 10.3505 44 13.25V34.25H30C29.0335 34.25 28.25 35.0335 28.25 36C28.25 36.9665 29.0335 37.75 30 37.75H44V58.75C44 61.6495 41.6495 64 38.75 64H14.25C11.3505 64 9 61.6495 9 58.75V13.25ZM44 37.75H57.2751L50.6376 44.3876C49.9541 45.071 49.9541 46.179 50.6376 46.8624C51.321 47.5459 52.429 47.5459 53.1124 46.8624L62.7374 37.2374C63.4209 36.554 63.4209 35.446 62.7374 34.7626L53.1124 25.1376C52.429 24.4541 51.321 24.4541 50.6376 25.1376C49.9541 25.821 49.9541 26.929 50.6376 27.6124L57.2751 34.25H44V37.75Z" fill="#4A4A4A"/>
</svg>
