<svg width="72" height="72" viewBox="0 0 72 72" fill="none" xmlns="http://www.w3.org/2000/svg">
<path d="M29.2215 53.9426V13L44.2848 18.1557V59.0983L29.2215 53.9426ZM24.5696 53.9426L9.74942 59.0151C9.05304 59.2535 8.30033 58.8671 8.06821 58.152C8.02303 58.0128 8 57.8671 8 57.7204V22.6436C8 21.1445 8.10942 20.6011 8.33382 20.0264C8.55823 19.4518 8.89762 18.9683 9.35758 18.568C9.81754 18.1676 10.285 17.8892 11.67 17.4152L24.5696 13V53.9426ZM48.9367 18.175L62.2648 13.784C62.9638 13.5537 63.7122 13.9488 63.9365 14.6665C63.9786 14.8013 64 14.9419 64 15.0835V50.1429C64 51.6531 63.8883 52.2007 63.66 52.779C63.4317 53.3573 63.0867 53.8429 62.6202 54.2428C62.1537 54.6427 61.68 54.9192 60.2796 55.3806L48.9367 59.1176V18.175Z" fill="#4A4A4A"/>
</svg>
