<svg width="73" height="72" viewBox="0 0 73 72" fill="none" xmlns="http://www.w3.org/2000/svg">
<path d="M29.7215 53.9426V13L44.7848 18.1557V59.0983L29.7215 53.9426ZM25.0696 53.9426L10.2494 59.0151C9.55304 59.2535 8.80033 58.8671 8.56821 58.152C8.52303 58.0128 8.5 57.8671 8.5 57.7204V22.6436C8.5 21.1445 8.60942 20.6011 8.83382 20.0264C9.05823 19.4518 9.39762 18.9683 9.85758 18.568C10.3175 18.1676 10.785 17.8892 12.17 17.4152L25.0696 13V53.9426ZM49.4367 18.175L62.7648 13.784C63.4638 13.5537 64.2122 13.9488 64.4365 14.6665C64.4786 14.8013 64.5 14.9419 64.5 15.0835V50.1429C64.5 51.6531 64.3883 52.2007 64.16 52.779C63.9317 53.3573 63.5867 53.8429 63.1202 54.2428C62.6537 54.6427 62.18 54.9192 60.7796 55.3806L49.4367 59.1176V18.175Z" fill="#3F4549"/>
</svg>
