<?xml version="1.0" encoding="UTF-8"?>
<svg width="34px" height="28px" viewBox="0 0 34 28" version="1.1" xmlns="http://www.w3.org/2000/svg" xmlns:xlink="http://www.w3.org/1999/xlink">
    <!-- Generator: sketchtool 63.1 (101010) - https://sketch.com -->
    <title>Elements/Icons/Map1</title>
    <desc>Created with sketchtool.</desc>
    <g id="Icons" stroke="none" stroke-width="1" fill="none" fill-rule="evenodd">
        <g transform="translate(-98.000000, -521.000000)" id="Elements/Icons/Map1">
            <g transform="translate(80.000000, 500.000000)">
                <g>
                    <polygon id="Rectangle" points="0 0 70 0 70 70 0 70"></polygon>
                    <path d="M30.8844937,45.858014 L30.8844937,21 L40.0300633,24.1302684 L40.0300633,48.9882824 L30.8844937,45.858014 Z M28.0601266,45.858014 L19.0621458,48.9377669 C18.6393435,49.0824802 18.1823448,48.8478537 18.0414106,48.413714 C18.0139829,48.3292245 18,48.2407472 18,48.1516875 L18,26.855038 C18,25.9448671 18.0664317,25.6149443 18.2026782,25.2660526 C18.3389247,24.9171608 18.5449861,24.6235998 18.8242453,24.3805499 C19.1035046,24.1374999 19.3873157,23.9684566 20.2282307,23.6806353 L28.0601266,21 L28.0601266,45.858014 Z M42.8544304,24.141986 L50.9464992,21.475979 C51.3708633,21.3361683 51.8252574,21.5760691 51.961417,22.0118123 C51.9869834,22.0936309 52,22.1790349 52,22.2649619 L52,43.5510375 C52,44.4679524 51.9321842,44.8004514 51.7935616,45.151547 C51.6549389,45.5026425 51.4455095,45.7974843 51.1622823,46.0402833 C50.8790551,46.2830822 50.5914403,46.4509704 49.7411654,46.7311014 L42.8544304,49 L42.8544304,24.141986 Z" id="Shape" fill="#4A4A4A" fill-rule="nonzero"></path>
                </g>
            </g>
        </g>
    </g>
</svg>