<svg width="72" height="72" viewBox="0 0 72 72" fill="none" xmlns="http://www.w3.org/2000/svg">
<path d="M47 19C47 24.2863 43.271 28.7017 38.3 29.7592V50.7C38.3 51.9703 37.2703 53 36 53C34.7297 53 33.7 51.9703 33.7 50.7V29.7592C28.729 28.7017 25 24.2863 25 19C25 12.9249 29.9249 8 36 8C42.0751 8 47 12.9249 47 19Z" fill="#3F4549"/>
<path d="M8 52C8 45.1213 16.9217 39.4013 30 38.2226V42.8428C24.9286 43.3432 21.5269 44.5805 18.2582 46.2149C13.6802 48.5039 12.6 50.815 12.6 52C12.6 53.185 13.6802 55.4961 18.2582 57.7851C22.5611 59.9366 28.8273 61.4 36 61.4C43.1727 61.4 49.4389 59.9366 53.7418 57.7851C58.3198 55.4961 59.4 53.185 59.4 52C59.4 50.815 58.3198 48.5039 53.7418 46.2149C50.4731 44.5805 47.0714 43.3432 42 42.8428V38.2226C55.0783 39.4013 64 45.1213 64 52C64 59.732 51.464 66 36 66C20.536 66 8 59.732 8 52Z" fill="#3F4549"/>
</svg>
