<svg width="72" height="72" viewBox="0 0 72 72" fill="none" xmlns="http://www.w3.org/2000/svg">
<path fill-rule="evenodd" clip-rule="evenodd" d="M64 35.4C64 23.0288 51.464 13 36 13C20.536 13 8 23.0288 8 35.4C8 47.7712 20.536 57.8 36 57.8C41.3173 57.8 46.2884 56.6143 50.5228 54.5558C53.1152 57.963 56.9854 59.6667 62.1333 59.6667C58.4 54.6889 57.7778 50.3333 60.2667 46.6L60.3636 46.4472C62.6782 43.1872 64 39.4171 64 35.4ZM27.4134 30.6303C27.8383 30.3917 28.3599 30.3183 29.1818 30.2957V27.9643C29.1818 24.118 32.2344 21 36 21C39.7656 21 42.8182 24.118 42.8182 27.9643V30.2957C43.6401 30.3183 44.1617 30.3917 44.5866 30.6303C45.0401 30.885 45.4133 31.2662 45.6627 31.7294C46 32.3562 46 33.1889 46 34.8543V42.4314C46 44.0968 46 44.9295 45.6627 45.5563C45.4133 46.0195 45.0401 46.4008 44.5866 46.6554C43.973 47 43.1577 47 41.5273 47H30.4727C28.8423 47 28.027 47 27.4134 46.6554C26.9599 46.4008 26.5867 46.0195 26.3373 45.5563C26 44.9295 26 44.0968 26 42.4314V34.8543C26 33.1889 26 32.3562 26.3373 31.7294C26.5867 31.2662 26.9599 30.885 27.4134 30.6303ZM40.0909 27.9643V30.2857H31.9091V27.9643C31.9091 25.6565 33.7407 23.7857 36 23.7857C38.2593 23.7857 40.0909 25.6565 40.0909 27.9643Z" fill="#3F4549"/>
</svg>
