<svg width="72" height="72" viewBox="0 0 72 72" fill="none" xmlns="http://www.w3.org/2000/svg">
<path fill-rule="evenodd" clip-rule="evenodd" d="M64 35.4C64 23.0288 51.464 13 36 13C20.536 13 8 23.0288 8 35.4C8 47.7712 20.536 57.8 36 57.8C41.3173 57.8 46.2884 56.6143 50.5228 54.5558C53.1152 57.963 56.9854 59.6667 62.1333 59.6667C58.4 54.6889 57.7778 50.3333 60.2667 46.6L60.3636 46.4472C62.6782 43.1872 64 39.4171 64 35.4ZM21.3773 30C20.824 30 20.3719 30.4509 20.36 31.018C20.3434 31.808 20.3214 32.9562 20.3073 34.0901C19.2748 33.4957 18.2183 32.8974 17.5051 32.4953C17.0204 32.2221 16.4135 32.3978 16.1369 32.889C15.8603 33.3801 16.0154 34.0069 16.4885 34.3006C17.1714 34.7246 18.1786 35.3474 19.1779 35.9558C18.1836 36.5612 17.1831 37.1798 16.5037 37.6016C16.0306 37.8954 15.8755 38.5222 16.1521 39.0133C16.4286 39.5045 17.0356 39.6802 17.5202 39.4069C18.2298 39.007 19.2789 38.4129 20.3063 37.8215C20.3202 38.9839 20.3429 40.1715 20.36 40.982C20.3719 41.5491 20.824 42 21.3773 42C21.9306 42 22.3827 41.5491 22.3946 40.982C22.4113 40.188 22.4335 39.0322 22.4475 37.8927C23.4895 38.4929 24.5596 39.0988 25.2798 39.5048C25.7644 39.778 26.3714 39.6023 26.6479 39.1112C26.9245 38.62 26.7694 37.9932 26.2963 37.6995C25.5802 37.2549 24.5075 36.5917 23.4613 35.9558C24.5123 35.317 25.592 34.6495 26.3115 34.2028C26.7846 33.909 26.9397 33.2823 26.6631 32.7911C26.3865 32.3 25.7796 32.1243 25.2949 32.3975C24.571 32.8056 23.4936 33.4157 22.4464 34.0189C22.4323 32.9083 22.4109 31.7915 22.3946 31.018C22.3827 30.4509 21.9306 30 21.3773 30ZM35.5773 30C35.024 30 34.5719 30.4509 34.56 31.018C34.5434 31.808 34.5214 32.9562 34.5073 34.0901C33.4748 33.4957 32.4183 32.8974 31.7051 32.4953C31.2204 32.2221 30.6135 32.3978 30.3369 32.889C30.0603 33.3801 30.2154 34.0069 30.6885 34.3006C31.3714 34.7246 32.3786 35.3474 33.3779 35.9558C32.3836 36.5612 31.3831 37.1798 30.7037 37.6016C30.2305 37.8954 30.0755 38.5222 30.3521 39.0133C30.6286 39.5045 31.2356 39.6802 31.7202 39.4069C32.4298 39.007 33.4789 38.4129 34.5063 37.8215C34.5202 38.9839 34.5429 40.1715 34.56 40.982C34.5719 41.5491 35.024 42 35.5773 42C36.1306 42 36.5827 41.5491 36.5946 40.982C36.6113 40.188 36.6335 39.0322 36.6475 37.8927C37.6895 38.4929 38.7596 39.0988 39.4798 39.5048C39.9644 39.778 40.5714 39.6023 40.8479 39.1112C41.1245 38.62 40.9694 37.9932 40.4963 37.6995C39.7802 37.2549 38.7075 36.5917 37.6613 35.9558C38.7123 35.317 39.7919 34.6495 40.5115 34.2028C40.9846 33.909 41.1397 33.2823 40.8631 32.7911C40.5865 32.3 39.9796 32.1243 39.4949 32.3975C38.771 32.8056 37.6936 33.4157 36.6464 34.0189C36.6323 32.9083 36.6109 31.7915 36.5946 31.018C36.5827 30.4509 36.1306 30 35.5773 30ZM48.76 31.018C48.7719 30.4509 49.2241 30 49.7773 30C50.3306 30 50.7827 30.4509 50.7946 31.018C50.8109 31.7915 50.8323 32.9083 50.8464 34.0189C51.8936 33.4157 52.971 32.8056 53.6949 32.3975C54.1796 32.1243 54.7866 32.3 55.0631 32.7911C55.3397 33.2823 55.1846 33.909 54.7115 34.2028C53.992 34.6495 52.9123 35.317 51.8613 35.9558C52.9075 36.5917 53.9803 37.2549 54.6963 37.6995C55.1695 37.9932 55.3245 38.62 55.0479 39.1112C54.7714 39.6023 54.1645 39.778 53.6798 39.5048C52.9596 39.0988 51.8895 38.4929 50.8475 37.8927C50.8335 39.0322 50.8113 40.188 50.7946 40.982C50.7827 41.5491 50.3306 42 49.7773 42C49.2241 42 48.7719 41.5491 48.76 40.982C48.7429 40.1715 48.7202 38.9839 48.7063 37.8215C47.6789 38.4129 46.6298 39.007 45.9202 39.4069C45.4356 39.6802 44.8286 39.5045 44.5521 39.0133C44.2755 38.5222 44.4306 37.8954 44.9037 37.6016C45.5831 37.1798 46.5836 36.5612 47.5779 35.9558C46.5786 35.3474 45.5714 34.7246 44.8885 34.3006C44.4154 34.0069 44.2603 33.3801 44.5369 32.889C44.8135 32.3978 45.4204 32.2221 45.9051 32.4953C46.6183 32.8974 47.6748 33.4957 48.7074 34.0901C48.7214 32.9562 48.7434 31.808 48.76 31.018Z" fill="#3F4549"/>
</svg>
