<svg width="72" height="72" viewBox="0 0 72 72" fill="none" xmlns="http://www.w3.org/2000/svg">
<path d="M33.8667 53.8141C30.4749 53.3416 27.4191 51.758 25.0449 49.4247L28.1344 46.3351C30.2154 48.3021 32.9739 49.5 36 49.5C42.4801 49.5 47.7333 44.0069 47.7333 37.2308V30.3077C47.7333 29.0757 48.6885 28.0769 49.8667 28.0769C51.0449 28.0769 52 29.0757 52 30.3077V37.2308C52 45.7146 45.9613 52.7235 38.1333 53.8141V59.5385H46.6667C47.8449 59.5385 48.8 60.5372 48.8 61.7692C48.8 63.0012 47.8449 64 46.6667 64H25.3333C24.1551 64 23.2 63.0012 23.2 61.7692C23.2 60.5372 24.1551 59.5385 25.3333 59.5385H33.8667V53.8141Z" fill="#3F4549"/>
<path d="M36 46.1538C33.8835 46.1538 31.9469 45.3481 30.4556 44.014L44.5333 29.9362V37.2308C44.5333 42.1588 40.7128 46.1538 36 46.1538Z" fill="#3F4549"/>
<path d="M36 8C40.3671 8 43.9679 11.4303 44.4728 15.8546L27.4667 32.8608V16.9231C27.4667 11.995 31.2872 8 36 8Z" fill="#3F4549"/>
<path d="M24.2667 30.3077V36.0608L20.2334 40.094C20.08 39.1637 20 38.207 20 37.2308V30.3077C20 29.0757 20.9551 28.0769 22.1333 28.0769C23.3115 28.0769 24.2667 29.0757 24.2667 30.3077Z" fill="#3F4549"/>
<path d="M13.5858 50.9842C12.8048 51.7653 12.8048 53.0316 13.5858 53.8127C14.3669 54.5937 15.6332 54.5937 16.4143 53.8127L56.8128 13.4142C57.5938 12.6331 57.5938 11.3668 56.8128 10.5857C56.0317 9.8047 54.7654 9.8047 53.9843 10.5857L13.5858 50.9842Z" fill="#3F4549"/>
</svg>
