<svg width="73" height="72" viewBox="0 0 73 72" fill="none" xmlns="http://www.w3.org/2000/svg">
<path d="M36.5 8C31.7872 8 27.9667 11.995 27.9667 16.9231V37.2308C27.9667 42.1588 31.7872 46.1538 36.5 46.1538C41.2128 46.1538 45.0333 42.1588 45.0333 37.2308V16.9231C45.0333 11.995 41.2128 8 36.5 8Z" fill="#3F4549"/>
<path d="M52.5 37.2308C52.5 45.7146 46.4613 52.7235 38.6333 53.8141V59.5385H47.1667C48.3449 59.5385 49.3 60.5372 49.3 61.7692C49.3 63.0012 48.3449 64 47.1667 64H25.8333C24.6551 64 23.7 63.0012 23.7 61.7692C23.7 60.5372 24.6551 59.5385 25.8333 59.5385H34.3667V53.8141C26.5387 52.7235 20.5 45.7146 20.5 37.2308V30.3077C20.5 29.0757 21.4551 28.0769 22.6333 28.0769C23.8115 28.0769 24.7667 29.0757 24.7667 30.3077V37.2308C24.7667 44.0069 30.0199 49.5 36.5 49.5C42.9801 49.5 48.2333 44.0069 48.2333 37.2308V30.3077C48.2333 29.0757 49.1885 28.0769 50.3667 28.0769C51.5449 28.0769 52.5 29.0757 52.5 30.3077V37.2308Z" fill="#3F4549"/>
</svg>
