<?xml version="1.0" encoding="UTF-8"?>
<svg width="30px" height="8px" viewBox="0 0 30 8" version="1.1" xmlns="http://www.w3.org/2000/svg" xmlns:xlink="http://www.w3.org/1999/xlink">
    <!-- Generator: sketchtool 63.1 (101010) - https://sketch.com -->
    <title>Elements/Icons/More1</title>
    <desc>Created with sketchtool.</desc>
    <g id="Icons" stroke="none" stroke-width="1" fill="none" fill-rule="evenodd">
        <g transform="translate(-540.000000, -531.000000)" id="Elements/Icons/More1">
            <g transform="translate(520.000000, 500.000000)">
                <g>
                    <polygon id="Rectangle" points="0 0 70 0 70 70 0 70"></polygon>
                    <path d="M24,31 C26.209139,31 28,32.790861 28,35 C28,37.209139 26.209139,39 24,39 C21.790861,39 20,37.209139 20,35 C20,32.790861 21.790861,31 24,31 Z M35,31 C37.209139,31 39,32.790861 39,35 C39,37.209139 37.209139,39 35,39 C32.790861,39 31,37.209139 31,35 C31,32.790861 32.790861,31 35,31 Z M46,31 C48.209139,31 50,32.790861 50,35 C50,37.209139 48.209139,39 46,39 C43.790861,39 42,37.209139 42,35 C42,32.790861 43.790861,31 46,31 Z" id="Combined-Shape" fill="#4A4A4A" fill-rule="nonzero"></path>
                </g>
            </g>
        </g>
    </g>
</svg>