<svg width="73" height="72" viewBox="0 0 73 72" fill="none" xmlns="http://www.w3.org/2000/svg">
<path d="M50.3151 38.1495C50.1636 37.9788 50.0806 37.7593 50.0816 37.5324L50.1183 29.5084L30.5082 29.5675C28.6544 29.5758 27.1584 28.0991 27.1667 26.2693C27.1751 24.4394 28.6847 22.9493 30.5385 22.9411L50.1487 22.8819L50.1842 15.1259C50.1865 14.6122 50.6103 14.1977 51.1307 14.2C51.3572 14.201 51.5759 14.2826 51.7465 14.4298L63.8556 24.8757C64.6392 25.5517 64.7193 26.7268 64.0345 27.5004C63.9794 27.5626 63.9202 27.6211 63.8573 27.6755L51.6447 38.2362C51.2533 38.5746 50.658 38.5358 50.3151 38.1495ZM21.8693 59C21.6428 58.999 21.4241 58.9174 21.2535 58.7702L9.14442 48.3243C8.36075 47.6483 8.28066 46.4732 8.96554 45.6996C9.0206 45.6374 9.07979 45.5789 9.14272 45.5245L21.3553 34.9638C21.7467 34.6253 22.342 34.6642 22.6849 35.0505C22.8364 35.2212 22.9194 35.4407 22.9184 35.6676L22.8817 43.6916L42.4918 43.6325C44.3456 43.6242 45.8416 45.1009 45.8333 46.9307C45.8249 48.7606 44.3153 50.2507 42.4615 50.2589L22.8513 50.3181L22.8158 58.0741C22.8135 58.5878 22.3897 59.0023 21.8693 59Z" fill="#3F4549"/>
</svg>
