<svg width="72" height="72" viewBox="0 0 72 72" fill="none" xmlns="http://www.w3.org/2000/svg">
<path d="M49.8151 38.1495C49.6636 37.9788 49.5806 37.7593 49.5816 37.5324L49.6183 29.5084L30.0082 29.5675C28.1544 29.5758 26.6584 28.0991 26.6667 26.2693C26.6751 24.4394 28.1847 22.9493 30.0385 22.9411L49.6487 22.8819L49.6842 15.1259C49.6865 14.6122 50.1103 14.1977 50.6307 14.2C50.8572 14.201 51.0759 14.2826 51.2465 14.4298L63.3556 24.8757C64.1392 25.5517 64.2193 26.7268 63.5345 27.5004C63.4794 27.5626 63.4202 27.6211 63.3573 27.6755L51.1447 38.2362C50.7533 38.5746 50.158 38.5358 49.8151 38.1495ZM21.3693 59C21.1428 58.999 20.9241 58.9174 20.7535 58.7702L8.64442 48.3243C7.86075 47.6483 7.78066 46.4732 8.46554 45.6996C8.5206 45.6374 8.57979 45.5789 8.64272 45.5245L20.8553 34.9638C21.2467 34.6253 21.842 34.6642 22.1849 35.0505C22.3364 35.2212 22.4194 35.4407 22.4184 35.6676L22.3817 43.6916L41.9918 43.6325C43.8456 43.6242 45.3416 45.1009 45.3333 46.9307C45.3249 48.7606 43.8153 50.2507 41.9615 50.2589L22.3513 50.3181L22.3158 58.0741C22.3135 58.5878 21.8897 59.0023 21.3693 59Z" fill="#4A4A4A"/>
</svg>
