<?xml version="1.0" encoding="UTF-8"?>
<svg width="30px" height="24px" viewBox="0 0 30 24" version="1.1" xmlns="http://www.w3.org/2000/svg" xmlns:xlink="http://www.w3.org/1999/xlink">
    <!-- Generator: sketchtool 63.1 (101010) - https://sketch.com -->
    <title>Elements/Icons/Move1</title>
    <desc>Created with sketchtool.</desc>
    <g id="Icons" stroke="none" stroke-width="1" fill="none" fill-rule="evenodd">
        <g transform="translate(-320.000000, -523.000000)" id="Elements/Icons/Move1">
            <g transform="translate(300.000000, 500.000000)">
                <g>
                    <polygon id="Rectangle" points="0 0 70 0 70 70 0 70"></polygon>
                    <g id="Group" transform="translate(35.000000, 35.000000) scale(-1, -1) translate(-35.000000, -35.000000) translate(20.000000, 23.000000)" fill="#4A4A4A" fill-rule="nonzero">
                        <g id="Group-2">
                            <path d="M7.5990542,11.1699332 C7.68020869,11.261373 7.72469614,11.3789445 7.72413958,11.5005091 L7.70445945,15.7990679 L18.2099144,15.7673933 C19.2030188,15.7629632 20.0044507,16.5540438 19.9999814,17.5343212 C19.9954746,18.5145986 19.1867662,19.3128617 18.1936619,19.3172917 L7.68820691,19.3489663 L7.66918393,23.5039905 C7.6679241,23.779164 7.44091172,24.0012281 7.16213758,24 C7.04076176,23.9994431 6.92364776,23.9557491 6.83225406,23.8769084 L0.345225537,18.280881 C-0.074597746,17.9187209 -0.117501405,17.2891939 0.249397534,16.8747931 C0.278891738,16.8414803 0.31060071,16.8101433 0.344313975,16.7809901 L6.88675393,11.1234816 C7.09644532,10.9421531 7.41535301,10.9629502 7.5990542,11.1699332 Z M22.8378624,-6.39488462e-14 C22.9592382,0.000556897373 23.0763522,0.0442509132 23.1677459,0.123091579 L29.6547745,5.71911904 C30.0745977,6.0812791 30.1175014,6.71080608 29.7506025,7.12520691 C29.7211083,7.15851969 29.6893993,7.18985669 29.655686,7.21900989 L23.1132461,12.8765184 C22.9035547,13.0578469 22.584647,13.0370498 22.4009458,12.8300668 C22.3197913,12.738627 22.2753039,12.6210555 22.2758604,12.4994909 L22.2955406,8.20093214 L11.7900856,8.23260674 C10.7969812,8.23703678 9.99554935,7.44595621 10.0000186,6.46567883 C10.0045254,5.48540144 10.8132338,4.68713835 11.8063381,4.6827083 L22.3117931,4.6510337 L22.3308161,0.496009459 C22.3320759,0.220835982 22.5590883,-0.00122809392 22.8378624,-6.39488462e-14 Z" id="Combined-Shape"></path>
                        </g>
                    </g>
                </g>
            </g>
        </g>
    </g>
</svg>