<?xml version="1.0" encoding="UTF-8"?>
<svg width="28px" height="32px" viewBox="0 0 28 32" version="1.1" xmlns="http://www.w3.org/2000/svg" xmlns:xlink="http://www.w3.org/1999/xlink">
    <!-- Generator: sketchtool 63.1 (101010) - https://sketch.com -->
    <title>Elements/Icons/Notepad1</title>
    <desc>Created with sketchtool.</desc>
    <g id="Icons" stroke="none" stroke-width="1" fill="none" fill-rule="evenodd">
        <g transform="translate(-431.000000, -518.000000)" id="Elements/Icons/Notepad1">
            <g transform="translate(410.000000, 500.000000)">
                <g>
                    <polygon id="Rectangle" points="0 0 70 0 70 70 0 70"></polygon>
                    <path d="M39.0770861,18 C39.7457252,18 39.9881898,18.0696192 40.2326343,18.2003495 C40.4770787,18.3310798 40.6689202,18.5229213 40.7996505,18.7673657 C40.9303808,19.0118102 41,19.2542748 41,19.9229139 L41,20 L41.3083444,20 C43.9829006,20 44.9527593,20.2784768 45.9305371,20.8013981 C46.9083149,21.3243194 47.6756806,22.0916851 48.1986019,23.0694629 C48.7215232,24.0472407 49,25.0170994 49,27.6916556 L49,42.3083444 C49,44.9829006 48.7215232,45.9527593 48.1986019,46.9305371 C47.6756806,47.9083149 46.9083149,48.6756806 45.9305371,49.1986019 C44.9527593,49.7215232 43.9829006,50 41.3083444,50 L28.6916556,50 C26.0170994,50 25.0472407,49.7215232 24.0694629,49.1986019 C23.0916851,48.6756806 22.3243194,47.9083149 21.8013981,46.9305371 C21.2784768,45.9527593 21,44.9829006 21,42.3083444 L21,27.6916556 C21,25.0170994 21.2784768,24.0472407 21.8013981,23.0694629 C22.3243194,22.0916851 23.0916851,21.3243194 24.0694629,20.8013981 C25.0472407,20.2784768 26.0170994,20 28.6916556,20 L29,19.999 L29,19.9229139 C29,19.2542748 29.0696192,19.0118102 29.2003495,18.7673657 C29.3310798,18.5229213 29.5229213,18.3310798 29.7673657,18.2003495 C30.0118102,18.0696192 30.2542748,18 30.9229139,18 L39.0770861,18 Z M43.4361148,23 L26.5638852,23 C25.6723665,23 25.3490802,23.0928256 25.0231543,23.2671327 C24.6972284,23.4414398 24.4414398,23.6972284 24.2671327,24.0231543 C24.0928256,24.3490802 24,24.6723665 24,25.5638852 L24,44.4361148 C24,45.3276335 24.0928256,45.6509198 24.2671327,45.9768457 C24.4414398,46.3027716 24.6972284,46.5585602 25.0231543,46.7328673 C25.3490802,46.9071744 25.6723665,47 26.5638852,47 L43.4361148,47 C44.3276335,47 44.6509198,46.9071744 44.9768457,46.7328673 C45.3027716,46.5585602 45.5585602,46.3027716 45.7328673,45.9768457 C45.9071744,45.6509198 46,45.3276335 46,44.4361148 L46,25.5638852 C46,24.6723665 45.9071744,24.3490802 45.7328673,24.0231543 C45.5585602,23.6972284 45.3027716,23.4414398 44.9768457,23.2671327 C44.6509198,23.0928256 44.3276335,23 43.4361148,23 Z M41.5051046,30.9393398 C42.0542794,31.4885146 42.0886028,32.357577 41.6080749,32.9467378 L41.5051046,33.0606602 L34.5051046,40.0606602 C33.9559298,40.609835 33.0868674,40.6441584 32.4977067,40.1636304 L32.3837843,40.0606602 L28.4948954,36.1717713 C27.9091089,35.5859848 27.9091089,34.6362374 28.4948954,34.0504509 C29.0440702,33.5012762 29.9131326,33.4669527 30.5022933,33.9474807 L30.6162157,34.0504509 L33.4444444,36.8786797 L39.3837843,30.9393398 C39.9695707,30.3535534 40.9193182,30.3535534 41.5051046,30.9393398 Z" id="Combined-Shape" fill="#4A4A4A" fill-rule="nonzero"></path>
                </g>
            </g>
        </g>
    </g>
</svg>