<svg width="72" height="72" viewBox="0 0 72 72" fill="none" xmlns="http://www.w3.org/2000/svg">
<path d="M25.0087 7.5H46.9913C49.288 7.49997 51.1728 7.49994 52.7024 7.63312C54.2889 7.77125 55.7272 8.06692 57.0584 8.79879C58.8045 9.75868 60.2413 11.1956 61.2012 12.9416C61.2128 12.9627 61.2243 12.9838 61.2357 13.005C60.0687 13.3522 59.0145 14.1004 58.2994 15.2015L57.2699 16.7869C57.1571 16.1138 57.0032 15.6842 56.8197 15.3504C56.3169 14.4358 55.5642 13.6831 54.6497 13.1803C54.1809 12.9226 53.5235 12.7235 52.2687 12.6143C50.9816 12.5022 49.3155 12.5 46.88 12.5H25.12C22.6846 12.5 21.0184 12.5022 19.7313 12.6143C18.4765 12.7235 17.8191 12.9226 17.3504 13.1803C16.4358 13.6831 15.6831 14.4358 15.1803 15.3504C14.9226 15.8191 14.7235 16.4765 14.6143 17.7313C14.5022 19.0184 14.5 20.6846 14.5 23.12V48.88C14.5 51.3155 14.5022 52.9816 14.6143 54.2687C14.7235 55.5235 14.9226 56.1809 15.1803 56.6497C15.6831 57.5642 16.4358 58.3169 17.3504 58.8197C17.8191 59.0774 18.4765 59.2765 19.7313 59.3857C21.0184 59.4978 22.6846 59.5 25.12 59.5H46.88C49.3155 59.5 50.9816 59.4978 52.2687 59.3857C53.5235 59.2765 54.1809 59.0774 54.6497 58.8197C55.5642 58.3169 56.3169 57.5642 56.8197 56.6497C57.0774 56.1809 57.2765 55.5235 57.3857 54.2687C57.4978 52.9816 57.5 51.3155 57.5 48.88V35.9282L62.5 28.2288V48.9914C62.5 51.2881 62.5001 53.1728 62.3669 54.7024C62.2288 56.2889 61.9331 57.7272 61.2012 59.0584C60.2413 60.8045 58.8045 62.2413 57.0584 63.2012C55.7272 63.9331 54.2889 64.2288 52.7024 64.3669C51.1728 64.5001 49.288 64.5 46.9913 64.5H25.0086C22.7119 64.5 20.8272 64.5001 19.2976 64.3669C17.7111 64.2288 16.2729 63.9331 14.9416 63.2012C13.1956 62.2413 11.7587 60.8045 10.7988 59.0584C10.0669 57.7272 9.77125 56.2889 9.63312 54.7024C9.49994 53.1728 9.49997 51.2881 9.5 48.9914V23.0086C9.49997 20.712 9.49994 18.8272 9.63312 17.2976C9.77125 15.7111 10.0669 14.2729 10.7988 12.9416C11.7587 11.1956 13.1956 9.75868 14.9416 8.79879C16.2729 8.06692 17.7111 7.77125 19.2976 7.63312C20.8272 7.49994 22.712 7.49997 25.0087 7.5Z" fill="#3F4549"/>
<path d="M39.0373 47.4973L38.6117 51.4089C38.4891 51.4484 38.3609 51.4758 38.2278 51.4897L38.2148 51.4911L38.0443 51.5H22C20.8528 51.5 20 50.4947 20 49.3543C20 48.2782 20.7545 47.3288 21.8034 47.2188L21.8164 47.2175L21.987 47.2086H38.0313C38.4041 47.2086 38.7458 47.3148 39.0373 47.4973Z" fill="#3F4549"/>
<path d="M22 42.5514H40.5382L43.325 38.26H21.987L21.8164 38.2689L21.8034 38.2703C20.7545 38.3802 20 39.3297 20 40.4057C20 41.5461 20.8528 42.5514 22 42.5514Z" fill="#3F4549"/>
<path d="M21.987 20.5H48C49.1472 20.5 50 21.5053 50 22.6457C50 23.7218 49.2455 24.6712 48.1966 24.7812L48.1836 24.7825L48.013 24.7914H22C20.8528 24.7914 20 23.7861 20 22.6457C20 21.5697 20.7545 20.6202 21.8034 20.5103L21.8164 20.5089L21.987 20.5Z" fill="#3F4549"/>
<path d="M40.75 29.38H21.987L21.8164 29.3889L21.8034 29.3903C20.7545 29.5002 20 30.4497 20 31.5257C20 32.6661 20.8528 33.6714 22 33.6714H40.763L40.9336 33.6625L40.9466 33.6612C41.9955 33.5512 42.75 32.6018 42.75 31.5257C42.75 30.3853 41.8972 29.38 40.75 29.38Z" fill="#3F4549"/>
<path d="M65.5271 19.8953C66.5224 18.3626 66.0868 16.3133 64.5541 15.3179C63.0214 14.3226 60.972 14.7582 59.9767 16.2909L41.8165 44.2552C41.5915 44.6016 41.5251 44.7143 41.4606 44.847C41.396 44.9797 41.3517 45.1042 41.3178 45.2478C41.2839 45.3914 41.2641 45.5208 41.2194 45.9314L40.5873 51.7415C40.5805 51.804 40.5939 51.867 40.6255 51.9213C40.7073 52.0617 40.8873 52.1092 41.0277 52.0275L46.0784 49.0868C46.4354 48.879 46.5454 48.8083 46.6629 48.7189C46.7803 48.6296 46.876 48.5384 46.971 48.4255C47.0659 48.3126 47.1419 48.2061 47.3669 47.8596L65.5271 19.8953Z" fill="#3F4549"/>
</svg>
