<svg width="72" height="72" viewBox="0 0 72 72" fill="none" xmlns="http://www.w3.org/2000/svg">
<path d="M43.6349 8C44.805 8 45.2293 8.12183 45.6571 8.35061C46.0849 8.57939 46.4206 8.91511 46.6494 9.34289C46.8782 9.77067 47 10.195 47 11.3651V11.5H47.5396C52.2201 11.5 53.9173 11.9873 55.6284 12.9024C57.3395 13.8176 58.6824 15.1604 59.5975 16.8716C60.5127 18.5827 61 20.2799 61 24.9604V50.5396C61 55.2201 60.5127 56.9173 59.5975 58.6284C58.6824 60.3396 57.3395 61.6824 55.6284 62.5975C53.9173 63.5127 52.2201 64 47.5396 64H25.4604C20.7799 64 19.0827 63.5127 17.3716 62.5975C15.6604 61.6824 14.3176 60.3396 13.4024 58.6284C12.4873 56.9173 12 55.2201 12 50.5396V24.9604C12 20.2799 12.4873 18.5827 13.4024 16.8716C14.3176 15.1604 15.6604 13.8176 17.3716 12.9024C19.0827 11.9873 20.7799 11.5 25.4604 11.5L26 11.4983V11.3651C26 10.195 26.1218 9.77067 26.3506 9.34289C26.5794 8.91511 26.9151 8.57939 27.3429 8.35061C27.7707 8.12183 28.195 8 29.3651 8H43.6349ZM51.2632 16.75H21.7368C20.1766 16.75 19.6109 16.9124 19.0405 17.2175C18.4701 17.5225 18.0225 17.9702 17.7175 18.5405C17.4124 19.1109 17.25 19.6766 17.25 21.2368V54.2632C17.25 55.8234 17.4124 56.3891 17.7175 56.9595C18.0225 57.5299 18.4701 57.9775 19.0405 58.2825C19.6109 58.5876 20.1766 58.75 21.7368 58.75H51.2632C52.8234 58.75 53.3891 58.5876 53.9595 58.2825C54.5298 57.9775 54.9775 57.5299 55.2825 56.9595C55.5875 56.3891 55.75 55.8234 55.75 54.2632V21.2368C55.75 19.6766 55.5875 19.1109 55.2825 18.5405C54.9775 17.9702 54.5298 17.5225 53.9595 17.2175C53.3891 16.9124 52.8234 16.75 51.2632 16.75ZM47.8839 30.6438C48.845 31.6049 48.905 33.1258 48.0641 34.1568L47.8839 34.3562L35.6339 46.6062C34.6729 47.5672 33.152 47.6273 32.121 46.7864L31.9216 46.6062L25.1161 39.8006C24.0909 38.7755 24.0909 37.1134 25.1161 36.0883C26.0771 35.1272 27.598 35.0672 28.629 35.9081L28.8284 36.0883L33.7778 41.0377L44.1716 30.6438C45.1967 29.6187 46.8588 29.6187 47.8839 30.6438Z" fill="#3F4549"/>
</svg>
