<svg width="73" height="72" viewBox="0 0 73 72" fill="none" xmlns="http://www.w3.org/2000/svg">
<path d="M55.7331 27.559C61.6864 27.559 66.5126 22.7328 66.5126 16.7795C66.5126 10.8261 61.6864 6 55.7331 6C49.7798 6 44.9536 10.8261 44.9536 16.7795C44.9536 22.7328 49.7798 27.559 55.7331 27.559Z" fill="#3F4549"/>
<path d="M42.0944 10.3295C40.3802 10.3077 38.4757 10.3077 36.3462 10.3077C26.2709 10.3077 21.2333 10.3077 17.5555 12.6186C15.6377 13.8237 14.016 15.4454 12.8109 17.3632C10.5 21.041 10.5 26.0786 10.5 36.1538C10.5 46.229 10.5 51.2666 12.8109 54.9445C14.016 56.8623 15.6377 58.484 17.5555 59.6891C21.2333 62 26.2709 62 36.3462 62C46.4214 62 51.459 62 55.1368 59.6891C57.0546 58.484 58.6763 56.8623 59.8814 54.9445C62.1923 51.2666 62.1923 46.229 62.1923 36.1538C62.1923 34.0243 62.1923 32.1198 62.1705 30.4056C60.5219 31.1855 58.7093 31.6752 56.7985 31.8089C56.8071 33.1124 56.8077 34.5521 56.8077 36.1538C56.8077 41.2979 56.8018 44.7701 56.544 47.4284C56.2942 50.0038 55.8484 51.2421 55.3221 52.0797C54.5474 53.3126 53.5049 54.3551 52.272 55.1298C51.4344 55.6561 50.1961 56.1019 47.6207 56.3516C44.9624 56.6095 41.4902 56.6154 36.3462 56.6154C31.2021 56.6154 27.7299 56.6095 25.0716 56.3516C22.4962 56.1019 21.2579 55.6561 20.4203 55.1298C19.1874 54.3551 18.1449 53.3126 17.3702 52.0797C16.8439 51.2421 16.3981 50.0038 16.1483 47.4284C15.8905 44.7701 15.8846 41.2979 15.8846 36.1538C15.8846 31.0097 15.8905 27.5376 16.1483 24.8793C16.3981 22.3038 16.8439 21.0656 17.3702 20.228C18.1449 18.9951 19.1874 17.9526 20.4203 17.1779C21.2579 16.6516 22.4962 16.2058 25.0716 15.956C27.7299 15.6982 31.2021 15.6923 36.3462 15.6923C37.9479 15.6923 39.3876 15.6929 40.6911 15.7014C40.8248 13.7907 41.3145 11.978 42.0944 10.3295Z" fill="#3F4549"/>
</svg>
