<svg width="72" height="72" viewBox="0 0 72 72" fill="none" xmlns="http://www.w3.org/2000/svg">
<path d="M8 17.7543C8 13.2899 8 11.0577 8.85821 9.35248C9.61311 7.85255 10.8177 6.63308 12.2992 5.86883C13.9836 5 16.1885 5 20.5983 5H32.5842C36.994 5 39.1989 5 40.8832 5.86883C42.3648 6.63308 43.5694 7.85255 44.3243 9.35248C45.1825 11.0577 45.1825 13.2899 45.1825 17.7543V22.6405L41.3549 22.6405V15.9607C41.3549 13.4805 41.3549 12.2404 40.8781 11.293C40.4587 10.4598 39.7895 9.78227 38.9664 9.35769C38.0307 8.875 36.8057 8.875 34.3558 8.875H18.8267C16.3768 8.875 15.1518 8.875 14.2161 9.35769C13.393 9.78227 12.7238 10.4598 12.3044 11.293C11.8276 12.2404 11.8276 13.4805 11.8276 15.9607V56.0393C11.8276 58.5195 11.8276 59.7596 12.3044 60.707C12.7238 61.5402 13.393 62.2177 14.2161 62.6423C15.1518 63.125 16.3768 63.125 18.8267 63.125H34.3558C36.8057 63.125 38.0307 63.125 38.9664 62.6423C39.7895 62.2177 40.4587 61.5402 40.8781 60.707C41.3549 59.7596 41.3549 58.5195 41.3549 56.0393V51.4262H45.1825V54.2457C45.1825 58.7101 45.1825 60.9423 44.3243 62.6475C43.5694 64.1474 42.3648 65.3669 40.8832 66.1312C39.1989 67 36.994 67 32.5842 67H20.5983C16.1885 67 13.9836 67 12.2992 66.1312C10.8177 65.3669 9.61311 64.1474 8.85821 62.6475C8 60.9423 8 58.7101 8 54.2457V17.7543Z" fill="#3F4549"/>
<path d="M21.67 12.75C20.7641 12.75 20.0296 13.4935 20.0296 14.4107C20.0296 15.3279 20.7641 16.0714 21.67 16.0714H31.5125C32.4184 16.0714 33.1529 15.3279 33.1529 14.4107C33.1529 13.4935 32.4184 12.75 31.5125 12.75H21.67Z" fill="#3F4549"/>
<path fill-rule="evenodd" clip-rule="evenodd" d="M23.5367 34.819C23.5367 31.7188 23.5367 30.1686 24.1327 28.9845C24.6569 27.9428 25.4934 27.096 26.5223 26.5653C27.692 25.9619 29.2231 25.9619 32.2855 25.9619H55.2512C58.3136 25.9619 59.8447 25.9619 61.0144 26.5653C62.0433 27.096 62.8798 27.9428 63.404 28.9845C64 30.1686 64 31.7188 64 34.819V39.2476C64 42.3479 64 43.8981 63.404 45.0822C62.8798 46.1238 62.0433 46.9707 61.0144 47.5014C59.8447 48.1048 58.3136 48.1048 55.2512 48.1048H32.2855C29.2231 48.1048 27.692 48.1048 26.5223 47.5014C25.4934 46.9707 24.6569 46.1238 24.1327 45.0822C23.5367 43.8981 23.5367 42.3479 23.5367 39.2476V34.819ZM30.7909 32.4369C30.8018 31.9136 31.2138 31.4976 31.718 31.4976C32.2222 31.4976 32.6343 31.9136 32.6452 32.4369C32.66 33.1505 32.6795 34.1809 32.6923 35.2056C33.6467 34.649 34.6286 34.0861 35.2883 33.7096C35.73 33.4575 36.2831 33.6196 36.5352 34.0728C36.7872 34.5259 36.6459 35.1042 36.2147 35.3752C35.559 35.7874 34.5751 36.4032 33.6173 36.9925C34.5707 37.5793 35.5483 38.1911 36.2009 38.6013C36.6321 38.8723 36.7734 39.4506 36.5214 39.9038C36.2693 40.3569 35.7162 40.519 35.2745 40.2669C34.6182 39.8923 33.643 39.3333 32.6933 38.7796C32.6806 39.8309 32.6604 40.8973 32.6452 41.6298C32.6343 42.153 32.2222 42.569 31.718 42.569C31.2138 42.569 30.8018 42.153 30.7909 41.6298C30.7754 40.882 30.7547 39.7863 30.742 38.7139C29.8057 39.2595 28.8496 39.8076 28.203 40.1767C27.7612 40.4287 27.2081 40.2666 26.9561 39.8135C26.7041 39.3603 26.8454 38.7821 27.2765 38.511C27.8957 38.1219 28.8075 37.5511 29.7136 36.9925C28.803 36.4312 27.885 35.8566 27.2627 35.4655C26.8315 35.1945 26.6902 34.6162 26.9423 34.163C27.1943 33.7099 27.7474 33.5478 28.1891 33.7999C28.8391 34.1709 29.8019 34.7228 30.7429 35.2712C30.7557 34.2251 30.7758 33.1657 30.7909 32.4369ZM42.8205 32.4369C42.8314 31.9136 43.2435 31.4976 43.7477 31.4976C44.2519 31.4976 44.6639 31.9136 44.6748 32.4369C44.6896 33.1505 44.7091 34.1809 44.7219 35.2056C45.6763 34.649 46.6582 34.0861 47.3179 33.7096C47.7596 33.4575 48.3128 33.6196 48.5648 34.0728C48.8168 34.5259 48.6755 35.1042 48.2444 35.3752C47.5886 35.7874 46.6047 36.4032 45.6469 36.9925C46.6003 37.5793 47.578 38.1911 48.2305 38.6013C48.6617 38.8723 48.803 39.4506 48.551 39.9038C48.2989 40.3569 47.7458 40.519 47.3041 40.2669C46.6478 39.8923 45.6726 39.3333 44.7229 38.7796C44.7102 39.8309 44.69 40.8973 44.6748 41.6298C44.6639 42.153 44.2519 42.569 43.7477 42.569C43.2435 42.569 42.8314 42.153 42.8205 41.6298C42.805 40.882 42.7843 39.7863 42.7716 38.7139C41.8353 39.2595 40.8792 39.8076 40.2326 40.1767C39.7909 40.4287 39.2378 40.2666 38.9857 39.8135C38.7337 39.3603 38.875 38.7821 39.3062 38.511C39.9253 38.1219 40.8371 37.5511 41.7432 36.9925C40.8326 36.4312 39.9147 35.8566 39.2923 35.4655C38.8612 35.1945 38.7199 34.6162 38.9719 34.163C39.2239 33.7099 39.7771 33.5478 40.2188 33.7999C40.8688 34.1709 41.8316 34.7228 42.7726 35.2712C42.7854 34.2251 42.8054 33.1657 42.8205 32.4369ZM55.7773 31.4976C55.2731 31.4976 54.8611 31.9136 54.8502 32.4369C54.835 33.1657 54.815 34.2251 54.8022 35.2712C53.8612 34.7228 52.8984 34.1709 52.2484 33.7999C51.8067 33.5478 51.2536 33.7099 51.0015 34.163C50.7495 34.6162 50.8908 35.1945 51.322 35.4655C51.9443 35.8566 52.8622 36.4312 53.7729 36.9925C52.8668 37.5511 51.955 38.1219 51.3358 38.511C50.9046 38.7821 50.7633 39.3603 51.0153 39.8135C51.2674 40.2666 51.8205 40.4287 52.2622 40.1767C52.9088 39.8076 53.8649 39.2595 54.8012 38.7139C54.8139 39.7863 54.8346 40.882 54.8502 41.6298C54.8611 42.153 55.2731 42.569 55.7773 42.569C56.2815 42.569 56.6935 42.153 56.7044 41.6298C56.7196 40.8973 56.7398 39.8309 56.7526 38.7796C57.7023 39.3333 58.6774 39.8923 59.3337 40.2669C59.7755 40.519 60.3286 40.3569 60.5806 39.9038C60.8326 39.4506 60.6913 38.8723 60.2602 38.6013C59.6076 38.1911 58.6299 37.5793 57.6765 36.9925C58.6343 36.4032 59.6183 35.7874 60.274 35.3752C60.7052 35.1042 60.8465 34.5259 60.5944 34.0728C60.3424 33.6196 59.7893 33.4575 59.3476 33.7096C58.6878 34.0861 57.7059 34.649 56.7516 35.2056C56.7388 34.1809 56.7192 33.1505 56.7044 32.4369C56.6935 31.9136 56.2815 31.4976 55.7773 31.4976Z" fill="#3F4549"/>
</svg>
