<?xml version="1.0" encoding="UTF-8"?>
<svg width="20px" height="25px" viewBox="0 0 20 25" version="1.1" xmlns="http://www.w3.org/2000/svg" xmlns:xlink="http://www.w3.org/1999/xlink">
    <!-- Generator: sketchtool 63.1 (101010) - https://sketch.com -->
    <title>Elements/Icons/Paack</title>
    <desc>Created with sketchtool.</desc>
    <g id="Icons" stroke="none" stroke-width="1" fill="none" fill-rule="evenodd">
        <g transform="translate(-105.000000, -83.000000)" id="Elements/Icons/Paack">
            <g transform="translate(80.000000, 60.000000)">
                <g id="Elements/Icons/Paack/1">
                    <g id="Group">
                        <polygon id="Rectangle" fill-opacity="0" fill="#FFFFFF" points="0 0 70 0 70 70 0 70"></polygon>
                        <path d="M34.9950273,23 C40.5246146,23 45,27.4752475 45,33 C45,38.5247525 40.5246146,43 34.9950273,43 C31.9816012,43 29.2764794,41.6633663 27.446544,39.5643564 L27.446544,48 L25,48 L25,32.990099 C25,27.4653465 29.4853307,23 34.9950273,23 Z M34.9950273,25.4455446 C30.8378916,25.4455446 27.446544,28.8217822 27.446544,32.980198 L27.446544,33 C27.446544,37.1584158 30.8378916,40.5544554 34.9950273,40.5544554 C39.1521631,40.5544554 42.5435107,37.1683168 42.5435107,33 C42.5435107,28.8316832 39.1521631,25.4455446 34.9950273,25.4455446 Z" id="Combined-Shape" fill="#4A4A4A" fill-rule="nonzero"></path>
                    </g>
                </g>
            </g>
        </g>
    </g>
</svg>