<svg width="72" height="72" viewBox="0 0 72 72" fill="none" xmlns="http://www.w3.org/2000/svg">
<path d="M34 28.8618C28.3046 28.8618 23.6875 24.1918 23.6875 18.4309C23.6875 12.6701 28.3046 8 34 8C39.6954 8 44.3125 12.6701 44.3125 18.4309C44.3125 24.1918 39.6954 28.8618 34 28.8618Z" fill="#3F4549"/>
<path d="M48.5002 40.8222C49.0297 39.8959 49.8014 39.1911 50.6909 38.7465C46.8089 34.6947 41.0087 31.8421 34 31.8421C20.8836 31.8421 12 41.8731 12 50.9767C12 57.2839 26.0988 60.0208 38.3348 59.1875C38.4654 58.5766 38.6896 57.9866 39.0023 57.4395L48.5002 40.8222Z" fill="#3F4549"/>
<path fill-rule="evenodd" clip-rule="evenodd" d="M64.5662 58.829L55.0683 42.2117C54.8598 41.847 54.562 41.5436 54.2039 41.3313C53.0615 40.654 51.5962 41.0482 50.9312 42.2117L41.4333 58.829C41.1495 59.3254 41 59.8896 41 60.4641C41 62.2591 42.4288 63.7143 44.1913 63.7143H61.8082C62.3722 63.7143 62.9262 63.562 63.4137 63.273C64.9369 62.37 65.4529 60.3803 64.5662 58.829ZM52.1064 54.9217L51.8032 48.2226C51.8032 47.5289 52.3389 46.9665 52.9997 46.9665C53.6606 46.9665 54.1963 47.5289 54.1963 48.2226L53.8935 54.9217C53.8935 55.6154 53.5957 56.1305 53 56.1305C52.4043 56.1305 52.1064 55.6154 52.1064 54.9217ZM54.5952 59.5273C54.5952 60.4523 53.8809 61.2021 52.9997 61.2021C52.1186 61.2021 51.4043 60.4523 51.4043 59.5273C51.4043 58.6024 52.1186 57.8526 52.9997 57.8526C53.8809 57.8526 54.5952 58.6024 54.5952 59.5273Z" fill="#3F4549"/>
</svg>
