<svg width="72" height="72" viewBox="0 0 72 72" fill="none" xmlns="http://www.w3.org/2000/svg">
<path d="M25.6875 20.5664C25.6875 26.402 30.3046 31.1328 36 31.1328C41.6954 31.1328 46.3125 26.402 46.3125 20.5664C46.3125 14.7307 41.6954 10 36 10C30.3046 10 25.6875 14.7307 25.6875 20.5664Z" fill="#3F4549"/>
<path d="M36 34.1517C22.8836 34.1517 14 44.313 14 53.5349C14 64.8217 58 64.8217 58 53.5349C58 44.2721 49.1164 34.1517 36 34.1517Z" fill="#3F4549"/>
<path d="M10.4375 22.5024C10.4375 26.0936 13.3756 29.0048 17 29.0048C20.6244 29.0048 23.5625 26.0936 23.5625 22.5024C23.5625 18.9112 20.6244 16 17 16C13.3756 16 10.4375 18.9112 10.4375 22.5024Z" fill="#3F4549"/>
<path d="M17 30.8626C8.65323 30.8626 3 37.1157 3 42.7907C3 45.4115 6.98649 47.0434 11.9511 47.6864C13.8995 41.6867 18.7291 36.2203 25.3903 33.3231C23.1254 31.8181 20.2693 30.8626 17 30.8626Z" fill="#3F4549"/>
<path d="M69 42.7907C69 45.4107 65.016 47.0424 60.0537 47.6858C58.1092 41.6746 53.2812 36.2154 46.6217 33.3221C48.8847 31.8185 51.7365 30.8626 55 30.8626C63.3468 30.8626 69 37.0905 69 42.7907Z" fill="#3F4549"/>
<path d="M48.4375 22.5024C48.4375 26.0936 51.3756 29.0048 55 29.0048C58.6244 29.0048 61.5625 26.0936 61.5625 22.5024C61.5625 18.9112 58.6244 16 55 16C51.3756 16 48.4375 18.9112 48.4375 22.5024Z" fill="#3F4549"/>
</svg>
