<svg width="72" height="72" viewBox="0 0 72 72" fill="none" xmlns="http://www.w3.org/2000/svg">
<path d="M23.2464 18.895C23.2464 24.9121 28.0842 29.7899 34.052 29.7899C40.0197 29.7899 44.8576 24.9121 44.8576 18.895C44.8576 12.8778 40.0197 8 34.052 8C28.0842 8 23.2464 12.8778 23.2464 18.895Z" fill="#3F4549"/>
<path d="M39.6039 61.388C38.7294 59.4376 38.2432 57.2764 38.2432 55.0019C38.2432 47.3454 43.753 40.9716 51.0358 39.6054C46.9779 35.6454 41.0978 32.9028 34.052 32.9028C20.3084 32.9028 11 43.38 11 52.8887C11 59.6501 26.5623 62.4832 39.6039 61.388Z" fill="#3F4549"/>
<path fill-rule="evenodd" clip-rule="evenodd" d="M67.0001 54.9991C67.0001 62.1793 61.1793 68 53.9991 68C46.8189 68 40.9982 62.1793 40.9982 54.9991C40.9982 47.8188 46.8189 41.9981 53.9991 41.9981C61.1793 41.9981 67.0001 47.8188 67.0001 54.9991ZM61.2052 50.0186C61.6479 50.4083 61.6909 51.0831 61.3012 51.5258C58.2407 55.0026 55.3493 58.336 54.0837 59.7982L54.0565 59.8297C53.925 59.9819 53.7631 60.1692 53.6015 60.3107C53.4056 60.4823 53.082 60.7042 52.6253 60.7148C52.1684 60.7254 51.8348 60.5185 51.6312 60.3562C51.4631 60.2223 51.2927 60.0426 51.1542 59.8966L47.4209 55.9668C47.0146 55.5391 47.032 54.8632 47.4596 54.457C47.8872 54.0507 48.5631 54.0681 48.9694 54.4957L52.4171 58.1248C52.4984 58.2105 52.6355 58.2078 52.7128 58.1185C54.0824 56.5371 56.8149 53.3898 59.698 50.1146C60.0877 49.6718 60.7625 49.6289 61.2052 50.0186Z" fill="#3F4549"/>
</svg>
