<svg width="73" height="72" viewBox="0 0 73 72" fill="none" xmlns="http://www.w3.org/2000/svg">
<path d="M34.5519 29.7899C28.5842 29.7899 23.7463 24.9121 23.7463 18.895C23.7463 12.8778 28.5842 8 34.5519 8C40.5197 8 45.3575 12.8778 45.3575 18.895C45.3575 24.9121 40.5197 29.7899 34.5519 29.7899Z" fill="#3F4549"/>
<path d="M38.7432 55.0019C38.7432 57.2764 39.2294 59.4376 40.1038 61.388C27.0623 62.4832 11.5 59.6501 11.5 52.8887C11.5 43.38 20.8084 32.9028 34.5519 32.9028C41.5977 32.9028 47.4779 35.6454 51.5357 39.6054C44.2529 40.9716 38.7432 47.3454 38.7432 55.0019Z" fill="#3F4549"/>
<path fill-rule="evenodd" clip-rule="evenodd" d="M67.5 55.0019C67.5 62.1806 61.662 68 54.4605 68C47.259 68 41.4211 62.1806 41.4211 55.0019C41.4211 47.8233 47.259 42.0039 54.4605 42.0039C61.662 42.0039 67.5 47.8233 67.5 55.0019ZM54.4605 47.5745C53.8433 47.5745 53.3429 48.0733 53.3429 48.6886V53.8878H48.1271C47.5098 53.8878 47.0094 54.3866 47.0094 55.0019C47.0094 55.6172 47.5098 56.116 48.1271 56.116H53.3429V61.3153C53.3429 61.9306 53.8433 62.4294 54.4605 62.4294C55.0778 62.4294 55.5782 61.9306 55.5782 61.3153V56.116H60.794C61.4113 56.116 61.9117 55.6172 61.9117 55.0019C61.9117 54.3866 61.4113 53.8878 60.794 53.8878H55.5782V48.6886C55.5782 48.0733 55.0778 47.5745 54.4605 47.5745Z" fill="#3F4549"/>
</svg>
