<svg width="73" height="72" viewBox="0 0 73 72" fill="none" xmlns="http://www.w3.org/2000/svg">
<path d="M34.552 29.7899C28.5842 29.7899 23.7464 24.9121 23.7464 18.895C23.7464 12.8778 28.5842 8 34.552 8C40.5197 8 45.3576 12.8778 45.3576 18.895C45.3576 24.9121 40.5197 29.7899 34.552 29.7899Z" fill="#3F4549"/>
<path d="M38.7432 55.0019C38.7432 57.2764 39.2294 59.4376 40.1039 61.388C27.0623 62.4832 11.5 59.6501 11.5 52.8887C11.5 43.38 20.8084 32.9028 34.552 32.9028C41.5978 32.9028 47.4779 35.6454 51.5358 39.6054C44.253 40.9716 38.7432 47.3454 38.7432 55.0019Z" fill="#3F4549"/>
<path fill-rule="evenodd" clip-rule="evenodd" d="M67.5 55.0019C67.5 62.1806 61.662 68 54.4605 68C47.259 68 41.421 62.1806 41.421 55.0019C41.421 47.8233 47.259 42.0039 54.4605 42.0039C61.662 42.0039 67.5 47.8233 67.5 55.0019ZM47.9407 55.0019C47.9407 54.1046 48.6705 53.5814 49.5707 53.5814H59.3503C60.2505 53.5814 60.9802 54.1046 60.9802 55.0019C60.9802 55.8993 60.2505 56.4224 59.3503 56.4224H49.5707C48.6705 56.4224 47.9407 55.8993 47.9407 55.0019Z" fill="#3F4549"/>
</svg>
