<svg width="72" height="72" viewBox="0 0 72 72" fill="none" xmlns="http://www.w3.org/2000/svg">
<path d="M26.915 18.612C26.915 24.4728 31.5784 29.224 37.3309 29.224C43.0835 29.224 47.7468 24.4728 47.7468 18.612C47.7468 12.7511 43.0835 8 37.3309 8C31.5784 8 26.915 12.7511 26.915 18.612Z" fill="#3F4549"/>
<path d="M37.3309 32.2559C24.083 32.2559 15.1103 42.461 15.1103 51.7227C15.1103 57.8932 28.2791 60.7048 40.2797 60.1575C39.7189 58.5429 39.4141 56.8081 39.4141 55.0019C39.4141 46.6111 45.992 39.7609 54.2588 39.3538C50.3378 35.1927 44.452 32.2559 37.3309 32.2559Z" fill="#3F4549"/>
<path d="M18.1404 27.0868C14.4797 27.0868 11.5121 24.163 11.5121 20.5563C11.5121 16.9497 14.4797 14.0259 18.1404 14.0259C21.8011 14.0259 24.7687 16.9497 24.7687 20.5563C24.7687 24.163 21.8011 27.0868 18.1404 27.0868Z" fill="#3F4549"/>
<path d="M18.1404 28.9526C9.70992 28.9526 4 35.2327 4 40.9322C4 43.5643 8.02646 45.2032 13.0408 45.849C15.0088 39.8234 19.8868 34.3334 26.6149 31.4237C24.3272 29.9122 21.4425 28.9526 18.1404 28.9526Z" fill="#3F4549"/>
<path fill-rule="evenodd" clip-rule="evenodd" d="M68 55.0019C68 62.1806 62.1967 68 55.038 68C47.8792 68 42.076 62.1806 42.076 55.0019C42.076 47.8233 47.8792 42.0039 55.038 42.0039C62.1967 42.0039 68 47.8233 68 55.0019ZM55.038 47.5745C54.4244 47.5745 53.927 48.0733 53.927 48.6886V53.8878H48.7421C48.1285 53.8878 47.6311 54.3866 47.6311 55.0019C47.6311 55.6173 48.1285 56.1161 48.7421 56.1161H53.927V61.3153C53.927 61.9306 54.4244 62.4294 55.038 62.4294C55.6516 62.4294 56.149 61.9306 56.149 61.3153V56.1161H61.3338C61.9474 56.1161 62.4449 55.6173 62.4449 55.0019C62.4449 54.3866 61.9474 53.8878 61.3338 53.8878H56.149V48.6886C56.149 48.0733 55.6516 47.5745 55.038 47.5745Z" fill="#3F4549"/>
</svg>
