<svg width="73" height="72" viewBox="0 0 73 72" fill="none" xmlns="http://www.w3.org/2000/svg">
<path d="M48.1806 63.8824C44.3024 63.3273 40.6157 61.8623 37.4304 59.6103C33.7391 57.0738 30.3482 54.1364 27.3216 50.8533C23.6039 46.9339 19.818 43.065 16.5373 38.7424C13.9548 35.271 11.6447 31.6316 10.3846 27.4491C9.50838 24.7898 9.27894 21.9645 9.71486 19.2016C10.2824 15.9037 12.0533 13.2217 14.477 10.9765C15.4766 10.0947 16.5622 9.31258 17.7179 8.64168C18.406 8.21049 19.207 7.9876 20.022 8.00053C20.8371 8.01347 21.6304 8.26167 22.3041 8.71446C25.5311 10.6088 28.0045 13.5348 29.3138 17.0067C29.5383 17.4959 29.6257 18.0355 29.5668 18.5692C29.5079 19.103 29.3049 19.6114 28.979 20.0414C28.1673 21.1221 27.3216 22.1747 26.5043 23.2553C25.7834 24.2128 25.0342 25.1534 24.3928 26.1613C24.0627 26.6204 23.8877 27.1706 23.8928 27.7335C23.8979 28.2965 24.0828 28.8435 24.4212 29.2968C26.0388 31.5364 27.6054 33.8432 29.3649 35.9765C32.5486 39.8642 36.0738 43.4672 39.8995 46.7436C40.7508 47.4659 41.6647 48.1041 42.5728 48.7592C42.9596 49.0559 43.4247 49.2368 43.9126 49.2805C44.4006 49.3241 44.891 49.2287 45.3256 49.0056C46.2988 48.5324 47.2461 48.0091 48.1636 47.4379C49.435 46.6372 50.6837 45.8141 51.9324 45.0246C52.4472 44.6997 53.043 44.5214 53.654 44.5096C54.265 44.4977 54.8674 44.6527 55.3947 44.9575C58.615 46.5336 61.2402 49.084 62.887 52.2363C63.3499 53.0235 63.5588 53.9311 63.4858 54.8384C63.4128 55.7456 63.0613 56.6094 62.4783 57.3147C59.3395 61.3796 55.3266 63.888 49.9913 64C49.3861 63.9913 48.7817 63.9521 48.1806 63.8824Z" fill="#3F4549"/>
</svg>
