<svg width="73" height="72" viewBox="0 0 73 72" fill="none" xmlns="http://www.w3.org/2000/svg">
<path d="M10.351 29.9687C13.1779 27.6825 16.5003 26.1038 20.0391 25.3655C24.0905 24.4633 28.2238 24.02 32.3611 24.0437C37.3663 24.001 42.3804 23.8799 47.3826 24.3902C51.3669 24.8356 55.2929 25.5728 58.9234 27.369C61.2791 28.4599 63.3387 30.0962 64.9355 32.1456C66.8116 34.6239 67.5099 37.5302 67.4999 40.6034C67.4658 41.8429 67.3098 43.0776 67.0341 44.2895C66.8915 45.0311 66.5363 45.7175 66.0125 46.2638C65.4887 46.81 64.8192 47.1923 64.0867 47.3633C60.7638 48.357 57.2181 48.1834 54.038 46.8715C53.5647 46.714 53.1438 46.4311 52.8194 46.0524C52.4949 45.6737 52.2786 45.213 52.1932 44.7185C51.9738 43.4807 51.7949 42.2376 51.5791 40.996C51.3858 39.8982 51.2218 38.7917 50.9442 37.716C50.8416 37.2001 50.5794 36.732 50.1947 36.3784C49.81 36.0247 49.3225 35.8035 48.8015 35.7461C46.2616 35.4258 43.7085 35.0281 41.151 34.8718C36.5048 34.5713 31.8357 34.6838 27.198 35.2079C26.1705 35.3289 25.1605 35.5456 24.1427 35.7479C23.6973 35.8229 23.2808 36.0244 22.9429 36.3287C22.6049 36.633 22.3597 37.0271 22.2362 37.4644C21.9419 38.4266 21.6979 39.4031 21.5053 40.3897C21.2444 41.7626 21.0131 43.1343 20.759 44.4846C20.6539 45.041 20.3982 45.5594 20.0202 45.9826C19.6421 46.4058 19.1564 46.7173 18.6167 46.8827C15.5137 48.0736 12.1265 48.2416 8.94982 47.3621C8.12384 47.1776 7.3768 46.7439 6.80816 46.1187C6.23952 45.4935 5.87626 44.7064 5.76674 43.8623C4.9956 39.1481 5.83158 34.8267 9.12718 31.126C9.51548 30.7197 9.92396 30.3335 10.351 29.9687Z" fill="#3F4549"/>
</svg>
