<svg width="72" height="72" viewBox="0 0 72 72" fill="none" xmlns="http://www.w3.org/2000/svg">
<path d="M19.9648 8H52.0352C56.1956 8 57.7043 8.43319 59.2253 9.24662C60.7463 10.0601 61.9399 11.2537 62.7534 12.7747C63.5668 14.2957 64 15.8044 64 19.9648V52.0352C64 56.1956 63.5668 57.7043 62.7534 59.2253C61.9399 60.7463 60.7463 61.9399 59.2253 62.7534C57.7043 63.5668 56.1956 64 52.0352 64H19.9648C15.8044 64 14.2957 63.5668 12.7747 62.7534C11.2537 61.9399 10.0601 60.7463 9.24662 59.2253C8.43319 57.7043 8 56.1956 8 52.0352V19.9648C8 15.8044 8.43319 14.2957 9.24662 12.7747C10.0601 11.2537 11.2537 10.0601 12.7747 9.24662C14.2957 8.43319 15.8044 8 19.9648 8Z" fill="#4A4A4A"/>
</svg>
