<?xml version="1.0" encoding="UTF-8"?>
<svg width="30px" height="30px" viewBox="0 0 30 30" version="1.1" xmlns="http://www.w3.org/2000/svg" xmlns:xlink="http://www.w3.org/1999/xlink">
    <!-- Generator: sketchtool 63.1 (101010) - https://sketch.com -->
    <title>Elements/Icons/Placeholder</title>
    <desc>Created with sketchtool.</desc>
    <g id="Icons" stroke="none" stroke-width="1" fill="none" fill-rule="evenodd">
        <g transform="translate(-100.000000, -190.000000)" id="Elements/Icons/Placeholder">
            <g transform="translate(80.000000, 170.000000)">
                <g id="Group">
                    <g>
                        <polygon id="Rectangle" points="0 0 70 0 70 70 0 70"></polygon>
                        <path d="M26.409713,20 L43.590287,20 C45.8190838,20 46.6272994,20.232064 47.4421143,20.6678318 C48.2569291,21.1035995 48.8964005,21.7430709 49.3321682,22.5578857 C49.767936,23.3727006 50,24.1809162 50,26.409713 L50,43.590287 C50,45.8190838 49.767936,46.6272994 49.3321682,47.4421143 C48.8964005,48.2569291 48.2569291,48.8964005 47.4421143,49.3321682 C46.6272994,49.767936 45.8190838,50 43.590287,50 L26.409713,50 C24.1809162,50 23.3727006,49.767936 22.5578857,49.3321682 C21.7430709,48.8964005 21.1035995,48.2569291 20.6678318,47.4421143 C20.232064,46.6272994 20,45.8190838 20,43.590287 L20,26.409713 C20,24.1809162 20.232064,23.3727006 20.6678318,22.5578857 C21.1035995,21.7430709 21.7430709,21.1035995 22.5578857,20.6678318 C23.3727006,20.232064 24.1809162,20 26.409713,20 Z" id="Rectangle" fill="#4A4A4A" fill-rule="nonzero"></path>
                    </g>
                </g>
            </g>
        </g>
    </g>
</svg>