<svg width="73" height="72" viewBox="0 0 73 72" fill="none" xmlns="http://www.w3.org/2000/svg">
<path d="M20.4648 8H52.5352C56.6956 8 58.2043 8.43319 59.7253 9.24662C61.2463 10.0601 62.4399 11.2537 63.2534 12.7747C64.0668 14.2957 64.5 15.8044 64.5 19.9648V52.0352C64.5 56.1956 64.0668 57.7043 63.2534 59.2253C62.4399 60.7463 61.2463 61.9399 59.7253 62.7534C58.2043 63.5668 56.6956 64 52.5352 64H20.4648C16.3044 64 14.7957 63.5668 13.2747 62.7534C11.7537 61.9399 10.5601 60.7463 9.74662 59.2253C8.93319 57.7043 8.5 56.1956 8.5 52.0352V19.9648C8.5 15.8044 8.93319 14.2957 9.74662 12.7747C10.5601 11.2537 11.7537 10.0601 13.2747 9.24662C14.7957 8.43319 16.3044 8 20.4648 8Z" fill="#3F4549"/>
</svg>
