<svg width="72" height="72" viewBox="0 0 72 72" fill="none" xmlns="http://www.w3.org/2000/svg">
<path d="M21.3216 8.00001L51.0243 8.00305C52.2421 8.02563 52.921 8.17678 53.6253 8.55343C54.3356 8.93331 54.9 9.49774 55.2799 10.208C55.6908 10.9764 55.8333 11.7144 55.8333 13.1549V21.6111H58.0176C60.0978 21.6111 60.8521 21.8277 61.6126 22.2344C62.3731 22.6411 62.97 23.238 63.3767 23.9985C63.7834 24.759 64 25.5133 64 27.5935V40.5176C64 42.5978 63.7834 43.3521 63.3767 44.1126C62.97 44.8731 62.3731 45.47 61.6126 45.8767C60.8521 46.2834 60.0978 46.5 58.0176 46.5H55.8333V58.0673C55.8333 59.5078 55.6908 60.2459 55.2799 61.0142C54.9 61.7245 54.3356 62.2889 53.6253 62.6688C52.921 63.0455 52.2421 63.1966 51.0243 63.2192L50.6784 63.2222H21.3216C19.8811 63.2222 19.143 63.0797 18.3747 62.6688C17.6644 62.2889 17.1 61.7245 16.7201 61.0142C16.3434 60.3099 16.1923 59.631 16.1697 58.4132L16.1667 58.0673V46.5H13.9824C11.9022 46.5 11.1479 46.2834 10.3874 45.8767C9.62687 45.47 9.03003 44.8731 8.62331 44.1126C8.21659 43.3521 8 42.5978 8 40.5176V27.5935C8 25.5133 8.21659 24.759 8.62331 23.9985C9.03003 23.238 9.62687 22.6411 10.3874 22.2344C11.1479 21.8277 11.9022 21.6111 13.9824 21.6111H16.1667L16.1697 12.809C16.19 11.713 16.3145 11.0535 16.6138 10.4191L16.7201 10.208C17.1 9.49774 17.6644 8.93331 18.3747 8.55343C19.143 8.14254 19.8811 8.00001 21.3216 8.00001ZM53.5 38.3333H18.5V58.0673C18.5 58.9577 18.5484 59.3701 18.6785 59.7009L18.7249 59.8087L18.7777 59.9138C18.9401 60.2175 19.1714 60.4488 19.4751 60.6112C19.7501 60.7583 20.0199 60.8371 20.5504 60.87L20.7945 60.8814L21.3216 60.8889H50.6784C51.7667 60.8889 52.1408 60.8166 52.5249 60.6112C52.8286 60.4488 53.0599 60.2175 53.2223 59.9138C53.3694 59.6388 53.4482 59.3689 53.4811 58.8385L53.4925 58.5944L53.5 58.0673V38.3333ZM48.4444 54.6667C49.0888 54.6667 49.6111 55.189 49.6111 55.8333C49.6111 56.424 49.1722 56.9121 48.6028 56.9894L48.4444 57H23.5556C22.9112 57 22.3889 56.4777 22.3889 55.8333C22.3889 55.2427 22.8278 54.7546 23.3972 54.6773L23.5556 54.6667H48.4444ZM48.4444 48.4445C49.0888 48.4445 49.6111 48.9668 49.6111 49.6111C49.6111 50.2018 49.1722 50.6899 48.6028 50.7671L48.4444 50.7778H23.5556C22.9112 50.7778 22.3889 50.2554 22.3889 49.6111C22.3889 49.0205 22.8278 48.5324 23.3972 48.4551L23.5556 48.4445H48.4444ZM48.4444 42.2222C49.0888 42.2222 49.6111 42.7446 49.6111 43.3889C49.6111 43.9795 49.1722 44.4677 48.6028 44.5449L48.4444 44.5556H23.5556C22.9112 44.5556 22.3889 44.0332 22.3889 43.3889C22.3889 42.7983 22.8278 42.3101 23.3972 42.2329L23.5556 42.2222H48.4444ZM59.3333 24.7222C58.4742 24.7222 57.7778 25.4187 57.7778 26.2778C57.7778 27.1369 58.4742 27.8333 59.3333 27.8333C60.1924 27.8333 60.8889 27.1369 60.8889 26.2778C60.8889 25.4187 60.1924 24.7222 59.3333 24.7222ZM50.6784 10.3333L21.042 10.3352C20.1652 10.3476 19.8243 10.4243 19.4751 10.611C19.1714 10.7734 18.9401 11.0048 18.7777 11.3084C18.5723 11.6925 18.5 12.0667 18.5 13.1549V21.6111H53.5V13.1549C53.5 12.1656 53.4403 11.7664 53.2751 11.4135L53.2223 11.3084C53.0599 11.0048 52.8286 10.7734 52.5249 10.611C52.1408 10.4056 51.7667 10.3333 50.6784 10.3333Z" fill="#4A4A4A"/>
</svg>
