<svg width="73" height="72" viewBox="0 0 73 72" fill="none" xmlns="http://www.w3.org/2000/svg">
<path fill-rule="evenodd" clip-rule="evenodd" d="M24.2533 16L45.9999 16.0022C46.8916 16.0186 47.3886 16.128 47.9042 16.4009C48.4243 16.676 48.8375 17.0849 49.1156 17.5994C49.4165 18.1559 49.5208 18.6905 49.5208 19.734V25.8592H51.12C52.643 25.8592 53.1953 26.016 53.7521 26.3106C54.3089 26.6053 54.7459 27.0376 55.0436 27.5884C55.3414 28.1393 55.5 28.6857 55.5 30.1925V38.4613C55.0663 37.7514 54.4685 37.1531 53.7518 36.7229C51.4991 35.3705 48.6917 35.9825 47.1419 37.9718H22.1875V52.266C22.1875 52.911 22.2229 53.2097 22.3182 53.4494L22.3522 53.5275L22.3908 53.6035C22.5097 53.8235 22.6791 53.9911 22.9014 54.1087C23.1027 54.2153 23.3003 54.2723 23.6887 54.2962L23.8674 54.3044L24.2533 54.3099H37.854L36.9 56H24.2533C23.1987 56 22.6583 55.8968 22.0958 55.5991C21.5757 55.324 21.1625 54.9151 20.8844 54.4006C20.6086 53.8905 20.4979 53.3987 20.4814 52.5166L20.4792 52.266V43.8873H18.88C17.357 43.8873 16.8047 43.7304 16.2479 43.4358C15.6911 43.1412 15.2541 42.7089 14.9564 42.158C14.6586 41.6072 14.5 41.0608 14.5 39.554V30.1925C14.5 28.6857 14.6586 28.1393 14.9564 27.5884C15.2541 27.0376 15.6911 26.6053 16.2479 26.3106C16.8047 26.016 17.357 25.8592 18.88 25.8592H20.4792L20.4814 19.4834C20.4963 18.6895 20.5874 18.2118 20.8065 17.7523L20.8844 17.5994C21.1625 17.0849 21.5757 16.676 22.0958 16.4009C22.6583 16.1032 23.1987 16 24.2533 16ZM52.0833 28.1127C51.4543 28.1127 50.9444 28.6171 50.9444 29.2394C50.9444 29.8617 51.4543 30.3662 52.0833 30.3662C52.7123 30.3662 53.2222 29.8617 53.2222 29.2394C53.2222 28.6171 52.7123 28.1127 52.0833 28.1127ZM45.7467 17.6901L24.0486 17.6915C23.4067 17.7005 23.157 17.756 22.9014 17.8913C22.6791 18.0089 22.5097 18.1765 22.3908 18.3965C22.2404 18.6746 22.1875 18.9457 22.1875 19.734V25.8592H47.8125V19.734C47.8125 19.0173 47.7688 18.7282 47.6478 18.4725L47.6092 18.3965C47.4903 18.1765 47.3209 18.0089 47.0986 17.8913C46.8174 17.7425 46.5434 17.6901 45.7467 17.6901Z" fill="#3F4549"/>
<path d="M25.8889 40.7887H45.4863L44.5323 42.4789H25.8889C25.4171 42.4789 25.0347 42.1005 25.0347 41.6338C25.0347 41.206 25.3561 40.8524 25.773 40.7964L25.8889 40.7887Z" fill="#3F4549"/>
<path d="M25.8889 45.2958H42.9422L41.9882 46.9859H25.8889C25.4171 46.9859 25.0347 46.6076 25.0347 46.1408C25.0347 45.713 25.3561 45.3594 25.773 45.3035L25.8889 45.2958Z" fill="#3F4549"/>
<path d="M25.8889 49.8028H40.3981L39.4441 51.493H25.8889C25.4171 51.493 25.0347 51.1146 25.0347 50.6479C25.0347 50.2201 25.3561 49.8665 25.773 49.8105L25.8889 49.8028Z" fill="#3F4549"/>
<path fill-rule="evenodd" clip-rule="evenodd" d="M66.2385 61.5477L53.8499 39.6004C53.578 39.1187 53.1895 38.718 52.7224 38.4376C51.2323 37.5431 49.3212 38.0637 48.4537 39.6004L36.0651 61.5477C35.695 62.2034 35.5 62.9486 35.5 63.7073C35.5 66.0781 37.3637 68 39.6626 68H62.6411C63.3768 68 64.0994 67.7989 64.7352 67.4172C66.722 66.2245 67.3951 63.5966 66.2385 61.5477ZM49.9866 56.3872L49.5911 47.5393C49.5911 46.6231 50.2899 45.8803 51.1518 45.8803C52.0138 45.8803 52.7126 46.6231 52.7126 47.5393L52.3177 56.3872C52.3177 57.3034 51.9292 57.9837 51.1521 57.9837C50.3751 57.9837 49.9866 57.3034 49.9866 56.3872ZM53.2328 62.4701C53.2328 63.6917 52.3011 64.6821 51.1518 64.6821C50.0025 64.6821 49.0709 63.6917 49.0709 62.4701C49.0709 61.2484 50.0025 60.2581 51.1518 60.2581C52.3011 60.2581 53.2328 61.2484 53.2328 62.4701Z" fill="#3F4549"/>
</svg>
