<?xml version="1.0" encoding="UTF-8"?>
<svg width="36px" height="36px" viewBox="0 0 36 36" version="1.1" xmlns="http://www.w3.org/2000/svg" xmlns:xlink="http://www.w3.org/1999/xlink">
    <!-- Generator: sketchtool 63.1 (101010) - https://sketch.com -->
    <title>Elements/Icons/Print</title>
    <desc>Created with sketchtool.</desc>
    <g id="Icons" stroke="none" stroke-width="1" fill="none" fill-rule="evenodd">
        <g transform="translate(-537.000000, -628.000000)" id="Elements/Icons/Print">
            <g transform="translate(520.000000, 610.000000)">
                <rect id="Rectangle" x="0" y="0" width="70" height="70"></rect>
                <path d="M25.5638852,18.25 L44.6584899,18.2519557 C45.4413696,18.2664691 45.8777925,18.3636382 46.3305448,18.6057728 C46.7871721,18.8499797 47.1500203,19.2128279 47.3942272,19.6694552 C47.658374,20.1633668 47.75,20.637845 47.75,21.5638852 L47.75,21.5638852 L47.75,27 L49.1541722,27 C50.4914503,27 50.9763797,27.1392384 51.4652686,27.4006991 C51.9541574,27.6621597 52.3378403,28.0458426 52.5993009,28.5347314 C52.8607616,29.0236203 53,29.5085497 53,30.8458278 L53,39.1541722 C53,40.4914503 52.8607616,40.9763797 52.5993009,41.4652686 C52.3378403,41.9541574 51.9541574,42.3378403 51.4652686,42.5993009 C50.9763797,42.8607616 50.4914503,43 49.1541722,43 L47.75,43 L47.75,50.4361148 C47.75,51.362155 47.658374,51.8366332 47.3942272,52.3305448 C47.1500203,52.7871721 46.7871721,53.1500203 46.3305448,53.3942272 C45.8777925,53.6363618 45.4413696,53.7335309 44.6584899,53.7480443 L44.4361148,53.75 L25.5638852,53.75 C24.637845,53.75 24.1633668,53.658374 23.6694552,53.3942272 C23.2128279,53.1500203 22.8499797,52.7871721 22.6057728,52.3305448 C22.3636382,51.8777925 22.2664691,51.4413696 22.2519557,50.6584899 L22.25,50.4361148 L22.25,43 L20.8458278,43 C19.5085497,43 19.0236203,42.8607616 18.5347314,42.5993009 C18.0458426,42.3378403 17.6621597,41.9541574 17.4006991,41.4652686 C17.1392384,40.9763797 17,40.4914503 17,39.1541722 L17,30.8458278 C17,29.5085497 17.1392384,29.0236203 17.4006991,28.5347314 C17.6621597,28.0458426 18.0458426,27.6621597 18.5347314,27.4006991 C19.0236203,27.1392384 19.5085497,27 20.8458278,27 L22.25,27 L22.2519557,21.3415101 C22.2650177,20.6369184 22.3450309,20.2129566 22.5374191,19.8051538 L22.6057728,19.6694552 C22.8499797,19.2128279 23.2128279,18.8499797 23.6694552,18.6057728 C24.1633668,18.341626 24.637845,18.25 25.5638852,18.25 L25.5638852,18.25 Z M46.25,37.75 L23.75,37.75 L23.75,50.4361148 C23.75,51.0085091 23.7810952,51.2736048 23.8647229,51.4863085 L23.8945739,51.555619 L23.9284926,51.6231466 C24.0328998,51.8183711 24.1816289,51.9671002 24.3768534,52.0715074 C24.553609,52.1660373 24.7271077,52.2166997 25.0681169,52.2378558 L25.2250174,52.2451581 L25.5638852,52.25 L44.4361148,52.25 C45.1357079,52.25 45.3762498,52.2035492 45.6231466,52.0715074 C45.8183711,51.9671002 45.9671002,51.8183711 46.0715074,51.6231466 C46.1660373,51.446391 46.2166997,51.2728923 46.2378558,50.9318831 L46.2451581,50.7749826 L46.25,50.4361148 L46.25,37.75 Z M43,48.25 C43.4142136,48.25 43.75,48.5857864 43.75,49 C43.75,49.3796958 43.4678461,49.693491 43.1017706,49.7431534 L43,49.75 L27,49.75 C26.5857864,49.75 26.25,49.4142136 26.25,49 C26.25,48.6203042 26.5321539,48.306509 26.8982294,48.2568466 L27,48.25 L43,48.25 Z M43,44.25 C43.4142136,44.25 43.75,44.5857864 43.75,45 C43.75,45.3796958 43.4678461,45.693491 43.1017706,45.7431534 L43,45.75 L27,45.75 C26.5857864,45.75 26.25,45.4142136 26.25,45 C26.25,44.6203042 26.5321539,44.306509 26.8982294,44.2568466 L27,44.25 L43,44.25 Z M43,40.25 C43.4142136,40.25 43.75,40.5857864 43.75,41 C43.75,41.3796958 43.4678461,41.693491 43.1017706,41.7431534 L43,41.75 L27,41.75 C26.5857864,41.75 26.25,41.4142136 26.25,41 C26.25,40.6203042 26.5321539,40.306509 26.8982294,40.2568466 L27,40.25 L43,40.25 Z M50,29 C49.4477153,29 49,29.4477153 49,30 C49,30.5522847 49.4477153,31 50,31 C50.5522847,31 51,30.5522847 51,30 C51,29.4477153 50.5522847,29 50,29 Z M44.4361148,19.75 L25.3841189,19.7511811 C24.8205047,19.759153 24.601305,19.8084546 24.3768534,19.9284926 C24.1816289,20.0328998 24.0328998,20.1816289 23.9284926,20.3768534 C23.7964508,20.6237502 23.75,20.8642921 23.75,21.5638852 L23.75,21.5638852 L23.75,27 L46.25,27 L46.25,21.5638852 C46.25,20.9278915 46.2116109,20.6712789 46.1054261,20.444381 L46.0715074,20.3768534 C45.9671002,20.1816289 45.8183711,20.0328998 45.6231466,19.9284926 C45.3762498,19.7964508 45.1357079,19.75 44.4361148,19.75 L44.4361148,19.75 Z" id="Combined-Shape" fill="#4A4A4A" fill-rule="nonzero"></path>
            </g>
        </g>
    </g>
</svg>