<svg width="73" height="72" viewBox="0 0 73 72" fill="none" xmlns="http://www.w3.org/2000/svg">
<path d="M45.1404 14.8125C46.0272 14.5618 47.1119 15.2849 49.2814 16.7313L60.1125 23.952C61.9038 25.1462 62.7995 25.7433 62.9615 26.5568C63.0128 26.8146 63.0128 27.0801 62.9615 27.338C62.7995 28.1514 61.9038 28.7485 60.1125 29.9428L49.2814 37.1635C47.1119 38.6098 46.0272 39.333 45.1404 39.0823C44.8623 39.0037 44.6046 38.8657 44.385 38.678C43.6845 38.0792 43.6845 36.7755 43.6845 34.1681V29.5H24.6056C19.3589 29.5 15.1056 33.7533 15.1056 39C15.1056 44.2467 19.3589 48.5 24.6056 48.5H34.7841C36.1648 48.5 37.2841 49.6193 37.2841 51C37.2841 52.3807 36.1648 53.5 34.7841 53.5H24.6056C16.5974 53.5 10.1056 47.0081 10.1056 39C10.1056 30.9919 16.5974 24.5 24.6056 24.5H43.6845V19.7267C43.6845 17.1192 43.6845 15.8155 44.385 15.2168C44.6046 15.029 44.8623 14.8911 45.1404 14.8125Z" fill="#3F4549"/>
</svg>
