<svg width="72" height="72" viewBox="0 0 72 72" fill="none" xmlns="http://www.w3.org/2000/svg">
<path d="M44.6404 14.8125C45.5272 14.5618 46.6119 15.2849 48.7814 16.7313L59.6125 23.952C61.4038 25.1462 62.2995 25.7433 62.4615 26.5568C62.5128 26.8146 62.5128 27.0801 62.4615 27.338C62.2995 28.1514 61.4038 28.7485 59.6125 29.9428L48.7814 37.1635C46.6119 38.6098 45.5272 39.333 44.6404 39.0823C44.3623 39.0037 44.1046 38.8657 43.885 38.678C43.1845 38.0792 43.1845 36.7755 43.1845 34.1681V29.5H24.1056C18.8589 29.5 14.6056 33.7533 14.6056 39C14.6056 44.2467 18.8589 48.5 24.1056 48.5H34.2841C35.6648 48.5 36.7841 49.6193 36.7841 51C36.7841 52.3807 35.6648 53.5 34.2841 53.5H24.1056C16.0974 53.5 9.60556 47.0081 9.60556 39C9.60556 30.9919 16.0974 24.5 24.1056 24.5H43.1845V19.7267C43.1845 17.1192 43.1845 15.8155 43.885 15.2168C44.1046 15.029 44.3623 14.8911 44.6404 14.8125Z" fill="#4A4A4A"/>
</svg>
