<?xml version="1.0" encoding="UTF-8"?>
<svg width="26px" height="30px" viewBox="0 0 26 30" version="1.1" xmlns="http://www.w3.org/2000/svg" xmlns:xlink="http://www.w3.org/1999/xlink">
    <!-- Generator: sketchtool 63.1 (101010) - https://sketch.com -->
    <title>Elements/Icons/Reload1</title>
    <desc>Created with sketchtool.</desc>
    <g id="Icons" stroke="none" stroke-width="1" fill="none" fill-rule="evenodd">
        <g transform="translate(-652.000000, -299.000000)" id="Elements/Icons/Reload1">
            <g transform="translate(630.000000, 280.000000)">
                <g>
                    <g id="Elements/Icons/Add1">
                        <polygon id="Rectangle" points="0 0 70 0 70 70 0 70"></polygon>
                    </g>
                    <path d="M35,23.2857143 L35,19.9022556 C35,19.4039536 35.408442,19 35.9122807,19 C36.1096711,19 36.3017368,19.0633184 36.4596491,19.1804511 L43.1497076,24.1428571 C43.5527786,24.4418384 43.634467,25.0073734 43.3321637,25.406015 C43.2802967,25.4744111 43.2188636,25.5351691 43.1497076,25.5864662 L36.4596491,30.5488722 C36.0565781,30.8478534 35.4847594,30.7670627 35.1824561,30.3684211 C35.0640219,30.2122441 35,30.0222889 35,29.8270677 L35,26.443609 C29.5837338,26.443609 25.1929825,30.7861103 25.1929825,36.1428571 C25.1929825,41.499604 29.5837338,45.8421053 35,45.8421053 C40.4162662,45.8421053 44.8070175,41.499604 44.8070175,36.1428571 C44.8070175,35.2708286 45.521791,34.5639098 46.4035088,34.5639098 C47.2852265,34.5639098 48,35.2708286 48,36.1428571 C48,43.2436611 42.1797017,49 35,49 C27.8202983,49 22,43.2436611 22,36.1428571 C22,29.0420532 27.8202983,23.2857143 35,23.2857143 Z" id="Path" fill="#4A4A4A" fill-rule="nonzero"></path>
                </g>
            </g>
        </g>
    </g>
</svg>