<svg width="72" height="72" viewBox="0 0 72 72" fill="none" xmlns="http://www.w3.org/2000/svg">
<path d="M36.2667 16V9.68421C36.2667 8.75405 37.0291 8 37.9696 8C38.3381 8 38.6966 8.11819 38.9913 8.33684L51.4795 17.6C52.2319 18.1581 52.3843 19.2138 51.82 19.9579C51.7232 20.0856 51.6085 20.199 51.4795 20.2947L38.9913 29.5579C38.2389 30.116 37.1716 29.9652 36.6073 29.2211C36.3862 28.9295 36.2667 28.5749 36.2667 28.2105V21.8947C26.1563 21.8947 17.9602 30.0007 17.9602 40C17.9602 49.9993 26.1563 58.1053 36.2667 58.1053C46.377 58.1053 54.5731 49.9993 54.5731 40C54.5731 38.3722 55.9073 37.0526 57.5532 37.0526C59.1991 37.0526 60.5333 38.3722 60.5333 40C60.5333 53.2548 49.6688 64 36.2667 64C22.8646 64 12 53.2548 12 40C12 26.7452 22.8646 16 36.2667 16Z" fill="#3F4549"/>
</svg>
