<svg width="72" height="72" viewBox="0 0 72 72" fill="none" xmlns="http://www.w3.org/2000/svg">
<path d="M57 8C53.134 8 50 11.134 50 15V57C50 60.866 53.134 64 57 64C60.866 64 64 60.866 64 57V15C64 11.134 60.866 8 57 8Z" fill="#3F4549"/>
<path d="M29 28C29 24.134 32.134 21 36 21C39.866 21 43 24.134 43 28V57C43 60.866 39.866 64 36 64C32.134 64 29 60.866 29 57V28Z" fill="#3F4549"/>
<path d="M8 39C8 35.134 11.134 32 15 32C18.866 32 22 35.134 22 39V57C22 60.866 18.866 64 15 64C11.134 64 8 60.866 8 57V39Z" fill="#3F4549"/>
</svg>
