<svg width="72" height="72" viewBox="0 0 72 72" fill="none" xmlns="http://www.w3.org/2000/svg">
<path fill-rule="evenodd" clip-rule="evenodd" d="M60.8333 12.8333C60.8333 11.2685 59.5648 10 58 10C56.4352 10 55.1667 11.2685 55.1667 12.8333L55.3333 22.6C55.3333 26.8847 55.3308 29.9163 55.125 32.2807C54.9223 34.6086 54.5389 36.0216 53.9315 37.1265C52.8954 39.0111 51.3445 40.5621 49.4599 41.5981C48.3549 42.2056 46.9419 42.589 44.614 42.7916C42.2497 42.9975 39.218 43 34.9333 43H31.25V36.3258C31.25 34.2458 31.25 33.2058 30.8811 32.6045C30.5592 32.0801 30.0646 31.742 29.5201 31.6743C28.8959 31.5966 28.1351 32.1166 26.6136 33.1566L12.7045 42.6642C11.1831 43.7042 10.4223 44.2242 10.167 44.9031C9.94433 45.4952 9.94433 46.1715 10.167 46.7636C10.4223 47.4425 11.1831 47.9625 12.7045 49.0025L26.6136 58.5101C28.1351 59.5501 28.8959 60.0701 29.5201 59.9924C30.0646 59.9247 30.5592 59.5866 30.8811 59.0621C31.25 58.4609 31.25 57.4209 31.25 55.3409V55.3409V48.6667H35.0659C39.1882 48.6667 42.4666 48.6667 45.1056 48.4369C47.8093 48.2015 50.1073 47.7087 52.1898 46.5639C55.0167 45.0098 57.3431 42.6834 58.8972 39.8565C60.0421 37.774 60.5349 35.4759 60.7703 32.7722C61 30.1333 61 26.8549 61 22.7325L60.8333 12.8333Z" fill="#4A4A4A"/>
</svg>
