<svg width="72" height="72" viewBox="0 0 72 72" fill="none" xmlns="http://www.w3.org/2000/svg">
<path d="M12.8006 48.7988L12.8007 51.6369C12.8145 54.3063 13.0239 55.3266 13.5849 56.3755C14.0584 57.261 14.739 57.9416 15.6245 58.4151C16.7108 58.9961 17.7666 59.2 20.6555 59.2L23.1998 59.1994V64H20.6555C17.2062 64 15.4054 63.6825 13.6164 62.7807L13.3608 62.6478C11.6388 61.7269 10.2731 60.3612 9.35218 58.6392C8.41535 56.8875 8.04937 55.1989 8.00474 52.0436L8 51.3445V48.7988H12.8006Z" fill="#4A4A4A"/>
<path d="M64 48.7988V51.3445C64 54.958 63.6516 56.7624 62.6478 58.6392C61.7269 60.3612 60.3612 61.7269 58.6392 62.6478C56.8875 63.5846 55.1989 63.9506 52.0436 63.9953L51.3445 64H48.7988V59.198L51.6369 59.1993C54.1658 59.1862 55.2146 58.9976 56.2099 58.5008L56.3755 58.4151C57.261 57.9416 57.9416 57.261 58.4151 56.3755C58.9961 55.2892 59.2 54.2334 59.2 51.3445L59.1994 48.7988H64Z" fill="#4A4A4A"/>
<path d="M51.6999 8.00117C55.0784 8.02396 56.8249 8.38189 58.6392 9.35218C60.3612 10.2731 61.7269 11.6388 62.6478 13.3608C63.5846 15.1125 63.9506 16.8011 63.9953 19.9564L64 20.6555V23.1998H59.198L59.1993 20.3631C59.1862 17.8342 58.9976 16.7854 58.5008 15.7901L58.4151 15.6245C57.9416 14.739 57.261 14.0584 56.3755 13.5849C55.2892 13.0039 54.2334 12.8 51.3445 12.8L48.7988 12.7992V8L51.6999 8.00117Z" fill="#4A4A4A"/>
<path d="M23.1998 8V12.8006L20.3631 12.8007C17.8342 12.8138 16.7854 13.0024 15.7901 13.4992L15.6245 13.5849C14.739 14.0584 14.0584 14.739 13.5849 15.6245C13.0039 16.7108 12.8 17.7666 12.8 20.6555L12.7992 23.1998H8L8.00117 20.3001C8.02282 17.0905 8.34694 15.3538 9.21119 13.6326L9.35218 13.3608C10.2731 11.6388 11.6388 10.2731 13.3608 9.35218C15.1125 8.41535 16.8011 8.04937 19.9564 8.00474L20.6555 8H23.1998Z" fill="#4A4A4A"/>
<path fill-rule="evenodd" clip-rule="evenodd" d="M44.4562 23.2H27.5438C26.157 23.2 25.6541 23.3485 25.1471 23.6274C24.6401 23.9063 24.2422 24.3155 23.9711 24.837C23.6999 25.3585 23.5555 25.8757 23.5555 27.3022V34.4H9.55556C8.69645 34.4 8 35.1163 8 36C8 36.8837 8.69645 37.6 9.55556 37.6H23.5555V44.6977C23.5555 46.1242 23.6999 46.6414 23.9711 47.1629C24.2422 47.6844 24.6401 48.0937 25.1471 48.3726C25.6541 48.6514 26.157 48.8 27.5438 48.8H44.4562C45.843 48.8 46.3459 48.6514 46.8529 48.3726C47.3599 48.0937 47.7577 47.6844 48.0289 47.1629C48.3 46.6414 48.4444 46.1242 48.4444 44.6977V37.6H62.4444C63.3036 37.6 64 36.8837 64 36C64 35.1163 63.3036 34.4 62.4444 34.4H48.4444V27.3022C48.4444 25.8757 48.3 25.3585 48.0289 24.837C47.7577 24.3155 47.3599 23.9063 46.8529 23.6274C46.3459 23.3485 45.843 23.2 44.4562 23.2ZM48.4444 34.4V37.6H23.5555V34.4H48.4444Z" fill="#4A4A4A"/>
</svg>
