<svg width="73" height="72" viewBox="0 0 73 72" fill="none" xmlns="http://www.w3.org/2000/svg">
<path d="M52.1999 8.00117C55.5784 8.02396 57.3249 8.38189 59.1392 9.35218C60.8612 10.2731 62.2269 11.6388 63.1478 13.3608C64.0846 15.1125 64.4506 16.8011 64.4953 19.9564L64.5 20.6555V23.1998H59.698L59.6993 20.3631C59.6862 17.8342 59.4976 16.7854 59.0008 15.7901L58.9151 15.6245C58.4416 14.739 57.761 14.0584 56.8755 13.5849C55.7892 13.0039 54.7334 12.8 51.8445 12.8L49.2988 12.7992V8L52.1999 8.00117Z" fill="#3F4549"/>
<path d="M13.3007 51.6369L13.3006 48.7988H8.5V51.3445L8.50474 52.0436C8.54937 55.1989 8.91535 56.8875 9.85218 58.6392C10.7731 60.3612 12.1388 61.7269 13.8608 62.6478L14.1164 62.7807C15.9054 63.6825 17.7062 64 21.1555 64H23.6998V59.1994L21.1555 59.2C18.2666 59.2 17.2108 58.9961 16.1245 58.4151C15.239 57.9416 14.5584 57.261 14.0849 56.3755C13.5239 55.3266 13.3145 54.3063 13.3007 51.6369Z" fill="#3F4549"/>
<path d="M64.5 51.3445V48.7988H59.6994L59.7 51.3445C59.7 54.2334 59.4961 55.2892 58.9151 56.3755C58.4416 57.261 57.761 57.9416 56.8755 58.4151L56.7099 58.5008C55.7146 58.9976 54.6658 59.1862 52.1369 59.1993L49.2988 59.198V64H51.8445L52.5436 63.9953C55.6989 63.9506 57.3875 63.5846 59.1392 62.6478C60.8612 61.7269 62.2269 60.3612 63.1478 58.6392C64.1516 56.7624 64.5 54.958 64.5 51.3445Z" fill="#3F4549"/>
<path d="M23.6998 12.8006V8H21.1555L20.4564 8.00474C17.3011 8.04937 15.6125 8.41535 13.8608 9.35218C12.1388 10.2731 10.7731 11.6388 9.85218 13.3608L9.71119 13.6326C8.84694 15.3538 8.52282 17.0905 8.50117 20.3001L8.5 23.1998H13.2992L13.3 20.6555C13.3 17.7666 13.5039 16.7108 14.0849 15.6245C14.5584 14.739 15.239 14.0584 16.1245 13.5849L16.2901 13.4992C17.2854 13.0024 18.3342 12.8138 20.8631 12.8007L23.6998 12.8006Z" fill="#3F4549"/>
<path d="M50.2556 27.007L36.5617 33.0932C36.4415 33.1466 36.3043 33.1466 36.1841 33.0932L22.4902 27.007C22.3092 26.9265 22.3053 26.6711 22.4837 26.5852L35.9696 20.092C36.2245 19.9693 36.5213 19.9693 36.7761 20.092L50.262 26.5852C50.4405 26.6711 50.4366 26.9265 50.2556 27.007Z" fill="#3F4549"/>
<path d="M50.7439 45.1229L37.5827 51.9472C37.2733 52.1076 36.904 51.8831 36.904 51.5346V34.5415C36.904 34.3578 37.0122 34.1913 37.18 34.1167L50.9188 28.0106C51.0725 27.9423 51.2456 28.0548 51.2456 28.223V44.2977C51.2456 44.6449 51.0521 44.9631 50.7439 45.1229Z" fill="#3F4549"/>
<path d="M35.1628 51.9472L22.0017 45.1229C21.6935 44.9631 21.5 44.6449 21.5 44.2977V28.223C21.5 28.0548 21.6731 27.9423 21.8268 28.0106L35.5655 34.1167C35.7334 34.1913 35.8415 34.3578 35.8415 34.5415V51.5346C35.8415 51.8831 35.4722 52.1076 35.1628 51.9472Z" fill="#3F4549"/>
</svg>
