<svg width="72" height="72" viewBox="0 0 72 72" fill="none" xmlns="http://www.w3.org/2000/svg">
<path d="M51.6999 8.00117C55.0784 8.02396 56.8249 8.38189 58.6392 9.35218C60.3612 10.2731 61.7269 11.6388 62.6478 13.3608C63.5846 15.1125 63.9506 16.8011 63.9953 19.9564L64 20.6555V23.1998H59.198L59.1993 20.3631C59.1862 17.8342 58.9976 16.7854 58.5008 15.7901L58.4151 15.6245C57.9416 14.739 57.261 14.0584 56.3755 13.5849C55.2892 13.0039 54.2334 12.8 51.3445 12.8L48.7988 12.7992V8L51.6999 8.00117Z" fill="#3F4549"/>
<path d="M12.8007 51.6369L12.8006 48.7988H8V51.3445L8.00474 52.0436C8.04937 55.1989 8.41535 56.8875 9.35218 58.6392C10.2731 60.3612 11.6388 61.7269 13.3608 62.6478L13.6164 62.7807C15.4054 63.6825 17.2062 64 20.6555 64H23.1998V59.1994L20.6555 59.2C17.7666 59.2 16.7108 58.9961 15.6245 58.4151C14.739 57.9416 14.0584 57.261 13.5849 56.3755C13.0239 55.3266 12.8145 54.3063 12.8007 51.6369Z" fill="#3F4549"/>
<path d="M64 51.3445V48.7988H59.1994L59.2 51.3445C59.2 54.2334 58.9961 55.2892 58.4151 56.3755C57.9416 57.261 57.261 57.9416 56.3755 58.4151L56.2099 58.5008C55.2146 58.9976 54.1658 59.1862 51.6369 59.1993L48.7988 59.198V64H51.3445L52.0436 63.9953C55.1989 63.9506 56.8875 63.5846 58.6392 62.6478C60.3612 61.7269 61.7269 60.3612 62.6478 58.6392C63.6516 56.7624 64 54.958 64 51.3445Z" fill="#3F4549"/>
<path d="M23.1998 12.8006V8H20.6555L19.9564 8.00474C16.8011 8.04937 15.1125 8.41535 13.3608 9.35218C11.6388 10.2731 10.2731 11.6388 9.35218 13.3608L9.21119 13.6326C8.34694 15.3538 8.02282 17.0905 8.00117 20.3001L8 23.1998H12.7992L12.8 20.6555C12.8 17.7666 13.0039 16.7108 13.5849 15.6245C14.0584 14.739 14.739 14.0584 15.6245 13.5849L15.7901 13.4992C16.7854 13.0024 17.8342 12.8138 20.3631 12.8007L23.1998 12.8006Z" fill="#3F4549"/>
<path d="M22 22H24V50H22V22Z" fill="#3F4549"/>
<path d="M48 22H50V50H48V22Z" fill="#3F4549"/>
<path d="M30 22H26V50H30V22Z" fill="#3F4549"/>
<path d="M36 22H38V50H36V22Z" fill="#3F4549"/>
<path d="M46 22H39V50H46V22Z" fill="#3F4549"/>
<path d="M31 22H35V50H31V22Z" fill="#3F4549"/>
</svg>
