<svg width="73" height="72" viewBox="0 0 73 72" fill="none" xmlns="http://www.w3.org/2000/svg">
<path d="M13.3006 48.7988L13.3007 51.6369C13.3145 54.3063 13.5239 55.3266 14.0849 56.3755C14.5584 57.261 15.239 57.9416 16.1245 58.4151C17.2108 58.9961 18.2666 59.2 21.1555 59.2L23.6998 59.1994V64H21.1555C17.7062 64 15.9054 63.6825 14.1164 62.7807L13.8608 62.6478C12.1388 61.7269 10.7731 60.3612 9.85218 58.6392C8.91535 56.8875 8.54937 55.1989 8.50474 52.0436L8.5 51.3445V48.7988H13.3006Z" fill="#3F4549"/>
<path d="M64.5 48.7988V51.3445C64.5 54.958 64.1516 56.7624 63.1478 58.6392C62.2269 60.3612 60.8612 61.7269 59.1392 62.6478C57.3875 63.5846 55.6989 63.9506 52.5436 63.9953L51.8445 64H49.2988V59.198L52.1369 59.1993C54.6658 59.1862 55.7146 58.9976 56.7099 58.5008L56.8755 58.4151C57.761 57.9416 58.4416 57.261 58.9151 56.3755C59.4961 55.2892 59.7 54.2334 59.7 51.3445L59.6994 48.7988H64.5Z" fill="#3F4549"/>
<path d="M52.1999 8.00117C55.5784 8.02396 57.3249 8.38189 59.1392 9.35218C60.8612 10.2731 62.2269 11.6388 63.1478 13.3608C64.0846 15.1125 64.4506 16.8011 64.4953 19.9564L64.5 20.6555V23.1998H59.698L59.6993 20.3631C59.6862 17.8342 59.4976 16.7854 59.0008 15.7901L58.9151 15.6245C58.4416 14.739 57.761 14.0584 56.8755 13.5849C55.7892 13.0039 54.7334 12.8 51.8445 12.8L49.2988 12.7992V8L52.1999 8.00117Z" fill="#3F4549"/>
<path d="M23.6998 8V12.8006L20.8631 12.8007C18.3342 12.8138 17.2854 13.0024 16.2901 13.4992L16.1245 13.5849C15.239 14.0584 14.5584 14.739 14.0849 15.6245C13.5039 16.7108 13.3 17.7666 13.3 20.6555L13.2992 23.1998H8.5L8.50117 20.3001C8.52282 17.0905 8.84694 15.3538 9.71119 13.6326L9.85218 13.3608C10.7731 11.6388 12.1388 10.2731 13.8608 9.35218C15.6125 8.41535 17.3011 8.04937 20.4564 8.00474L21.1555 8H23.6998Z" fill="#3F4549"/>
<path fill-rule="evenodd" clip-rule="evenodd" d="M44.9562 23.2H28.0438C26.657 23.2 26.1541 23.3485 25.6471 23.6274C25.1401 23.9063 24.7422 24.3155 24.4711 24.837C24.1999 25.3585 24.0555 25.8757 24.0555 27.3022V34.4H10.0556C9.19645 34.4 8.5 35.1163 8.5 36C8.5 36.8837 9.19645 37.6 10.0556 37.6H24.0555V44.6977C24.0555 46.1242 24.1999 46.6414 24.4711 47.1629C24.7422 47.6844 25.1401 48.0937 25.6471 48.3726C26.1541 48.6514 26.657 48.8 28.0438 48.8H44.9562C46.343 48.8 46.8459 48.6514 47.3529 48.3726C47.8599 48.0937 48.2577 47.6844 48.5289 47.1629C48.8 46.6414 48.9444 46.1242 48.9444 44.6977V37.6H62.9444C63.8036 37.6 64.5 36.8837 64.5 36C64.5 35.1163 63.8036 34.4 62.9444 34.4H48.9444V27.3022C48.9444 25.8757 48.8 25.3585 48.5289 24.837C48.2577 24.3155 47.8599 23.9063 47.3529 23.6274C46.8459 23.3485 46.343 23.2 44.9562 23.2ZM48.9444 34.4V37.6H24.0555V34.4H48.9444Z" fill="#3F4549"/>
</svg>
