<svg width="72" height="72" viewBox="0 0 72 72" fill="none" xmlns="http://www.w3.org/2000/svg">
<path d="M51.6999 8.00117C55.0784 8.02396 56.8249 8.38189 58.6392 9.35218C60.3612 10.2731 61.7269 11.6388 62.6478 13.3608C63.5846 15.1125 63.9506 16.8011 63.9953 19.9564L64 20.6555V23.1998H59.198L59.1993 20.3631C59.1862 17.8342 58.9976 16.7854 58.5008 15.7901L58.4151 15.6245C57.9416 14.739 57.261 14.0584 56.3755 13.5849C55.2892 13.0039 54.2334 12.8 51.3445 12.8L48.7988 12.7992V8L51.6999 8.00117Z" fill="#3F4549"/>
<path d="M12.8007 51.6369L12.8006 48.7988H8V51.3445L8.00474 52.0436C8.04937 55.1989 8.41535 56.8875 9.35218 58.6392C10.2731 60.3612 11.6388 61.7269 13.3608 62.6478L13.6164 62.7807C15.4054 63.6825 17.2062 64 20.6555 64H23.1998V59.1994L20.6555 59.2C17.7666 59.2 16.7108 58.9961 15.6245 58.4151C14.739 57.9416 14.0584 57.261 13.5849 56.3755C13.0239 55.3266 12.8145 54.3063 12.8007 51.6369Z" fill="#3F4549"/>
<path d="M64 51.3445V48.7988H59.1994L59.2 51.3445C59.2 54.2334 58.9961 55.2892 58.4151 56.3755C57.9416 57.261 57.261 57.9416 56.3755 58.4151L56.2099 58.5008C55.2146 58.9976 54.1658 59.1862 51.6369 59.1993L48.7988 59.198V64H51.3445L52.0436 63.9953C55.1989 63.9506 56.8875 63.5846 58.6392 62.6478C60.3612 61.7269 61.7269 60.3612 62.6478 58.6392C63.6516 56.7624 64 54.958 64 51.3445Z" fill="#3F4549"/>
<path d="M23.1998 12.8006V8H20.6555L19.9564 8.00474C16.8011 8.04937 15.1125 8.41535 13.3608 9.35218C11.6388 10.2731 10.2731 11.6388 9.35218 13.3608L9.21119 13.6326C8.34694 15.3538 8.02282 17.0905 8.00117 20.3001L8 23.1998H12.7992L12.8 20.6555C12.8 17.7666 13.0039 16.7108 13.5849 15.6245C14.0584 14.739 14.739 14.0584 15.6245 13.5849L15.7901 13.4992C16.7854 13.0024 17.8342 12.8138 20.3631 12.8007L23.1998 12.8006Z" fill="#3F4549"/>
<path d="M33.3787 20.5448C34.7296 19.8184 36.3613 19.8184 37.7123 20.5448C39.1698 21.3284 40.0769 22.8362 40.0769 24.4751V24.7263C40.0769 26.3652 39.1698 27.873 37.7123 28.6567C36.3613 29.383 34.7296 29.383 33.3787 28.6567C31.9211 27.873 31.014 26.3652 31.014 24.7263V24.4751C31.014 22.8362 31.9211 21.3284 33.3787 20.5448Z" fill="#3F4549"/>
<path d="M23.3647 26.2444C24.7156 25.5181 26.3474 25.5181 27.6983 26.2444C29.1558 27.0281 30.0629 28.5359 30.0629 30.1748V30.4259C30.0629 32.0648 29.1558 33.5726 27.6983 34.3563C26.3474 35.0827 24.7156 35.0827 23.3647 34.3563C21.9072 33.5726 21 32.0648 21 30.4259V30.1748C21 28.5359 21.9072 27.0281 23.3647 26.2444Z" fill="#3F4549"/>
<path d="M47.7262 26.2444C46.3753 25.5181 44.7435 25.5181 43.3926 26.2444C41.9351 27.0281 41.028 28.5359 41.028 30.1748V30.4259C41.028 32.0648 41.9351 33.5726 43.3926 34.3563C44.7436 35.0827 46.3753 35.0827 47.7262 34.3563C49.1838 33.5726 50.0909 32.0648 50.0909 30.4259V30.1748C50.0909 28.5359 49.1838 27.0281 47.7262 26.2444Z" fill="#3F4549"/>
<path d="M33.3787 31.944C34.7296 31.2177 36.3613 31.2177 37.7123 31.944C39.1698 32.7277 40.0769 34.2355 40.0769 35.8744V36.1256C40.0769 37.7645 39.1698 39.2723 37.7123 40.056C36.3613 40.7823 34.7296 40.7823 33.3787 40.056C31.9211 39.2723 31.014 37.7645 31.014 36.1256V35.8744C31.014 34.2355 31.9211 32.7277 33.3787 31.944Z" fill="#3F4549"/>
<path d="M27.6983 37.6437C26.3474 36.9173 24.7156 36.9173 23.3647 37.6437C21.9072 38.4274 21 39.9352 21 41.5741V41.8252C21 43.4641 21.9072 44.9719 23.3647 45.7556C24.7156 46.4819 26.3474 46.4819 27.6983 45.7556C29.1558 44.9719 30.0629 43.4641 30.0629 41.8252V41.5741C30.0629 39.9352 29.1558 38.4274 27.6983 37.6437Z" fill="#3F4549"/>
<path d="M43.3926 37.6437C44.7435 36.9173 46.3753 36.9173 47.7262 37.6437C49.1838 38.4274 50.0909 39.9352 50.0909 41.5741V41.8252C50.0909 43.4641 49.1838 44.9719 47.7262 45.7556C46.3753 46.4819 44.7436 46.4819 43.3926 45.7556C41.9351 44.9719 41.028 43.4641 41.028 41.8252V41.5741C41.028 39.9352 41.9351 38.4274 43.3926 37.6437Z" fill="#3F4549"/>
<path d="M37.7123 43.3433C36.3613 42.617 34.7296 42.617 33.3787 43.3433C31.9211 44.127 31.014 45.6348 31.014 47.2737V47.5249C31.014 49.1638 31.9211 50.6716 33.3787 51.4552C34.7296 52.1816 36.3613 52.1816 37.7123 51.4552C39.1698 50.6716 40.0769 49.1638 40.0769 47.5249V47.2737C40.0769 45.6348 39.1698 44.127 37.7123 43.3433Z" fill="#3F4549"/>
</svg>
