<?xml version="1.0" encoding="UTF-8"?>
<svg width="30px" height="30px" viewBox="0 0 30 30" version="1.1" xmlns="http://www.w3.org/2000/svg" xmlns:xlink="http://www.w3.org/1999/xlink">
    <!-- Generator: sketchtool 63.1 (101010) - https://sketch.com -->
    <title>Elements/Icons/Search1</title>
    <desc>Created with sketchtool.</desc>
    <g id="Icons" stroke="none" stroke-width="1" fill="none" fill-rule="evenodd">
        <g transform="translate(-431.000000, -301.000000)" id="Elements/Icons/Search1">
            <g transform="translate(410.000000, 280.000000)">
                <g>
                    <polygon id="Rectangle" points="0 0 70 0 70 70 0 70"></polygon>
                    <path d="M40.869327,43.4948929 C38.7990166,45.0257656 36.2379316,45.9308879 33.4654439,45.9308879 C26.5809694,45.9308879 21,40.3499185 21,33.4654439 C21,26.5809694 26.5809694,21 33.4654439,21 C40.3499185,21 45.9308879,26.5809694 45.9308879,33.4654439 C45.9308879,36.2379316 45.0257656,38.7990166 43.4948929,40.869327 L50.4562275,47.8306616 C51.1812575,48.5556916 51.1812575,49.7311975 50.4562275,50.4562275 C49.7311975,51.1812575 48.5556916,51.1812575 47.8306616,50.4562275 L40.869327,43.4948929 Z M40.0425906,39.2400832 C41.3966919,37.6990239 42.2177769,35.6781213 42.2177769,33.4654439 C42.2177769,28.6316639 38.299224,24.713111 33.4654439,24.713111 C28.6316639,24.713111 24.713111,28.6316639 24.713111,33.4654439 C24.713111,38.299224 28.6316639,42.2177769 33.4654439,42.2177769 C35.6781213,42.2177769 37.6990239,41.3966919 39.2400832,40.0425906 C39.3260041,39.8755574 39.4389373,39.7188285 39.5788829,39.5788829 C39.7188285,39.4389373 39.8755574,39.3260041 40.0425906,39.2400832 L40.0425906,39.2400832 Z" id="Shape" fill="#4A4A4A" fill-rule="nonzero"></path>
                </g>
            </g>
        </g>
    </g>
</svg>