<svg width="72" height="72" viewBox="0 0 72 72" fill="none" xmlns="http://www.w3.org/2000/svg">
<path fill-rule="evenodd" clip-rule="evenodd" d="M46.153 51.1659C42.1765 54.1112 37.2549 55.853 31.9265 55.853C18.7123 55.853 8 45.1407 8 31.9265C8 18.7123 18.7123 8 31.9265 8C45.1407 8 55.853 18.7123 55.853 31.9265C55.853 37.2549 54.1112 42.1765 51.1659 46.153L62.6013 57.5883C66.4796 61.4667 61.4667 66.4796 57.5884 62.6013L46.153 51.1659ZM49.553 31.9265C49.553 41.6613 41.6613 49.553 31.9265 49.553C22.1916 49.553 14.3 41.6613 14.3 31.9265C14.3 22.1917 22.1916 14.3 31.9265 14.3C41.6613 14.3 49.553 22.1917 49.553 31.9265Z" fill="#3F4549"/>
</svg>
