<svg width="72" height="72" viewBox="0 0 72 72" fill="none" xmlns="http://www.w3.org/2000/svg">
<path d="M40.8859 8.15959C41.4357 8.41262 41.8141 8.9335 41.8849 9.53453L42.0479 10.9187C42.19 12.1255 43.2835 12.9887 44.4903 12.8465C45.0115 12.7852 45.4936 12.5395 45.8496 12.154L46.7951 11.1299C47.4459 10.425 48.545 10.3812 49.25 11.032C49.6946 11.4426 49.8936 12.0549 49.7751 12.6484L49.5024 14.0152C49.2647 15.2069 50.0379 16.3656 51.2296 16.6034C51.7442 16.7061 52.2786 16.6215 52.7363 16.3648L53.952 15.683C54.7888 15.2137 55.8477 15.5117 56.317 16.3485C56.613 16.8763 56.613 17.5202 56.317 18.048L55.6353 19.2637C55.0409 20.3236 55.4182 21.6646 56.4781 22.2589C56.9358 22.5156 57.4702 22.6003 57.9848 22.4976L59.3516 22.2249C60.2926 22.0371 61.2075 22.6477 61.3953 23.5886C61.5137 24.1821 61.3147 24.7944 60.8701 25.205L59.846 26.1504C58.9532 26.9748 58.8977 28.3668 59.722 29.2596C60.078 29.6451 60.5601 29.8908 61.0813 29.9521L62.4655 30.1151C63.4184 30.2273 64.0999 31.0908 63.9877 32.0436C63.9169 32.6447 63.5384 33.1656 62.9887 33.4186L61.7226 34.0014C60.6188 34.5094 60.1358 35.8161 60.6439 36.92C60.8633 37.3967 61.2459 37.7793 61.7226 37.9987L62.9887 38.5814C63.8603 38.9826 64.2416 40.0144 63.8404 40.8859C63.5874 41.4357 63.0665 41.8141 62.4655 41.8849L61.0813 42.0479C59.8745 42.19 59.0114 43.2835 59.1535 44.4903C59.2148 45.0115 59.4605 45.4936 59.846 45.8496L60.8701 46.7951C61.575 47.4459 61.6189 48.545 60.968 49.25C60.5575 49.6946 59.9451 49.8936 59.3516 49.7752L57.9848 49.5024C56.7932 49.2647 55.6344 50.038 55.3966 51.2296C55.2939 51.7442 55.3786 52.2786 55.6353 52.7363L56.317 53.952C56.7863 54.7888 56.4884 55.8477 55.6515 56.317C55.1237 56.613 54.4798 56.613 53.952 56.317L52.7363 55.6353C51.6765 55.0409 50.3354 55.4182 49.7411 56.4781C49.4844 56.9358 49.3997 57.4702 49.5024 57.9848L49.7751 59.3517C49.9629 60.2926 49.3523 61.2075 48.4114 61.3953C47.8179 61.5137 47.2056 61.3147 46.7951 60.8701L45.8496 59.8461C45.0252 58.9533 43.6333 58.8977 42.7405 59.7221C42.3549 60.078 42.1093 60.5601 42.0479 61.0813L41.8849 62.4655C41.7727 63.4184 40.9092 64.0999 39.9564 63.9877C39.3553 63.9169 38.8345 63.5385 38.5814 62.9887L37.9987 61.7226C37.4906 60.6188 36.1839 60.1358 35.08 60.6439C34.6033 60.8633 34.2208 61.2459 34.0013 61.7226L33.4186 62.9887C33.0174 63.8603 31.9856 64.2416 31.1141 63.8404C30.5643 63.5874 30.1859 63.0665 30.1151 62.4655L29.9521 61.0813C29.81 59.8745 28.7165 59.0114 27.5097 59.1535C26.9885 59.2149 26.5064 59.4605 26.1504 59.8461L25.2049 60.8701C24.5541 61.575 23.455 61.6189 22.75 60.968C22.3054 60.5575 22.1064 59.9451 22.2249 59.3517L22.4976 57.9848C22.7353 56.7932 21.9621 55.6344 20.7704 55.3966C20.2558 55.2939 19.7214 55.3786 19.2637 55.6353L18.048 56.317C17.2112 56.7863 16.1523 56.4884 15.683 55.6515C15.387 55.1237 15.387 54.4798 15.683 53.952L16.3647 52.7363C16.9591 51.6765 16.5818 50.3355 15.5219 49.7411C15.0642 49.4844 14.5298 49.3998 14.0152 49.5024L12.6484 49.7752C11.7074 49.9629 10.7925 49.3523 10.6047 48.4114C10.4863 47.8179 10.6853 47.2056 11.1299 46.7951L12.154 45.8496C13.0468 45.0253 13.1023 43.6333 12.278 42.7405C11.922 42.3549 11.4399 42.1093 10.9187 42.0479L9.53451 41.8849C8.58163 41.7727 7.90013 40.9093 8.01234 39.9564C8.08311 39.3554 8.46156 38.8345 9.01129 38.5814L10.2774 37.9987C11.3812 37.4906 11.8642 36.1839 11.3561 35.0801C11.1367 34.6034 10.7541 34.2208 10.2774 34.0014L9.01129 33.4186C8.13973 33.0174 7.7584 31.9857 8.15957 31.1141C8.41261 30.5644 8.93349 30.1859 9.53451 30.1151L10.9187 29.9521C12.1255 29.81 12.9886 28.7165 12.8465 27.5097C12.7852 26.9885 12.5395 26.5064 12.154 26.1504L11.1299 25.205C10.425 24.5541 10.3811 23.455 11.032 22.7501C11.4425 22.3054 12.0549 22.1065 12.6484 22.2249L14.0152 22.4976C15.2068 22.7354 16.3656 21.9621 16.6034 20.7704C16.7061 20.2558 16.6214 19.7214 16.3647 19.2637L15.683 18.048C15.2137 17.2112 15.5116 16.1523 16.3485 15.683C16.8763 15.387 17.5202 15.387 18.048 15.683L19.2637 16.3648C20.3235 16.9591 21.6646 16.5818 22.2589 15.5219C22.5156 15.0642 22.6003 14.5298 22.4976 14.0152L22.2249 12.6484C22.0371 11.7075 22.6477 10.7925 23.5886 10.6048C24.1821 10.4863 24.7944 10.6853 25.2049 11.1299L26.1504 12.154C26.9748 13.0468 28.3667 13.1023 29.2595 12.278C29.6451 11.922 29.8907 11.4399 29.9521 10.9187L30.1151 9.53453C30.2273 8.58165 31.0908 7.90015 32.0436 8.01235C32.6447 8.08313 33.1655 8.46157 33.4186 9.01131L34.0013 10.2774C34.5094 11.3812 35.8161 11.8642 36.92 11.3561C37.3967 11.1367 37.7792 10.7541 37.9987 10.2774L38.5814 9.01131C38.9826 8.13974 40.0144 7.75841 40.8859 8.15959ZM33.9427 38.5138L33.7089 38.5341L21.4007 40.2638C19.2637 40.5655 19.3207 42.1239 19.7893 43.1739C22.909 50.1647 30.3956 54.5495 38.3829 53.427C39.6305 53.2517 40.8293 52.9505 41.9683 52.5383C42.0698 52.5015 40.6077 53.0929 42.292 52.4142C43.9764 51.7354 43.9764 49.9494 43.2206 48.9765L35.7523 39.3629C35.2689 38.7406 34.4894 38.4244 33.7089 38.5341L33.9427 38.5138ZM46.311 21.7459C45.8496 21.4127 44.4903 20.5814 43.7232 22.4958L38.9219 34.4747C38.6311 35.2002 38.7471 36.0254 39.2266 36.6426L46.8655 46.4758C48.3707 48.4114 49.4693 47.3517 50.146 46.438C52.7953 42.8606 54.0962 38.2887 53.429 33.5413C52.7364 28.6134 50.0575 24.4518 46.311 21.7459ZM37.9712 18.5114C36.5117 18.3452 35.0071 18.359 33.4843 18.573C25.4405 19.7035 19.4245 26.0631 18.4152 33.7149C18.1034 36.0788 19.567 36.0788 20.6463 35.927L33.0966 34.1773C33.877 34.0676 34.5392 33.5489 34.8324 32.8173L39.6345 20.8363C39.9564 20.0332 39.9564 18.7375 37.9712 18.5114Z" fill="#4A4A4A"/>
</svg>
