<?xml version="1.0" encoding="UTF-8"?>
<svg width="34px" height="34px" viewBox="0 0 34 34" version="1.1" xmlns="http://www.w3.org/2000/svg" xmlns:xlink="http://www.w3.org/1999/xlink">
    <!-- Generator: sketchtool 63.1 (101010) - https://sketch.com -->
    <title>Elements/Icons/Settings1</title>
    <desc>Created with sketchtool.</desc>
    <g id="Icons" stroke="none" stroke-width="1" fill="none" fill-rule="evenodd">
        <g transform="translate(-648.000000, -519.000000)" id="Elements/Icons/Settings1">
            <g transform="translate(630.000000, 500.000000)">
                <g>
                    <polygon id="Rectangle" points="0 0 70 0 70 70 0 70"></polygon>
                    <path d="M37.9664581,19.0968815 C38.3002267,19.2505115 38.5299954,19.5667609 38.572966,19.931668 L38.6719311,20.7720802 C38.7582129,21.504786 39.4221335,22.0288162 40.1548393,21.9425344 C40.4712664,21.9052727 40.7639555,21.7561401 40.9800921,21.5220472 L41.5541384,20.9003096 C41.9493084,20.4723092 42.6166198,20.445695 43.0446202,20.840865 C43.3145787,21.0901159 43.4353752,21.4618895 43.3634803,21.8222153 L43.1979,22.6520767 C43.0535403,23.3755839 43.5230321,24.079129 44.2465393,24.2234887 C44.5589939,24.285832 44.8834422,24.2344445 45.161339,24.0785987 L45.899417,23.6646812 C46.4075054,23.3797429 47.0503805,23.5606418 47.3353188,24.0687302 C47.5150418,24.3892037 47.5150418,24.7801095 47.3353188,25.100583 L46.9214013,25.838661 C46.5605311,26.4821476 46.7896369,27.2963398 47.4331236,27.65721 C47.7110204,27.8130558 48.0354687,27.8644434 48.3479233,27.8021 L49.1777847,27.6365197 C49.7490562,27.5225353 50.304566,27.8932397 50.4185505,28.4645113 C50.4904454,28.8248371 50.3696489,29.1966107 50.0996904,29.4458616 L49.4779528,30.0199079 C48.9358965,30.5203851 48.90219,31.3655254 49.4026671,31.9075817 C49.6188036,32.1416747 49.9114927,32.2908072 50.2279198,32.3280689 L51.068332,32.427034 C51.6468667,32.495161 52.0606339,33.0193838 51.992507,33.5979185 C51.9495363,33.9628255 51.7197676,34.2790749 51.3859991,34.4327049 L50.6173015,34.7865279 C49.9471194,35.0950054 49.6538998,35.8883657 49.9623772,36.5585478 C50.0955966,36.8479733 50.3278759,37.0802527 50.6173015,37.2134721 L51.3859991,37.5672951 C51.9151659,37.8108647 52.1466881,38.4372913 51.9031185,38.9664581 C51.7494885,39.3002267 51.4332391,39.5299954 51.068332,39.572966 L50.2279198,39.6719311 C49.495214,39.7582129 48.9711838,40.4221335 49.0574656,41.1548393 C49.0947273,41.4712664 49.2438599,41.7639555 49.4779528,41.9800921 L50.0996904,42.5541384 C50.5276908,42.9493084 50.554305,43.6166198 50.159135,44.0446202 C49.9098841,44.3145787 49.5381105,44.4353752 49.1777847,44.3634803 L48.3479233,44.1979 C47.6244161,44.0535403 46.920871,44.5230321 46.7765113,45.2465393 C46.714168,45.5589939 46.7655555,45.8834422 46.9214013,46.161339 L47.3353188,46.899417 C47.6202571,47.4075054 47.4393582,48.0503805 46.9312698,48.3353188 C46.6107963,48.5150418 46.2198905,48.5150418 45.899417,48.3353188 L45.161339,47.9214013 C44.5178524,47.5605311 43.7036602,47.7896369 43.34279,48.4331236 C43.1869442,48.7110204 43.1355566,49.0354687 43.1979,49.3479233 L43.3634803,50.1777847 C43.4774647,50.7490562 43.1067603,51.304566 42.5354887,51.4185505 C42.1751629,51.4904454 41.8033893,51.3696489 41.5541384,51.0996904 L40.9800921,50.4779528 C40.4796149,49.9358965 39.6344746,49.90219 39.0924183,50.4026671 C38.8583253,50.6188036 38.7091928,50.9114927 38.6719311,51.2279198 L38.572966,52.068332 C38.504839,52.6468667 37.9806162,53.0606339 37.4020815,52.992507 C37.0371745,52.9495363 36.7209251,52.7197676 36.5672951,52.3859991 L36.2134721,51.6173015 C35.9049946,50.9471194 35.1116343,50.6538998 34.4414522,50.9623772 C34.1520267,51.0955966 33.9197473,51.3278759 33.7865279,51.6173015 L33.4327049,52.3859991 C33.1891353,52.9151659 32.5627087,53.1466881 32.0335419,52.9031185 C31.6997733,52.7494885 31.4700046,52.4332391 31.427034,52.068332 L31.3280689,51.2279198 C31.2417871,50.495214 30.5778665,49.9711838 29.8451607,50.0574656 C29.5287336,50.0947273 29.2360445,50.2438599 29.0199079,50.4779528 L28.4458616,51.0996904 C28.0506916,51.5276908 27.3833802,51.554305 26.9553798,51.159135 C26.6854213,50.9098841 26.5646248,50.5381105 26.6365197,50.1777847 L26.8021,49.3479233 C26.9464597,48.6244161 26.4769679,47.920871 25.7534607,47.7765113 C25.4410061,47.714168 25.1165578,47.7655555 24.838661,47.9214013 L24.100583,48.3353188 C23.5924946,48.6202571 22.9496195,48.4393582 22.6646812,47.9312698 C22.4849582,47.6107963 22.4849582,47.2198905 22.6646812,46.899417 L23.0785987,46.161339 C23.4394689,45.5178524 23.2103631,44.7036602 22.5668764,44.34279 C22.2889796,44.1869442 21.9645313,44.1355566 21.6520767,44.1979 L20.8222153,44.3634803 C20.2509438,44.4774647 19.695434,44.1067603 19.5814495,43.5354887 C19.5095546,43.1751629 19.6303511,42.8033893 19.9003096,42.5541384 L20.5220472,41.9800921 C21.0641035,41.4796149 21.09781,40.6344746 20.5973329,40.0924183 C20.3811964,39.8583253 20.0885073,39.7091928 19.7720802,39.6719311 L18.931668,39.572966 C18.3531333,39.504839 17.9393661,38.9806162 18.007493,38.4020815 C18.0504637,38.0371745 18.2802324,37.7209251 18.6140009,37.5672951 L19.3826985,37.2134721 C20.0528806,36.9049946 20.3461002,36.1116343 20.0376228,35.4414522 C19.9044034,35.1520267 19.6721241,34.9197473 19.3826985,34.7865279 L18.6140009,34.4327049 C18.0848341,34.1891353 17.8533119,33.5627087 18.0968815,33.0335419 C18.2505115,32.6997733 18.5667609,32.4700046 18.931668,32.427034 L19.7720802,32.3280689 C20.504786,32.2417871 21.0288162,31.5778665 20.9425344,30.8451607 C20.9052727,30.5287336 20.7561401,30.2360445 20.5220472,30.0199079 L19.9003096,29.4458616 C19.4723092,29.0506916 19.445695,28.3833802 19.840865,27.9553798 C20.0901159,27.6854213 20.4618895,27.5646248 20.8222153,27.6365197 L21.6520767,27.8021 C22.3755839,27.9464597 23.079129,27.4769679 23.2234887,26.7534607 C23.285832,26.4410061 23.2344445,26.1165578 23.0785987,25.838661 L22.6646812,25.100583 C22.3797429,24.5924946 22.5606418,23.9496195 23.0687302,23.6646812 C23.3892037,23.4849582 23.7801095,23.4849582 24.100583,23.6646812 L24.838661,24.0785987 C25.4821476,24.4394689 26.2963398,24.2103631 26.65721,23.5668764 C26.8130558,23.2889796 26.8644434,22.9645313 26.8021,22.6520767 L26.6365197,21.8222153 C26.5225353,21.2509438 26.8932397,20.695434 27.4645113,20.5814495 C27.8248371,20.5095546 28.1966107,20.6303511 28.4458616,20.9003096 L29.0199079,21.5220472 C29.5203851,22.0641035 30.3655254,22.09781 30.9075817,21.5973329 C31.1416747,21.3811964 31.2908072,21.0885073 31.3280689,20.7720802 L31.427034,19.931668 C31.495161,19.3531333 32.0193838,18.9393661 32.5979185,19.007493 C32.9628255,19.0504637 33.2790749,19.2802324 33.4327049,19.6140009 L33.7865279,20.3826985 C34.0950054,21.0528806 34.8883657,21.3461002 35.5585478,21.0376228 C35.8479733,20.9044034 36.0802527,20.6721241 36.2134721,20.3826985 L36.5672951,19.6140009 C36.8108647,19.0848341 37.4372913,18.8533119 37.9664581,19.0968815 Z M33.7509344,37.526237 L33.6089771,37.5385304 L26.1361533,38.5887263 C24.838661,38.7718907 24.8732748,39.718097 25.1577659,40.3555842 C27.0519068,44.5999724 31.5973102,47.2621808 36.4467784,46.580659 C37.2042463,46.474208 37.9320965,46.2913842 38.6235813,46.0411057 C38.6852485,46.0187856 37.7975218,46.3778246 38.8201618,45.9657318 C39.8428019,45.5536391 39.8428019,44.4692582 39.3839503,43.8785989 L39.3839503,43.8785989 L34.8496369,38.041778 C34.556091,37.6639094 34.0828232,37.4719382 33.6089771,37.5385304 Z M41.2602203,27.3457382 C40.9800921,27.1434202 40.1548393,26.6387219 39.6890593,27.8010212 L39.6890593,27.8010212 L36.7740066,35.0739246 C36.5974719,35.5143693 36.6678907,36.0154054 36.9589944,36.3901303 L36.9589944,36.3901303 L41.5968964,42.3602962 C42.5107578,43.5354887 43.1778202,42.8921141 43.5886737,42.3373302 C45.1971781,40.1653341 45.9869725,37.3895634 45.5818684,34.5072102 C45.1613623,31.5152709 43.534902,28.9885889 41.2602203,27.3457382 Z M36.196823,25.3819399 C35.3106542,25.281012 34.3971694,25.28941 33.4726329,25.41934 C28.5888567,26.1056832 24.9362968,29.966867 24.3235039,34.6126088 C24.1341909,36.0478399 25.0228484,36.0478399 25.6781313,35.9556831 L25.6781313,35.9556831 L33.2372089,34.8933655 C33.7110551,34.8267734 34.1130727,34.5117937 34.2910884,34.067654 L34.2910884,34.067654 L37.206655,26.7934682 C37.4020815,26.3058894 37.4020815,25.5192097 36.196823,25.3819399 Z" id="Combined-Shape" fill="#4A4A4A" fill-rule="nonzero"></path>
                </g>
            </g>
        </g>
    </g>
</svg>