<svg width="73" height="72" viewBox="0 0 73 72" fill="none" xmlns="http://www.w3.org/2000/svg">
<path d="M56.65 47.3666L63.5947 53.0386C64.339 53.6465 64.4597 54.7553 63.8642 55.5152C63.5367 55.9332 63.0408 56.1765 62.5166 56.1765H10.2259C9.27269 56.1765 8.5 55.3876 8.5 54.4145C8.5 53.8792 8.73832 53.373 9.14772 53.0386L16.0924 47.3666H56.65ZM56.65 31.6238L63.5947 37.2958C64.339 37.9037 64.4597 39.0125 63.8642 39.7724C63.5367 40.1903 63.0408 40.4337 62.5166 40.4337H10.2259C9.27269 40.4337 8.5 39.6448 8.5 38.6717C8.5 38.1364 8.73832 37.6302 9.14772 37.2958L16.0924 31.6238H56.65ZM55.8289 15L63.8522 21.553C64.5965 22.1609 64.7172 23.2697 64.1217 24.0296C63.7942 24.4475 63.2984 24.6908 62.7741 24.6908H10.4834C9.53022 24.6908 8.75753 23.902 8.75753 22.9289C8.75753 22.3936 8.99585 21.8874 9.40525 21.553L17.4286 15H55.8289Z" fill="#3F4549"/>
</svg>
