<svg width="72" height="72" viewBox="0 0 72 72" fill="none" xmlns="http://www.w3.org/2000/svg">
<path d="M56.15 47.3666L63.0947 53.0386C63.839 53.6465 63.9597 54.7553 63.3642 55.5152C63.0367 55.9332 62.5408 56.1765 62.0166 56.1765H9.72585C8.77269 56.1765 8 55.3876 8 54.4145C8 53.8792 8.23832 53.373 8.64772 53.0386L15.5924 47.3666H56.15ZM56.15 31.6238L63.0947 37.2958C63.839 37.9037 63.9597 39.0125 63.3642 39.7724C63.0367 40.1903 62.5408 40.4337 62.0166 40.4337H9.72585C8.77269 40.4337 8 39.6448 8 38.6717C8 38.1364 8.23832 37.6302 8.64772 37.2958L15.5924 31.6238H56.15ZM55.3289 15L63.3522 21.553C64.0965 22.1609 64.2172 23.2697 63.6217 24.0296C63.2942 24.4475 62.7984 24.6908 62.2741 24.6908H9.98339C9.03022 24.6908 8.25753 23.902 8.25753 22.9289C8.25753 22.3936 8.49585 21.8874 8.90525 21.553L16.9286 15H55.3289Z" fill="#4A4A4A"/>
</svg>
