<?xml version="1.0" encoding="UTF-8"?>
<svg width="34px" height="25px" viewBox="0 0 34 25" version="1.1" xmlns="http://www.w3.org/2000/svg" xmlns:xlink="http://www.w3.org/1999/xlink">
    <!-- Generator: sketchtool 63.1 (101010) - https://sketch.com -->
    <title>Elements/Icons/Shelves1</title>
    <desc>Created with sketchtool.</desc>
    <g id="Icons" stroke="none" stroke-width="1" fill="none" fill-rule="evenodd">
        <g transform="translate(-208.000000, -523.000000)" id="Elements/Icons/Shelves1">
            <g transform="translate(190.000000, 500.000000)">
                <g>
                    <polygon id="Rectangle" points="0 0 70 0 70 70 0 70"></polygon>
                    <path d="M47.233925,42.6511628 L51.4503442,46.0948845 C51.9022378,46.4639645 51.9755042,47.137161 51.6139893,47.598511 C51.4151384,47.8522761 51.1140803,48 50.7957635,48 L19.0478403,48 C18.4691341,48 18,47.5210488 18,46.9302326 C18,46.6052546 18.144696,46.2978966 18.3932596,46.0948845 L22.6096788,42.6511628 L47.233925,42.6511628 Z M47.233925,33.0930233 L51.4503442,36.536745 C51.9022378,36.905825 51.9755042,37.5790215 51.6139893,38.0403714 C51.4151384,38.2941366 51.1140803,38.4418605 50.7957635,38.4418605 L19.0478403,38.4418605 C18.4691341,38.4418605 18,37.9629093 18,37.372093 C18,37.0471151 18.144696,36.7397571 18.3932596,36.536745 L22.6096788,33.0930233 L47.233925,33.0930233 Z M46.7353825,23 L51.6067018,26.9786055 C52.0585954,27.3476854 52.1318618,28.0208819 51.7703469,28.4822319 C51.571496,28.735997 51.270438,28.8837209 50.9521211,28.8837209 L19.2041979,28.8837209 C18.6254917,28.8837209 18.1563576,28.4047697 18.1563576,27.8139535 C18.1563576,27.4889756 18.3010536,27.1816176 18.5496173,26.9786055 L23.4209365,23 L46.7353825,23 Z" id="Combined-Shape" fill="#4A4A4A" fill-rule="nonzero"></path>
                </g>
            </g>
        </g>
    </g>
</svg>