<svg width="72" height="82" viewBox="0 0 72 82" fill="none" xmlns="http://www.w3.org/2000/svg">
<path fill-rule="evenodd" clip-rule="evenodd" d="M62.509 60.8589C63.3497 60.1279 63.7701 59.7624 63.9212 59.317C64.0536 58.9267 64.0536 58.4949 63.9212 58.1047C63.7701 57.6593 63.3497 57.2938 62.509 56.5628L55.3435 50.3324C54.1025 49.2534 53.482 48.7139 52.9615 48.721C52.5087 48.7271 52.0825 48.964 51.802 49.3656C51.4795 49.8271 51.4795 50.7116 51.4795 52.4805V55.9052C46.9795 55.9052 43.9372 54.1791 41.3749 51.2144C38.8092 48.2458 36.8018 44.2456 34.5284 39.7152C34.3332 39.3263 34.1361 38.9334 33.9364 38.5369C31.4957 33.6898 28.7176 28.3953 24.7131 24.3601C20.6059 20.2214 15.2976 17.4841 7.97952 17.4841V23.1316C14.0398 23.1316 18.1707 25.3358 21.3845 28.5743C24.518 31.7318 26.8554 35.9394 29.1826 40.5227C26.8953 44.8116 24.566 48.744 21.4926 51.7179C18.2388 54.8663 14.0626 57.0166 7.97952 57.0166V62.6641C15.2748 62.6641 20.6003 60.0178 24.7456 56.0067C27.7037 53.1444 30.0114 49.6287 32.0059 46.1046C33.7012 49.3598 35.5548 52.5651 37.797 55.1594C41.179 59.0725 45.4795 61.554 51.4795 61.554V64.9412C51.4795 66.7101 51.4795 67.5946 51.802 68.0561C52.0825 68.4577 52.5087 68.6946 52.9615 68.7007C53.482 68.7078 54.1025 68.1683 55.3435 67.0893L62.509 60.8589ZM62.509 20.4188L62.509 20.4188L55.3435 14.1885C54.1025 13.1094 53.482 12.5699 52.9615 12.577C52.5087 12.5831 52.0825 12.82 51.802 13.2216C51.4795 13.6831 51.4795 14.5676 51.4795 16.3365V19.7431C45.4795 19.7431 41.4987 22.0221 38.0286 25.9441C36.0003 28.2364 34.2775 31.0244 32.695 33.8911C33.4886 35.3647 34.2344 36.8335 34.9556 38.2539L35.0232 38.3869C35.2046 38.7441 35.3842 39.0979 35.5625 39.4479C37.522 35.7262 39.3406 32.4504 41.5652 29.9362C44.18 26.981 46.9795 25.3906 51.4795 25.3906V28.7972C51.4795 30.5661 51.4795 31.4506 51.802 31.9121C52.0825 32.3137 52.5087 32.5506 52.9615 32.5567C53.482 32.5638 54.1025 32.0243 55.3435 30.9453L62.509 24.7149C63.3497 23.9839 63.7701 23.6184 63.9212 23.173C64.0536 22.7828 64.0536 22.351 63.9212 21.9607C63.7701 21.5153 63.3497 21.1498 62.5091 20.4188L62.509 20.4188Z" fill="#3F4549"/>
</svg>
