<svg width="72" height="72" viewBox="0 0 72 72" fill="none" xmlns="http://www.w3.org/2000/svg">
<path fill-rule="evenodd" clip-rule="evenodd" d="M62.509 53.8812C63.3498 53.2341 63.7701 52.9105 63.9212 52.5161C64.0536 52.1706 64.0536 51.7883 63.9212 51.4428C63.7701 51.0484 63.3497 50.7249 62.509 50.0777L55.3435 44.5617C54.1025 43.6063 53.482 43.1287 52.9615 43.1349C52.5087 43.1404 52.0825 43.3501 51.802 43.7056C51.4795 44.1143 51.4795 44.8973 51.4795 46.4634V49.4955C46.9795 49.4955 43.9372 47.9673 41.3749 45.3425C38.8092 42.7143 36.8018 39.1727 34.5284 35.1617C34.3332 34.8174 34.1361 34.4695 33.9364 34.1185C31.4957 29.8271 28.7176 25.1397 24.7131 21.5671C20.6059 17.9029 15.2976 15.4795 7.97952 15.4795V20.4795C14.0398 20.4795 18.1707 22.431 21.3845 25.2981C24.518 28.0936 26.8554 31.8188 29.1826 35.8766C26.8953 39.6738 24.566 43.1553 21.4926 45.7883C18.2388 48.5757 14.0626 50.4795 7.97952 50.4795V55.4795C15.2748 55.4795 20.6003 53.1366 24.7456 49.5854C27.7037 47.0512 30.0114 43.9386 32.0059 40.8186C33.7012 43.7005 35.5548 46.5383 37.797 48.8352C41.179 52.2996 45.4795 54.4966 51.4795 54.4966V57.4955C51.4795 59.0616 51.4795 59.8446 51.802 60.2533C52.0825 60.6088 52.5087 60.8186 52.9615 60.824C53.482 60.8302 54.1025 60.3526 55.3435 59.3973L62.509 53.8812ZM62.5091 18.0777L62.509 18.0777L55.3435 12.5617L55.3435 12.5617C54.1025 11.6064 53.482 11.1287 52.9615 11.1349C52.5087 11.1404 52.0825 11.3501 51.802 11.7056C51.4795 12.1143 51.4795 12.8973 51.4795 14.4634V17.4795C45.4795 17.4795 41.4987 19.4972 38.0286 22.9695C36.0003 24.999 34.2775 27.4674 32.695 30.0053C33.4887 31.31 34.2345 32.6104 34.9556 33.868L35.0232 33.9857C35.2046 34.302 35.3842 34.6152 35.5625 34.9251C37.522 31.63 39.3406 28.7299 41.5652 26.5039C44.18 23.8875 46.9795 22.4795 51.4795 22.4795V25.4955C51.4795 27.0616 51.4795 27.8447 51.802 28.2533C52.0825 28.6088 52.5087 28.8186 52.9615 28.824C53.482 28.8302 54.1025 28.3526 55.3435 27.3973L55.3435 27.3973L62.509 21.8812C63.3497 21.2341 63.7701 20.9105 63.9212 20.5162C64.0536 20.1706 64.0536 19.7883 63.9212 19.4428C63.7701 19.0485 63.3498 18.7249 62.5091 18.0777L62.5091 18.0777Z" fill="#3F4549"/>
</svg>
