<svg width="72" height="72" viewBox="0 0 72 72" fill="none" xmlns="http://www.w3.org/2000/svg">
<path fill-rule="evenodd" clip-rule="evenodd" d="M48.9735 62.7041C51.2692 64.4044 54.1106 65.41 57.1868 65.41C64.8156 65.41 71 59.2256 71 51.5968C71 43.9679 64.8156 37.7835 57.1868 37.7835C49.5579 37.7835 43.3735 43.9679 43.3735 51.5968C43.3735 54.673 44.3791 57.5143 46.0794 59.81L39.4776 66.4119C37.2385 68.6509 40.1326 71.545 42.3717 69.3059L48.9735 62.7041ZM47.0106 51.5968C47.0106 57.2169 51.5666 61.7729 57.1868 61.7729C62.8069 61.7729 67.3629 57.2169 67.3629 51.5968C67.3629 45.9766 62.8069 41.4206 57.1868 41.4206C51.5666 41.4206 47.0106 45.9766 47.0106 51.5968Z" fill="#4A4A4A"/>
<path fill-rule="evenodd" clip-rule="evenodd" d="M19.1186 17C18.1675 17 17.2715 17.4241 16.6988 18.1454L7.61108 29.5902C7.21451 30.0896 7 30.6982 7 31.3237V45.1141C7 49.7816 8.35699 51.2317 13.0619 51.2317H40.4083C40.5904 42.6998 47.1396 35.7351 55.4949 34.8987V31.3237C55.4949 30.6982 55.2804 30.0896 54.8838 29.5902L45.7961 18.1454C45.2234 17.4241 44.3274 17 43.3762 17H19.1186ZM20.2813 19.8789H42.2136C42.9244 19.8789 43.5933 20.7533 44.0226 21.3144L50.5109 29.7883C50.693 30.0261 50.5141 30.3598 50.2045 30.3598H12.2904C11.9808 30.3598 11.8019 30.0261 11.984 29.7883L18.4723 21.3144C18.9016 20.7533 19.5704 19.8789 20.2813 19.8789Z" fill="#4A4A4A"/>
</svg>
