<svg width="72" height="72" viewBox="0 0 72 72" fill="none" xmlns="http://www.w3.org/2000/svg">
<path fill-rule="evenodd" clip-rule="evenodd" d="M18.8141 17C17.8869 17 17.0134 17.4134 16.4551 18.1166L7.59573 29.2739C7.20912 29.7608 7 30.354 7 30.9638V44.4077C7 48.958 8.3229 50.3716 12.9095 50.3716H42.5146L50.0114 37.2554C50.9507 35.6122 52.5433 34.5695 54.2764 34.2842V30.9638C54.2764 30.354 54.0673 29.7608 53.6807 29.2739L44.8213 18.1166C44.263 17.4134 43.3895 17 42.4623 17H18.8141ZM19.9476 19.8065H41.3288C42.0218 19.8065 42.6739 20.659 43.0924 21.206L49.4176 29.467C49.5952 29.6988 49.4208 30.0241 49.1189 30.0241H12.1575C11.8556 30.0241 11.6812 29.6988 11.8588 29.467L18.184 21.206C18.6025 20.659 19.2546 19.8065 19.9476 19.8065Z" fill="#4A4A4A"/>
<path fill-rule="evenodd" clip-rule="evenodd" d="M52.5244 39.6566C52.9306 38.946 53.564 38.4539 54.2764 38.2202C55.0958 37.9515 56.0196 38.0247 56.8222 38.5004C57.2924 38.7792 57.6836 39.1776 57.9573 39.6566L70.4303 61.4789C71.5948 63.5161 70.9171 66.1291 68.9168 67.315C68.2766 67.6945 67.5491 67.8945 66.8084 67.8945H43.6733C41.3588 67.8945 39.4824 65.9835 39.4824 63.6262C39.4824 62.8718 39.6787 62.1309 40.0514 61.4789L52.5244 39.6566ZM54.0677 56.3478C54.0677 57.2588 54.4589 57.9352 55.2412 57.9352C56.0235 57.9352 56.4146 57.2588 56.4146 56.3478L56.8122 47.5503C56.8122 46.6393 56.1087 45.9008 55.2409 45.9008C54.8685 45.9008 54.5264 46.0367 54.2571 46.2639C53.8988 46.5662 53.6695 47.0302 53.6695 47.5503L54.0677 56.3478ZM57.336 62.396C57.336 63.6107 56.398 64.5954 55.2409 64.5954C54.0837 64.5954 53.1457 63.6107 53.1457 62.396C53.1457 61.1814 54.0837 60.1967 55.2409 60.1967C56.398 60.1967 57.336 61.1814 57.336 62.396Z" fill="#4A4A4A"/>
</svg>
