<svg width="72" height="72" viewBox="0 0 72 72" fill="none" xmlns="http://www.w3.org/2000/svg">
<path fill-rule="evenodd" clip-rule="evenodd" d="M21.9941 16C20.8958 16 19.8611 16.4897 19.1998 17.3226L8.70566 30.5387C8.24771 31.1154 8 31.8181 8 32.5405V48.465C8 53.855 9.567 55.5294 15 55.5294H57C62.433 55.5294 64 53.855 64 48.465V32.5405C64 31.8181 63.7523 31.1154 63.2943 30.5387L52.8002 17.3226C52.1389 16.4897 51.1042 16 50.0059 16H21.9941ZM23.3367 19.3244H48.6633C49.5031 19.3244 50.2923 20.3814 50.7862 21.0265L58.2447 30.7674C58.455 31.0421 58.2484 31.4274 57.8909 31.4274H14.1091C13.7516 31.4274 13.545 31.0421 13.7553 30.7674L21.2138 21.0265C21.7077 20.3814 22.4969 19.3244 23.3367 19.3244Z" fill="#4A4A4A"/>
</svg>
