<svg width="73" height="72" viewBox="0 0 73 72" fill="none" xmlns="http://www.w3.org/2000/svg">
<path fill-rule="evenodd" clip-rule="evenodd" d="M49.4735 62.7041C51.7692 64.4044 54.6106 65.41 57.6868 65.41C65.3156 65.41 71.5 59.2256 71.5 51.5968C71.5 43.9679 65.3156 37.7835 57.6868 37.7835C50.0579 37.7835 43.8735 43.9679 43.8735 51.5968C43.8735 54.673 44.8791 57.5143 46.5794 59.81L39.9776 66.4119C37.7385 68.6509 40.6326 71.545 42.8717 69.3059L49.4735 62.7041ZM47.5106 51.5968C47.5106 57.2169 52.0666 61.7729 57.6868 61.7729C63.3069 61.7729 67.8629 57.2169 67.8629 51.5968C67.8629 45.9766 63.3069 41.4206 57.6868 41.4206C52.0666 41.4206 47.5106 45.9766 47.5106 51.5968Z" fill="#3F4549"/>
<path fill-rule="evenodd" clip-rule="evenodd" d="M19.6186 17C18.6675 17 17.7715 17.4241 17.1988 18.1454L8.11108 29.5902C7.71451 30.0896 7.5 30.6982 7.5 31.3237V45.1141C7.5 49.7816 8.85699 51.2317 13.5619 51.2317H40.9083C41.0904 42.6998 47.6396 35.7351 55.9949 34.8987V31.3237C55.9949 30.6982 55.7804 30.0896 55.3838 29.5902L46.2961 18.1454C45.7234 17.4241 44.8274 17 43.8762 17H19.6186ZM20.7813 19.8789H42.7136C43.4244 19.8789 44.0933 20.7533 44.5226 21.3144L51.0109 29.7883C51.193 30.0261 51.0141 30.3598 50.7045 30.3598H12.7904C12.4808 30.3598 12.3019 30.0261 12.484 29.7883L18.9723 21.3144C19.4016 20.7533 20.0704 19.8789 20.7813 19.8789Z" fill="#3F4549"/>
</svg>
