<svg width="72" height="72" viewBox="0 0 72 72" fill="none" xmlns="http://www.w3.org/2000/svg">
<path d="M56.0703 16.4882C55.4317 15.8373 54.3963 15.8373 53.7576 16.4882C53.119 17.1391 53.119 18.1944 53.7576 18.8453C63.0533 28.3196 63.0533 43.6804 53.7576 53.1547C53.119 53.8056 53.119 54.8609 53.7576 55.5118C54.3963 56.1627 55.4317 56.1627 56.0703 55.5118C66.6432 44.7357 66.6432 27.2643 56.0703 16.4882Z" fill="#3F4549"/>
<path d="M48.6184 21.7263C49.257 21.0753 50.2925 21.0753 50.9311 21.7263C58.6656 29.6094 58.6656 42.3906 50.9311 50.2737C50.2925 50.9246 49.257 50.9246 48.6184 50.2737C47.9798 49.6228 47.9798 48.5675 48.6184 47.9166C55.0757 41.3353 55.0757 30.6647 48.6184 24.0834C47.9798 23.4325 47.9798 22.3772 48.6184 21.7263Z" fill="#3F4549"/>
<path d="M45.7917 26.9643C45.153 26.3134 44.1176 26.3134 43.479 26.9643C42.8403 27.6152 42.8403 28.6706 43.479 29.3215C47.0979 33.0099 47.0979 38.9901 43.479 42.6785C42.8403 43.3294 42.8403 44.3848 43.479 45.0357C44.1176 45.6866 45.153 45.6866 45.7917 45.0357C50.6879 40.0454 50.6879 31.9546 45.7917 26.9643Z" fill="#3F4549"/>
<path d="M23 27L34.7276 18.0318C36.4928 16.6819 37.3755 16.007 38.1174 16.0506C38.6574 16.0823 39.1615 16.3314 39.5147 16.7411C40 17.3039 40 18.4151 40 20.6373V51.3626C40 53.5849 40 54.696 39.5147 55.2588C39.1615 55.6685 38.6574 55.9176 38.1174 55.9493C37.3755 55.993 36.4928 55.318 34.7276 53.9681L23 45H18.56C16.1686 45 14.973 45 14.073 44.5052C13.4078 44.1395 12.8604 43.5921 12.4948 42.927C12 42.027 12 40.8313 12 38.44V33.56C12 31.1686 12 29.9729 12.4948 29.0729C12.8604 28.4078 13.4078 27.8604 14.073 27.4947C14.973 27 16.1686 27 18.56 27H23Z" fill="#3F4549"/>
</svg>
