<svg width="72" height="72" viewBox="0 0 72 72" fill="none" xmlns="http://www.w3.org/2000/svg">
<path d="M38.649 16.1215L26.3507 25.715H21.6946C19.1868 25.715 17.9329 25.715 16.9892 26.2443C16.2916 26.6355 15.7176 27.221 15.3341 27.9326C14.8153 28.8953 14.8153 30.1744 14.8153 32.7325V37.9528C14.8153 40.5109 14.8153 41.7899 15.3341 42.7527C15.7176 43.4642 16.2916 44.0497 16.9892 44.4409C17.7741 44.8811 18.7736 44.9552 20.5305 44.9677L44.1781 24.3753V18.9087C44.1781 16.5315 44.1781 15.3429 43.6692 14.7408C43.2987 14.3026 42.7701 14.0361 42.2038 14.0021C41.4258 13.9555 40.5002 14.6775 38.649 16.1215Z" fill="#3F4549"/>
<path d="M31.7989 49.2201L44.1781 38.4403V51.7765C44.1781 54.1537 44.1781 55.3423 43.6692 55.9444C43.2987 56.3826 42.7701 56.6491 42.2038 56.6831C41.4258 56.7297 40.5002 56.0077 38.649 54.5637L31.7989 49.2201Z" fill="#3F4549"/>
<path d="M14.7357 54.2333C13.8547 55.0005 13.7502 56.3509 14.5022 57.2496C15.2543 58.1482 16.5781 58.2549 17.4591 57.4877L57.2643 22.8252C58.1453 22.0581 58.2498 20.7077 57.4978 19.809C56.7457 18.9103 55.4219 18.8037 54.5409 19.5708L14.7357 54.2333Z" fill="#3F4549"/>
</svg>
