<svg width="72" height="72" viewBox="0 0 72 72" fill="none" xmlns="http://www.w3.org/2000/svg">
<path fill-rule="evenodd" clip-rule="evenodd" d="M35.9999 8C43.1985 8 49.0341 13.7859 49.0341 20.9231H55.0631C56.8069 20.9231 57.6788 20.9231 58.3578 21.2534C58.9555 21.5442 59.4491 22.0096 59.772 22.5868C60.1388 23.2427 60.1826 24.106 60.2701 25.8328L61.9298 58.5713C62.0257 60.462 62.0736 61.4075 61.7322 62.1339C61.432 62.7724 60.9296 63.2962 60.3015 63.6254C59.5869 64 58.6322 64 56.7227 64H15.2773C13.3678 64 12.4131 64 11.6985 63.6254C11.0704 63.2962 10.568 62.7724 10.2678 62.1339C9.92642 61.4075 9.97435 60.4621 10.0702 58.5713L11.7299 25.8328C11.8174 24.106 11.8612 23.2427 12.228 22.5868C12.5509 22.0096 13.0445 21.5442 13.6422 21.2534C14.3212 20.9231 15.1931 20.9231 16.9369 20.9231L22.9658 20.9231C22.9658 13.7859 28.8014 8 35.9999 8ZM27.3105 20.9231L44.6894 20.9231C44.6894 16.1649 40.799 12.3077 35.9999 12.3077C31.2009 12.3077 27.3105 16.1649 27.3105 20.9231ZM25.6813 30.6154C27.181 30.6154 28.3967 29.41 28.3967 27.9231C28.3967 26.4362 27.181 25.2308 25.6813 25.2308C24.1816 25.2308 22.9658 26.4362 22.9658 27.9231C22.9658 29.41 24.1816 30.6154 25.6813 30.6154ZM49.0341 27.9231C49.0341 29.41 47.8183 30.6154 46.3186 30.6154C44.8189 30.6154 43.6032 29.41 43.6032 27.9231C43.6032 26.4362 44.8189 25.2308 46.3186 25.2308C47.8183 25.2308 49.0341 26.4362 49.0341 27.9231Z" fill="#3F4549"/>
</svg>
