<svg width="72" height="72" viewBox="0 0 72 72" fill="none" xmlns="http://www.w3.org/2000/svg">
<path fill-rule="evenodd" clip-rule="evenodd" d="M40.4667 8H56.4312C59.5846 8 61.1614 8 62.2667 8.80306C62.6237 9.06242 62.9376 9.37634 63.1969 9.73331C64 10.8386 64 12.4154 64 15.5688V31.5333C64 33.5926 64 34.6223 63.6913 35.5724C63.5892 35.8866 63.4626 36.1924 63.3125 36.4868C62.859 37.3769 62.1309 38.105 60.6747 39.5612L43.2615 56.9744C37.6869 62.549 34.8997 65.3363 31.5261 65.8706C30.4366 66.0431 29.3267 66.0431 28.2371 65.8706C24.8636 65.3363 22.0763 62.549 16.5018 56.9744L15.0255 55.4982C9.45103 49.9237 6.66374 47.1364 6.12942 43.7629C5.95686 42.6733 5.95686 41.5634 6.12942 40.4739C6.66374 37.1003 9.45101 34.3131 15.0256 28.7385L32.4388 11.3253C33.895 9.86908 34.6231 9.14099 35.5132 8.68746C35.8076 8.53745 36.1133 8.41081 36.4276 8.3087C37.3777 8 38.4074 8 40.4667 8ZM49.3217 27.4892C51.9772 27.4892 54.13 25.3364 54.13 22.6809C54.13 20.0253 51.9772 17.8726 49.3217 17.8726C46.6661 17.8726 44.5134 20.0253 44.5134 22.6809C44.5134 25.3364 46.6661 27.4892 49.3217 27.4892Z" fill="#4A4A4A"/>
</svg>
