<?xml version="1.0" encoding="UTF-8"?>
<svg width="21px" height="34px" viewBox="0 0 21 34" version="1.1" xmlns="http://www.w3.org/2000/svg" xmlns:xlink="http://www.w3.org/1999/xlink">
    <!-- Generator: sketchtool 63.1 (101010) - https://sketch.com -->
    <title>Elements/Icons/Timer1</title>
    <desc>Created with sketchtool.</desc>
    <g id="Icons" stroke="none" stroke-width="1" fill="none" fill-rule="evenodd">
        <g transform="translate(-104.000000, -628.000000)" id="Elements/Icons/Timer1">
            <g transform="translate(80.000000, 610.000000)">
                <g>
                    <polygon id="Rectangle" points="0 0 70 0 70 70 0 70"></polygon>
                    <g id="Group-3" transform="translate(24.000000, 18.000000)" fill="#4A4A4A" fill-rule="nonzero">
                        <path d="M10.5,-0.000432479192 C16.9049078,-0.000432479192 20.5,1.58563762 20.5,5.24956752 C20.5,8.17154622 17.8095528,11.8958817 12.4695543,16.7495807 C17.8095528,21.6036858 20.5,25.3280213 20.5,28.25 C20.5,31.9139299 16.9049078,33.5 10.5,33.5 C4.09509222,33.5 0.5,31.9139299 0.5,28.25 C0.5,25.327988 3.1905084,21.603601 8.53062807,16.7498211 C3.1905084,11.8959665 0.5,8.17157948 0.5,5.24956752 C0.5,1.58563762 4.09509222,-0.000432479192 10.5,-0.000432479192 Z M10.5,2.99956752 L9.83077465,3.00544944 C5.38335135,3.08549749 3.5,3.97564022 3.5,5.24956752 C3.5,6.98881212 5.70745313,10.0616799 10.1593551,14.1723497 L10.5,14.4855675 L11.1548213,13.8804994 C15.3964123,9.91610891 17.5,6.94740153 17.5,5.24956752 C17.5,3.91349742 15.4284256,2.99956752 10.5,2.99956752 Z" id="Combined-Shape"></path>
                    </g>
                </g>
            </g>
        </g>
    </g>
</svg>