<svg width="72" height="72" viewBox="0 0 72 72" fill="none" xmlns="http://www.w3.org/2000/svg">
<path d="M62.4736 19.3077L57.5707 50.4041C56.7933 55.3343 56.064 57.0574 54.8984 58.7735C53.7327 60.4896 52.194 61.7962 50.3053 62.6738C48.4166 63.5514 46.5885 64 41.56 64H30.4411C25.4126 64 23.5845 63.5514 21.6958 62.6738C19.8071 61.7962 18.2684 60.4896 17.1027 58.7735C15.9371 57.0574 15.2078 55.3343 14.4304 50.4041L9.52632 19.3077H62.4736ZM41.8482 29.0513L41.646 29.2298L36.0001 34.7426L30.3551 29.2298L30.1529 29.0513C29.1773 28.274 27.7691 28.274 26.7935 29.0513L26.5914 29.2298L26.4087 29.4272C25.613 30.3802 25.613 31.7558 26.4087 32.7088L26.5914 32.9063L32.235 38.4213L26.5914 43.9359C25.5521 44.9511 25.5521 46.5972 26.5914 47.6124C27.5658 48.5642 29.1077 48.6237 30.1529 47.7909L30.3551 47.6124L36.0001 42.0982L41.646 47.6124L41.8482 47.7909C42.8238 48.5682 44.232 48.5682 45.2076 47.7909L45.4097 47.6124L45.5924 47.415C46.3881 46.462 46.3881 45.0863 45.5924 44.1333L45.4097 43.9359L39.7635 38.4213L45.4097 32.9063C46.449 31.891 46.449 30.245 45.4097 29.2298C44.4353 28.278 42.8934 28.2185 41.8482 29.0513ZM56.0015 8C59.5749 8 62.5286 10.6331 63 14.0508L9 14.0514C9.41417 11.0656 11.7526 8.57421 14.9075 8.08429C15.2688 8.02818 15.6339 8 15.9996 8H56.0015Z" fill="#3F4549"/>
</svg>
