<?xml version="1.0" encoding="UTF-8"?>
<svg width="32px" height="32px" viewBox="0 0 32 32" version="1.1" xmlns="http://www.w3.org/2000/svg" xmlns:xlink="http://www.w3.org/1999/xlink">
    <!-- Generator: sketchtool 63.1 (101010) - https://sketch.com -->
    <title>Elements/Icons/Trash1</title>
    <desc>Created with sketchtool.</desc>
    <g id="Icons" stroke="none" stroke-width="1" fill="none" fill-rule="evenodd">
        <g transform="translate(-649.000000, -410.000000)" id="Elements/Icons/Trash1">
            <g transform="translate(630.000000, 390.000000)">
                <g>
                    <polygon id="Rectangle" points="0 0 70 0 70 70 0 70"></polygon>
                    <path d="M49.9901643,26.4993485 L47.2139195,44.2424109 C46.7737204,47.0555165 46.3608036,48.0386704 45.7007397,49.0178382 C45.0406759,49.997006 44.1693995,50.7425465 43.0999581,51.243295 C42.0305167,51.7440435 40.9953461,52 38.1480073,52 L31.8519927,52 C29.0046539,52 27.9694833,51.7440435 26.9000419,51.243295 C25.8306005,50.7425465 24.9593241,49.997006 24.2992603,49.0178382 C23.6391964,48.0386704 23.2262796,47.0555165 22.7860805,44.2424109 L20.0091643,26.4993485 L49.9901643,26.4993485 Z M38.3111639,32.0588626 L38.196714,32.1606896 L34.9997692,35.3062278 L31.803286,32.1606896 L31.6888361,32.0588626 C31.1364066,31.6153495 30.3390227,31.6153495 29.7865932,32.0588626 L29.6721433,32.1606896 L29.5686963,32.2733471 C29.1181269,32.817125 29.1181269,33.6020212 29.5686963,34.1457991 L29.6721433,34.2584566 L32.8677692,37.4052278 L29.6721433,40.5517576 C29.0836445,41.13104 29.0836445,42.0702423 29.6721433,42.6495246 C30.223861,43.1926019 31.0969474,43.2265442 31.6888361,42.7513516 L31.803286,42.6495246 L34.9997692,39.5032278 L38.196714,42.6495246 L38.3111639,42.7513516 C38.8635934,43.1948647 39.6609773,43.1948647 40.2134068,42.7513516 L40.3278567,42.6495246 L40.4313037,42.5368671 C40.8818731,41.9930892 40.8818731,41.2081931 40.4313037,40.6644151 L40.3278567,40.5517576 L37.1307692,37.4052278 L40.3278567,34.2584566 C40.9163555,33.6791742 40.9163555,32.7399719 40.3278567,32.1606896 C39.776139,31.6176124 38.9030526,31.58367 38.3111639,32.0588626 Z M46.3253971,20.0473485 C48.3488105,20.0473485 50.02132,21.5497466 50.2882392,23.4998565 L19.7111389,23.5001845 C19.9456618,21.7965533 21.2697634,20.3749847 23.0562022,20.09544 C23.2607803,20.0634273 23.4675353,20.0473485 23.6746029,20.0473485 L46.3253971,20.0473485 Z" id="Combined-Shape" fill="#4A4A4A" fill-rule="nonzero"></path>
                </g>
            </g>
        </g>
    </g>
</svg>