<svg width="72" height="72" viewBox="0 0 72 72" fill="none" xmlns="http://www.w3.org/2000/svg">
<path d="M18 7.12214C18 6.20538 18 5.747 18.2857 5.45539C18.5715 5.16378 19.0261 5.15452 19.9354 5.136C22.58 5.08213 27.9348 5 36 5C44.0652 5 49.42 5.08213 52.0646 5.136C52.9739 5.15452 53.4285 5.16378 53.7143 5.45539C54 5.747 54 6.20538 54 7.12214V13.0107C51.5749 11.3325 48.9195 11.2495 45.4554 11.1412L45.0847 11.1296C42.6089 11.0508 39.6124 11 36.0003 11C32.3872 11 29.3903 11.0508 26.9142 11.1296L26.5439 11.1413C23.0802 11.2496 20.4253 11.3326 18 13.012V7.12214Z" fill="#3F4549"/>
<path d="M13.4741 25H12C11.4477 25 11 25.4477 11 26V32C11 32.5523 11.4477 33 12 33H13.1249C13.2326 29.9191 13.3524 27.2659 13.4741 25Z" fill="#3F4549"/>
<path d="M15.6361 64.9811C15.6201 64.4255 15.6083 63.8634 15.6059 63.3626C15.9804 63.4114 16.3995 63.4163 16.7446 63.4203L16.8195 63.4212C18.0697 63.4367 19.8708 63.458 21.9495 63.4798C21.9459 63.9502 21.9348 64.4685 21.92 64.9812C21.8796 66.3848 21.8594 67.0865 21.404 67.5372L21.3828 67.5578C20.9192 68 20.2055 68 18.7781 68C17.3506 68 16.6368 68 16.1732 67.5578L16.152 67.5372C15.6967 67.0865 15.6765 66.3847 15.6361 64.9811Z" fill="#3F4549"/>
<path d="M50.2023 63.4782C50.2059 63.949 50.217 64.4679 50.2318 64.9811C50.2722 66.3847 50.2924 67.0865 50.7477 67.5372L50.7689 67.5578C51.2326 68 51.9463 68 53.3738 68C54.8012 68 55.5149 68 55.9785 67.5578L55.9997 67.5372C56.4551 67.0865 56.4753 66.3848 56.5157 64.9812C56.5319 64.4173 56.5438 63.8465 56.546 63.3401C56.5192 63.3446 56.4928 63.3487 56.4669 63.3526C56.0748 63.4108 55.6235 63.4161 55.256 63.4203L55.1811 63.4212C53.9612 63.4363 52.2171 63.457 50.2023 63.4782Z" fill="#3F4549"/>
<path d="M60 33H58.8761C58.7687 29.9191 58.649 27.2659 58.5274 25H60C60.5523 25 61 25.4477 61 26V32C61 32.5523 60.5523 33 60 33Z" fill="#3F4549"/>
<path fill-rule="evenodd" clip-rule="evenodd" d="M36.0003 13C32.4058 13 29.4302 13.0505 26.9779 13.1286C22.5473 13.2697 20.3321 13.3402 18.1063 15.5147C15.8805 17.6892 15.7531 19.9948 15.4985 24.606C15.3193 27.8517 15.142 31.9395 15.0005 37C14.6602 49.1647 14.8068 56.4126 14.9178 59.5515C14.9483 60.4143 14.9635 60.8456 15.2498 61.1254C15.5361 61.4052 15.9721 61.4106 16.8442 61.4214C20.6829 61.4689 29.6989 61.5714 36.0003 61.5714C42.3017 61.5714 51.3176 61.4689 55.1563 61.4214C56.0285 61.4106 56.4645 61.4052 56.7508 61.1254C57.0371 60.8456 57.0524 60.4142 57.0828 59.5514C57.1937 56.4124 57.3402 49.1645 57.0004 37C56.8591 31.9416 56.6822 27.855 56.5033 24.6099C56.2489 19.9964 56.1218 17.6896 53.8959 15.5149C51.67 13.3402 49.4537 13.2696 45.021 13.1286C42.569 13.0505 39.5939 13 36.0003 13ZM18.2704 27.4624C18.3695 24.8754 18.419 23.5819 19.2522 22.7501C20.0853 21.9183 21.3775 21.8709 23.9617 21.7762C27.5913 21.6431 32.344 21.5 36.0001 21.5C39.6562 21.5 44.4089 21.6431 48.0386 21.7762C50.6228 21.8709 51.9149 21.9183 52.7481 22.7501C53.5812 23.5819 53.6308 24.8754 53.7298 27.4624C53.7766 28.6841 53.8205 29.9329 53.8501 31C53.8915 32.4895 53.9247 34.333 53.9493 35.9628C53.9779 37.8589 53.9922 38.807 53.4046 39.4035C52.8171 40 51.8653 40 49.9618 40H22.0385C20.1349 40 19.1832 40 18.5956 39.4035C18.008 38.807 18.0223 37.859 18.0509 35.9628C18.0755 34.333 18.1088 32.4895 18.1501 31C18.1798 29.9329 18.2237 28.6842 18.2704 27.4624ZM18.276 58.6066C17.9849 58.3235 17.9724 57.8732 17.9473 56.9726C17.9284 56.2957 17.9127 55.5521 17.9126 54.9433C17.9125 54.336 17.9277 53.5946 17.9463 52.919C17.9711 52.0163 17.9835 51.5649 18.2753 51.2815C18.5672 50.9982 19.0258 50.9991 19.9431 51.0009C20.8133 51.0027 21.2484 51.0035 21.5349 51.2682C21.8214 51.5328 21.8562 51.9598 21.9258 52.8139C21.9831 53.5178 22.0421 54.3073 22.0759 54.9475C22.1063 55.5238 22.1291 56.221 22.1457 56.8679C22.1701 57.8134 22.1822 58.2862 21.8878 58.5883C21.5933 58.8903 21.1159 58.8902 20.1611 58.89L19.931 58.89C19.0217 58.8898 18.567 58.8897 18.276 58.6066ZM54.2523 56.9726C54.2271 57.8732 54.2146 58.3235 53.9235 58.6066C53.6325 58.8897 53.1778 58.8898 52.2685 58.89L52.0384 58.89C51.0836 58.8902 50.6062 58.8903 50.3118 58.5883C50.0173 58.2862 50.0295 57.8134 50.0538 56.8679C50.0704 56.221 50.0932 55.5238 50.1236 54.9475C50.1574 54.3073 50.2164 53.5178 50.2737 52.8139C50.3433 51.9598 50.3781 51.5328 50.6646 51.2682C50.9511 51.0035 51.3862 51.0027 52.2564 51.0009C53.1737 50.9991 53.6324 50.9982 53.9242 51.2815C54.216 51.5649 54.2284 52.0163 54.2532 52.919C54.2718 53.5946 54.287 54.336 54.2869 54.9433C54.2868 55.5521 54.2711 56.2957 54.2523 56.9726ZM27.0425 48C26.6825 48 26.5024 48 26.366 47.9237C26.2765 47.8737 26.2013 47.8016 26.1476 47.7142C26.0658 47.5811 26.0583 47.4012 26.0434 47.0415C26.0273 46.6537 26.0192 46.4598 26.0979 46.3145C26.1493 46.2194 26.2255 46.1399 26.3184 46.0846C26.4603 46 26.6544 46 27.0425 46H44.9578C45.3459 46 45.54 46 45.6819 46.0846C45.7748 46.1399 45.851 46.2194 45.9024 46.3145C45.9811 46.4598 45.973 46.6537 45.9569 47.0414C45.942 47.4012 45.9345 47.5811 45.8527 47.7142C45.799 47.8016 45.7238 47.8737 45.6343 47.9237C45.4979 48 45.3178 48 44.9578 48H27.0425ZM26.5734 52.9237C26.7099 53 26.8899 53 27.25 53H44.7503C45.1104 53 45.2904 53 45.4269 52.9237C45.5163 52.8737 45.5915 52.8016 45.6452 52.7142C45.7271 52.5811 45.7345 52.4012 45.7495 52.0415C45.7656 51.6537 45.7736 51.4598 45.695 51.3145C45.6435 51.2194 45.5673 51.1399 45.4744 51.0846C45.3325 51 45.1384 51 44.7503 51H27.25C26.8619 51 26.6678 51 26.5259 51.0846C26.433 51.1399 26.3568 51.2194 26.3053 51.3145C26.2267 51.4598 26.2347 51.6537 26.2508 52.0415C26.2658 52.4012 26.2732 52.5811 26.3551 52.7142C26.4088 52.8016 26.484 52.8737 26.5734 52.9237ZM26.7809 57.9237C26.9174 58 27.0974 58 27.4574 58H44.5429C44.9029 58 45.0829 58 45.2194 57.9237C45.3089 57.8737 45.384 57.8016 45.4377 57.7142C45.5196 57.5811 45.5271 57.4012 45.542 57.0414C45.5581 56.6537 45.5661 56.4598 45.4875 56.3145C45.4361 56.2194 45.3598 56.1399 45.267 56.0846C45.125 56 44.931 56 44.5429 56H27.4574C27.0693 56 26.8753 56 26.7333 56.0846C26.6405 56.1399 26.5642 56.2194 26.5128 56.3145C26.4342 56.4598 26.4422 56.6537 26.4583 57.0414C26.4732 57.4012 26.4807 57.5811 26.5626 57.7142C26.6163 57.8016 26.6914 57.8737 26.7809 57.9237Z" fill="#3F4549"/>
</svg>
