<svg width="72" height="72" viewBox="0 0 72 72" fill="none" xmlns="http://www.w3.org/2000/svg">
<path d="M17 7.12214C17 6.20538 17 5.747 17.2857 5.45539C17.5715 5.16378 18.0261 5.15452 18.9354 5.136C21.58 5.08213 26.9348 5 36 5C44.0652 5 50.42 5.08213 53.0646 5.136C53.9739 5.15452 54.4285 5.16378 54.7143 5.45539C55 5.747 55 6.20538 55 7.12214V13.0107C52.5749 11.3325 49.9195 11.2495 46.4554 11.1412L46.0847 11.1296C43.6089 11.0508 39.6124 11 36.0003 11C31.3872 11 28.3903 11.0508 25.9142 11.1296L25.5439 11.1413C22.0802 11.2496 19.4253 11.3326 17 13.012V7.12214Z" fill="#3F4549"/>
<path d="M12.4741 25H11C10.4477 25 10 25.4477 10 26V32C10 32.5523 10.4477 33 11 33H12.1249C12.2326 29.9191 12.3524 27.2659 12.4741 25Z" fill="#3F4549"/>
<path d="M14.6361 64.9811C14.6201 64.4255 14.6083 63.8634 14.6059 63.3626C14.9804 63.4114 15.3995 63.4163 15.7446 63.4203L15.8195 63.4212C17.0697 63.4367 18.8708 63.458 20.9495 63.4798C20.9459 63.9502 20.9348 64.4685 20.92 64.9812C20.8796 66.3848 20.8594 67.0865 20.404 67.5372L20.3828 67.5578C19.9192 68 19.2055 68 17.7781 68C16.3506 68 15.6368 68 15.1732 67.5578L15.152 67.5372C14.6967 67.0865 14.6765 66.3847 14.6361 64.9811Z" fill="#3F4549"/>
<path d="M51.2023 63.4782C51.2059 63.949 51.217 64.4679 51.2318 64.9811C51.2722 66.3847 51.2924 67.0865 51.7477 67.5372L51.7689 67.5578C52.2326 68 52.9463 68 54.3738 68C55.8012 68 56.5149 68 56.9785 67.5578L56.9997 67.5372C57.4551 67.0865 57.4753 66.3848 57.5157 64.9812C57.5319 64.4173 57.5438 63.8465 57.546 63.3401C57.5192 63.3446 57.4928 63.3487 57.4669 63.3526C57.0748 63.4108 56.6235 63.4161 56.256 63.4203L56.1811 63.4212C54.9612 63.4363 53.2171 63.457 51.2023 63.4782Z" fill="#3F4549"/>
<path d="M61 33H59.8761C59.7687 29.9191 59.649 27.2659 59.5274 25H61C61.5523 25 62 25.4477 62 26V32C62 32.5523 61.5523 33 61 33Z" fill="#3F4549"/>
<path fill-rule="evenodd" clip-rule="evenodd" d="M36.0003 13C31.4058 13 28.4302 13.0505 25.9779 13.1286C21.5473 13.2697 19.3321 13.3402 17.1063 15.5147C14.8805 17.6892 14.7531 19.9948 14.4985 24.606C14.3193 27.8517 14.142 31.9395 14.0005 37C13.6602 49.1647 13.8068 56.4126 13.9178 59.5515C13.9483 60.4143 13.9635 60.8456 14.2498 61.1254C14.5361 61.4052 14.9721 61.4106 15.8442 61.4214C19.6829 61.4689 28.6989 61.5714 36.0003 61.5714C42.3017 61.5714 52.3176 61.4689 56.1563 61.4214C57.0285 61.4106 57.4645 61.4052 57.7508 61.1254C58.0371 60.8456 58.0524 60.4142 58.0828 59.5514C58.1937 56.4124 58.3402 49.1645 58.0004 37C57.8591 31.9416 57.6822 27.855 57.5033 24.6099C57.2489 19.9964 57.1218 17.6896 54.8959 15.5149C52.67 13.3402 50.4537 13.2696 46.021 13.1286C43.569 13.0505 39.5939 13 36.0003 13ZM17.2704 27.4624C17.3695 24.8754 17.419 23.5819 18.2522 22.7501C19.0853 21.9183 20.3775 21.8709 22.9617 21.7762C26.5913 21.6431 31.344 21.5 36.0001 21.5C39.6562 21.5 45.4089 21.6431 49.0386 21.7762C51.6228 21.8709 52.9149 21.9183 53.7481 22.7501C54.5812 23.5819 54.6308 24.8754 54.7298 27.4624C54.7766 28.6841 54.8205 29.9329 54.8501 31C54.8915 32.4895 54.9247 34.333 54.9493 35.9628C54.9779 37.8589 54.9922 38.807 54.4046 39.4035C53.8171 40 52.8653 40 50.9618 40H21.0385C19.1349 40 18.1832 40 17.5956 39.4035C17.008 38.807 17.0223 37.859 17.0509 35.9628C17.0755 34.333 17.1088 32.4895 17.1501 31C17.1798 29.9329 17.2237 28.6842 17.2704 27.4624ZM17.276 58.6066C16.9849 58.3235 16.9724 57.8732 16.9473 56.9726C16.9284 56.2957 16.9127 55.5521 16.9126 54.9433C16.9125 54.336 16.9277 53.5946 16.9463 52.919C16.9711 52.0163 16.9835 51.5649 17.2753 51.2815C17.5672 50.9982 18.0258 50.9991 18.9431 51.0009C19.8133 51.0027 20.2484 51.0035 20.5349 51.2682C20.8214 51.5328 20.8562 51.9598 20.9258 52.8139C20.9831 53.5178 21.0421 54.3073 21.0759 54.9475C21.1063 55.5238 21.1291 56.221 21.1457 56.8679C21.1701 57.8134 21.1822 58.2862 20.8878 58.5883C20.5933 58.8903 20.1159 58.8902 19.1611 58.89L18.931 58.89C18.0217 58.8898 17.567 58.8897 17.276 58.6066ZM55.2523 56.9726C55.2271 57.8732 55.2146 58.3235 54.9235 58.6066C54.6325 58.8897 54.1778 58.8898 53.2685 58.89L53.0384 58.89C52.0836 58.8902 51.6062 58.8903 51.3118 58.5883C51.0173 58.2862 51.0295 57.8134 51.0538 56.8679C51.0704 56.221 51.0932 55.5238 51.1236 54.9475C51.1574 54.3073 51.2164 53.5178 51.2737 52.8139C51.3433 51.9598 51.3781 51.5328 51.6646 51.2682C51.9511 51.0035 52.3862 51.0027 53.2564 51.0009C54.1737 50.9991 54.6324 50.9982 54.9242 51.2815C55.216 51.5649 55.2284 52.0163 55.2532 52.919C55.2718 53.5946 55.287 54.336 55.2869 54.9433C55.2868 55.5521 55.2711 56.2957 55.2523 56.9726ZM26.0425 48C25.6825 48 25.5024 48 25.366 47.9237C25.2765 47.8737 25.2013 47.8016 25.1476 47.7142C25.0658 47.5811 25.0583 47.4012 25.0434 47.0415C25.0273 46.6537 25.0192 46.4598 25.0979 46.3145C25.1493 46.2194 25.2255 46.1399 25.3184 46.0846C25.4603 46 25.6544 46 26.0425 46H45.9578C46.3459 46 46.54 46 46.6819 46.0846C46.7748 46.1399 46.851 46.2194 46.9024 46.3145C46.9811 46.4598 46.973 46.6537 46.9569 47.0414C46.942 47.4012 46.9345 47.5811 46.8527 47.7142C46.799 47.8016 46.7238 47.8737 46.6343 47.9237C46.4979 48 46.3178 48 45.9578 48H26.0425ZM25.5734 52.9237C25.7099 53 25.8899 53 26.25 53H45.7503C46.1104 53 46.2904 53 46.4269 52.9237C46.5163 52.8737 46.5915 52.8016 46.6452 52.7142C46.7271 52.5811 46.7345 52.4012 46.7495 52.0415C46.7656 51.6537 46.7736 51.4598 46.695 51.3145C46.6435 51.2194 46.5673 51.1399 46.4744 51.0846C46.3325 51 46.1384 51 45.7503 51H26.25C25.8619 51 25.6678 51 25.5259 51.0846C25.433 51.1399 25.3568 51.2194 25.3053 51.3145C25.2267 51.4598 25.2347 51.6537 25.2508 52.0415C25.2658 52.4012 25.2732 52.5811 25.3551 52.7142C25.4088 52.8016 25.484 52.8737 25.5734 52.9237ZM25.7809 57.9237C25.9174 58 26.0974 58 26.4574 58H45.5429C45.9029 58 46.0829 58 46.2194 57.9237C46.3089 57.8737 46.384 57.8016 46.4377 57.7142C46.5196 57.5811 46.5271 57.4012 46.542 57.0414C46.5581 56.6537 46.5661 56.4598 46.4875 56.3145C46.4361 56.2194 46.3598 56.1399 46.267 56.0846C46.125 56 45.931 56 45.5429 56H26.4574C26.0693 56 25.8753 56 25.7333 56.0846C25.6405 56.1399 25.5642 56.2194 25.5128 56.3145C25.4342 56.4598 25.4422 56.6537 25.4583 57.0414C25.4732 57.4012 25.4807 57.5811 25.5626 57.7142C25.6163 57.8016 25.6914 57.8737 25.7809 57.9237Z" fill="#3F4549"/>
</svg>
