<svg width="72" height="72" viewBox="0 0 72 72" fill="none" xmlns="http://www.w3.org/2000/svg">
<path d="M27.4651 14.8125C26.5784 14.5618 25.4936 15.2849 23.3241 16.7313L12.493 23.952C10.7017 25.1462 9.80602 25.7433 9.64404 26.5568C9.59269 26.8146 9.59269 27.0801 9.64404 27.338C9.80602 28.1514 10.7017 28.7485 12.493 29.9428L23.3241 37.1635C25.4936 38.6098 26.5784 39.333 27.4651 39.0823C27.7432 39.0037 28.0009 38.8657 28.2206 38.678C28.921 38.0792 28.921 36.7755 28.921 34.1681V29.5H48C53.2467 29.5 57.5 33.7533 57.5 39C57.5 44.2467 53.2467 48.5 48 48.5H37.8214C36.4407 48.5 35.3214 49.6193 35.3214 51C35.3214 52.3807 36.4407 53.5 37.8214 53.5H48C56.0081 53.5 62.5 47.0081 62.5 39C62.5 30.9919 56.0081 24.5 48 24.5H28.921V19.7267C28.921 17.1192 28.921 15.8155 28.2206 15.2168C28.0009 15.029 27.7432 14.8911 27.4651 14.8125Z" fill="#4A4A4A"/>
</svg>
