<svg width="73" height="72" viewBox="0 0 73 72" fill="none" xmlns="http://www.w3.org/2000/svg">
<path d="M27.9651 14.8125C27.0784 14.5618 25.9936 15.2849 23.8241 16.7313L12.993 23.952C11.2017 25.1462 10.306 25.7433 10.144 26.5568C10.0927 26.8146 10.0927 27.0801 10.144 27.338C10.306 28.1514 11.2017 28.7485 12.993 29.9428L23.8241 37.1635C25.9936 38.6098 27.0784 39.333 27.9651 39.0823C28.2432 39.0037 28.5009 38.8657 28.7206 38.678C29.421 38.0792 29.421 36.7755 29.421 34.1681V29.5H48.5C53.7467 29.5 58 33.7533 58 39C58 44.2467 53.7467 48.5 48.5 48.5H38.3214C36.9407 48.5 35.8214 49.6193 35.8214 51C35.8214 52.3807 36.9407 53.5 38.3214 53.5H48.5C56.5081 53.5 63 47.0081 63 39C63 30.9919 56.5081 24.5 48.5 24.5H29.421V19.7267C29.421 17.1192 29.421 15.8155 28.7206 15.2168C28.5009 15.029 28.2432 14.8911 27.9651 14.8125Z" fill="#3F4549"/>
</svg>
