<svg width="72" height="72" viewBox="0 0 72 72" fill="none" xmlns="http://www.w3.org/2000/svg">
<path fill-rule="evenodd" clip-rule="evenodd" d="M24.48 8.18957C27.5105 8.07581 31.2951 8 36 8C40.7047 8 44.4892 8.0758 47.5198 8.18956C52.3377 8.3704 54.7466 8.46082 56.9886 10.8675C59.2306 13.2743 59.4064 16.1504 59.7579 21.9026C59.9783 25.5081 60.1946 29.3165 60.3387 32.5C60.6556 39.5046 60.8964 49.5345 60.9903 53.772C61.0113 54.7172 61.0217 55.1898 60.7605 55.4907C60.4993 55.7915 60.0736 55.7971 59.2224 55.8082C54.8938 55.8648 43.7324 56 36 56C28.2676 56 17.1062 55.8648 12.7776 55.8082C11.9264 55.7971 11.5008 55.7915 11.2395 55.4907C10.9783 55.1898 10.9887 54.7172 11.0097 53.772C11.1035 49.5345 11.3442 39.5046 11.6612 32.5C11.8053 29.3163 12.0217 25.5076 12.2422 21.9019C12.5938 16.15 12.7696 13.2741 15.0116 10.8675C17.2536 8.46083 19.6624 8.37041 24.48 8.18957ZM36 13C31.3302 13 27.5906 13.0751 24.6128 13.1868C22.0583 13.2825 20.6912 13.3502 19.6633 13.5894C18.9032 13.7663 18.4581 14.0076 17.9111 14.594C16.8474 15.7341 16.5866 16.9094 16.2048 23.146C16.1615 23.8538 16.1183 24.5688 16.0759 25.2849C15.959 27.2574 15.9005 28.2436 16.4935 28.8718C17.0865 29.5 18.0792 29.5 20.0645 29.5H51.9356C53.9208 29.5 54.9134 29.5 55.5064 28.8718C56.0995 28.2437 56.041 27.2574 55.9242 25.285C55.8817 24.5691 55.8386 23.8542 55.7953 23.1466C55.4136 16.9096 55.1528 15.7341 54.0891 14.594C53.5421 14.0077 53.097 13.7663 52.3369 13.5894C51.3088 13.3502 49.9416 13.2825 47.387 13.1867C44.4092 13.0751 40.6696 13 36 13ZM24 47.5C24 49.9853 21.9853 52 19.5 52C17.0147 52 15 49.9853 15 47.5C15 45.0147 17.0147 43 19.5 43C21.9853 43 24 45.0147 24 47.5ZM57 47.5C57 49.9853 54.9853 52 52.5 52C50.0147 52 48 49.9853 48 47.5C48 45.0147 50.0147 43 52.5 43C54.9853 43 57 45.0147 57 47.5Z" fill="#3F4549"/>
<path d="M9.88497 28H8.0687C7.12524 28 6.65351 28 6.36206 28.2849C6.34251 28.304 6.32376 28.3239 6.30584 28.3445C6.0387 28.6523 6.06661 29.1232 6.12242 30.065C6.20257 31.4176 6.24264 32.0938 6.66347 32.5218C6.69191 32.5507 6.72144 32.5785 6.75199 32.6052C7.20412 33 7.88157 33 9.23646 33H9.63707C9.64575 32.801 9.6545 32.6042 9.6633 32.4096C9.72562 31.0327 9.80133 29.5408 9.88497 28Z" fill="#3F4549"/>
<path d="M13.0004 57.8113C13.0002 57.8751 13 57.938 13 58C13 58.6671 13.0155 59.4407 13.0376 60.2061C13.0888 61.9813 13.1144 62.8689 13.6965 63.4345C14.2786 64 15.1857 64 17.0001 64C18.8143 64 19.7214 64 20.3035 63.4345C20.8856 62.869 20.9112 61.9814 20.9625 60.2063C20.9846 59.4409 21 58.6672 21 58L20.9999 57.9045C17.7096 57.8706 14.8261 57.835 13.0004 57.8113Z" fill="#3F4549"/>
<path d="M51 58L51.0002 57.9045C54.2905 57.8706 57.174 57.835 58.9996 57.8113C58.9999 57.8751 59 57.938 59 58C59 58.6672 58.9846 59.4409 58.9625 60.2063C58.9112 61.9814 58.8856 62.869 58.3035 63.4345C57.7214 64 56.8143 64 55 64C53.1857 64 52.2786 64 51.6965 63.4345C51.1144 62.8689 51.0888 61.9813 51.0376 60.2061C51.0155 59.4407 51 58.6671 51 58Z" fill="#3F4549"/>
<path d="M62.3629 33H62.7636C64.1185 33 64.796 33 65.2481 32.6052C65.2787 32.5785 65.3082 32.5507 65.3366 32.5218C65.7574 32.0938 65.7975 31.4175 65.8777 30.065C65.9335 29.1233 65.9614 28.6523 65.6943 28.3445C65.6763 28.3239 65.6576 28.304 65.638 28.2849C65.3466 28 64.8749 28 63.9314 28H62.115C62.1987 29.5408 62.2744 31.0328 62.3367 32.4096C62.3455 32.6042 62.3542 32.801 62.3629 33Z" fill="#3F4549"/>
</svg>
