<svg width="72" height="72" viewBox="0 0 72 72" fill="none" xmlns="http://www.w3.org/2000/svg">
<path d="M37.2603 6.03794C40.757 6.41853 43.2831 9.5617 42.9025 13.0584C42.5219 16.5551 39.3788 19.0813 35.882 18.7007C32.3853 18.3201 29.8592 15.1769 30.2398 11.6802C30.6204 8.18346 33.7636 5.65735 37.2603 6.03794Z" fill="#3F4549"/>
<path d="M21.0021 27.8494L17.9753 33.6508C17.2817 35.0381 17.7861 36.7407 19.1734 37.4974C19.6148 37.6866 20.0563 37.8127 20.4977 37.8127C21.5066 37.8127 22.5156 37.2452 23.02 36.2993L26.0468 30.4979C26.3621 29.9304 26.8036 29.4259 27.3711 29.1106C27.5965 28.9979 27.8721 29.1955 27.8055 29.4386C27.3436 31.1266 26.2089 35.4224 25.9838 37.6866C25.7379 40.1592 26.3235 41.158 27.4341 42.6052C28.5448 44.0524 36.6407 51.8748 36.6407 51.8748C36.6723 51.9379 36.7038 51.9852 36.7353 52.0325C36.7668 52.0798 36.7984 52.1271 36.8299 52.1901L40.8026 63.7929C41.3071 65.1172 42.5683 66 43.9555 66C44.3339 66 44.6492 65.9369 45.0275 65.8108C46.7301 65.2433 47.676 63.3515 47.0454 61.6489L43.0727 50.0461C42.6944 49.0372 42.0638 48.0283 41.3071 47.2715L36.3535 42.2318C36.3535 42.2318 37.6525 38.5507 38.3135 36.2316C38.8357 34.3995 39.366 32.3006 39.6487 31.1584C39.7344 30.8124 40.1638 30.7268 40.3585 31.0254L40.3656 31.0364C40.4244 31.1266 40.4853 31.2201 40.5504 31.3177C41.6224 32.8941 43.325 33.9031 45.2167 34.2184L51.0181 35.1012C52.5946 35.3534 54.045 34.2814 54.2972 32.705C54.5494 31.1285 53.4774 29.6781 51.901 29.4259L46.0995 28.5431C45.7212 28.48 45.469 28.2908 45.2798 28.0386C40.5034 21.0292 39.4486 20.7975 38.0356 20.4871L37.965 20.4716C36.5152 20.1514 34.1861 20.1198 33.2355 20.1563C33.1928 20.1579 33.1503 20.1591 33.1075 20.1604C32.1991 20.1869 31.1551 20.2173 24.4704 24.192C23.02 25.0748 21.8219 26.336 21.0021 27.8494Z" fill="#3F4549"/>
<path d="M27.4972 46.7039L32.605 51.8117L28.1909 63.7298C27.6864 65.054 26.4252 65.8738 25.101 65.8738C24.7226 65.8738 24.3443 65.8107 23.9659 65.6846C22.2634 65.054 21.3805 63.1622 22.0111 61.4597L27.4972 46.7039Z" fill="#3F4549"/>
</svg>
