<svg width="72" height="72" viewBox="0 0 72 72" fill="none" xmlns="http://www.w3.org/2000/svg">
<path d="M40.826 12.8273L62.9878 51.6009C65.0568 55.2207 63.8528 59.8633 60.2986 61.9704C59.1611 62.6447 57.8685 63 56.5524 63H15.4464C11.3339 63 8 59.6046 8 55.4162C8 54.0758 8.34883 52.7593 9.01095 51.6009L31.1728 12.8273C32.7245 10.1125 36.1434 9.19278 38.809 10.7731C39.6446 11.2685 40.3396 11.9763 40.826 12.8273ZM33.2074 26.8528L33.915 42.484C33.915 44.1027 34.61 45.3045 36 45.3045C37.3899 45.3045 38.0849 44.1027 38.0849 42.484L38.7914 26.8528C38.7914 25.2341 37.5414 23.9219 35.9994 23.9219C34.4574 23.9219 33.2074 25.2341 33.2074 26.8528ZM35.9994 57.1383C38.0554 57.1383 39.722 55.3887 39.722 53.2305C39.722 51.0723 38.0554 49.3227 35.9994 49.3227C33.9434 49.3227 32.2767 51.0723 32.2767 53.2305C32.2767 55.3887 33.9434 57.1383 35.9994 57.1383Z" fill="#4A4A4A"/>
</svg>
