<?xml version="1.0" encoding="UTF-8"?>
<svg width="36px" height="34px" viewBox="0 0 36 34" version="1.1" xmlns="http://www.w3.org/2000/svg" xmlns:xlink="http://www.w3.org/1999/xlink">
    <!-- Generator: sketchtool 63.1 (101010) - https://sketch.com -->
    <title>Elements/Icons/Warning1</title>
    <desc>Created with sketchtool.</desc>
    <g id="Icons" stroke="none" stroke-width="1" fill="none" fill-rule="evenodd">
        <g transform="translate(-207.000000, -408.000000)" id="Elements/Icons/Warning1">
            <g transform="translate(190.000000, 390.000000)">
                <g>
                    <polygon id="Rectangle" points="0 0 70 0 70 70 0 70"></polygon>
                    <path d="M38.1024115,19.8137383 L52.3493178,44.6873637 C53.679364,47.0094867 52.9053497,49.9877481 50.6205085,51.3394967 C49.8892946,51.7720946 49.0583285,52 48.212247,52 L21.7869697,52 C19.1431993,52 17,49.8218299 17,47.134921 C17,46.275034 17.2242464,45.4305089 17.6498989,44.6873637 L31.8968052,19.8137383 C32.8943398,18.0721461 35.0921737,17.4821631 36.8058045,18.4959746 C37.3429533,18.8137604 37.7897277,19.2678248 38.1024115,19.8137383 Z M33.20476,28.811215 L33.6596185,38.8387977 C33.6596185,39.8771879 34.1064023,40.648149 34.99997,40.648149 C35.8935377,40.648149 36.3403215,39.8771879 36.3403215,38.8387977 L36.7944567,28.811215 C36.7944567,27.7728248 35.9908757,26.9310433 34.9996083,26.9310433 C34.008341,26.9310433 33.20476,27.7728248 33.20476,28.811215 Z M34.9996083,48.2396565 C36.3212982,48.2396565 37.3927394,47.1172811 37.3927394,45.7327608 C37.3927394,44.3482406 36.3212982,43.2258651 34.9996083,43.2258651 C33.6779185,43.2258651 32.6064772,44.3482406 32.6064772,45.7327608 C32.6064772,47.1172811 33.6779185,48.2396565 34.9996083,48.2396565 Z" id="Shape" fill="#4A4A4A" fill-rule="nonzero"></path>
                </g>
            </g>
        </g>
    </g>
</svg>