<svg width="73" height="72" viewBox="0 0 73 72" fill="none" xmlns="http://www.w3.org/2000/svg">
<path d="M41.326 12.8273L63.4878 51.6009C65.5568 55.2207 64.3528 59.8633 60.7986 61.9704C59.6611 62.6447 58.3685 63 57.0524 63H15.9464C11.8339 63 8.5 59.6046 8.5 55.4162C8.5 54.0758 8.84883 52.7593 9.51095 51.6009L31.6728 12.8273C33.2245 10.1125 36.6434 9.19278 39.309 10.7731C40.1446 11.2685 40.8396 11.9763 41.326 12.8273ZM33.7074 26.8528L34.415 42.484C34.415 44.1027 35.11 45.3045 36.5 45.3045C37.8899 45.3045 38.5849 44.1027 38.5849 42.484L39.2914 26.8528C39.2914 25.2341 38.0414 23.9219 36.4994 23.9219C34.9574 23.9219 33.7074 25.2341 33.7074 26.8528ZM36.4994 57.1383C38.5554 57.1383 40.222 55.3887 40.222 53.2305C40.222 51.0723 38.5554 49.3227 36.4994 49.3227C34.4434 49.3227 32.7767 51.0723 32.7767 53.2305C32.7767 55.3887 34.4434 57.1383 36.4994 57.1383Z" fill="#3F4549"/>
</svg>
