<svg width="72" height="72" viewBox="0 0 72 72" fill="none" xmlns="http://www.w3.org/2000/svg">
<path d="M63.1353 19.5183C64.186 20.7498 64.1127 22.5939 62.912 23.6796C57.8382 28.2676 53.8914 30.1505 49.5188 29.9907C44.9113 29.8222 40.5 27.7344 33.6737 23.1163C28.5503 19.6502 25.8774 18.3853 23.3707 18.3853C21.2992 18.3853 17.9055 19.4531 13.4631 23.1919C12.0929 24.3452 10.0271 24.2696 8.8647 22.9071C7.814 21.6757 7.88672 19.8303 9.10373 18.7629C14.5032 14.0271 19.3854 12 23.3707 12C27.7978 12 31.8157 14.3136 36.8405 17.713C43.5327 22.2404 46.7954 23.5021 49.7209 23.6091C51.9108 23.6891 54.3451 22.9606 58.5612 19.2608C59.9073 18.0795 61.9729 18.1559 63.1353 19.5183Z" fill="#3F4549"/>
<path d="M63.1353 34.5183C64.186 35.7498 64.1127 37.5939 62.912 38.6796C57.8382 43.2676 53.8914 45.1505 49.5188 44.9907C44.9113 44.8222 40.5 42.7344 33.6737 38.1163C28.5503 34.6502 25.8774 33.3853 23.3707 33.3853C21.2992 33.3853 17.9055 34.4531 13.4631 38.1919C12.0929 39.3452 10.0271 39.2696 8.8647 37.9071C7.814 36.6757 7.88672 34.8303 9.10373 33.7629C14.5032 29.0271 19.3854 27 23.3707 27C27.7978 27 31.8157 29.3136 36.8405 32.713C43.5327 37.2404 46.7954 38.5021 49.7209 38.6091C51.9108 38.6891 54.3451 37.9606 58.5612 34.2608C59.9073 33.0795 61.9729 33.1559 63.1353 34.5183Z" fill="#3F4549"/>
<path d="M62.912 53.6796C64.1127 52.5939 64.186 50.7498 63.1353 49.5183C61.9729 48.1559 59.9073 48.0795 58.5612 49.2608C54.3451 52.9606 51.9108 53.6891 49.7209 53.6091C46.7954 53.5021 43.5327 52.2404 36.8405 47.713C31.8157 44.3136 27.7978 42 23.3707 42C19.3854 42 14.5032 44.0271 9.10373 48.7629C7.88672 49.8303 7.814 51.6757 8.8647 52.9071C10.0271 54.2696 12.0929 54.3452 13.4631 53.1919C17.9055 49.4531 21.2992 48.3853 23.3707 48.3853C25.8774 48.3853 28.5503 49.6502 33.6737 53.1163C40.5 57.7344 44.9113 59.8222 49.5188 59.9907C53.8914 60.1505 57.8382 58.2676 62.912 53.6796Z" fill="#3F4549"/>
</svg>
