<svg width="72" height="72" viewBox="0 0 72 72" fill="none" xmlns="http://www.w3.org/2000/svg">
<path fill-rule="evenodd" clip-rule="evenodd" d="M47.6431 29.6459C51.2329 23.3823 49.1025 15.373 42.8847 11.7567C36.6669 8.14038 28.7163 10.2865 25.1264 16.5501C21.878 22.218 23.3134 29.3152 28.2228 33.2935L22.0946 43.9862C21.7423 43.907 21.376 43.8652 21 43.8652C18.2386 43.8652 16 46.1202 16 48.902C16 51.6838 18.2386 53.9389 21 53.9389C23.7614 53.9389 26 51.6838 26 48.902C26 47.9876 25.7581 47.13 25.3352 46.3908L33.6079 31.9565L31.3858 30.6641C27.4676 28.0407 26.1829 22.7508 28.5841 18.5611C31.0824 14.2021 36.5995 12.7284 40.8957 15.2271C45.1919 17.7258 46.6836 23.2759 44.1854 27.6349L47.6431 29.6459ZM36 27.7472C36.1903 27.7472 36.378 27.7365 36.5628 27.7157L44.7758 42.0459L46.9624 40.7742C51.1825 38.6434 56.3932 40.1646 58.8006 44.3651C61.2989 48.7241 59.8072 54.2742 55.511 56.7729C51.2148 59.2716 45.6977 57.7979 43.1994 53.4389L39.7417 55.45C43.3316 61.7136 51.2822 63.8596 57.5 60.2433C63.7178 56.627 65.8482 48.6177 62.2584 42.3541C59.0108 36.6876 52.1942 34.391 46.3204 36.6821L40.0255 25.6985C40.638 24.8626 41 23.8291 41 22.7104C41 19.9286 38.7614 17.6735 36 17.6735C33.2386 17.6735 31 19.9286 31 22.7104C31 25.4922 33.2386 27.7472 36 27.7472ZM56 48.902C56 51.6838 53.7614 53.9389 51 53.9389C48.9497 53.9389 47.1876 52.6957 46.416 50.9168H33.8471C32.8851 57.1929 27.4996 61.9978 21 61.9978C13.8203 61.9978 8 56.1346 8 48.902C8 41.6694 13.8203 35.8062 21 35.8062V39.8062C16.0571 39.8062 12 43.8508 12 48.902C12 53.9533 16.0571 57.9978 21 57.9978C25.9429 57.9978 30 53.9533 30 48.902V46.8873H46.416C47.1876 45.1084 48.9497 43.8652 51 43.8652C53.7614 43.8652 56 46.1202 56 48.902Z" fill="#3F4549"/>
</svg>
